<?xml version="1.0" encoding="utf-8" standalone="no"?>
<!DOCTYPE svg PUBLIC "-//W3C//DTD SVG 1.1//EN"
  "http://www.w3.org/Graphics/SVG/1.1/DTD/svg11.dtd">
<svg xmlns:xlink="http://www.w3.org/1999/xlink" width="720pt" height="432pt" viewBox="0 0 720 432" xmlns="http://www.w3.org/2000/svg" version="1.1">
 <metadata>
  <rdf:RDF xmlns:dc="http://purl.org/dc/elements/1.1/" xmlns:cc="http://creativecommons.org/ns#" xmlns:rdf="http://www.w3.org/1999/02/22-rdf-syntax-ns#">
   <cc:Work>
    <dc:type rdf:resource="http://purl.org/dc/dcmitype/StillImage"/>
    <dc:date>2025-04-26T15:15:34.834867</dc:date>
    <dc:format>image/svg+xml</dc:format>
    <dc:creator>
     <cc:Agent>
      <dc:title>Matplotlib v3.9.2, https://matplotlib.org/</dc:title>
     </cc:Agent>
    </dc:creator>
   </cc:Work>
  </rdf:RDF>
 </metadata>
 <defs>
  <style type="text/css">*{stroke-linejoin: round; stroke-linecap: butt}</style>
 </defs>
 <g id="figure_1">
  <g id="patch_1">
   <path d="M 0 432 
L 720 432 
L 720 0 
L 0 0 
z
" style="fill: #292c33"/>
  </g>
  <g id="axes_1">
   <g id="patch_2">
    <path d="M 90 384.48 
L 648 384.48 
L 648 51.84 
L 90 51.84 
z
" style="fill: #292c33"/>
   </g>
   <g id="PolyCollection_1">
    <defs>
     <path id="maa248ae9ce" d="M 115.363636 -49.104395 
L 115.363636 -49.104404 
L 120.487603 -49.104412 
L 125.61157 -49.104429 
L 130.735537 -49.104459 
L 135.859504 -49.104517 
L 140.983471 -49.104622 
L 146.107438 -49.104814 
L 151.231405 -49.105158 
L 156.355372 -49.105766 
L 161.479339 -49.106827 
L 166.603306 -49.108656 
L 171.727273 -49.111767 
L 176.85124 -49.116984 
L 181.975207 -49.125619 
L 187.099174 -49.139714 
L 192.22314 -49.162406 
L 197.347107 -49.198431 
L 202.471074 -49.254821 
L 207.595041 -49.341838 
L 212.719008 -49.474197 
L 217.842975 -49.67262 
L 222.966942 -49.965743 
L 228.090909 -50.392387 
L 233.214876 -51.004125 
L 238.338843 -51.868057 
L 243.46281 -53.069577 
L 248.586777 -54.714848 
L 253.710744 -56.932602 
L 258.834711 -59.874746 
L 263.958678 -63.715241 
L 269.082645 -68.646647 
L 274.206612 -74.873805 
L 279.330579 -82.604244 
L 284.454545 -92.035171 
L 289.578512 -103.33722 
L 294.702479 -116.635603 
L 299.826446 -131.989775 
L 304.950413 -149.373216 
L 310.07438 -168.655346 
L 315.198347 -189.587805 
L 320.322314 -211.797377 
L 325.446281 -234.787515 
L 330.570248 -257.949878 
L 335.694215 -280.586389 
L 340.818182 -301.941263 
L 345.942149 -321.241296 
L 351.066116 -337.74159 
L 356.190083 -350.773032 
L 361.31405 -359.787341 
L 366.438017 -364.395447 
L 371.561983 -364.395447 
L 376.68595 -359.787341 
L 381.809917 -350.773032 
L 386.933884 -337.74159 
L 392.057851 -321.241296 
L 397.181818 -301.941263 
L 402.305785 -280.586389 
L 407.429752 -257.949878 
L 412.553719 -234.787515 
L 417.677686 -211.797377 
L 422.801653 -189.587805 
L 427.92562 -168.655346 
L 433.049587 -149.373216 
L 438.173554 -131.989775 
L 443.297521 -116.635603 
L 448.421488 -103.33722 
L 453.545455 -92.035171 
L 458.669421 -82.604244 
L 463.793388 -74.873805 
L 468.917355 -68.646647 
L 474.041322 -63.715241 
L 479.165289 -59.874746 
L 484.289256 -56.932602 
L 489.413223 -54.714848 
L 494.53719 -53.069577 
L 499.661157 -51.868057 
L 504.785124 -51.004125 
L 509.909091 -50.392387 
L 515.033058 -49.965743 
L 520.157025 -49.67262 
L 525.280992 -49.474197 
L 530.404959 -49.341838 
L 535.528926 -49.254821 
L 540.652893 -49.198431 
L 545.77686 -49.162406 
L 550.900826 -49.139714 
L 556.024793 -49.125619 
L 561.14876 -49.116984 
L 566.272727 -49.111767 
L 571.396694 -49.108656 
L 576.520661 -49.106827 
L 581.644628 -49.105766 
L 586.768595 -49.105158 
L 591.892562 -49.104814 
L 597.016529 -49.104622 
L 602.140496 -49.104517 
L 607.264463 -49.104459 
L 612.38843 -49.104429 
L 617.512397 -49.104412 
L 622.636364 -49.104404 
L 622.636364 -49.104395 
L 622.636364 -49.104395 
L 617.512397 -49.104395 
L 612.38843 -49.104395 
L 607.264463 -49.104395 
L 602.140496 -49.104395 
L 597.016529 -49.104395 
L 591.892562 -49.104395 
L 586.768595 -49.104395 
L 581.644628 -49.104395 
L 576.520661 -49.104395 
L 571.396694 -49.104395 
L 566.272727 -49.104395 
L 561.14876 -49.104395 
L 556.024793 -49.104395 
L 550.900826 -49.104395 
L 545.77686 -49.104395 
L 540.652893 -49.104395 
L 535.528926 -49.104395 
L 530.404959 -49.104395 
L 525.280992 -49.104395 
L 520.157025 -49.104395 
L 515.033058 -49.104395 
L 509.909091 -49.104395 
L 504.785124 -49.104395 
L 499.661157 -49.104395 
L 494.53719 -49.104395 
L 489.413223 -49.104395 
L 484.289256 -49.104395 
L 479.165289 -49.104395 
L 474.041322 -49.104395 
L 468.917355 -49.104395 
L 463.793388 -49.104395 
L 458.669421 -49.104395 
L 453.545455 -49.104395 
L 448.421488 -49.104395 
L 443.297521 -49.104395 
L 438.173554 -49.104395 
L 433.049587 -49.104395 
L 427.92562 -49.104395 
L 422.801653 -49.104395 
L 417.677686 -49.104395 
L 412.553719 -49.104395 
L 407.429752 -49.104395 
L 402.305785 -49.104395 
L 397.181818 -49.104395 
L 392.057851 -49.104395 
L 386.933884 -49.104395 
L 381.809917 -49.104395 
L 376.68595 -49.104395 
L 371.561983 -49.104395 
L 366.438017 -49.104395 
L 361.31405 -49.104395 
L 356.190083 -49.104395 
L 351.066116 -49.104395 
L 345.942149 -49.104395 
L 340.818182 -49.104395 
L 335.694215 -49.104395 
L 330.570248 -49.104395 
L 325.446281 -49.104395 
L 320.322314 -49.104395 
L 315.198347 -49.104395 
L 310.07438 -49.104395 
L 304.950413 -49.104395 
L 299.826446 -49.104395 
L 294.702479 -49.104395 
L 289.578512 -49.104395 
L 284.454545 -49.104395 
L 279.330579 -49.104395 
L 274.206612 -49.104395 
L 269.082645 -49.104395 
L 263.958678 -49.104395 
L 258.834711 -49.104395 
L 253.710744 -49.104395 
L 248.586777 -49.104395 
L 243.46281 -49.104395 
L 238.338843 -49.104395 
L 233.214876 -49.104395 
L 228.090909 -49.104395 
L 222.966942 -49.104395 
L 217.842975 -49.104395 
L 212.719008 -49.104395 
L 207.595041 -49.104395 
L 202.471074 -49.104395 
L 197.347107 -49.104395 
L 192.22314 -49.104395 
L 187.099174 -49.104395 
L 181.975207 -49.104395 
L 176.85124 -49.104395 
L 171.727273 -49.104395 
L 166.603306 -49.104395 
L 161.479339 -49.104395 
L 156.355372 -49.104395 
L 151.231405 -49.104395 
L 146.107438 -49.104395 
L 140.983471 -49.104395 
L 135.859504 -49.104395 
L 130.735537 -49.104395 
L 125.61157 -49.104395 
L 120.487603 -49.104395 
L 115.363636 -49.104395 
z
" style="stroke: #b979d5; stroke-opacity: 0.2"/>
    </defs>
    <g clip-path="url(#pb502f4ade1)">
     <use xlink:href="#maa248ae9ce" x="0" y="432" style="fill: #b979d5; fill-opacity: 0.2; stroke: #b979d5; stroke-opacity: 0.2"/>
    </g>
   </g>
   <g id="matplotlib.axis_1">
    <g id="xtick_1">
     <g id="line2d_1">
      <defs>
       <path id="meb6f4c3bd7" d="M 0 0 
L 0 3.5 
" style="stroke: #bbc1cd; stroke-width: 0.8"/>
      </defs>
      <g>
       <use xlink:href="#meb6f4c3bd7" x="115.363636" y="384.48" style="fill: #bbc1cd; stroke: #bbc1cd; stroke-width: 0.8"/>
      </g>
     </g>
     <g id="text_1">
      <!-- −6 -->
      <g style="fill: #bbc1cd" transform="translate(107.992543 399.078438) scale(0.1 -0.1)">
       <defs>
        <path id="DejaVuSans-2212" d="M 678 2272 
L 4684 2272 
L 4684 1741 
L 678 1741 
L 678 2272 
z
" transform="scale(0.015625)"/>
        <path id="DejaVuSans-36" d="M 2113 2584 
Q 1688 2584 1439 2293 
Q 1191 2003 1191 1497 
Q 1191 994 1439 701 
Q 1688 409 2113 409 
Q 2538 409 2786 701 
Q 3034 994 3034 1497 
Q 3034 2003 2786 2293 
Q 2538 2584 2113 2584 
z
M 3366 4563 
L 3366 3988 
Q 3128 4100 2886 4159 
Q 2644 4219 2406 4219 
Q 1781 4219 1451 3797 
Q 1122 3375 1075 2522 
Q 1259 2794 1537 2939 
Q 1816 3084 2150 3084 
Q 2853 3084 3261 2657 
Q 3669 2231 3669 1497 
Q 3669 778 3244 343 
Q 2819 -91 2113 -91 
Q 1303 -91 875 529 
Q 447 1150 447 2328 
Q 447 3434 972 4092 
Q 1497 4750 2381 4750 
Q 2619 4750 2861 4703 
Q 3103 4656 3366 4563 
z
" transform="scale(0.015625)"/>
       </defs>
       <use xlink:href="#DejaVuSans-2212"/>
       <use xlink:href="#DejaVuSans-36" x="83.789062"/>
      </g>
     </g>
    </g>
    <g id="xtick_2">
     <g id="line2d_2">
      <g>
       <use xlink:href="#meb6f4c3bd7" x="199.909091" y="384.48" style="fill: #bbc1cd; stroke: #bbc1cd; stroke-width: 0.8"/>
      </g>
     </g>
     <g id="text_2">
      <!-- −4 -->
      <g style="fill: #bbc1cd" transform="translate(192.537997 399.078438) scale(0.1 -0.1)">
       <defs>
        <path id="DejaVuSans-34" d="M 2419 4116 
L 825 1625 
L 2419 1625 
L 2419 4116 
z
M 2253 4666 
L 3047 4666 
L 3047 1625 
L 3713 1625 
L 3713 1100 
L 3047 1100 
L 3047 0 
L 2419 0 
L 2419 1100 
L 313 1100 
L 313 1709 
L 2253 4666 
z
" transform="scale(0.015625)"/>
       </defs>
       <use xlink:href="#DejaVuSans-2212"/>
       <use xlink:href="#DejaVuSans-34" x="83.789062"/>
      </g>
     </g>
    </g>
    <g id="xtick_3">
     <g id="line2d_3">
      <g>
       <use xlink:href="#meb6f4c3bd7" x="284.454545" y="384.48" style="fill: #bbc1cd; stroke: #bbc1cd; stroke-width: 0.8"/>
      </g>
     </g>
     <g id="text_3">
      <!-- −2 -->
      <g style="fill: #bbc1cd" transform="translate(277.083452 399.078438) scale(0.1 -0.1)">
       <defs>
        <path id="DejaVuSans-32" d="M 1228 531 
L 3431 531 
L 3431 0 
L 469 0 
L 469 531 
Q 828 903 1448 1529 
Q 2069 2156 2228 2338 
Q 2531 2678 2651 2914 
Q 2772 3150 2772 3378 
Q 2772 3750 2511 3984 
Q 2250 4219 1831 4219 
Q 1534 4219 1204 4116 
Q 875 4013 500 3803 
L 500 4441 
Q 881 4594 1212 4672 
Q 1544 4750 1819 4750 
Q 2544 4750 2975 4387 
Q 3406 4025 3406 3419 
Q 3406 3131 3298 2873 
Q 3191 2616 2906 2266 
Q 2828 2175 2409 1742 
Q 1991 1309 1228 531 
z
" transform="scale(0.015625)"/>
       </defs>
       <use xlink:href="#DejaVuSans-2212"/>
       <use xlink:href="#DejaVuSans-32" x="83.789062"/>
      </g>
     </g>
    </g>
    <g id="xtick_4">
     <g id="line2d_4">
      <g>
       <use xlink:href="#meb6f4c3bd7" x="369" y="384.48" style="fill: #bbc1cd; stroke: #bbc1cd; stroke-width: 0.8"/>
      </g>
     </g>
     <g id="text_4">
      <!-- 0 -->
      <g style="fill: #bbc1cd" transform="translate(365.81875 399.078438) scale(0.1 -0.1)">
       <defs>
        <path id="DejaVuSans-30" d="M 2034 4250 
Q 1547 4250 1301 3770 
Q 1056 3291 1056 2328 
Q 1056 1369 1301 889 
Q 1547 409 2034 409 
Q 2525 409 2770 889 
Q 3016 1369 3016 2328 
Q 3016 3291 2770 3770 
Q 2525 4250 2034 4250 
z
M 2034 4750 
Q 2819 4750 3233 4129 
Q 3647 3509 3647 2328 
Q 3647 1150 3233 529 
Q 2819 -91 2034 -91 
Q 1250 -91 836 529 
Q 422 1150 422 2328 
Q 422 3509 836 4129 
Q 1250 4750 2034 4750 
z
" transform="scale(0.015625)"/>
       </defs>
       <use xlink:href="#DejaVuSans-30"/>
      </g>
     </g>
    </g>
    <g id="xtick_5">
     <g id="line2d_5">
      <g>
       <use xlink:href="#meb6f4c3bd7" x="453.545455" y="384.48" style="fill: #bbc1cd; stroke: #bbc1cd; stroke-width: 0.8"/>
      </g>
     </g>
     <g id="text_5">
      <!-- 2 -->
      <g style="fill: #bbc1cd" transform="translate(450.364205 399.078438) scale(0.1 -0.1)">
       <use xlink:href="#DejaVuSans-32"/>
      </g>
     </g>
    </g>
    <g id="xtick_6">
     <g id="line2d_6">
      <g>
       <use xlink:href="#meb6f4c3bd7" x="538.090909" y="384.48" style="fill: #bbc1cd; stroke: #bbc1cd; stroke-width: 0.8"/>
      </g>
     </g>
     <g id="text_6">
      <!-- 4 -->
      <g style="fill: #bbc1cd" transform="translate(534.909659 399.078438) scale(0.1 -0.1)">
       <use xlink:href="#DejaVuSans-34"/>
      </g>
     </g>
    </g>
    <g id="xtick_7">
     <g id="line2d_7">
      <g>
       <use xlink:href="#meb6f4c3bd7" x="622.636364" y="384.48" style="fill: #bbc1cd; stroke: #bbc1cd; stroke-width: 0.8"/>
      </g>
     </g>
     <g id="text_7">
      <!-- 6 -->
      <g style="fill: #bbc1cd" transform="translate(619.455114 399.078438) scale(0.1 -0.1)">
       <use xlink:href="#DejaVuSans-36"/>
      </g>
     </g>
    </g>
    <g id="text_8">
     <!-- Standardized Difference -->
     <g style="fill: #bbc1cd" transform="translate(300.364844 412.756563) scale(0.1 -0.1)">
      <defs>
       <path id="DejaVuSans-Bold-53" d="M 3834 4519 
L 3834 3531 
Q 3450 3703 3084 3790 
Q 2719 3878 2394 3878 
Q 1963 3878 1756 3759 
Q 1550 3641 1550 3391 
Q 1550 3203 1689 3098 
Q 1828 2994 2194 2919 
L 2706 2816 
Q 3484 2659 3812 2340 
Q 4141 2022 4141 1434 
Q 4141 663 3683 286 
Q 3225 -91 2284 -91 
Q 1841 -91 1394 -6 
Q 947 78 500 244 
L 500 1259 
Q 947 1022 1364 901 
Q 1781 781 2169 781 
Q 2563 781 2772 912 
Q 2981 1044 2981 1288 
Q 2981 1506 2839 1625 
Q 2697 1744 2272 1838 
L 1806 1941 
Q 1106 2091 782 2419 
Q 459 2747 459 3303 
Q 459 4000 909 4375 
Q 1359 4750 2203 4750 
Q 2588 4750 2994 4692 
Q 3400 4634 3834 4519 
z
" transform="scale(0.015625)"/>
       <path id="DejaVuSans-Bold-74" d="M 1759 4494 
L 1759 3500 
L 2913 3500 
L 2913 2700 
L 1759 2700 
L 1759 1216 
Q 1759 972 1856 886 
Q 1953 800 2241 800 
L 2816 800 
L 2816 0 
L 1856 0 
Q 1194 0 917 276 
Q 641 553 641 1216 
L 641 2700 
L 84 2700 
L 84 3500 
L 641 3500 
L 641 4494 
L 1759 4494 
z
" transform="scale(0.015625)"/>
       <path id="DejaVuSans-Bold-61" d="M 2106 1575 
Q 1756 1575 1579 1456 
Q 1403 1338 1403 1106 
Q 1403 894 1545 773 
Q 1688 653 1941 653 
Q 2256 653 2472 879 
Q 2688 1106 2688 1447 
L 2688 1575 
L 2106 1575 
z
M 3816 1997 
L 3816 0 
L 2688 0 
L 2688 519 
Q 2463 200 2181 54 
Q 1900 -91 1497 -91 
Q 953 -91 614 226 
Q 275 544 275 1050 
Q 275 1666 698 1953 
Q 1122 2241 2028 2241 
L 2688 2241 
L 2688 2328 
Q 2688 2594 2478 2717 
Q 2269 2841 1825 2841 
Q 1466 2841 1156 2769 
Q 847 2697 581 2553 
L 581 3406 
Q 941 3494 1303 3539 
Q 1666 3584 2028 3584 
Q 2975 3584 3395 3211 
Q 3816 2838 3816 1997 
z
" transform="scale(0.015625)"/>
       <path id="DejaVuSans-Bold-6e" d="M 4056 2131 
L 4056 0 
L 2931 0 
L 2931 347 
L 2931 1631 
Q 2931 2084 2911 2256 
Q 2891 2428 2841 2509 
Q 2775 2619 2662 2680 
Q 2550 2741 2406 2741 
Q 2056 2741 1856 2470 
Q 1656 2200 1656 1722 
L 1656 0 
L 538 0 
L 538 3500 
L 1656 3500 
L 1656 2988 
Q 1909 3294 2193 3439 
Q 2478 3584 2822 3584 
Q 3428 3584 3742 3212 
Q 4056 2841 4056 2131 
z
" transform="scale(0.015625)"/>
       <path id="DejaVuSans-Bold-64" d="M 2919 2988 
L 2919 4863 
L 4044 4863 
L 4044 0 
L 2919 0 
L 2919 506 
Q 2688 197 2409 53 
Q 2131 -91 1766 -91 
Q 1119 -91 703 423 
Q 288 938 288 1747 
Q 288 2556 703 3070 
Q 1119 3584 1766 3584 
Q 2128 3584 2408 3439 
Q 2688 3294 2919 2988 
z
M 2181 722 
Q 2541 722 2730 984 
Q 2919 1247 2919 1747 
Q 2919 2247 2730 2509 
Q 2541 2772 2181 2772 
Q 1825 2772 1636 2509 
Q 1447 2247 1447 1747 
Q 1447 1247 1636 984 
Q 1825 722 2181 722 
z
" transform="scale(0.015625)"/>
       <path id="DejaVuSans-Bold-72" d="M 3138 2547 
Q 2991 2616 2845 2648 
Q 2700 2681 2553 2681 
Q 2122 2681 1889 2404 
Q 1656 2128 1656 1613 
L 1656 0 
L 538 0 
L 538 3500 
L 1656 3500 
L 1656 2925 
Q 1872 3269 2151 3426 
Q 2431 3584 2822 3584 
Q 2878 3584 2943 3579 
Q 3009 3575 3134 3559 
L 3138 2547 
z
" transform="scale(0.015625)"/>
       <path id="DejaVuSans-Bold-69" d="M 538 3500 
L 1656 3500 
L 1656 0 
L 538 0 
L 538 3500 
z
M 538 4863 
L 1656 4863 
L 1656 3950 
L 538 3950 
L 538 4863 
z
" transform="scale(0.015625)"/>
       <path id="DejaVuSans-Bold-7a" d="M 366 3500 
L 3419 3500 
L 3419 2719 
L 1575 800 
L 3419 800 
L 3419 0 
L 288 0 
L 288 781 
L 2131 2700 
L 366 2700 
L 366 3500 
z
" transform="scale(0.015625)"/>
       <path id="DejaVuSans-Bold-65" d="M 4031 1759 
L 4031 1441 
L 1416 1441 
Q 1456 1047 1700 850 
Q 1944 653 2381 653 
Q 2734 653 3104 758 
Q 3475 863 3866 1075 
L 3866 213 
Q 3469 63 3072 -14 
Q 2675 -91 2278 -91 
Q 1328 -91 801 392 
Q 275 875 275 1747 
Q 275 2603 792 3093 
Q 1309 3584 2216 3584 
Q 3041 3584 3536 3087 
Q 4031 2591 4031 1759 
z
M 2881 2131 
Q 2881 2450 2695 2645 
Q 2509 2841 2209 2841 
Q 1884 2841 1681 2658 
Q 1478 2475 1428 2131 
L 2881 2131 
z
" transform="scale(0.015625)"/>
       <path id="DejaVuSans-Bold-20" transform="scale(0.015625)"/>
       <path id="DejaVuSans-Bold-44" d="M 1791 3756 
L 1791 909 
L 2222 909 
Q 2959 909 3348 1275 
Q 3738 1641 3738 2338 
Q 3738 3031 3350 3393 
Q 2963 3756 2222 3756 
L 1791 3756 
z
M 588 4666 
L 1856 4666 
Q 2919 4666 3439 4514 
Q 3959 4363 4331 4000 
Q 4659 3684 4818 3271 
Q 4978 2859 4978 2338 
Q 4978 1809 4818 1395 
Q 4659 981 4331 666 
Q 3956 303 3431 151 
Q 2906 0 1856 0 
L 588 0 
L 588 4666 
z
" transform="scale(0.015625)"/>
       <path id="DejaVuSans-Bold-66" d="M 2841 4863 
L 2841 4128 
L 2222 4128 
Q 1984 4128 1890 4042 
Q 1797 3956 1797 3744 
L 1797 3500 
L 2753 3500 
L 2753 2700 
L 1797 2700 
L 1797 0 
L 678 0 
L 678 2700 
L 122 2700 
L 122 3500 
L 678 3500 
L 678 3744 
Q 678 4316 997 4589 
Q 1316 4863 1984 4863 
L 2841 4863 
z
" transform="scale(0.015625)"/>
       <path id="DejaVuSans-Bold-63" d="M 3366 3391 
L 3366 2478 
Q 3138 2634 2908 2709 
Q 2678 2784 2431 2784 
Q 1963 2784 1702 2511 
Q 1441 2238 1441 1747 
Q 1441 1256 1702 982 
Q 1963 709 2431 709 
Q 2694 709 2930 787 
Q 3166 866 3366 1019 
L 3366 103 
Q 3103 6 2833 -42 
Q 2563 -91 2291 -91 
Q 1344 -91 809 395 
Q 275 881 275 1747 
Q 275 2613 809 3098 
Q 1344 3584 2291 3584 
Q 2566 3584 2833 3536 
Q 3100 3488 3366 3391 
z
" transform="scale(0.015625)"/>
      </defs>
      <use xlink:href="#DejaVuSans-Bold-53"/>
      <use xlink:href="#DejaVuSans-Bold-74" x="72.021484"/>
      <use xlink:href="#DejaVuSans-Bold-61" x="119.824219"/>
      <use xlink:href="#DejaVuSans-Bold-6e" x="187.304688"/>
      <use xlink:href="#DejaVuSans-Bold-64" x="258.496094"/>
      <use xlink:href="#DejaVuSans-Bold-61" x="330.078125"/>
      <use xlink:href="#DejaVuSans-Bold-72" x="397.558594"/>
      <use xlink:href="#DejaVuSans-Bold-64" x="446.875"/>
      <use xlink:href="#DejaVuSans-Bold-69" x="518.457031"/>
      <use xlink:href="#DejaVuSans-Bold-7a" x="552.734375"/>
      <use xlink:href="#DejaVuSans-Bold-65" x="610.9375"/>
      <use xlink:href="#DejaVuSans-Bold-64" x="678.759766"/>
      <use xlink:href="#DejaVuSans-Bold-20" x="750.341797"/>
      <use xlink:href="#DejaVuSans-Bold-44" x="785.15625"/>
      <use xlink:href="#DejaVuSans-Bold-69" x="868.164062"/>
      <use xlink:href="#DejaVuSans-Bold-66" x="902.441406"/>
      <use xlink:href="#DejaVuSans-Bold-66" x="945.947266"/>
      <use xlink:href="#DejaVuSans-Bold-65" x="989.453125"/>
      <use xlink:href="#DejaVuSans-Bold-72" x="1057.275391"/>
      <use xlink:href="#DejaVuSans-Bold-65" x="1106.591797"/>
      <use xlink:href="#DejaVuSans-Bold-6e" x="1174.414062"/>
      <use xlink:href="#DejaVuSans-Bold-63" x="1245.605469"/>
      <use xlink:href="#DejaVuSans-Bold-65" x="1304.882812"/>
     </g>
    </g>
   </g>
   <g id="matplotlib.axis_2">
    <g id="ytick_1">
     <g id="line2d_8">
      <defs>
       <path id="m869f49d28f" d="M 0 0 
L -3.5 0 
" style="stroke: #bbc1cd; stroke-width: 0.8"/>
      </defs>
      <g>
       <use xlink:href="#m869f49d28f" x="90" y="382.895605" style="fill: #bbc1cd; stroke: #bbc1cd; stroke-width: 0.8"/>
      </g>
     </g>
     <g id="text_9">
      <!-- 0.00 -->
      <g style="fill: #bbc1cd" transform="translate(60.734375 386.694824) scale(0.1 -0.1)">
       <defs>
        <path id="DejaVuSans-2e" d="M 684 794 
L 1344 794 
L 1344 0 
L 684 0 
L 684 794 
z
" transform="scale(0.015625)"/>
       </defs>
       <use xlink:href="#DejaVuSans-30"/>
       <use xlink:href="#DejaVuSans-2e" x="63.623047"/>
       <use xlink:href="#DejaVuSans-30" x="95.410156"/>
       <use xlink:href="#DejaVuSans-30" x="159.033203"/>
      </g>
     </g>
    </g>
    <g id="ytick_2">
     <g id="line2d_9">
      <g>
       <use xlink:href="#m869f49d28f" x="90" y="343.285738" style="fill: #bbc1cd; stroke: #bbc1cd; stroke-width: 0.8"/>
      </g>
     </g>
     <g id="text_10">
      <!-- 0.05 -->
      <g style="fill: #bbc1cd" transform="translate(60.734375 347.084957) scale(0.1 -0.1)">
       <defs>
        <path id="DejaVuSans-35" d="M 691 4666 
L 3169 4666 
L 3169 4134 
L 1269 4134 
L 1269 2991 
Q 1406 3038 1543 3061 
Q 1681 3084 1819 3084 
Q 2600 3084 3056 2656 
Q 3513 2228 3513 1497 
Q 3513 744 3044 326 
Q 2575 -91 1722 -91 
Q 1428 -91 1123 -41 
Q 819 9 494 109 
L 494 744 
Q 775 591 1075 516 
Q 1375 441 1709 441 
Q 2250 441 2565 725 
Q 2881 1009 2881 1497 
Q 2881 1984 2565 2268 
Q 2250 2553 1709 2553 
Q 1456 2553 1204 2497 
Q 953 2441 691 2322 
L 691 4666 
z
" transform="scale(0.015625)"/>
       </defs>
       <use xlink:href="#DejaVuSans-30"/>
       <use xlink:href="#DejaVuSans-2e" x="63.623047"/>
       <use xlink:href="#DejaVuSans-30" x="95.410156"/>
       <use xlink:href="#DejaVuSans-35" x="159.033203"/>
      </g>
     </g>
    </g>
    <g id="ytick_3">
     <g id="line2d_10">
      <g>
       <use xlink:href="#m869f49d28f" x="90" y="303.675871" style="fill: #bbc1cd; stroke: #bbc1cd; stroke-width: 0.8"/>
      </g>
     </g>
     <g id="text_11">
      <!-- 0.10 -->
      <g style="fill: #bbc1cd" transform="translate(60.734375 307.47509) scale(0.1 -0.1)">
       <defs>
        <path id="DejaVuSans-31" d="M 794 531 
L 1825 531 
L 1825 4091 
L 703 3866 
L 703 4441 
L 1819 4666 
L 2450 4666 
L 2450 531 
L 3481 531 
L 3481 0 
L 794 0 
L 794 531 
z
" transform="scale(0.015625)"/>
       </defs>
       <use xlink:href="#DejaVuSans-30"/>
       <use xlink:href="#DejaVuSans-2e" x="63.623047"/>
       <use xlink:href="#DejaVuSans-31" x="95.410156"/>
       <use xlink:href="#DejaVuSans-30" x="159.033203"/>
      </g>
     </g>
    </g>
    <g id="ytick_4">
     <g id="line2d_11">
      <g>
       <use xlink:href="#m869f49d28f" x="90" y="264.066004" style="fill: #bbc1cd; stroke: #bbc1cd; stroke-width: 0.8"/>
      </g>
     </g>
     <g id="text_12">
      <!-- 0.15 -->
      <g style="fill: #bbc1cd" transform="translate(60.734375 267.865223) scale(0.1 -0.1)">
       <use xlink:href="#DejaVuSans-30"/>
       <use xlink:href="#DejaVuSans-2e" x="63.623047"/>
       <use xlink:href="#DejaVuSans-31" x="95.410156"/>
       <use xlink:href="#DejaVuSans-35" x="159.033203"/>
      </g>
     </g>
    </g>
    <g id="ytick_5">
     <g id="line2d_12">
      <g>
       <use xlink:href="#m869f49d28f" x="90" y="224.456137" style="fill: #bbc1cd; stroke: #bbc1cd; stroke-width: 0.8"/>
      </g>
     </g>
     <g id="text_13">
      <!-- 0.20 -->
      <g style="fill: #bbc1cd" transform="translate(60.734375 228.255356) scale(0.1 -0.1)">
       <use xlink:href="#DejaVuSans-30"/>
       <use xlink:href="#DejaVuSans-2e" x="63.623047"/>
       <use xlink:href="#DejaVuSans-32" x="95.410156"/>
       <use xlink:href="#DejaVuSans-30" x="159.033203"/>
      </g>
     </g>
    </g>
    <g id="ytick_6">
     <g id="line2d_13">
      <g>
       <use xlink:href="#m869f49d28f" x="90" y="184.846271" style="fill: #bbc1cd; stroke: #bbc1cd; stroke-width: 0.8"/>
      </g>
     </g>
     <g id="text_14">
      <!-- 0.25 -->
      <g style="fill: #bbc1cd" transform="translate(60.734375 188.645489) scale(0.1 -0.1)">
       <use xlink:href="#DejaVuSans-30"/>
       <use xlink:href="#DejaVuSans-2e" x="63.623047"/>
       <use xlink:href="#DejaVuSans-32" x="95.410156"/>
       <use xlink:href="#DejaVuSans-35" x="159.033203"/>
      </g>
     </g>
    </g>
    <g id="ytick_7">
     <g id="line2d_14">
      <g>
       <use xlink:href="#m869f49d28f" x="90" y="145.236404" style="fill: #bbc1cd; stroke: #bbc1cd; stroke-width: 0.8"/>
      </g>
     </g>
     <g id="text_15">
      <!-- 0.30 -->
      <g style="fill: #bbc1cd" transform="translate(60.734375 149.035622) scale(0.1 -0.1)">
       <defs>
        <path id="DejaVuSans-33" d="M 2597 2516 
Q 3050 2419 3304 2112 
Q 3559 1806 3559 1356 
Q 3559 666 3084 287 
Q 2609 -91 1734 -91 
Q 1441 -91 1130 -33 
Q 819 25 488 141 
L 488 750 
Q 750 597 1062 519 
Q 1375 441 1716 441 
Q 2309 441 2620 675 
Q 2931 909 2931 1356 
Q 2931 1769 2642 2001 
Q 2353 2234 1838 2234 
L 1294 2234 
L 1294 2753 
L 1863 2753 
Q 2328 2753 2575 2939 
Q 2822 3125 2822 3475 
Q 2822 3834 2567 4026 
Q 2313 4219 1838 4219 
Q 1578 4219 1281 4162 
Q 984 4106 628 3988 
L 628 4550 
Q 988 4650 1302 4700 
Q 1616 4750 1894 4750 
Q 2613 4750 3031 4423 
Q 3450 4097 3450 3541 
Q 3450 3153 3228 2886 
Q 3006 2619 2597 2516 
z
" transform="scale(0.015625)"/>
       </defs>
       <use xlink:href="#DejaVuSans-30"/>
       <use xlink:href="#DejaVuSans-2e" x="63.623047"/>
       <use xlink:href="#DejaVuSans-33" x="95.410156"/>
       <use xlink:href="#DejaVuSans-30" x="159.033203"/>
      </g>
     </g>
    </g>
    <g id="ytick_8">
     <g id="line2d_15">
      <g>
       <use xlink:href="#m869f49d28f" x="90" y="105.626537" style="fill: #bbc1cd; stroke: #bbc1cd; stroke-width: 0.8"/>
      </g>
     </g>
     <g id="text_16">
      <!-- 0.35 -->
      <g style="fill: #bbc1cd" transform="translate(60.734375 109.425755) scale(0.1 -0.1)">
       <use xlink:href="#DejaVuSans-30"/>
       <use xlink:href="#DejaVuSans-2e" x="63.623047"/>
       <use xlink:href="#DejaVuSans-33" x="95.410156"/>
       <use xlink:href="#DejaVuSans-35" x="159.033203"/>
      </g>
     </g>
    </g>
    <g id="ytick_9">
     <g id="line2d_16">
      <g>
       <use xlink:href="#m869f49d28f" x="90" y="66.01667" style="fill: #bbc1cd; stroke: #bbc1cd; stroke-width: 0.8"/>
      </g>
     </g>
     <g id="text_17">
      <!-- 0.40 -->
      <g style="fill: #bbc1cd" transform="translate(60.734375 69.815888) scale(0.1 -0.1)">
       <use xlink:href="#DejaVuSans-30"/>
       <use xlink:href="#DejaVuSans-2e" x="63.623047"/>
       <use xlink:href="#DejaVuSans-34" x="95.410156"/>
       <use xlink:href="#DejaVuSans-30" x="159.033203"/>
      </g>
     </g>
    </g>
    <g id="text_18">
     <!-- Density -->
     <g style="fill: #bbc1cd" transform="translate(54.576562 239.600625) rotate(-90) scale(0.1 -0.1)">
      <defs>
       <path id="DejaVuSans-Bold-73" d="M 3272 3391 
L 3272 2541 
Q 2913 2691 2578 2766 
Q 2244 2841 1947 2841 
Q 1628 2841 1473 2761 
Q 1319 2681 1319 2516 
Q 1319 2381 1436 2309 
Q 1553 2238 1856 2203 
L 2053 2175 
Q 2913 2066 3209 1816 
Q 3506 1566 3506 1031 
Q 3506 472 3093 190 
Q 2681 -91 1863 -91 
Q 1516 -91 1145 -36 
Q 775 19 384 128 
L 384 978 
Q 719 816 1070 734 
Q 1422 653 1784 653 
Q 2113 653 2278 743 
Q 2444 834 2444 1013 
Q 2444 1163 2330 1236 
Q 2216 1309 1875 1350 
L 1678 1375 
Q 931 1469 631 1722 
Q 331 1975 331 2491 
Q 331 3047 712 3315 
Q 1094 3584 1881 3584 
Q 2191 3584 2531 3537 
Q 2872 3491 3272 3391 
z
" transform="scale(0.015625)"/>
       <path id="DejaVuSans-Bold-79" d="M 78 3500 
L 1197 3500 
L 2138 1125 
L 2938 3500 
L 4056 3500 
L 2584 -331 
Q 2363 -916 2067 -1148 
Q 1772 -1381 1288 -1381 
L 641 -1381 
L 641 -647 
L 991 -647 
Q 1275 -647 1404 -556 
Q 1534 -466 1606 -231 
L 1638 -134 
L 78 3500 
z
" transform="scale(0.015625)"/>
      </defs>
      <use xlink:href="#DejaVuSans-Bold-44"/>
      <use xlink:href="#DejaVuSans-Bold-65" x="83.007812"/>
      <use xlink:href="#DejaVuSans-Bold-6e" x="150.830078"/>
      <use xlink:href="#DejaVuSans-Bold-73" x="222.021484"/>
      <use xlink:href="#DejaVuSans-Bold-69" x="281.542969"/>
      <use xlink:href="#DejaVuSans-Bold-74" x="315.820312"/>
      <use xlink:href="#DejaVuSans-Bold-79" x="363.623047"/>
     </g>
    </g>
   </g>
   <g id="line2d_17">
    <path d="M 115.363636 382.895596 
L 120.487603 382.895588 
L 125.61157 382.895571 
L 130.735537 382.895541 
L 135.859504 382.895483 
L 140.983471 382.895378 
L 146.107438 382.895186 
L 151.231405 382.894842 
L 156.355372 382.894234 
L 161.479339 382.893173 
L 166.603306 382.891344 
L 171.727273 382.888233 
L 176.85124 382.883016 
L 181.975207 382.874381 
L 187.099174 382.860286 
L 192.22314 382.837594 
L 197.347107 382.801569 
L 202.471074 382.745179 
L 207.595041 382.658162 
L 212.719008 382.525803 
L 217.842975 382.32738 
L 222.966942 382.034257 
L 228.090909 381.607613 
L 233.214876 380.995875 
L 238.338843 380.131943 
L 243.46281 378.930423 
L 248.586777 377.285152 
L 253.710744 375.067398 
L 258.834711 372.125254 
L 263.958678 368.284759 
L 269.082645 363.353353 
L 274.206612 357.126195 
L 279.330579 349.395756 
L 284.454545 339.964829 
L 289.578512 328.66278 
L 294.702479 315.364397 
L 299.826446 300.010225 
L 304.950413 282.626784 
L 310.07438 263.344654 
L 315.198347 242.412195 
L 320.322314 220.202623 
L 325.446281 197.212485 
L 330.570248 174.050122 
L 335.694215 151.413611 
L 340.818182 130.058737 
L 345.942149 110.758704 
L 351.066116 94.25841 
L 356.190083 81.226968 
L 361.31405 72.212659 
L 366.438017 67.604553 
L 371.561983 67.604553 
L 376.68595 72.212659 
L 381.809917 81.226968 
L 386.933884 94.25841 
L 392.057851 110.758704 
L 397.181818 130.058737 
L 402.305785 151.413611 
L 407.429752 174.050122 
L 412.553719 197.212485 
L 417.677686 220.202623 
L 422.801653 242.412195 
L 427.92562 263.344654 
L 433.049587 282.626784 
L 438.173554 300.010225 
L 443.297521 315.364397 
L 448.421488 328.66278 
L 453.545455 339.964829 
L 458.669421 349.395756 
L 463.793388 357.126195 
L 468.917355 363.353353 
L 474.041322 368.284759 
L 479.165289 372.125254 
L 484.289256 375.067398 
L 489.413223 377.285152 
L 494.53719 378.930423 
L 499.661157 380.131943 
L 504.785124 380.995875 
L 509.909091 381.607613 
L 515.033058 382.034257 
L 520.157025 382.32738 
L 525.280992 382.525803 
L 530.404959 382.658162 
L 535.528926 382.745179 
L 540.652893 382.801569 
L 545.77686 382.837594 
L 550.900826 382.860286 
L 556.024793 382.874381 
L 561.14876 382.883016 
L 566.272727 382.888233 
L 571.396694 382.891344 
L 576.520661 382.893173 
L 581.644628 382.894234 
L 586.768595 382.894842 
L 591.892562 382.895186 
L 597.016529 382.895378 
L 602.140496 382.895483 
L 607.264463 382.895541 
L 612.38843 382.895571 
L 617.512397 382.895588 
L 622.636364 382.895596 
" clip-path="url(#pb502f4ade1)" style="fill: none; stroke: #b979d5; stroke-width: 1.5; stroke-linecap: square"/>
   </g>
   <g id="line2d_18">
    <path d="M 135.416269 384.48 
L 135.416269 51.84 
" clip-path="url(#pb502f4ade1)" style="fill: none; stroke-dasharray: 5.55,2.4; stroke-dashoffset: 0; stroke: #e4be83; stroke-opacity: 0.7; stroke-width: 1.5"/>
   </g>
   <g id="line2d_19">
    <path d="M 322.795026 384.48 
L 322.795026 51.84 
" clip-path="url(#pb502f4ade1)" style="fill: none; stroke-dasharray: 5.55,2.4; stroke-dashoffset: 0; stroke: #6aade9; stroke-opacity: 0.7; stroke-width: 1.5"/>
   </g>
   <g id="line2d_20">
    <path d="M 452.068309 384.48 
L 452.068309 51.84 
" clip-path="url(#pb502f4ade1)" style="fill: none; stroke-dasharray: 1.5,2.475; stroke-dashoffset: 0; stroke: #ff6961; stroke-opacity: 0.7; stroke-width: 1.5"/>
   </g>
   <g id="line2d_21">
    <path d="M 285.931691 384.48 
L 285.931691 51.84 
" clip-path="url(#pb502f4ade1)" style="fill: none; stroke-dasharray: 1.5,2.475; stroke-dashoffset: 0; stroke: #ff6961; stroke-opacity: 0.7; stroke-width: 1.5"/>
   </g>
   <g id="patch_3">
    <path d="M 90 384.48 
L 90 51.84 
" style="fill: none; stroke: #bbc1cd; stroke-width: 0.8; stroke-linejoin: miter; stroke-linecap: square"/>
   </g>
   <g id="patch_4">
    <path d="M 648 384.48 
L 648 51.84 
" style="fill: none; stroke: #bbc1cd; stroke-width: 0.8; stroke-linejoin: miter; stroke-linecap: square"/>
   </g>
   <g id="patch_5">
    <path d="M 90 384.48 
L 648 384.48 
" style="fill: none; stroke: #bbc1cd; stroke-width: 0.8; stroke-linejoin: miter; stroke-linecap: square"/>
   </g>
   <g id="patch_6">
    <path d="M 90 51.84 
L 648 51.84 
" style="fill: none; stroke: #bbc1cd; stroke-width: 0.8; stroke-linejoin: miter; stroke-linecap: square"/>
   </g>
   <g id="text_19">
    <!-- t-Distribution -->
    <g style="fill: #bbc1cd" transform="translate(323.265938 45.84) scale(0.12 -0.12)">
     <defs>
      <path id="DejaVuSans-Bold-2d" d="M 347 2297 
L 2309 2297 
L 2309 1388 
L 347 1388 
L 347 2297 
z
" transform="scale(0.015625)"/>
      <path id="DejaVuSans-Bold-62" d="M 2400 722 
Q 2759 722 2948 984 
Q 3138 1247 3138 1747 
Q 3138 2247 2948 2509 
Q 2759 2772 2400 2772 
Q 2041 2772 1848 2508 
Q 1656 2244 1656 1747 
Q 1656 1250 1848 986 
Q 2041 722 2400 722 
z
M 1656 2988 
Q 1888 3294 2169 3439 
Q 2450 3584 2816 3584 
Q 3463 3584 3878 3070 
Q 4294 2556 4294 1747 
Q 4294 938 3878 423 
Q 3463 -91 2816 -91 
Q 2450 -91 2169 54 
Q 1888 200 1656 506 
L 1656 0 
L 538 0 
L 538 4863 
L 1656 4863 
L 1656 2988 
z
" transform="scale(0.015625)"/>
      <path id="DejaVuSans-Bold-75" d="M 500 1363 
L 500 3500 
L 1625 3500 
L 1625 3150 
Q 1625 2866 1622 2436 
Q 1619 2006 1619 1863 
Q 1619 1441 1641 1255 
Q 1663 1069 1716 984 
Q 1784 875 1895 815 
Q 2006 756 2150 756 
Q 2500 756 2700 1025 
Q 2900 1294 2900 1772 
L 2900 3500 
L 4019 3500 
L 4019 0 
L 2900 0 
L 2900 506 
Q 2647 200 2364 54 
Q 2081 -91 1741 -91 
Q 1134 -91 817 281 
Q 500 653 500 1363 
z
" transform="scale(0.015625)"/>
      <path id="DejaVuSans-Bold-6f" d="M 2203 2784 
Q 1831 2784 1636 2517 
Q 1441 2250 1441 1747 
Q 1441 1244 1636 976 
Q 1831 709 2203 709 
Q 2569 709 2762 976 
Q 2956 1244 2956 1747 
Q 2956 2250 2762 2517 
Q 2569 2784 2203 2784 
z
M 2203 3584 
Q 3106 3584 3614 3096 
Q 4122 2609 4122 1747 
Q 4122 884 3614 396 
Q 3106 -91 2203 -91 
Q 1297 -91 786 396 
Q 275 884 275 1747 
Q 275 2609 786 3096 
Q 1297 3584 2203 3584 
z
" transform="scale(0.015625)"/>
     </defs>
     <use xlink:href="#DejaVuSans-Bold-74"/>
     <use xlink:href="#DejaVuSans-Bold-2d" x="47.802734"/>
     <use xlink:href="#DejaVuSans-Bold-44" x="89.306641"/>
     <use xlink:href="#DejaVuSans-Bold-69" x="172.314453"/>
     <use xlink:href="#DejaVuSans-Bold-73" x="206.591797"/>
     <use xlink:href="#DejaVuSans-Bold-74" x="266.113281"/>
     <use xlink:href="#DejaVuSans-Bold-72" x="313.916016"/>
     <use xlink:href="#DejaVuSans-Bold-69" x="363.232422"/>
     <use xlink:href="#DejaVuSans-Bold-62" x="397.509766"/>
     <use xlink:href="#DejaVuSans-Bold-75" x="469.091797"/>
     <use xlink:href="#DejaVuSans-Bold-74" x="540.283203"/>
     <use xlink:href="#DejaVuSans-Bold-69" x="588.085938"/>
     <use xlink:href="#DejaVuSans-Bold-6f" x="622.363281"/>
     <use xlink:href="#DejaVuSans-Bold-6e" x="691.064453"/>
    </g>
   </g>
   <g id="legend_1">
    <g id="patch_7">
     <path d="M 504.65625 118.5525 
L 641 118.5525 
Q 643 118.5525 643 116.5525 
L 643 58.84 
Q 643 56.84 641 56.84 
L 504.65625 56.84 
Q 502.65625 56.84 502.65625 58.84 
L 502.65625 116.5525 
Q 502.65625 118.5525 504.65625 118.5525 
L 504.65625 118.5525 
z
" style="fill: none; opacity: 0"/>
    </g>
    <g id="line2d_22">
     <path d="M 506.65625 64.938438 
L 516.65625 64.938438 
L 526.65625 64.938438 
" style="fill: none; stroke: #b979d5; stroke-width: 1.5; stroke-linecap: square"/>
    </g>
    <g id="text_20">
     <!-- t-Distribution -->
     <g style="fill: #bbc1cd" transform="translate(534.65625 68.438438) scale(0.1 -0.1)">
      <use xlink:href="#DejaVuSans-Bold-74"/>
      <use xlink:href="#DejaVuSans-Bold-2d" x="47.802734"/>
      <use xlink:href="#DejaVuSans-Bold-44" x="89.306641"/>
      <use xlink:href="#DejaVuSans-Bold-69" x="172.314453"/>
      <use xlink:href="#DejaVuSans-Bold-73" x="206.591797"/>
      <use xlink:href="#DejaVuSans-Bold-74" x="266.113281"/>
      <use xlink:href="#DejaVuSans-Bold-72" x="313.916016"/>
      <use xlink:href="#DejaVuSans-Bold-69" x="363.232422"/>
      <use xlink:href="#DejaVuSans-Bold-62" x="397.509766"/>
      <use xlink:href="#DejaVuSans-Bold-75" x="469.091797"/>
      <use xlink:href="#DejaVuSans-Bold-74" x="540.283203"/>
      <use xlink:href="#DejaVuSans-Bold-69" x="588.085938"/>
      <use xlink:href="#DejaVuSans-Bold-6f" x="622.363281"/>
      <use xlink:href="#DejaVuSans-Bold-6e" x="691.064453"/>
     </g>
    </g>
    <g id="line2d_23">
     <path d="M 506.65625 79.616563 
L 516.65625 79.616563 
L 526.65625 79.616563 
" style="fill: none; stroke-dasharray: 5.55,2.4; stroke-dashoffset: 0; stroke: #e4be83; stroke-opacity: 0.7; stroke-width: 1.5"/>
    </g>
    <g id="text_21">
     <!-- MNAR CC t = -5.53 -->
     <g style="fill: #bbc1cd" transform="translate(534.65625 83.116563) scale(0.1 -0.1)">
      <defs>
       <path id="DejaVuSans-Bold-4d" d="M 588 4666 
L 2119 4666 
L 3181 2169 
L 4250 4666 
L 5778 4666 
L 5778 0 
L 4641 0 
L 4641 3413 
L 3566 897 
L 2803 897 
L 1728 3413 
L 1728 0 
L 588 0 
L 588 4666 
z
" transform="scale(0.015625)"/>
       <path id="DejaVuSans-Bold-4e" d="M 588 4666 
L 1931 4666 
L 3628 1466 
L 3628 4666 
L 4769 4666 
L 4769 0 
L 3425 0 
L 1728 3200 
L 1728 0 
L 588 0 
L 588 4666 
z
" transform="scale(0.015625)"/>
       <path id="DejaVuSans-Bold-41" d="M 3419 850 
L 1538 850 
L 1241 0 
L 31 0 
L 1759 4666 
L 3194 4666 
L 4922 0 
L 3713 0 
L 3419 850 
z
M 1838 1716 
L 3116 1716 
L 2478 3572 
L 1838 1716 
z
" transform="scale(0.015625)"/>
       <path id="DejaVuSans-Bold-52" d="M 2297 2597 
Q 2675 2597 2839 2737 
Q 3003 2878 3003 3200 
Q 3003 3519 2839 3656 
Q 2675 3794 2297 3794 
L 1791 3794 
L 1791 2597 
L 2297 2597 
z
M 1791 1766 
L 1791 0 
L 588 0 
L 588 4666 
L 2425 4666 
Q 3347 4666 3776 4356 
Q 4206 4047 4206 3378 
Q 4206 2916 3982 2619 
Q 3759 2322 3309 2181 
Q 3556 2125 3751 1926 
Q 3947 1728 4147 1325 
L 4800 0 
L 3519 0 
L 2950 1159 
Q 2778 1509 2601 1637 
Q 2425 1766 2131 1766 
L 1791 1766 
z
" transform="scale(0.015625)"/>
       <path id="DejaVuSans-Bold-43" d="M 4288 256 
Q 3956 84 3597 -3 
Q 3238 -91 2847 -91 
Q 1681 -91 1000 561 
Q 319 1213 319 2328 
Q 319 3447 1000 4098 
Q 1681 4750 2847 4750 
Q 3238 4750 3597 4662 
Q 3956 4575 4288 4403 
L 4288 3438 
Q 3953 3666 3628 3772 
Q 3303 3878 2944 3878 
Q 2300 3878 1931 3465 
Q 1563 3053 1563 2328 
Q 1563 1606 1931 1193 
Q 2300 781 2944 781 
Q 3303 781 3628 887 
Q 3953 994 4288 1222 
L 4288 256 
z
" transform="scale(0.015625)"/>
       <path id="DejaVuSans-Bold-3d" d="M 678 3084 
L 4684 3084 
L 4684 2350 
L 678 2350 
L 678 3084 
z
M 678 1663 
L 4684 1663 
L 4684 922 
L 678 922 
L 678 1663 
z
" transform="scale(0.015625)"/>
       <path id="DejaVuSans-Bold-35" d="M 678 4666 
L 3669 4666 
L 3669 3781 
L 1638 3781 
L 1638 3059 
Q 1775 3097 1914 3117 
Q 2053 3138 2203 3138 
Q 3056 3138 3531 2711 
Q 4006 2284 4006 1522 
Q 4006 766 3489 337 
Q 2972 -91 2053 -91 
Q 1656 -91 1267 -14 
Q 878 63 494 219 
L 494 1166 
Q 875 947 1217 837 
Q 1559 728 1863 728 
Q 2300 728 2551 942 
Q 2803 1156 2803 1522 
Q 2803 1891 2551 2103 
Q 2300 2316 1863 2316 
Q 1603 2316 1309 2248 
Q 1016 2181 678 2041 
L 678 4666 
z
" transform="scale(0.015625)"/>
       <path id="DejaVuSans-Bold-2e" d="M 653 1209 
L 1778 1209 
L 1778 0 
L 653 0 
L 653 1209 
z
" transform="scale(0.015625)"/>
       <path id="DejaVuSans-Bold-33" d="M 2981 2516 
Q 3453 2394 3698 2092 
Q 3944 1791 3944 1325 
Q 3944 631 3412 270 
Q 2881 -91 1863 -91 
Q 1503 -91 1142 -33 
Q 781 25 428 141 
L 428 1069 
Q 766 900 1098 814 
Q 1431 728 1753 728 
Q 2231 728 2486 893 
Q 2741 1059 2741 1369 
Q 2741 1688 2480 1852 
Q 2219 2016 1709 2016 
L 1228 2016 
L 1228 2791 
L 1734 2791 
Q 2188 2791 2409 2933 
Q 2631 3075 2631 3366 
Q 2631 3634 2415 3781 
Q 2200 3928 1806 3928 
Q 1516 3928 1219 3862 
Q 922 3797 628 3669 
L 628 4550 
Q 984 4650 1334 4700 
Q 1684 4750 2022 4750 
Q 2931 4750 3382 4451 
Q 3834 4153 3834 3553 
Q 3834 3144 3618 2883 
Q 3403 2622 2981 2516 
z
" transform="scale(0.015625)"/>
      </defs>
      <use xlink:href="#DejaVuSans-Bold-4d"/>
      <use xlink:href="#DejaVuSans-Bold-4e" x="99.511719"/>
      <use xlink:href="#DejaVuSans-Bold-41" x="183.203125"/>
      <use xlink:href="#DejaVuSans-Bold-52" x="260.595703"/>
      <use xlink:href="#DejaVuSans-Bold-20" x="337.597656"/>
      <use xlink:href="#DejaVuSans-Bold-43" x="372.412109"/>
      <use xlink:href="#DejaVuSans-Bold-43" x="445.800781"/>
      <use xlink:href="#DejaVuSans-Bold-20" x="519.189453"/>
      <use xlink:href="#DejaVuSans-Bold-74" x="554.003906"/>
      <use xlink:href="#DejaVuSans-Bold-20" x="601.806641"/>
      <use xlink:href="#DejaVuSans-Bold-3d" x="636.621094"/>
      <use xlink:href="#DejaVuSans-Bold-20" x="720.410156"/>
      <use xlink:href="#DejaVuSans-Bold-2d" x="755.224609"/>
      <use xlink:href="#DejaVuSans-Bold-35" x="796.728516"/>
      <use xlink:href="#DejaVuSans-Bold-2e" x="866.308594"/>
      <use xlink:href="#DejaVuSans-Bold-35" x="904.296875"/>
      <use xlink:href="#DejaVuSans-Bold-33" x="973.876953"/>
     </g>
    </g>
    <g id="line2d_24">
     <path d="M 506.65625 94.294688 
L 516.65625 94.294688 
L 526.65625 94.294688 
" style="fill: none; stroke-dasharray: 5.55,2.4; stroke-dashoffset: 0; stroke: #6aade9; stroke-opacity: 0.7; stroke-width: 1.5"/>
    </g>
    <g id="text_22">
     <!-- MI t = -1.09 -->
     <g style="fill: #bbc1cd" transform="translate(534.65625 97.794688) scale(0.1 -0.1)">
      <defs>
       <path id="DejaVuSans-Bold-49" d="M 588 4666 
L 1791 4666 
L 1791 0 
L 588 0 
L 588 4666 
z
" transform="scale(0.015625)"/>
       <path id="DejaVuSans-Bold-31" d="M 750 831 
L 1813 831 
L 1813 3847 
L 722 3622 
L 722 4441 
L 1806 4666 
L 2950 4666 
L 2950 831 
L 4013 831 
L 4013 0 
L 750 0 
L 750 831 
z
" transform="scale(0.015625)"/>
       <path id="DejaVuSans-Bold-30" d="M 2944 2338 
Q 2944 3213 2780 3570 
Q 2616 3928 2228 3928 
Q 1841 3928 1675 3570 
Q 1509 3213 1509 2338 
Q 1509 1453 1675 1090 
Q 1841 728 2228 728 
Q 2613 728 2778 1090 
Q 2944 1453 2944 2338 
z
M 4147 2328 
Q 4147 1169 3647 539 
Q 3147 -91 2228 -91 
Q 1306 -91 806 539 
Q 306 1169 306 2328 
Q 306 3491 806 4120 
Q 1306 4750 2228 4750 
Q 3147 4750 3647 4120 
Q 4147 3491 4147 2328 
z
" transform="scale(0.015625)"/>
       <path id="DejaVuSans-Bold-39" d="M 641 103 
L 641 966 
Q 928 831 1190 764 
Q 1453 697 1709 697 
Q 2247 697 2547 995 
Q 2847 1294 2900 1881 
Q 2688 1725 2447 1647 
Q 2206 1569 1925 1569 
Q 1209 1569 770 1986 
Q 331 2403 331 3084 
Q 331 3838 820 4291 
Q 1309 4744 2131 4744 
Q 3044 4744 3544 4128 
Q 4044 3513 4044 2388 
Q 4044 1231 3459 570 
Q 2875 -91 1856 -91 
Q 1528 -91 1228 -42 
Q 928 6 641 103 
z
M 2125 2350 
Q 2441 2350 2600 2554 
Q 2759 2759 2759 3169 
Q 2759 3575 2600 3781 
Q 2441 3988 2125 3988 
Q 1809 3988 1650 3781 
Q 1491 3575 1491 3169 
Q 1491 2759 1650 2554 
Q 1809 2350 2125 2350 
z
" transform="scale(0.015625)"/>
      </defs>
      <use xlink:href="#DejaVuSans-Bold-4d"/>
      <use xlink:href="#DejaVuSans-Bold-49" x="99.511719"/>
      <use xlink:href="#DejaVuSans-Bold-20" x="136.71875"/>
      <use xlink:href="#DejaVuSans-Bold-74" x="171.533203"/>
      <use xlink:href="#DejaVuSans-Bold-20" x="219.335938"/>
      <use xlink:href="#DejaVuSans-Bold-3d" x="254.150391"/>
      <use xlink:href="#DejaVuSans-Bold-20" x="337.939453"/>
      <use xlink:href="#DejaVuSans-Bold-2d" x="372.753906"/>
      <use xlink:href="#DejaVuSans-Bold-31" x="414.257812"/>
      <use xlink:href="#DejaVuSans-Bold-2e" x="483.837891"/>
      <use xlink:href="#DejaVuSans-Bold-30" x="521.826172"/>
      <use xlink:href="#DejaVuSans-Bold-39" x="591.40625"/>
     </g>
    </g>
    <g id="line2d_25">
     <path d="M 506.65625 108.972813 
L 516.65625 108.972813 
L 526.65625 108.972813 
" style="fill: none; stroke-dasharray: 1.5,2.475; stroke-dashoffset: 0; stroke: #ff6961; stroke-opacity: 0.7; stroke-width: 1.5"/>
    </g>
    <g id="text_23">
     <!-- $\pm t_{0.05}$ Critical -->
     <g style="fill: #bbc1cd" transform="translate(534.65625 112.472813) scale(0.1 -0.1)">
      <defs>
       <path id="DejaVuSans-b1" d="M 2944 4013 
L 2944 2803 
L 4684 2803 
L 4684 2272 
L 2944 2272 
L 2944 1063 
L 2419 1063 
L 2419 2272 
L 678 2272 
L 678 2803 
L 2419 2803 
L 2419 4013 
L 2944 4013 
z
M 678 531 
L 4684 531 
L 4684 0 
L 678 0 
L 678 531 
z
" transform="scale(0.015625)"/>
       <path id="DejaVuSans-Oblique-74" d="M 2706 3500 
L 2619 3053 
L 1472 3053 
L 1100 1153 
Q 1081 1047 1072 975 
Q 1063 903 1063 863 
Q 1063 663 1183 572 
Q 1303 481 1569 481 
L 2150 481 
L 2053 0 
L 1503 0 
Q 991 0 739 200 
Q 488 400 488 806 
Q 488 878 497 964 
Q 506 1050 525 1153 
L 897 3053 
L 409 3053 
L 500 3500 
L 978 3500 
L 1172 4494 
L 1747 4494 
L 1556 3500 
L 2706 3500 
z
" transform="scale(0.015625)"/>
       <path id="DejaVuSans-Bold-6c" d="M 538 4863 
L 1656 4863 
L 1656 0 
L 538 0 
L 538 4863 
z
" transform="scale(0.015625)"/>
      </defs>
      <use xlink:href="#DejaVuSans-b1" transform="translate(0 0.015625)"/>
      <use xlink:href="#DejaVuSans-Oblique-74" transform="translate(83.789062 0.015625)"/>
      <use xlink:href="#DejaVuSans-30" transform="translate(122.998047 -16.390625) scale(0.7)"/>
      <use xlink:href="#DejaVuSans-2e" transform="translate(167.53418 -16.390625) scale(0.7)"/>
      <use xlink:href="#DejaVuSans-30" transform="translate(189.785156 -16.390625) scale(0.7)"/>
      <use xlink:href="#DejaVuSans-35" transform="translate(234.321289 -16.390625) scale(0.7)"/>
      <use xlink:href="#DejaVuSans-Bold-20" transform="translate(281.591797 0.015625)"/>
      <use xlink:href="#DejaVuSans-Bold-43" transform="translate(316.40625 0.015625)"/>
      <use xlink:href="#DejaVuSans-Bold-72" transform="translate(389.794922 0.015625)"/>
      <use xlink:href="#DejaVuSans-Bold-69" transform="translate(439.111328 0.015625)"/>
      <use xlink:href="#DejaVuSans-Bold-74" transform="translate(473.388672 0.015625)"/>
      <use xlink:href="#DejaVuSans-Bold-69" transform="translate(521.191406 0.015625)"/>
      <use xlink:href="#DejaVuSans-Bold-63" transform="translate(555.46875 0.015625)"/>
      <use xlink:href="#DejaVuSans-Bold-61" transform="translate(614.746094 0.015625)"/>
      <use xlink:href="#DejaVuSans-Bold-6c" transform="translate(682.226562 0.015625)"/>
     </g>
    </g>
   </g>
  </g>
 </g>
 <defs>
  <clipPath id="pb502f4ade1">
   <rect x="90" y="51.84" width="558" height="332.64"/>
  </clipPath>
 </defs>
</svg>
