<?xml version="1.0" encoding="utf-8" standalone="no"?>
<!DOCTYPE svg PUBLIC "-//W3C//DTD SVG 1.1//EN"
  "http://www.w3.org/Graphics/SVG/1.1/DTD/svg11.dtd">
<svg xmlns:xlink="http://www.w3.org/1999/xlink" width="720pt" height="432pt" viewBox="0 0 720 432" xmlns="http://www.w3.org/2000/svg" version="1.1">
 <metadata>
  <rdf:RDF xmlns:dc="http://purl.org/dc/elements/1.1/" xmlns:cc="http://creativecommons.org/ns#" xmlns:rdf="http://www.w3.org/1999/02/22-rdf-syntax-ns#">
   <cc:Work>
    <dc:type rdf:resource="http://purl.org/dc/dcmitype/StillImage"/>
    <dc:date>2025-04-26T15:10:24.142181</dc:date>
    <dc:format>image/svg+xml</dc:format>
    <dc:creator>
     <cc:Agent>
      <dc:title>Matplotlib v3.9.2, https://matplotlib.org/</dc:title>
     </cc:Agent>
    </dc:creator>
   </cc:Work>
  </rdf:RDF>
 </metadata>
 <defs>
  <style type="text/css">*{stroke-linejoin: round; stroke-linecap: butt}</style>
 </defs>
 <g id="figure_1">
  <g id="patch_1">
   <path d="M 0 432 
L 720 432 
L 720 0 
L 0 0 
z
" style="fill: #292c33"/>
  </g>
  <g id="axes_1">
   <g id="patch_2">
    <path d="M 90 384.48 
L 648 384.48 
L 648 51.84 
L 90 51.84 
z
" style="fill: #292c33"/>
   </g>
   <g id="PolyCollection_1">
    <defs>
     <path id="md9af2c5bf7" d="M 115.363636 -49.101627 
L 115.363636 -49.222483 
L 115.871417 -49.226272 
L 116.379197 -49.230173 
L 116.886978 -49.234188 
L 117.394758 -49.238321 
L 117.902539 -49.242575 
L 118.410319 -49.246952 
L 118.9181 -49.251458 
L 119.42588 -49.256093 
L 119.933661 -49.260864 
L 120.441441 -49.265772 
L 120.949222 -49.270821 
L 121.457002 -49.276016 
L 121.964783 -49.28136 
L 122.472563 -49.286857 
L 122.980344 -49.292512 
L 123.488124 -49.298327 
L 123.995905 -49.304308 
L 124.503686 -49.310459 
L 125.011466 -49.316784 
L 125.519247 -49.323288 
L 126.027027 -49.329976 
L 126.534808 -49.336851 
L 127.042588 -49.34392 
L 127.550369 -49.351186 
L 128.058149 -49.358656 
L 128.56593 -49.366334 
L 129.07371 -49.374225 
L 129.581491 -49.382336 
L 130.089271 -49.390671 
L 130.597052 -49.399236 
L 131.104832 -49.408037 
L 131.612613 -49.41708 
L 132.120393 -49.426372 
L 132.628174 -49.435917 
L 133.135954 -49.445723 
L 133.643735 -49.455797 
L 134.151515 -49.466144 
L 134.659296 -49.476771 
L 135.167076 -49.487686 
L 135.674857 -49.498895 
L 136.182637 -49.510406 
L 136.690418 -49.522226 
L 137.198198 -49.534362 
L 137.705979 -49.546823 
L 138.213759 -49.559616 
L 138.72154 -49.572749 
L 139.22932 -49.58623 
L 139.737101 -49.600068 
L 140.244881 -49.614271 
L 140.752662 -49.628847 
L 141.260442 -49.643807 
L 141.768223 -49.659159 
L 142.276003 -49.674911 
L 142.783784 -49.691075 
L 143.291564 -49.707658 
L 143.799345 -49.724671 
L 144.307125 -49.742125 
L 144.814906 -49.760029 
L 145.322686 -49.778393 
L 145.830467 -49.797229 
L 146.338247 -49.816548 
L 146.846028 -49.836359 
L 147.353808 -49.856675 
L 147.861589 -49.877508 
L 148.369369 -49.898868 
L 148.87715 -49.920768 
L 149.38493 -49.94322 
L 149.892711 -49.966237 
L 150.400491 -49.989831 
L 150.908272 -50.014015 
L 151.416052 -50.038802 
L 151.923833 -50.064205 
L 152.431613 -50.090239 
L 152.939394 -50.116917 
L 153.447174 -50.144254 
L 153.954955 -50.172263 
L 154.462735 -50.20096 
L 154.970516 -50.230359 
L 155.478296 -50.260476 
L 155.986077 -50.291326 
L 156.493857 -50.322925 
L 157.001638 -50.355288 
L 157.509419 -50.388434 
L 158.017199 -50.422377 
L 158.52498 -50.457136 
L 159.03276 -50.492726 
L 159.540541 -50.529166 
L 160.048321 -50.566474 
L 160.556102 -50.604668 
L 161.063882 -50.643766 
L 161.571663 -50.683787 
L 162.079443 -50.72475 
L 162.587224 -50.766675 
L 163.095004 -50.809581 
L 163.602785 -50.853488 
L 164.110565 -50.898417 
L 164.618346 -50.944388 
L 165.126126 -50.991423 
L 165.633907 -51.039543 
L 166.141687 -51.08877 
L 166.649468 -51.139126 
L 167.157248 -51.190633 
L 167.665029 -51.243315 
L 168.172809 -51.297194 
L 168.68059 -51.352293 
L 169.18837 -51.408638 
L 169.696151 -51.466252 
L 170.203931 -51.52516 
L 170.711712 -51.585386 
L 171.219492 -51.646957 
L 171.727273 -51.709899 
L 172.235053 -51.774236 
L 172.742834 -51.839996 
L 173.250614 -51.907207 
L 173.758395 -51.975894 
L 174.266175 -52.046087 
L 174.773956 -52.117813 
L 175.281736 -52.1911 
L 175.789517 -52.265978 
L 176.297297 -52.342477 
L 176.805078 -52.420625 
L 177.312858 -52.500453 
L 177.820639 -52.581992 
L 178.328419 -52.665273 
L 178.8362 -52.750327 
L 179.34398 -52.837187 
L 179.851761 -52.925883 
L 180.359541 -53.01645 
L 180.867322 -53.108921 
L 181.375102 -53.203328 
L 181.882883 -53.299706 
L 182.390663 -53.39809 
L 182.898444 -53.498514 
L 183.406224 -53.601013 
L 183.914005 -53.705624 
L 184.421785 -53.812383 
L 184.929566 -53.921326 
L 185.437346 -54.032491 
L 185.945127 -54.145914 
L 186.452907 -54.261634 
L 186.960688 -54.37969 
L 187.468468 -54.50012 
L 187.976249 -54.622964 
L 188.484029 -54.74826 
L 188.99181 -54.876051 
L 189.49959 -55.006375 
L 190.007371 -55.139275 
L 190.515152 -55.274792 
L 191.022932 -55.412967 
L 191.530713 -55.553844 
L 192.038493 -55.697465 
L 192.546274 -55.843873 
L 193.054054 -55.993113 
L 193.561835 -56.145228 
L 194.069615 -56.300262 
L 194.577396 -56.458262 
L 195.085176 -56.619273 
L 195.592957 -56.78334 
L 196.100737 -56.95051 
L 196.608518 -57.12083 
L 197.116298 -57.294347 
L 197.624079 -57.471108 
L 198.131859 -57.651162 
L 198.63964 -57.834557 
L 199.14742 -58.021342 
L 199.655201 -58.211567 
L 200.162981 -58.405281 
L 200.670762 -58.602534 
L 201.178542 -58.803376 
L 201.686323 -59.007859 
L 202.194103 -59.216035 
L 202.701884 -59.427953 
L 203.209664 -59.643668 
L 203.717445 -59.863231 
L 204.225225 -60.086694 
L 204.733006 -60.314112 
L 205.240786 -60.545537 
L 205.748567 -60.781024 
L 206.256347 -61.020627 
L 206.764128 -61.2644 
L 207.271908 -61.512398 
L 207.779689 -61.764677 
L 208.287469 -62.021292 
L 208.79525 -62.282298 
L 209.30303 -62.547753 
L 209.810811 -62.817712 
L 210.318591 -63.092231 
L 210.826372 -63.37137 
L 211.334152 -63.655183 
L 211.841933 -63.943729 
L 212.349713 -64.237066 
L 212.857494 -64.535251 
L 213.365274 -64.838344 
L 213.873055 -65.146401 
L 214.380835 -65.459483 
L 214.888616 -65.777647 
L 215.396396 -66.100953 
L 215.904177 -66.42946 
L 216.411957 -66.763227 
L 216.919738 -67.102314 
L 217.427518 -67.446781 
L 217.935299 -67.796687 
L 218.443079 -68.152091 
L 218.95086 -68.513055 
L 219.45864 -68.879638 
L 219.966421 -69.2519 
L 220.474201 -69.629901 
L 220.981982 -70.013702 
L 221.489762 -70.403363 
L 221.997543 -70.798943 
L 222.505324 -71.200504 
L 223.013104 -71.608105 
L 223.520885 -72.021806 
L 224.028665 -72.441669 
L 224.536446 -72.867752 
L 225.044226 -73.300116 
L 225.552007 -73.73882 
L 226.059787 -74.183925 
L 226.567568 -74.635489 
L 227.075348 -75.093573 
L 227.583129 -75.558235 
L 228.090909 -76.029535 
L 228.59869 -76.507531 
L 229.10647 -76.992283 
L 229.614251 -77.483848 
L 230.122031 -77.982285 
L 230.629812 -78.487651 
L 231.137592 -79.000003 
L 231.645373 -79.5194 
L 232.153153 -80.045898 
L 232.660934 -80.579553 
L 233.168714 -81.120422 
L 233.676495 -81.668559 
L 234.184275 -82.224021 
L 234.692056 -82.786861 
L 235.199836 -83.357135 
L 235.707617 -83.934896 
L 236.215397 -84.520197 
L 236.723178 -85.11309 
L 237.230958 -85.713629 
L 237.738739 -86.321864 
L 238.246519 -86.937847 
L 238.7543 -87.561627 
L 239.26208 -88.193255 
L 239.769861 -88.832778 
L 240.277641 -89.480246 
L 240.785422 -90.135705 
L 241.293202 -90.799203 
L 241.800983 -91.470786 
L 242.308763 -92.150497 
L 242.816544 -92.838383 
L 243.324324 -93.534485 
L 243.832105 -94.238847 
L 244.339885 -94.95151 
L 244.847666 -95.672515 
L 245.355446 -96.401901 
L 245.863227 -97.139707 
L 246.371007 -97.885972 
L 246.878788 -98.64073 
L 247.386568 -99.404019 
L 247.894349 -100.175872 
L 248.402129 -100.956323 
L 248.90991 -101.745404 
L 249.41769 -102.543146 
L 249.925471 -103.349578 
L 250.433251 -104.164731 
L 250.941032 -104.98863 
L 251.448812 -105.821302 
L 251.956593 -106.662772 
L 252.464373 -107.513063 
L 252.972154 -108.372197 
L 253.479934 -109.240195 
L 253.987715 -110.117077 
L 254.495495 -111.002859 
L 255.003276 -111.89756 
L 255.511057 -112.801192 
L 256.018837 -113.713771 
L 256.526618 -114.635307 
L 257.034398 -115.565811 
L 257.542179 -116.505293 
L 258.049959 -117.453758 
L 258.55774 -118.411212 
L 259.06552 -119.377659 
L 259.573301 -120.353102 
L 260.081081 -121.337541 
L 260.588862 -122.330974 
L 261.096642 -123.333398 
L 261.604423 -124.344809 
L 262.112203 -125.365199 
L 262.619984 -126.39456 
L 263.127764 -127.432883 
L 263.635545 -128.480154 
L 264.143325 -129.536359 
L 264.651106 -130.601483 
L 265.158886 -131.675507 
L 265.666667 -132.758411 
L 266.174447 -133.850174 
L 266.682228 -134.950771 
L 267.190008 -136.060176 
L 267.697789 -137.178362 
L 268.205569 -138.305298 
L 268.71335 -139.440952 
L 269.22113 -140.585289 
L 269.728911 -141.738274 
L 270.236691 -142.899867 
L 270.744472 -144.070029 
L 271.252252 -145.248715 
L 271.760033 -146.435881 
L 272.267813 -147.631479 
L 272.775594 -148.83546 
L 273.283374 -150.047772 
L 273.791155 -151.268362 
L 274.298935 -152.497171 
L 274.806716 -153.734143 
L 275.314496 -154.979217 
L 275.822277 -156.232328 
L 276.330057 -157.493411 
L 276.837838 -158.762399 
L 277.345618 -160.039221 
L 277.853399 -161.323805 
L 278.361179 -162.616076 
L 278.86896 -163.915956 
L 279.37674 -165.223366 
L 279.884521 -166.538224 
L 280.392301 -167.860445 
L 280.900082 -169.189943 
L 281.407862 -170.526628 
L 281.915643 -171.870408 
L 282.423423 -173.22119 
L 282.931204 -174.578878 
L 283.438984 -175.943371 
L 283.946765 -177.31457 
L 284.454545 -178.692369 
L 284.962326 -180.076664 
L 285.470106 -181.467345 
L 285.977887 -182.864302 
L 286.485667 -184.267421 
L 286.993448 -185.676587 
L 287.501229 -187.091681 
L 288.009009 -188.512582 
L 288.51679 -189.939169 
L 289.02457 -191.371315 
L 289.532351 -192.808892 
L 290.040131 -194.251772 
L 290.547912 -195.699821 
L 291.055692 -197.152904 
L 291.563473 -198.610884 
L 292.071253 -200.073623 
L 292.579034 -201.540977 
L 293.086814 -203.012804 
L 293.594595 -204.488956 
L 294.102375 -205.969286 
L 294.610156 -207.453642 
L 295.117936 -208.941871 
L 295.625717 -210.433817 
L 296.133497 -211.929325 
L 296.641278 -213.428232 
L 297.149058 -214.930379 
L 297.656839 -216.435601 
L 298.164619 -217.943731 
L 298.6724 -219.454602 
L 299.18018 -220.968043 
L 299.687961 -222.483882 
L 300.195741 -224.001945 
L 300.703522 -225.522056 
L 301.211302 -227.044035 
L 301.719083 -228.567704 
L 302.226863 -230.09288 
L 302.734644 -231.619378 
L 303.242424 -233.147015 
L 303.750205 -234.6756 
L 304.257985 -236.204946 
L 304.765766 -237.734862 
L 305.273546 -239.265153 
L 305.781327 -240.795627 
L 306.289107 -242.326087 
L 306.796888 -243.856335 
L 307.304668 -245.386172 
L 307.812449 -246.915397 
L 308.320229 -248.443809 
L 308.82801 -249.971203 
L 309.33579 -251.497374 
L 309.843571 -253.022116 
L 310.351351 -254.545221 
L 310.859132 -256.066481 
L 311.366912 -257.585684 
L 311.874693 -259.102621 
L 312.382473 -260.617078 
L 312.890254 -262.128841 
L 313.398034 -263.637697 
L 313.905815 -265.143429 
L 314.413595 -266.645821 
L 314.921376 -268.144655 
L 315.429156 -269.639714 
L 315.936937 -271.130779 
L 316.444717 -272.617628 
L 316.952498 -274.100043 
L 317.460278 -275.577802 
L 317.968059 -277.050684 
L 318.475839 -278.518465 
L 318.98362 -279.980924 
L 319.4914 -281.437838 
L 319.999181 -282.888982 
L 320.506962 -284.334134 
L 321.014742 -285.77307 
L 321.522523 -287.205564 
L 322.030303 -288.631394 
L 322.538084 -290.050334 
L 323.045864 -291.46216 
L 323.553645 -292.866648 
L 324.061425 -294.263574 
L 324.569206 -295.652713 
L 325.076986 -297.033842 
L 325.584767 -298.406737 
L 326.092547 -299.771174 
L 326.600328 -301.126932 
L 327.108108 -302.473787 
L 327.615889 -303.811517 
L 328.123669 -305.139902 
L 328.63145 -306.45872 
L 329.13923 -307.767752 
L 329.647011 -309.066778 
L 330.154791 -310.35558 
L 330.662572 -311.63394 
L 331.170352 -312.901642 
L 331.678133 -314.15847 
L 332.185913 -315.404209 
L 332.693694 -316.638647 
L 333.201474 -317.861571 
L 333.709255 -319.072769 
L 334.217035 -320.272033 
L 334.724816 -321.459154 
L 335.232596 -322.633924 
L 335.740377 -323.79614 
L 336.248157 -324.945596 
L 336.755938 -326.08209 
L 337.263718 -327.205422 
L 337.771499 -328.315393 
L 338.279279 -329.411806 
L 338.78706 -330.494466 
L 339.29484 -331.563179 
L 339.802621 -332.617753 
L 340.310401 -333.658 
L 340.818182 -334.683733 
L 341.325962 -335.694765 
L 341.833743 -336.690913 
L 342.341523 -337.671998 
L 342.849304 -338.637841 
L 343.357084 -339.588265 
L 343.864865 -340.523096 
L 344.372645 -341.442164 
L 344.880426 -342.3453 
L 345.388206 -343.232337 
L 345.895987 -344.103111 
L 346.403767 -344.957463 
L 346.911548 -345.795232 
L 347.419328 -346.616265 
L 347.927109 -347.420408 
L 348.434889 -348.207512 
L 348.94267 -348.977429 
L 349.45045 -349.730015 
L 349.958231 -350.46513 
L 350.466011 -351.182635 
L 350.973792 -351.882396 
L 351.481572 -352.564281 
L 351.989353 -353.228161 
L 352.497133 -353.873911 
L 353.004914 -354.501409 
L 353.512695 -355.110535 
L 354.020475 -355.701174 
L 354.528256 -356.273214 
L 355.036036 -356.826547 
L 355.543817 -357.361066 
L 356.051597 -357.87667 
L 356.559378 -358.37326 
L 357.067158 -358.850742 
L 357.574939 -359.309023 
L 358.082719 -359.748017 
L 358.5905 -360.167639 
L 359.09828 -360.567809 
L 359.606061 -360.948449 
L 360.113841 -361.309487 
L 360.621622 -361.650852 
L 361.129402 -361.97248 
L 361.637183 -362.274309 
L 362.144963 -362.556279 
L 362.652744 -362.818337 
L 363.160524 -363.060432 
L 363.668305 -363.282518 
L 364.176085 -363.484551 
L 364.683866 -363.666492 
L 365.191646 -363.828306 
L 365.699427 -363.969963 
L 366.207207 -364.091433 
L 366.714988 -364.192695 
L 367.222768 -364.273727 
L 367.730549 -364.334516 
L 368.238329 -364.375048 
L 368.74611 -364.395316 
L 369.25389 -364.395316 
L 369.761671 -364.375048 
L 370.269451 -364.334516 
L 370.777232 -364.273727 
L 371.285012 -364.192695 
L 371.792793 -364.091433 
L 372.300573 -363.969963 
L 372.808354 -363.828306 
L 373.316134 -363.666492 
L 373.823915 -363.484551 
L 374.331695 -363.282518 
L 374.839476 -363.060432 
L 375.347256 -362.818337 
L 375.855037 -362.556279 
L 376.362817 -362.274309 
L 376.870598 -361.97248 
L 377.378378 -361.650852 
L 377.886159 -361.309487 
L 378.393939 -360.948449 
L 378.90172 -360.567809 
L 379.4095 -360.167639 
L 379.917281 -359.748017 
L 380.425061 -359.309023 
L 380.932842 -358.850742 
L 381.440622 -358.37326 
L 381.948403 -357.87667 
L 382.456183 -357.361066 
L 382.963964 -356.826547 
L 383.471744 -356.273214 
L 383.979525 -355.701174 
L 384.487305 -355.110535 
L 384.995086 -354.501409 
L 385.502867 -353.873911 
L 386.010647 -353.228161 
L 386.518428 -352.564281 
L 387.026208 -351.882396 
L 387.533989 -351.182635 
L 388.041769 -350.46513 
L 388.54955 -349.730015 
L 389.05733 -348.977429 
L 389.565111 -348.207512 
L 390.072891 -347.420408 
L 390.580672 -346.616265 
L 391.088452 -345.795232 
L 391.596233 -344.957463 
L 392.104013 -344.103111 
L 392.611794 -343.232337 
L 393.119574 -342.3453 
L 393.627355 -341.442164 
L 394.135135 -340.523096 
L 394.642916 -339.588265 
L 395.150696 -338.637841 
L 395.658477 -337.671998 
L 396.166257 -336.690913 
L 396.674038 -335.694765 
L 397.181818 -334.683733 
L 397.689599 -333.658 
L 398.197379 -332.617753 
L 398.70516 -331.563179 
L 399.21294 -330.494466 
L 399.720721 -329.411806 
L 400.228501 -328.315393 
L 400.736282 -327.205422 
L 401.244062 -326.08209 
L 401.751843 -324.945596 
L 402.259623 -323.79614 
L 402.767404 -322.633924 
L 403.275184 -321.459154 
L 403.782965 -320.272033 
L 404.290745 -319.072769 
L 404.798526 -317.861571 
L 405.306306 -316.638647 
L 405.814087 -315.404209 
L 406.321867 -314.15847 
L 406.829648 -312.901642 
L 407.337428 -311.63394 
L 407.845209 -310.35558 
L 408.352989 -309.066778 
L 408.86077 -307.767752 
L 409.36855 -306.45872 
L 409.876331 -305.139902 
L 410.384111 -303.811517 
L 410.891892 -302.473787 
L 411.399672 -301.126932 
L 411.907453 -299.771174 
L 412.415233 -298.406737 
L 412.923014 -297.033842 
L 413.430794 -295.652713 
L 413.938575 -294.263574 
L 414.446355 -292.866648 
L 414.954136 -291.46216 
L 415.461916 -290.050334 
L 415.969697 -288.631394 
L 416.477477 -287.205564 
L 416.985258 -285.77307 
L 417.493038 -284.334134 
L 418.000819 -282.888982 
L 418.5086 -281.437838 
L 419.01638 -279.980924 
L 419.524161 -278.518465 
L 420.031941 -277.050684 
L 420.539722 -275.577802 
L 421.047502 -274.100043 
L 421.555283 -272.617628 
L 422.063063 -271.130779 
L 422.570844 -269.639714 
L 423.078624 -268.144655 
L 423.586405 -266.645821 
L 424.094185 -265.143429 
L 424.601966 -263.637697 
L 425.109746 -262.128841 
L 425.617527 -260.617078 
L 426.125307 -259.102621 
L 426.633088 -257.585684 
L 427.140868 -256.066481 
L 427.648649 -254.545221 
L 428.156429 -253.022116 
L 428.66421 -251.497374 
L 429.17199 -249.971203 
L 429.679771 -248.443809 
L 430.187551 -246.915397 
L 430.695332 -245.386172 
L 431.203112 -243.856335 
L 431.710893 -242.326087 
L 432.218673 -240.795627 
L 432.726454 -239.265153 
L 433.234234 -237.734862 
L 433.742015 -236.204946 
L 434.249795 -234.6756 
L 434.757576 -233.147015 
L 435.265356 -231.619378 
L 435.773137 -230.09288 
L 436.280917 -228.567704 
L 436.788698 -227.044035 
L 437.296478 -225.522056 
L 437.804259 -224.001945 
L 438.312039 -222.483882 
L 438.81982 -220.968043 
L 439.3276 -219.454602 
L 439.835381 -217.943731 
L 440.343161 -216.435601 
L 440.850942 -214.930379 
L 441.358722 -213.428232 
L 441.866503 -211.929325 
L 442.374283 -210.433817 
L 442.882064 -208.941871 
L 443.389844 -207.453642 
L 443.897625 -205.969286 
L 444.405405 -204.488956 
L 444.913186 -203.012804 
L 445.420966 -201.540977 
L 445.928747 -200.073623 
L 446.436527 -198.610884 
L 446.944308 -197.152904 
L 447.452088 -195.699821 
L 447.959869 -194.251772 
L 448.467649 -192.808892 
L 448.97543 -191.371315 
L 449.48321 -189.939169 
L 449.990991 -188.512582 
L 450.498771 -187.091681 
L 451.006552 -185.676587 
L 451.514333 -184.267421 
L 452.022113 -182.864302 
L 452.529894 -181.467345 
L 453.037674 -180.076664 
L 453.545455 -178.692369 
L 454.053235 -177.31457 
L 454.561016 -175.943371 
L 455.068796 -174.578878 
L 455.576577 -173.22119 
L 456.084357 -171.870408 
L 456.592138 -170.526628 
L 457.099918 -169.189943 
L 457.607699 -167.860445 
L 458.115479 -166.538224 
L 458.62326 -165.223366 
L 459.13104 -163.915956 
L 459.638821 -162.616076 
L 460.146601 -161.323805 
L 460.654382 -160.039221 
L 461.162162 -158.762399 
L 461.669943 -157.493411 
L 462.177723 -156.232328 
L 462.685504 -154.979217 
L 463.193284 -153.734143 
L 463.701065 -152.497171 
L 464.208845 -151.268362 
L 464.716626 -150.047772 
L 465.224406 -148.83546 
L 465.732187 -147.631479 
L 466.239967 -146.435881 
L 466.747748 -145.248715 
L 467.255528 -144.070029 
L 467.763309 -142.899867 
L 468.271089 -141.738274 
L 468.77887 -140.585289 
L 469.28665 -139.440952 
L 469.794431 -138.305298 
L 470.302211 -137.178362 
L 470.809992 -136.060176 
L 471.317772 -134.950771 
L 471.825553 -133.850174 
L 472.333333 -132.758411 
L 472.841114 -131.675507 
L 473.348894 -130.601483 
L 473.856675 -129.536359 
L 474.364455 -128.480154 
L 474.872236 -127.432883 
L 475.380016 -126.39456 
L 475.887797 -125.365199 
L 476.395577 -124.344809 
L 476.903358 -123.333398 
L 477.411138 -122.330974 
L 477.918919 -121.337541 
L 478.426699 -120.353102 
L 478.93448 -119.377659 
L 479.44226 -118.411212 
L 479.950041 -117.453758 
L 480.457821 -116.505293 
L 480.965602 -115.565811 
L 481.473382 -114.635307 
L 481.981163 -113.713771 
L 482.488943 -112.801192 
L 482.996724 -111.89756 
L 483.504505 -111.002859 
L 484.012285 -110.117077 
L 484.520066 -109.240195 
L 485.027846 -108.372197 
L 485.535627 -107.513063 
L 486.043407 -106.662772 
L 486.551188 -105.821302 
L 487.058968 -104.98863 
L 487.566749 -104.164731 
L 488.074529 -103.349578 
L 488.58231 -102.543146 
L 489.09009 -101.745404 
L 489.597871 -100.956323 
L 490.105651 -100.175872 
L 490.613432 -99.404019 
L 491.121212 -98.64073 
L 491.628993 -97.885972 
L 492.136773 -97.139707 
L 492.644554 -96.401901 
L 493.152334 -95.672515 
L 493.660115 -94.95151 
L 494.167895 -94.238847 
L 494.675676 -93.534485 
L 495.183456 -92.838383 
L 495.691237 -92.150497 
L 496.199017 -91.470786 
L 496.706798 -90.799203 
L 497.214578 -90.135705 
L 497.722359 -89.480246 
L 498.230139 -88.832778 
L 498.73792 -88.193255 
L 499.2457 -87.561627 
L 499.753481 -86.937847 
L 500.261261 -86.321864 
L 500.769042 -85.713629 
L 501.276822 -85.11309 
L 501.784603 -84.520197 
L 502.292383 -83.934896 
L 502.800164 -83.357135 
L 503.307944 -82.786861 
L 503.815725 -82.224021 
L 504.323505 -81.668559 
L 504.831286 -81.120422 
L 505.339066 -80.579553 
L 505.846847 -80.045898 
L 506.354627 -79.5194 
L 506.862408 -79.000003 
L 507.370188 -78.487651 
L 507.877969 -77.982285 
L 508.385749 -77.483848 
L 508.89353 -76.992283 
L 509.40131 -76.507531 
L 509.909091 -76.029535 
L 510.416871 -75.558235 
L 510.924652 -75.093573 
L 511.432432 -74.635489 
L 511.940213 -74.183925 
L 512.447993 -73.73882 
L 512.955774 -73.300116 
L 513.463554 -72.867752 
L 513.971335 -72.441669 
L 514.479115 -72.021806 
L 514.986896 -71.608105 
L 515.494676 -71.200504 
L 516.002457 -70.798943 
L 516.510238 -70.403363 
L 517.018018 -70.013702 
L 517.525799 -69.629901 
L 518.033579 -69.2519 
L 518.54136 -68.879638 
L 519.04914 -68.513055 
L 519.556921 -68.152091 
L 520.064701 -67.796687 
L 520.572482 -67.446781 
L 521.080262 -67.102314 
L 521.588043 -66.763227 
L 522.095823 -66.42946 
L 522.603604 -66.100953 
L 523.111384 -65.777647 
L 523.619165 -65.459483 
L 524.126945 -65.146401 
L 524.634726 -64.838344 
L 525.142506 -64.535251 
L 525.650287 -64.237066 
L 526.158067 -63.943729 
L 526.665848 -63.655183 
L 527.173628 -63.37137 
L 527.681409 -63.092231 
L 528.189189 -62.817712 
L 528.69697 -62.547753 
L 529.20475 -62.282298 
L 529.712531 -62.021292 
L 530.220311 -61.764677 
L 530.728092 -61.512398 
L 531.235872 -61.2644 
L 531.743653 -61.020627 
L 532.251433 -60.781024 
L 532.759214 -60.545537 
L 533.266994 -60.314112 
L 533.774775 -60.086694 
L 534.282555 -59.863231 
L 534.790336 -59.643668 
L 535.298116 -59.427953 
L 535.805897 -59.216035 
L 536.313677 -59.007859 
L 536.821458 -58.803376 
L 537.329238 -58.602534 
L 537.837019 -58.405281 
L 538.344799 -58.211567 
L 538.85258 -58.021342 
L 539.36036 -57.834557 
L 539.868141 -57.651162 
L 540.375921 -57.471108 
L 540.883702 -57.294347 
L 541.391482 -57.12083 
L 541.899263 -56.95051 
L 542.407043 -56.78334 
L 542.914824 -56.619273 
L 543.422604 -56.458262 
L 543.930385 -56.300262 
L 544.438165 -56.145228 
L 544.945946 -55.993113 
L 545.453726 -55.843873 
L 545.961507 -55.697465 
L 546.469287 -55.553844 
L 546.977068 -55.412967 
L 547.484848 -55.274792 
L 547.992629 -55.139275 
L 548.50041 -55.006375 
L 549.00819 -54.876051 
L 549.515971 -54.74826 
L 550.023751 -54.622964 
L 550.531532 -54.50012 
L 551.039312 -54.37969 
L 551.547093 -54.261634 
L 552.054873 -54.145914 
L 552.562654 -54.032491 
L 553.070434 -53.921326 
L 553.578215 -53.812383 
L 554.085995 -53.705624 
L 554.593776 -53.601013 
L 555.101556 -53.498514 
L 555.609337 -53.39809 
L 556.117117 -53.299706 
L 556.624898 -53.203328 
L 557.132678 -53.108921 
L 557.640459 -53.01645 
L 558.148239 -52.925883 
L 558.65602 -52.837187 
L 559.1638 -52.750327 
L 559.671581 -52.665273 
L 560.179361 -52.581992 
L 560.687142 -52.500453 
L 561.194922 -52.420625 
L 561.702703 -52.342477 
L 562.210483 -52.265978 
L 562.718264 -52.1911 
L 563.226044 -52.117813 
L 563.733825 -52.046087 
L 564.241605 -51.975894 
L 564.749386 -51.907207 
L 565.257166 -51.839996 
L 565.764947 -51.774236 
L 566.272727 -51.709899 
L 566.780508 -51.646957 
L 567.288288 -51.585386 
L 567.796069 -51.52516 
L 568.303849 -51.466252 
L 568.81163 -51.408638 
L 569.31941 -51.352293 
L 569.827191 -51.297194 
L 570.334971 -51.243315 
L 570.842752 -51.190633 
L 571.350532 -51.139126 
L 571.858313 -51.08877 
L 572.366093 -51.039543 
L 572.873874 -50.991423 
L 573.381654 -50.944388 
L 573.889435 -50.898417 
L 574.397215 -50.853488 
L 574.904996 -50.809581 
L 575.412776 -50.766675 
L 575.920557 -50.72475 
L 576.428337 -50.683787 
L 576.936118 -50.643766 
L 577.443898 -50.604668 
L 577.951679 -50.566474 
L 578.459459 -50.529166 
L 578.96724 -50.492726 
L 579.47502 -50.457136 
L 579.982801 -50.422377 
L 580.490581 -50.388434 
L 580.998362 -50.355288 
L 581.506143 -50.322925 
L 582.013923 -50.291326 
L 582.521704 -50.260476 
L 583.029484 -50.230359 
L 583.537265 -50.20096 
L 584.045045 -50.172263 
L 584.552826 -50.144254 
L 585.060606 -50.116917 
L 585.568387 -50.090239 
L 586.076167 -50.064205 
L 586.583948 -50.038802 
L 587.091728 -50.014015 
L 587.599509 -49.989831 
L 588.107289 -49.966237 
L 588.61507 -49.94322 
L 589.12285 -49.920768 
L 589.630631 -49.898868 
L 590.138411 -49.877508 
L 590.646192 -49.856675 
L 591.153972 -49.836359 
L 591.661753 -49.816548 
L 592.169533 -49.797229 
L 592.677314 -49.778393 
L 593.185094 -49.760029 
L 593.692875 -49.742125 
L 594.200655 -49.724671 
L 594.708436 -49.707658 
L 595.216216 -49.691075 
L 595.723997 -49.674911 
L 596.231777 -49.659159 
L 596.739558 -49.643807 
L 597.247338 -49.628847 
L 597.755119 -49.614271 
L 598.262899 -49.600068 
L 598.77068 -49.58623 
L 599.27846 -49.572749 
L 599.786241 -49.559616 
L 600.294021 -49.546823 
L 600.801802 -49.534362 
L 601.309582 -49.522226 
L 601.817363 -49.510406 
L 602.325143 -49.498895 
L 602.832924 -49.487686 
L 603.340704 -49.476771 
L 603.848485 -49.466144 
L 604.356265 -49.455797 
L 604.864046 -49.445723 
L 605.371826 -49.435917 
L 605.879607 -49.426372 
L 606.387387 -49.41708 
L 606.895168 -49.408037 
L 607.402948 -49.399236 
L 607.910729 -49.390671 
L 608.418509 -49.382336 
L 608.92629 -49.374225 
L 609.43407 -49.366334 
L 609.941851 -49.358656 
L 610.449631 -49.351186 
L 610.957412 -49.34392 
L 611.465192 -49.336851 
L 611.972973 -49.329976 
L 612.480753 -49.323288 
L 612.988534 -49.316784 
L 613.496314 -49.310459 
L 614.004095 -49.304308 
L 614.511876 -49.298327 
L 615.019656 -49.292512 
L 615.527437 -49.286857 
L 616.035217 -49.28136 
L 616.542998 -49.276016 
L 617.050778 -49.270821 
L 617.558559 -49.265772 
L 618.066339 -49.260864 
L 618.57412 -49.256093 
L 619.0819 -49.251458 
L 619.589681 -49.246952 
L 620.097461 -49.242575 
L 620.605242 -49.238321 
L 621.113022 -49.234188 
L 621.620803 -49.230173 
L 622.128583 -49.226272 
L 622.636364 -49.222483 
L 622.636364 -49.101627 
L 622.636364 -49.101627 
L 622.128583 -49.101627 
L 621.620803 -49.101627 
L 621.113022 -49.101627 
L 620.605242 -49.101627 
L 620.097461 -49.101627 
L 619.589681 -49.101627 
L 619.0819 -49.101627 
L 618.57412 -49.101627 
L 618.066339 -49.101627 
L 617.558559 -49.101627 
L 617.050778 -49.101627 
L 616.542998 -49.101627 
L 616.035217 -49.101627 
L 615.527437 -49.101627 
L 615.019656 -49.101627 
L 614.511876 -49.101627 
L 614.004095 -49.101627 
L 613.496314 -49.101627 
L 612.988534 -49.101627 
L 612.480753 -49.101627 
L 611.972973 -49.101627 
L 611.465192 -49.101627 
L 610.957412 -49.101627 
L 610.449631 -49.101627 
L 609.941851 -49.101627 
L 609.43407 -49.101627 
L 608.92629 -49.101627 
L 608.418509 -49.101627 
L 607.910729 -49.101627 
L 607.402948 -49.101627 
L 606.895168 -49.101627 
L 606.387387 -49.101627 
L 605.879607 -49.101627 
L 605.371826 -49.101627 
L 604.864046 -49.101627 
L 604.356265 -49.101627 
L 603.848485 -49.101627 
L 603.340704 -49.101627 
L 602.832924 -49.101627 
L 602.325143 -49.101627 
L 601.817363 -49.101627 
L 601.309582 -49.101627 
L 600.801802 -49.101627 
L 600.294021 -49.101627 
L 599.786241 -49.101627 
L 599.27846 -49.101627 
L 598.77068 -49.101627 
L 598.262899 -49.101627 
L 597.755119 -49.101627 
L 597.247338 -49.101627 
L 596.739558 -49.101627 
L 596.231777 -49.101627 
L 595.723997 -49.101627 
L 595.216216 -49.101627 
L 594.708436 -49.101627 
L 594.200655 -49.101627 
L 593.692875 -49.101627 
L 593.185094 -49.101627 
L 592.677314 -49.101627 
L 592.169533 -49.101627 
L 591.661753 -49.101627 
L 591.153972 -49.101627 
L 590.646192 -49.101627 
L 590.138411 -49.101627 
L 589.630631 -49.101627 
L 589.12285 -49.101627 
L 588.61507 -49.101627 
L 588.107289 -49.101627 
L 587.599509 -49.101627 
L 587.091728 -49.101627 
L 586.583948 -49.101627 
L 586.076167 -49.101627 
L 585.568387 -49.101627 
L 585.060606 -49.101627 
L 584.552826 -49.101627 
L 584.045045 -49.101627 
L 583.537265 -49.101627 
L 583.029484 -49.101627 
L 582.521704 -49.101627 
L 582.013923 -49.101627 
L 581.506143 -49.101627 
L 580.998362 -49.101627 
L 580.490581 -49.101627 
L 579.982801 -49.101627 
L 579.47502 -49.101627 
L 578.96724 -49.101627 
L 578.459459 -49.101627 
L 577.951679 -49.101627 
L 577.443898 -49.101627 
L 576.936118 -49.101627 
L 576.428337 -49.101627 
L 575.920557 -49.101627 
L 575.412776 -49.101627 
L 574.904996 -49.101627 
L 574.397215 -49.101627 
L 573.889435 -49.101627 
L 573.381654 -49.101627 
L 572.873874 -49.101627 
L 572.366093 -49.101627 
L 571.858313 -49.101627 
L 571.350532 -49.101627 
L 570.842752 -49.101627 
L 570.334971 -49.101627 
L 569.827191 -49.101627 
L 569.31941 -49.101627 
L 568.81163 -49.101627 
L 568.303849 -49.101627 
L 567.796069 -49.101627 
L 567.288288 -49.101627 
L 566.780508 -49.101627 
L 566.272727 -49.101627 
L 565.764947 -49.101627 
L 565.257166 -49.101627 
L 564.749386 -49.101627 
L 564.241605 -49.101627 
L 563.733825 -49.101627 
L 563.226044 -49.101627 
L 562.718264 -49.101627 
L 562.210483 -49.101627 
L 561.702703 -49.101627 
L 561.194922 -49.101627 
L 560.687142 -49.101627 
L 560.179361 -49.101627 
L 559.671581 -49.101627 
L 559.1638 -49.101627 
L 558.65602 -49.101627 
L 558.148239 -49.101627 
L 557.640459 -49.101627 
L 557.132678 -49.101627 
L 556.624898 -49.101627 
L 556.117117 -49.101627 
L 555.609337 -49.101627 
L 555.101556 -49.101627 
L 554.593776 -49.101627 
L 554.085995 -49.101627 
L 553.578215 -49.101627 
L 553.070434 -49.101627 
L 552.562654 -49.101627 
L 552.054873 -49.101627 
L 551.547093 -49.101627 
L 551.039312 -49.101627 
L 550.531532 -49.101627 
L 550.023751 -49.101627 
L 549.515971 -49.101627 
L 549.00819 -49.101627 
L 548.50041 -49.101627 
L 547.992629 -49.101627 
L 547.484848 -49.101627 
L 546.977068 -49.101627 
L 546.469287 -49.101627 
L 545.961507 -49.101627 
L 545.453726 -49.101627 
L 544.945946 -49.101627 
L 544.438165 -49.101627 
L 543.930385 -49.101627 
L 543.422604 -49.101627 
L 542.914824 -49.101627 
L 542.407043 -49.101627 
L 541.899263 -49.101627 
L 541.391482 -49.101627 
L 540.883702 -49.101627 
L 540.375921 -49.101627 
L 539.868141 -49.101627 
L 539.36036 -49.101627 
L 538.85258 -49.101627 
L 538.344799 -49.101627 
L 537.837019 -49.101627 
L 537.329238 -49.101627 
L 536.821458 -49.101627 
L 536.313677 -49.101627 
L 535.805897 -49.101627 
L 535.298116 -49.101627 
L 534.790336 -49.101627 
L 534.282555 -49.101627 
L 533.774775 -49.101627 
L 533.266994 -49.101627 
L 532.759214 -49.101627 
L 532.251433 -49.101627 
L 531.743653 -49.101627 
L 531.235872 -49.101627 
L 530.728092 -49.101627 
L 530.220311 -49.101627 
L 529.712531 -49.101627 
L 529.20475 -49.101627 
L 528.69697 -49.101627 
L 528.189189 -49.101627 
L 527.681409 -49.101627 
L 527.173628 -49.101627 
L 526.665848 -49.101627 
L 526.158067 -49.101627 
L 525.650287 -49.101627 
L 525.142506 -49.101627 
L 524.634726 -49.101627 
L 524.126945 -49.101627 
L 523.619165 -49.101627 
L 523.111384 -49.101627 
L 522.603604 -49.101627 
L 522.095823 -49.101627 
L 521.588043 -49.101627 
L 521.080262 -49.101627 
L 520.572482 -49.101627 
L 520.064701 -49.101627 
L 519.556921 -49.101627 
L 519.04914 -49.101627 
L 518.54136 -49.101627 
L 518.033579 -49.101627 
L 517.525799 -49.101627 
L 517.018018 -49.101627 
L 516.510238 -49.101627 
L 516.002457 -49.101627 
L 515.494676 -49.101627 
L 514.986896 -49.101627 
L 514.479115 -49.101627 
L 513.971335 -49.101627 
L 513.463554 -49.101627 
L 512.955774 -49.101627 
L 512.447993 -49.101627 
L 511.940213 -49.101627 
L 511.432432 -49.101627 
L 510.924652 -49.101627 
L 510.416871 -49.101627 
L 509.909091 -49.101627 
L 509.40131 -49.101627 
L 508.89353 -49.101627 
L 508.385749 -49.101627 
L 507.877969 -49.101627 
L 507.370188 -49.101627 
L 506.862408 -49.101627 
L 506.354627 -49.101627 
L 505.846847 -49.101627 
L 505.339066 -49.101627 
L 504.831286 -49.101627 
L 504.323505 -49.101627 
L 503.815725 -49.101627 
L 503.307944 -49.101627 
L 502.800164 -49.101627 
L 502.292383 -49.101627 
L 501.784603 -49.101627 
L 501.276822 -49.101627 
L 500.769042 -49.101627 
L 500.261261 -49.101627 
L 499.753481 -49.101627 
L 499.2457 -49.101627 
L 498.73792 -49.101627 
L 498.230139 -49.101627 
L 497.722359 -49.101627 
L 497.214578 -49.101627 
L 496.706798 -49.101627 
L 496.199017 -49.101627 
L 495.691237 -49.101627 
L 495.183456 -49.101627 
L 494.675676 -49.101627 
L 494.167895 -49.101627 
L 493.660115 -49.101627 
L 493.152334 -49.101627 
L 492.644554 -49.101627 
L 492.136773 -49.101627 
L 491.628993 -49.101627 
L 491.121212 -49.101627 
L 490.613432 -49.101627 
L 490.105651 -49.101627 
L 489.597871 -49.101627 
L 489.09009 -49.101627 
L 488.58231 -49.101627 
L 488.074529 -49.101627 
L 487.566749 -49.101627 
L 487.058968 -49.101627 
L 486.551188 -49.101627 
L 486.043407 -49.101627 
L 485.535627 -49.101627 
L 485.027846 -49.101627 
L 484.520066 -49.101627 
L 484.012285 -49.101627 
L 483.504505 -49.101627 
L 482.996724 -49.101627 
L 482.488943 -49.101627 
L 481.981163 -49.101627 
L 481.473382 -49.101627 
L 480.965602 -49.101627 
L 480.457821 -49.101627 
L 479.950041 -49.101627 
L 479.44226 -49.101627 
L 478.93448 -49.101627 
L 478.426699 -49.101627 
L 477.918919 -49.101627 
L 477.411138 -49.101627 
L 476.903358 -49.101627 
L 476.395577 -49.101627 
L 475.887797 -49.101627 
L 475.380016 -49.101627 
L 474.872236 -49.101627 
L 474.364455 -49.101627 
L 473.856675 -49.101627 
L 473.348894 -49.101627 
L 472.841114 -49.101627 
L 472.333333 -49.101627 
L 471.825553 -49.101627 
L 471.317772 -49.101627 
L 470.809992 -49.101627 
L 470.302211 -49.101627 
L 469.794431 -49.101627 
L 469.28665 -49.101627 
L 468.77887 -49.101627 
L 468.271089 -49.101627 
L 467.763309 -49.101627 
L 467.255528 -49.101627 
L 466.747748 -49.101627 
L 466.239967 -49.101627 
L 465.732187 -49.101627 
L 465.224406 -49.101627 
L 464.716626 -49.101627 
L 464.208845 -49.101627 
L 463.701065 -49.101627 
L 463.193284 -49.101627 
L 462.685504 -49.101627 
L 462.177723 -49.101627 
L 461.669943 -49.101627 
L 461.162162 -49.101627 
L 460.654382 -49.101627 
L 460.146601 -49.101627 
L 459.638821 -49.101627 
L 459.13104 -49.101627 
L 458.62326 -49.101627 
L 458.115479 -49.101627 
L 457.607699 -49.101627 
L 457.099918 -49.101627 
L 456.592138 -49.101627 
L 456.084357 -49.101627 
L 455.576577 -49.101627 
L 455.068796 -49.101627 
L 454.561016 -49.101627 
L 454.053235 -49.101627 
L 453.545455 -49.101627 
L 453.037674 -49.101627 
L 452.529894 -49.101627 
L 452.022113 -49.101627 
L 451.514333 -49.101627 
L 451.006552 -49.101627 
L 450.498771 -49.101627 
L 449.990991 -49.101627 
L 449.48321 -49.101627 
L 448.97543 -49.101627 
L 448.467649 -49.101627 
L 447.959869 -49.101627 
L 447.452088 -49.101627 
L 446.944308 -49.101627 
L 446.436527 -49.101627 
L 445.928747 -49.101627 
L 445.420966 -49.101627 
L 444.913186 -49.101627 
L 444.405405 -49.101627 
L 443.897625 -49.101627 
L 443.389844 -49.101627 
L 442.882064 -49.101627 
L 442.374283 -49.101627 
L 441.866503 -49.101627 
L 441.358722 -49.101627 
L 440.850942 -49.101627 
L 440.343161 -49.101627 
L 439.835381 -49.101627 
L 439.3276 -49.101627 
L 438.81982 -49.101627 
L 438.312039 -49.101627 
L 437.804259 -49.101627 
L 437.296478 -49.101627 
L 436.788698 -49.101627 
L 436.280917 -49.101627 
L 435.773137 -49.101627 
L 435.265356 -49.101627 
L 434.757576 -49.101627 
L 434.249795 -49.101627 
L 433.742015 -49.101627 
L 433.234234 -49.101627 
L 432.726454 -49.101627 
L 432.218673 -49.101627 
L 431.710893 -49.101627 
L 431.203112 -49.101627 
L 430.695332 -49.101627 
L 430.187551 -49.101627 
L 429.679771 -49.101627 
L 429.17199 -49.101627 
L 428.66421 -49.101627 
L 428.156429 -49.101627 
L 427.648649 -49.101627 
L 427.140868 -49.101627 
L 426.633088 -49.101627 
L 426.125307 -49.101627 
L 425.617527 -49.101627 
L 425.109746 -49.101627 
L 424.601966 -49.101627 
L 424.094185 -49.101627 
L 423.586405 -49.101627 
L 423.078624 -49.101627 
L 422.570844 -49.101627 
L 422.063063 -49.101627 
L 421.555283 -49.101627 
L 421.047502 -49.101627 
L 420.539722 -49.101627 
L 420.031941 -49.101627 
L 419.524161 -49.101627 
L 419.01638 -49.101627 
L 418.5086 -49.101627 
L 418.000819 -49.101627 
L 417.493038 -49.101627 
L 416.985258 -49.101627 
L 416.477477 -49.101627 
L 415.969697 -49.101627 
L 415.461916 -49.101627 
L 414.954136 -49.101627 
L 414.446355 -49.101627 
L 413.938575 -49.101627 
L 413.430794 -49.101627 
L 412.923014 -49.101627 
L 412.415233 -49.101627 
L 411.907453 -49.101627 
L 411.399672 -49.101627 
L 410.891892 -49.101627 
L 410.384111 -49.101627 
L 409.876331 -49.101627 
L 409.36855 -49.101627 
L 408.86077 -49.101627 
L 408.352989 -49.101627 
L 407.845209 -49.101627 
L 407.337428 -49.101627 
L 406.829648 -49.101627 
L 406.321867 -49.101627 
L 405.814087 -49.101627 
L 405.306306 -49.101627 
L 404.798526 -49.101627 
L 404.290745 -49.101627 
L 403.782965 -49.101627 
L 403.275184 -49.101627 
L 402.767404 -49.101627 
L 402.259623 -49.101627 
L 401.751843 -49.101627 
L 401.244062 -49.101627 
L 400.736282 -49.101627 
L 400.228501 -49.101627 
L 399.720721 -49.101627 
L 399.21294 -49.101627 
L 398.70516 -49.101627 
L 398.197379 -49.101627 
L 397.689599 -49.101627 
L 397.181818 -49.101627 
L 396.674038 -49.101627 
L 396.166257 -49.101627 
L 395.658477 -49.101627 
L 395.150696 -49.101627 
L 394.642916 -49.101627 
L 394.135135 -49.101627 
L 393.627355 -49.101627 
L 393.119574 -49.101627 
L 392.611794 -49.101627 
L 392.104013 -49.101627 
L 391.596233 -49.101627 
L 391.088452 -49.101627 
L 390.580672 -49.101627 
L 390.072891 -49.101627 
L 389.565111 -49.101627 
L 389.05733 -49.101627 
L 388.54955 -49.101627 
L 388.041769 -49.101627 
L 387.533989 -49.101627 
L 387.026208 -49.101627 
L 386.518428 -49.101627 
L 386.010647 -49.101627 
L 385.502867 -49.101627 
L 384.995086 -49.101627 
L 384.487305 -49.101627 
L 383.979525 -49.101627 
L 383.471744 -49.101627 
L 382.963964 -49.101627 
L 382.456183 -49.101627 
L 381.948403 -49.101627 
L 381.440622 -49.101627 
L 380.932842 -49.101627 
L 380.425061 -49.101627 
L 379.917281 -49.101627 
L 379.4095 -49.101627 
L 378.90172 -49.101627 
L 378.393939 -49.101627 
L 377.886159 -49.101627 
L 377.378378 -49.101627 
L 376.870598 -49.101627 
L 376.362817 -49.101627 
L 375.855037 -49.101627 
L 375.347256 -49.101627 
L 374.839476 -49.101627 
L 374.331695 -49.101627 
L 373.823915 -49.101627 
L 373.316134 -49.101627 
L 372.808354 -49.101627 
L 372.300573 -49.101627 
L 371.792793 -49.101627 
L 371.285012 -49.101627 
L 370.777232 -49.101627 
L 370.269451 -49.101627 
L 369.761671 -49.101627 
L 369.25389 -49.101627 
L 368.74611 -49.101627 
L 368.238329 -49.101627 
L 367.730549 -49.101627 
L 367.222768 -49.101627 
L 366.714988 -49.101627 
L 366.207207 -49.101627 
L 365.699427 -49.101627 
L 365.191646 -49.101627 
L 364.683866 -49.101627 
L 364.176085 -49.101627 
L 363.668305 -49.101627 
L 363.160524 -49.101627 
L 362.652744 -49.101627 
L 362.144963 -49.101627 
L 361.637183 -49.101627 
L 361.129402 -49.101627 
L 360.621622 -49.101627 
L 360.113841 -49.101627 
L 359.606061 -49.101627 
L 359.09828 -49.101627 
L 358.5905 -49.101627 
L 358.082719 -49.101627 
L 357.574939 -49.101627 
L 357.067158 -49.101627 
L 356.559378 -49.101627 
L 356.051597 -49.101627 
L 355.543817 -49.101627 
L 355.036036 -49.101627 
L 354.528256 -49.101627 
L 354.020475 -49.101627 
L 353.512695 -49.101627 
L 353.004914 -49.101627 
L 352.497133 -49.101627 
L 351.989353 -49.101627 
L 351.481572 -49.101627 
L 350.973792 -49.101627 
L 350.466011 -49.101627 
L 349.958231 -49.101627 
L 349.45045 -49.101627 
L 348.94267 -49.101627 
L 348.434889 -49.101627 
L 347.927109 -49.101627 
L 347.419328 -49.101627 
L 346.911548 -49.101627 
L 346.403767 -49.101627 
L 345.895987 -49.101627 
L 345.388206 -49.101627 
L 344.880426 -49.101627 
L 344.372645 -49.101627 
L 343.864865 -49.101627 
L 343.357084 -49.101627 
L 342.849304 -49.101627 
L 342.341523 -49.101627 
L 341.833743 -49.101627 
L 341.325962 -49.101627 
L 340.818182 -49.101627 
L 340.310401 -49.101627 
L 339.802621 -49.101627 
L 339.29484 -49.101627 
L 338.78706 -49.101627 
L 338.279279 -49.101627 
L 337.771499 -49.101627 
L 337.263718 -49.101627 
L 336.755938 -49.101627 
L 336.248157 -49.101627 
L 335.740377 -49.101627 
L 335.232596 -49.101627 
L 334.724816 -49.101627 
L 334.217035 -49.101627 
L 333.709255 -49.101627 
L 333.201474 -49.101627 
L 332.693694 -49.101627 
L 332.185913 -49.101627 
L 331.678133 -49.101627 
L 331.170352 -49.101627 
L 330.662572 -49.101627 
L 330.154791 -49.101627 
L 329.647011 -49.101627 
L 329.13923 -49.101627 
L 328.63145 -49.101627 
L 328.123669 -49.101627 
L 327.615889 -49.101627 
L 327.108108 -49.101627 
L 326.600328 -49.101627 
L 326.092547 -49.101627 
L 325.584767 -49.101627 
L 325.076986 -49.101627 
L 324.569206 -49.101627 
L 324.061425 -49.101627 
L 323.553645 -49.101627 
L 323.045864 -49.101627 
L 322.538084 -49.101627 
L 322.030303 -49.101627 
L 321.522523 -49.101627 
L 321.014742 -49.101627 
L 320.506962 -49.101627 
L 319.999181 -49.101627 
L 319.4914 -49.101627 
L 318.98362 -49.101627 
L 318.475839 -49.101627 
L 317.968059 -49.101627 
L 317.460278 -49.101627 
L 316.952498 -49.101627 
L 316.444717 -49.101627 
L 315.936937 -49.101627 
L 315.429156 -49.101627 
L 314.921376 -49.101627 
L 314.413595 -49.101627 
L 313.905815 -49.101627 
L 313.398034 -49.101627 
L 312.890254 -49.101627 
L 312.382473 -49.101627 
L 311.874693 -49.101627 
L 311.366912 -49.101627 
L 310.859132 -49.101627 
L 310.351351 -49.101627 
L 309.843571 -49.101627 
L 309.33579 -49.101627 
L 308.82801 -49.101627 
L 308.320229 -49.101627 
L 307.812449 -49.101627 
L 307.304668 -49.101627 
L 306.796888 -49.101627 
L 306.289107 -49.101627 
L 305.781327 -49.101627 
L 305.273546 -49.101627 
L 304.765766 -49.101627 
L 304.257985 -49.101627 
L 303.750205 -49.101627 
L 303.242424 -49.101627 
L 302.734644 -49.101627 
L 302.226863 -49.101627 
L 301.719083 -49.101627 
L 301.211302 -49.101627 
L 300.703522 -49.101627 
L 300.195741 -49.101627 
L 299.687961 -49.101627 
L 299.18018 -49.101627 
L 298.6724 -49.101627 
L 298.164619 -49.101627 
L 297.656839 -49.101627 
L 297.149058 -49.101627 
L 296.641278 -49.101627 
L 296.133497 -49.101627 
L 295.625717 -49.101627 
L 295.117936 -49.101627 
L 294.610156 -49.101627 
L 294.102375 -49.101627 
L 293.594595 -49.101627 
L 293.086814 -49.101627 
L 292.579034 -49.101627 
L 292.071253 -49.101627 
L 291.563473 -49.101627 
L 291.055692 -49.101627 
L 290.547912 -49.101627 
L 290.040131 -49.101627 
L 289.532351 -49.101627 
L 289.02457 -49.101627 
L 288.51679 -49.101627 
L 288.009009 -49.101627 
L 287.501229 -49.101627 
L 286.993448 -49.101627 
L 286.485667 -49.101627 
L 285.977887 -49.101627 
L 285.470106 -49.101627 
L 284.962326 -49.101627 
L 284.454545 -49.101627 
L 283.946765 -49.101627 
L 283.438984 -49.101627 
L 282.931204 -49.101627 
L 282.423423 -49.101627 
L 281.915643 -49.101627 
L 281.407862 -49.101627 
L 280.900082 -49.101627 
L 280.392301 -49.101627 
L 279.884521 -49.101627 
L 279.37674 -49.101627 
L 278.86896 -49.101627 
L 278.361179 -49.101627 
L 277.853399 -49.101627 
L 277.345618 -49.101627 
L 276.837838 -49.101627 
L 276.330057 -49.101627 
L 275.822277 -49.101627 
L 275.314496 -49.101627 
L 274.806716 -49.101627 
L 274.298935 -49.101627 
L 273.791155 -49.101627 
L 273.283374 -49.101627 
L 272.775594 -49.101627 
L 272.267813 -49.101627 
L 271.760033 -49.101627 
L 271.252252 -49.101627 
L 270.744472 -49.101627 
L 270.236691 -49.101627 
L 269.728911 -49.101627 
L 269.22113 -49.101627 
L 268.71335 -49.101627 
L 268.205569 -49.101627 
L 267.697789 -49.101627 
L 267.190008 -49.101627 
L 266.682228 -49.101627 
L 266.174447 -49.101627 
L 265.666667 -49.101627 
L 265.158886 -49.101627 
L 264.651106 -49.101627 
L 264.143325 -49.101627 
L 263.635545 -49.101627 
L 263.127764 -49.101627 
L 262.619984 -49.101627 
L 262.112203 -49.101627 
L 261.604423 -49.101627 
L 261.096642 -49.101627 
L 260.588862 -49.101627 
L 260.081081 -49.101627 
L 259.573301 -49.101627 
L 259.06552 -49.101627 
L 258.55774 -49.101627 
L 258.049959 -49.101627 
L 257.542179 -49.101627 
L 257.034398 -49.101627 
L 256.526618 -49.101627 
L 256.018837 -49.101627 
L 255.511057 -49.101627 
L 255.003276 -49.101627 
L 254.495495 -49.101627 
L 253.987715 -49.101627 
L 253.479934 -49.101627 
L 252.972154 -49.101627 
L 252.464373 -49.101627 
L 251.956593 -49.101627 
L 251.448812 -49.101627 
L 250.941032 -49.101627 
L 250.433251 -49.101627 
L 249.925471 -49.101627 
L 249.41769 -49.101627 
L 248.90991 -49.101627 
L 248.402129 -49.101627 
L 247.894349 -49.101627 
L 247.386568 -49.101627 
L 246.878788 -49.101627 
L 246.371007 -49.101627 
L 245.863227 -49.101627 
L 245.355446 -49.101627 
L 244.847666 -49.101627 
L 244.339885 -49.101627 
L 243.832105 -49.101627 
L 243.324324 -49.101627 
L 242.816544 -49.101627 
L 242.308763 -49.101627 
L 241.800983 -49.101627 
L 241.293202 -49.101627 
L 240.785422 -49.101627 
L 240.277641 -49.101627 
L 239.769861 -49.101627 
L 239.26208 -49.101627 
L 238.7543 -49.101627 
L 238.246519 -49.101627 
L 237.738739 -49.101627 
L 237.230958 -49.101627 
L 236.723178 -49.101627 
L 236.215397 -49.101627 
L 235.707617 -49.101627 
L 235.199836 -49.101627 
L 234.692056 -49.101627 
L 234.184275 -49.101627 
L 233.676495 -49.101627 
L 233.168714 -49.101627 
L 232.660934 -49.101627 
L 232.153153 -49.101627 
L 231.645373 -49.101627 
L 231.137592 -49.101627 
L 230.629812 -49.101627 
L 230.122031 -49.101627 
L 229.614251 -49.101627 
L 229.10647 -49.101627 
L 228.59869 -49.101627 
L 228.090909 -49.101627 
L 227.583129 -49.101627 
L 227.075348 -49.101627 
L 226.567568 -49.101627 
L 226.059787 -49.101627 
L 225.552007 -49.101627 
L 225.044226 -49.101627 
L 224.536446 -49.101627 
L 224.028665 -49.101627 
L 223.520885 -49.101627 
L 223.013104 -49.101627 
L 222.505324 -49.101627 
L 221.997543 -49.101627 
L 221.489762 -49.101627 
L 220.981982 -49.101627 
L 220.474201 -49.101627 
L 219.966421 -49.101627 
L 219.45864 -49.101627 
L 218.95086 -49.101627 
L 218.443079 -49.101627 
L 217.935299 -49.101627 
L 217.427518 -49.101627 
L 216.919738 -49.101627 
L 216.411957 -49.101627 
L 215.904177 -49.101627 
L 215.396396 -49.101627 
L 214.888616 -49.101627 
L 214.380835 -49.101627 
L 213.873055 -49.101627 
L 213.365274 -49.101627 
L 212.857494 -49.101627 
L 212.349713 -49.101627 
L 211.841933 -49.101627 
L 211.334152 -49.101627 
L 210.826372 -49.101627 
L 210.318591 -49.101627 
L 209.810811 -49.101627 
L 209.30303 -49.101627 
L 208.79525 -49.101627 
L 208.287469 -49.101627 
L 207.779689 -49.101627 
L 207.271908 -49.101627 
L 206.764128 -49.101627 
L 206.256347 -49.101627 
L 205.748567 -49.101627 
L 205.240786 -49.101627 
L 204.733006 -49.101627 
L 204.225225 -49.101627 
L 203.717445 -49.101627 
L 203.209664 -49.101627 
L 202.701884 -49.101627 
L 202.194103 -49.101627 
L 201.686323 -49.101627 
L 201.178542 -49.101627 
L 200.670762 -49.101627 
L 200.162981 -49.101627 
L 199.655201 -49.101627 
L 199.14742 -49.101627 
L 198.63964 -49.101627 
L 198.131859 -49.101627 
L 197.624079 -49.101627 
L 197.116298 -49.101627 
L 196.608518 -49.101627 
L 196.100737 -49.101627 
L 195.592957 -49.101627 
L 195.085176 -49.101627 
L 194.577396 -49.101627 
L 194.069615 -49.101627 
L 193.561835 -49.101627 
L 193.054054 -49.101627 
L 192.546274 -49.101627 
L 192.038493 -49.101627 
L 191.530713 -49.101627 
L 191.022932 -49.101627 
L 190.515152 -49.101627 
L 190.007371 -49.101627 
L 189.49959 -49.101627 
L 188.99181 -49.101627 
L 188.484029 -49.101627 
L 187.976249 -49.101627 
L 187.468468 -49.101627 
L 186.960688 -49.101627 
L 186.452907 -49.101627 
L 185.945127 -49.101627 
L 185.437346 -49.101627 
L 184.929566 -49.101627 
L 184.421785 -49.101627 
L 183.914005 -49.101627 
L 183.406224 -49.101627 
L 182.898444 -49.101627 
L 182.390663 -49.101627 
L 181.882883 -49.101627 
L 181.375102 -49.101627 
L 180.867322 -49.101627 
L 180.359541 -49.101627 
L 179.851761 -49.101627 
L 179.34398 -49.101627 
L 178.8362 -49.101627 
L 178.328419 -49.101627 
L 177.820639 -49.101627 
L 177.312858 -49.101627 
L 176.805078 -49.101627 
L 176.297297 -49.101627 
L 175.789517 -49.101627 
L 175.281736 -49.101627 
L 174.773956 -49.101627 
L 174.266175 -49.101627 
L 173.758395 -49.101627 
L 173.250614 -49.101627 
L 172.742834 -49.101627 
L 172.235053 -49.101627 
L 171.727273 -49.101627 
L 171.219492 -49.101627 
L 170.711712 -49.101627 
L 170.203931 -49.101627 
L 169.696151 -49.101627 
L 169.18837 -49.101627 
L 168.68059 -49.101627 
L 168.172809 -49.101627 
L 167.665029 -49.101627 
L 167.157248 -49.101627 
L 166.649468 -49.101627 
L 166.141687 -49.101627 
L 165.633907 -49.101627 
L 165.126126 -49.101627 
L 164.618346 -49.101627 
L 164.110565 -49.101627 
L 163.602785 -49.101627 
L 163.095004 -49.101627 
L 162.587224 -49.101627 
L 162.079443 -49.101627 
L 161.571663 -49.101627 
L 161.063882 -49.101627 
L 160.556102 -49.101627 
L 160.048321 -49.101627 
L 159.540541 -49.101627 
L 159.03276 -49.101627 
L 158.52498 -49.101627 
L 158.017199 -49.101627 
L 157.509419 -49.101627 
L 157.001638 -49.101627 
L 156.493857 -49.101627 
L 155.986077 -49.101627 
L 155.478296 -49.101627 
L 154.970516 -49.101627 
L 154.462735 -49.101627 
L 153.954955 -49.101627 
L 153.447174 -49.101627 
L 152.939394 -49.101627 
L 152.431613 -49.101627 
L 151.923833 -49.101627 
L 151.416052 -49.101627 
L 150.908272 -49.101627 
L 150.400491 -49.101627 
L 149.892711 -49.101627 
L 149.38493 -49.101627 
L 148.87715 -49.101627 
L 148.369369 -49.101627 
L 147.861589 -49.101627 
L 147.353808 -49.101627 
L 146.846028 -49.101627 
L 146.338247 -49.101627 
L 145.830467 -49.101627 
L 145.322686 -49.101627 
L 144.814906 -49.101627 
L 144.307125 -49.101627 
L 143.799345 -49.101627 
L 143.291564 -49.101627 
L 142.783784 -49.101627 
L 142.276003 -49.101627 
L 141.768223 -49.101627 
L 141.260442 -49.101627 
L 140.752662 -49.101627 
L 140.244881 -49.101627 
L 139.737101 -49.101627 
L 139.22932 -49.101627 
L 138.72154 -49.101627 
L 138.213759 -49.101627 
L 137.705979 -49.101627 
L 137.198198 -49.101627 
L 136.690418 -49.101627 
L 136.182637 -49.101627 
L 135.674857 -49.101627 
L 135.167076 -49.101627 
L 134.659296 -49.101627 
L 134.151515 -49.101627 
L 133.643735 -49.101627 
L 133.135954 -49.101627 
L 132.628174 -49.101627 
L 132.120393 -49.101627 
L 131.612613 -49.101627 
L 131.104832 -49.101627 
L 130.597052 -49.101627 
L 130.089271 -49.101627 
L 129.581491 -49.101627 
L 129.07371 -49.101627 
L 128.56593 -49.101627 
L 128.058149 -49.101627 
L 127.550369 -49.101627 
L 127.042588 -49.101627 
L 126.534808 -49.101627 
L 126.027027 -49.101627 
L 125.519247 -49.101627 
L 125.011466 -49.101627 
L 124.503686 -49.101627 
L 123.995905 -49.101627 
L 123.488124 -49.101627 
L 122.980344 -49.101627 
L 122.472563 -49.101627 
L 121.964783 -49.101627 
L 121.457002 -49.101627 
L 120.949222 -49.101627 
L 120.441441 -49.101627 
L 119.933661 -49.101627 
L 119.42588 -49.101627 
L 118.9181 -49.101627 
L 118.410319 -49.101627 
L 117.902539 -49.101627 
L 117.394758 -49.101627 
L 116.886978 -49.101627 
L 116.379197 -49.101627 
L 115.871417 -49.101627 
L 115.363636 -49.101627 
z
" style="stroke: #b979d5; stroke-opacity: 0.2"/>
    </defs>
    <g clip-path="url(#pf0ca339695)">
     <use xlink:href="#md9af2c5bf7" x="0" y="432" style="fill: #b979d5; fill-opacity: 0.2; stroke: #b979d5; stroke-opacity: 0.2"/>
    </g>
   </g>
   <g id="matplotlib.axis_1">
    <g id="xtick_1">
     <g id="line2d_1">
      <defs>
       <path id="m36cafe50b6" d="M 0 0 
L 0 3.5 
" style="stroke: #bbc1cd; stroke-width: 0.8"/>
      </defs>
      <g>
       <use xlink:href="#m36cafe50b6" x="115.363636" y="384.48" style="fill: #bbc1cd; stroke: #bbc1cd; stroke-width: 0.8"/>
      </g>
     </g>
     <g id="text_1">
      <!-- 4 -->
      <g style="fill: #bbc1cd" transform="translate(107.992543 399.078438) scale(0.1 -0.1)">
       <defs>
        <path id="DejaVuSans-2212" d="M 678 2272 
L 4684 2272 
L 4684 1741 
L 678 1741 
L 678 2272 
z
" transform="scale(0.015625)"/>
        <path id="DejaVuSans-34" d="M 2419 4116 
L 825 1625 
L 2419 1625 
L 2419 4116 
z
M 2253 4666 
L 3047 4666 
L 3047 1625 
L 3713 1625 
L 3713 1100 
L 3047 1100 
L 3047 0 
L 2419 0 
L 2419 1100 
L 313 1100 
L 313 1709 
L 2253 4666 
z
" transform="scale(0.015625)"/>
       </defs>
       <use xlink:href="#DejaVuSans-2212"/>
       <use xlink:href="#DejaVuSans-34" x="83.789062"/>
      </g>
     </g>
    </g>
    <g id="xtick_2">
     <g id="line2d_2">
      <g>
       <use xlink:href="#m36cafe50b6" x="178.772727" y="384.48" style="fill: #bbc1cd; stroke: #bbc1cd; stroke-width: 0.8"/>
      </g>
     </g>
     <g id="text_2">
      <!-- 3 -->
      <g style="fill: #bbc1cd" transform="translate(171.401634 399.078438) scale(0.1 -0.1)">
       <defs>
        <path id="DejaVuSans-33" d="M 2597 2516 
Q 3050 2419 3304 2112 
Q 3559 1806 3559 1356 
Q 3559 666 3084 287 
Q 2609 -91 1734 -91 
Q 1441 -91 1130 -33 
Q 819 25 488 141 
L 488 750 
Q 750 597 1062 519 
Q 1375 441 1716 441 
Q 2309 441 2620 675 
Q 2931 909 2931 1356 
Q 2931 1769 2642 2001 
Q 2353 2234 1838 2234 
L 1294 2234 
L 1294 2753 
L 1863 2753 
Q 2328 2753 2575 2939 
Q 2822 3125 2822 3475 
Q 2822 3834 2567 4026 
Q 2313 4219 1838 4219 
Q 1578 4219 1281 4162 
Q 984 4106 628 3988 
L 628 4550 
Q 988 4650 1302 4700 
Q 1616 4750 1894 4750 
Q 2613 4750 3031 4423 
Q 3450 4097 3450 3541 
Q 3450 3153 3228 2886 
Q 3006 2619 2597 2516 
z
" transform="scale(0.015625)"/>
       </defs>
       <use xlink:href="#DejaVuSans-2212"/>
       <use xlink:href="#DejaVuSans-33" x="83.789062"/>
      </g>
     </g>
    </g>
    <g id="xtick_3">
     <g id="line2d_3">
      <g>
       <use xlink:href="#m36cafe50b6" x="242.181818" y="384.48" style="fill: #bbc1cd; stroke: #bbc1cd; stroke-width: 0.8"/>
      </g>
     </g>
     <g id="text_3">
      <!-- 2 -->
      <g style="fill: #bbc1cd" transform="translate(234.810724 399.078438) scale(0.1 -0.1)">
       <defs>
        <path id="DejaVuSans-32" d="M 1228 531 
L 3431 531 
L 3431 0 
L 469 0 
L 469 531 
Q 828 903 1448 1529 
Q 2069 2156 2228 2338 
Q 2531 2678 2651 2914 
Q 2772 3150 2772 3378 
Q 2772 3750 2511 3984 
Q 2250 4219 1831 4219 
Q 1534 4219 1204 4116 
Q 875 4013 500 3803 
L 500 4441 
Q 881 4594 1212 4672 
Q 1544 4750 1819 4750 
Q 2544 4750 2975 4387 
Q 3406 4025 3406 3419 
Q 3406 3131 3298 2873 
Q 3191 2616 2906 2266 
Q 2828 2175 2409 1742 
Q 1991 1309 1228 531 
z
" transform="scale(0.015625)"/>
       </defs>
       <use xlink:href="#DejaVuSans-2212"/>
       <use xlink:href="#DejaVuSans-32" x="83.789062"/>
      </g>
     </g>
    </g>
    <g id="xtick_4">
     <g id="line2d_4">
      <g>
       <use xlink:href="#m36cafe50b6" x="305.590909" y="384.48" style="fill: #bbc1cd; stroke: #bbc1cd; stroke-width: 0.8"/>
      </g>
     </g>
     <g id="text_4">
      <!-- 1 -->
      <g style="fill: #bbc1cd" transform="translate(298.219815 399.078438) scale(0.1 -0.1)">
       <defs>
        <path id="DejaVuSans-31" d="M 794 531 
L 1825 531 
L 1825 4091 
L 703 3866 
L 703 4441 
L 1819 4666 
L 2450 4666 
L 2450 531 
L 3481 531 
L 3481 0 
L 794 0 
L 794 531 
z
" transform="scale(0.015625)"/>
       </defs>
       <use xlink:href="#DejaVuSans-2212"/>
       <use xlink:href="#DejaVuSans-31" x="83.789062"/>
      </g>
     </g>
    </g>
    <g id="xtick_5">
     <g id="line2d_5">
      <g>
       <use xlink:href="#m36cafe50b6" x="369" y="384.48" style="fill: #bbc1cd; stroke: #bbc1cd; stroke-width: 0.8"/>
      </g>
     </g>
     <g id="text_5">
      <!-- 0 -->
      <g style="fill: #bbc1cd" transform="translate(365.81875 399.078438) scale(0.1 -0.1)">
       <defs>
        <path id="DejaVuSans-30" d="M 2034 4250 
Q 1547 4250 1301 3770 
Q 1056 3291 1056 2328 
Q 1056 1369 1301 889 
Q 1547 409 2034 409 
Q 2525 409 2770 889 
Q 3016 1369 3016 2328 
Q 3016 3291 2770 3770 
Q 2525 4250 2034 4250 
z
M 2034 4750 
Q 2819 4750 3233 4129 
Q 3647 3509 3647 2328 
Q 3647 1150 3233 529 
Q 2819 -91 2034 -91 
Q 1250 -91 836 529 
Q 422 1150 422 2328 
Q 422 3509 836 4129 
Q 1250 4750 2034 4750 
z
" transform="scale(0.015625)"/>
       </defs>
       <use xlink:href="#DejaVuSans-30"/>
      </g>
     </g>
    </g>
    <g id="xtick_6">
     <g id="line2d_6">
      <g>
       <use xlink:href="#m36cafe50b6" x="432.409091" y="384.48" style="fill: #bbc1cd; stroke: #bbc1cd; stroke-width: 0.8"/>
      </g>
     </g>
     <g id="text_6">
      <!-- 1 -->
      <g style="fill: #bbc1cd" transform="translate(429.227841 399.078438) scale(0.1 -0.1)">
       <use xlink:href="#DejaVuSans-31"/>
      </g>
     </g>
    </g>
    <g id="xtick_7">
     <g id="line2d_7">
      <g>
       <use xlink:href="#m36cafe50b6" x="495.818182" y="384.48" style="fill: #bbc1cd; stroke: #bbc1cd; stroke-width: 0.8"/>
      </g>
     </g>
     <g id="text_7">
      <!-- 2 -->
      <g style="fill: #bbc1cd" transform="translate(492.636932 399.078438) scale(0.1 -0.1)">
       <use xlink:href="#DejaVuSans-32"/>
      </g>
     </g>
    </g>
    <g id="xtick_8">
     <g id="line2d_8">
      <g>
       <use xlink:href="#m36cafe50b6" x="559.227273" y="384.48" style="fill: #bbc1cd; stroke: #bbc1cd; stroke-width: 0.8"/>
      </g>
     </g>
     <g id="text_8">
      <!-- 3 -->
      <g style="fill: #bbc1cd" transform="translate(556.046023 399.078438) scale(0.1 -0.1)">
       <use xlink:href="#DejaVuSans-33"/>
      </g>
     </g>
    </g>
    <g id="xtick_9">
     <g id="line2d_9">
      <g>
       <use xlink:href="#m36cafe50b6" x="622.636364" y="384.48" style="fill: #bbc1cd; stroke: #bbc1cd; stroke-width: 0.8"/>
      </g>
     </g>
     <g id="text_9">
      <!-- 4 -->
      <g style="fill: #bbc1cd" transform="translate(619.455114 399.078438) scale(0.1 -0.1)">
       <use xlink:href="#DejaVuSans-34"/>
      </g>
     </g>
    </g>
    <g id="text_10">
     <!-- Standardized Difference -->
     <g style="fill: #bbc1cd" transform="translate(300.364844 412.756563) scale(0.1 -0.1)">
      <defs>
       <path id="DejaVuSans-Bold-53" d="M 3834 4519 
L 3834 3531 
Q 3450 3703 3084 3790 
Q 2719 3878 2394 3878 
Q 1963 3878 1756 3759 
Q 1550 3641 1550 3391 
Q 1550 3203 1689 3098 
Q 1828 2994 2194 2919 
L 2706 2816 
Q 3484 2659 3812 2340 
Q 4141 2022 4141 1434 
Q 4141 663 3683 286 
Q 3225 -91 2284 -91 
Q 1841 -91 1394 -6 
Q 947 78 500 244 
L 500 1259 
Q 947 1022 1364 901 
Q 1781 781 2169 781 
Q 2563 781 2772 912 
Q 2981 1044 2981 1288 
Q 2981 1506 2839 1625 
Q 2697 1744 2272 1838 
L 1806 1941 
Q 1106 2091 782 2419 
Q 459 2747 459 3303 
Q 459 4000 909 4375 
Q 1359 4750 2203 4750 
Q 2588 4750 2994 4692 
Q 3400 4634 3834 4519 
z
" transform="scale(0.015625)"/>
       <path id="DejaVuSans-Bold-74" d="M 1759 4494 
L 1759 3500 
L 2913 3500 
L 2913 2700 
L 1759 2700 
L 1759 1216 
Q 1759 972 1856 886 
Q 1953 800 2241 800 
L 2816 800 
L 2816 0 
L 1856 0 
Q 1194 0 917 276 
Q 641 553 641 1216 
L 641 2700 
L 84 2700 
L 84 3500 
L 641 3500 
L 641 4494 
L 1759 4494 
z
" transform="scale(0.015625)"/>
       <path id="DejaVuSans-Bold-61" d="M 2106 1575 
Q 1756 1575 1579 1456 
Q 1403 1338 1403 1106 
Q 1403 894 1545 773 
Q 1688 653 1941 653 
Q 2256 653 2472 879 
Q 2688 1106 2688 1447 
L 2688 1575 
L 2106 1575 
z
M 3816 1997 
L 3816 0 
L 2688 0 
L 2688 519 
Q 2463 200 2181 54 
Q 1900 -91 1497 -91 
Q 953 -91 614 226 
Q 275 544 275 1050 
Q 275 1666 698 1953 
Q 1122 2241 2028 2241 
L 2688 2241 
L 2688 2328 
Q 2688 2594 2478 2717 
Q 2269 2841 1825 2841 
Q 1466 2841 1156 2769 
Q 847 2697 581 2553 
L 581 3406 
Q 941 3494 1303 3539 
Q 1666 3584 2028 3584 
Q 2975 3584 3395 3211 
Q 3816 2838 3816 1997 
z
" transform="scale(0.015625)"/>
       <path id="DejaVuSans-Bold-6e" d="M 4056 2131 
L 4056 0 
L 2931 0 
L 2931 347 
L 2931 1631 
Q 2931 2084 2911 2256 
Q 2891 2428 2841 2509 
Q 2775 2619 2662 2680 
Q 2550 2741 2406 2741 
Q 2056 2741 1856 2470 
Q 1656 2200 1656 1722 
L 1656 0 
L 538 0 
L 538 3500 
L 1656 3500 
L 1656 2988 
Q 1909 3294 2193 3439 
Q 2478 3584 2822 3584 
Q 3428 3584 3742 3212 
Q 4056 2841 4056 2131 
z
" transform="scale(0.015625)"/>
       <path id="DejaVuSans-Bold-64" d="M 2919 2988 
L 2919 4863 
L 4044 4863 
L 4044 0 
L 2919 0 
L 2919 506 
Q 2688 197 2409 53 
Q 2131 -91 1766 -91 
Q 1119 -91 703 423 
Q 288 938 288 1747 
Q 288 2556 703 3070 
Q 1119 3584 1766 3584 
Q 2128 3584 2408 3439 
Q 2688 3294 2919 2988 
z
M 2181 722 
Q 2541 722 2730 984 
Q 2919 1247 2919 1747 
Q 2919 2247 2730 2509 
Q 2541 2772 2181 2772 
Q 1825 2772 1636 2509 
Q 1447 2247 1447 1747 
Q 1447 1247 1636 984 
Q 1825 722 2181 722 
z
" transform="scale(0.015625)"/>
       <path id="DejaVuSans-Bold-72" d="M 3138 2547 
Q 2991 2616 2845 2648 
Q 2700 2681 2553 2681 
Q 2122 2681 1889 2404 
Q 1656 2128 1656 1613 
L 1656 0 
L 538 0 
L 538 3500 
L 1656 3500 
L 1656 2925 
Q 1872 3269 2151 3426 
Q 2431 3584 2822 3584 
Q 2878 3584 2943 3579 
Q 3009 3575 3134 3559 
L 3138 2547 
z
" transform="scale(0.015625)"/>
       <path id="DejaVuSans-Bold-69" d="M 538 3500 
L 1656 3500 
L 1656 0 
L 538 0 
L 538 3500 
z
M 538 4863 
L 1656 4863 
L 1656 3950 
L 538 3950 
L 538 4863 
z
" transform="scale(0.015625)"/>
       <path id="DejaVuSans-Bold-7a" d="M 366 3500 
L 3419 3500 
L 3419 2719 
L 1575 800 
L 3419 800 
L 3419 0 
L 288 0 
L 288 781 
L 2131 2700 
L 366 2700 
L 366 3500 
z
" transform="scale(0.015625)"/>
       <path id="DejaVuSans-Bold-65" d="M 4031 1759 
L 4031 1441 
L 1416 1441 
Q 1456 1047 1700 850 
Q 1944 653 2381 653 
Q 2734 653 3104 758 
Q 3475 863 3866 1075 
L 3866 213 
Q 3469 63 3072 -14 
Q 2675 -91 2278 -91 
Q 1328 -91 801 392 
Q 275 875 275 1747 
Q 275 2603 792 3093 
Q 1309 3584 2216 3584 
Q 3041 3584 3536 3087 
Q 4031 2591 4031 1759 
z
M 2881 2131 
Q 2881 2450 2695 2645 
Q 2509 2841 2209 2841 
Q 1884 2841 1681 2658 
Q 1478 2475 1428 2131 
L 2881 2131 
z
" transform="scale(0.015625)"/>
       <path id="DejaVuSans-Bold-20" transform="scale(0.015625)"/>
       <path id="DejaVuSans-Bold-44" d="M 1791 3756 
L 1791 909 
L 2222 909 
Q 2959 909 3348 1275 
Q 3738 1641 3738 2338 
Q 3738 3031 3350 3393 
Q 2963 3756 2222 3756 
L 1791 3756 
z
M 588 4666 
L 1856 4666 
Q 2919 4666 3439 4514 
Q 3959 4363 4331 4000 
Q 4659 3684 4818 3271 
Q 4978 2859 4978 2338 
Q 4978 1809 4818 1395 
Q 4659 981 4331 666 
Q 3956 303 3431 151 
Q 2906 0 1856 0 
L 588 0 
L 588 4666 
z
" transform="scale(0.015625)"/>
       <path id="DejaVuSans-Bold-66" d="M 2841 4863 
L 2841 4128 
L 2222 4128 
Q 1984 4128 1890 4042 
Q 1797 3956 1797 3744 
L 1797 3500 
L 2753 3500 
L 2753 2700 
L 1797 2700 
L 1797 0 
L 678 0 
L 678 2700 
L 122 2700 
L 122 3500 
L 678 3500 
L 678 3744 
Q 678 4316 997 4589 
Q 1316 4863 1984 4863 
L 2841 4863 
z
" transform="scale(0.015625)"/>
       <path id="DejaVuSans-Bold-63" d="M 3366 3391 
L 3366 2478 
Q 3138 2634 2908 2709 
Q 2678 2784 2431 2784 
Q 1963 2784 1702 2511 
Q 1441 2238 1441 1747 
Q 1441 1256 1702 982 
Q 1963 709 2431 709 
Q 2694 709 2930 787 
Q 3166 866 3366 1019 
L 3366 103 
Q 3103 6 2833 -42 
Q 2563 -91 2291 -91 
Q 1344 -91 809 395 
Q 275 881 275 1747 
Q 275 2613 809 3098 
Q 1344 3584 2291 3584 
Q 2566 3584 2833 3536 
Q 3100 3488 3366 3391 
z
" transform="scale(0.015625)"/>
      </defs>
      <use xlink:href="#DejaVuSans-Bold-53"/>
      <use xlink:href="#DejaVuSans-Bold-74" x="72.021484"/>
      <use xlink:href="#DejaVuSans-Bold-61" x="119.824219"/>
      <use xlink:href="#DejaVuSans-Bold-6e" x="187.304688"/>
      <use xlink:href="#DejaVuSans-Bold-64" x="258.496094"/>
      <use xlink:href="#DejaVuSans-Bold-61" x="330.078125"/>
      <use xlink:href="#DejaVuSans-Bold-72" x="397.558594"/>
      <use xlink:href="#DejaVuSans-Bold-64" x="446.875"/>
      <use xlink:href="#DejaVuSans-Bold-69" x="518.457031"/>
      <use xlink:href="#DejaVuSans-Bold-7a" x="552.734375"/>
      <use xlink:href="#DejaVuSans-Bold-65" x="610.9375"/>
      <use xlink:href="#DejaVuSans-Bold-64" x="678.759766"/>
      <use xlink:href="#DejaVuSans-Bold-20" x="750.341797"/>
      <use xlink:href="#DejaVuSans-Bold-44" x="785.15625"/>
      <use xlink:href="#DejaVuSans-Bold-69" x="868.164062"/>
      <use xlink:href="#DejaVuSans-Bold-66" x="902.441406"/>
      <use xlink:href="#DejaVuSans-Bold-66" x="945.947266"/>
      <use xlink:href="#DejaVuSans-Bold-65" x="989.453125"/>
      <use xlink:href="#DejaVuSans-Bold-72" x="1057.275391"/>
      <use xlink:href="#DejaVuSans-Bold-65" x="1106.591797"/>
      <use xlink:href="#DejaVuSans-Bold-6e" x="1174.414062"/>
      <use xlink:href="#DejaVuSans-Bold-63" x="1245.605469"/>
      <use xlink:href="#DejaVuSans-Bold-65" x="1304.882812"/>
     </g>
    </g>
   </g>
   <g id="matplotlib.axis_2">
    <g id="ytick_1">
     <g id="line2d_10">
      <defs>
       <path id="m7fad19616e" d="M 0 0 
L -3.5 0 
" style="stroke: #bbc1cd; stroke-width: 0.8"/>
      </defs>
      <g>
       <use xlink:href="#m7fad19616e" x="90" y="382.898373" style="fill: #bbc1cd; stroke: #bbc1cd; stroke-width: 0.8"/>
      </g>
     </g>
     <g id="text_11">
      <!-- 0.00 -->
      <g style="fill: #bbc1cd" transform="translate(60.734375 386.697591) scale(0.1 -0.1)">
       <defs>
        <path id="DejaVuSans-2e" d="M 684 794 
L 1344 794 
L 1344 0 
L 684 0 
L 684 794 
z
" transform="scale(0.015625)"/>
       </defs>
       <use xlink:href="#DejaVuSans-30"/>
       <use xlink:href="#DejaVuSans-2e" x="63.623047"/>
       <use xlink:href="#DejaVuSans-30" x="95.410156"/>
       <use xlink:href="#DejaVuSans-30" x="159.033203"/>
      </g>
     </g>
    </g>
    <g id="ytick_2">
     <g id="line2d_11">
      <g>
       <use xlink:href="#m7fad19616e" x="90" y="343.35769" style="fill: #bbc1cd; stroke: #bbc1cd; stroke-width: 0.8"/>
      </g>
     </g>
     <g id="text_12">
      <!-- 0.05 -->
      <g style="fill: #bbc1cd" transform="translate(60.734375 347.156908) scale(0.1 -0.1)">
       <defs>
        <path id="DejaVuSans-35" d="M 691 4666 
L 3169 4666 
L 3169 4134 
L 1269 4134 
L 1269 2991 
Q 1406 3038 1543 3061 
Q 1681 3084 1819 3084 
Q 2600 3084 3056 2656 
Q 3513 2228 3513 1497 
Q 3513 744 3044 326 
Q 2575 -91 1722 -91 
Q 1428 -91 1123 -41 
Q 819 9 494 109 
L 494 744 
Q 775 591 1075 516 
Q 1375 441 1709 441 
Q 2250 441 2565 725 
Q 2881 1009 2881 1497 
Q 2881 1984 2565 2268 
Q 2250 2553 1709 2553 
Q 1456 2553 1204 2497 
Q 953 2441 691 2322 
L 691 4666 
z
" transform="scale(0.015625)"/>
       </defs>
       <use xlink:href="#DejaVuSans-30"/>
       <use xlink:href="#DejaVuSans-2e" x="63.623047"/>
       <use xlink:href="#DejaVuSans-30" x="95.410156"/>
       <use xlink:href="#DejaVuSans-35" x="159.033203"/>
      </g>
     </g>
    </g>
    <g id="ytick_3">
     <g id="line2d_12">
      <g>
       <use xlink:href="#m7fad19616e" x="90" y="303.817007" style="fill: #bbc1cd; stroke: #bbc1cd; stroke-width: 0.8"/>
      </g>
     </g>
     <g id="text_13">
      <!-- 0.10 -->
      <g style="fill: #bbc1cd" transform="translate(60.734375 307.616226) scale(0.1 -0.1)">
       <use xlink:href="#DejaVuSans-30"/>
       <use xlink:href="#DejaVuSans-2e" x="63.623047"/>
       <use xlink:href="#DejaVuSans-31" x="95.410156"/>
       <use xlink:href="#DejaVuSans-30" x="159.033203"/>
      </g>
     </g>
    </g>
    <g id="ytick_4">
     <g id="line2d_13">
      <g>
       <use xlink:href="#m7fad19616e" x="90" y="264.276324" style="fill: #bbc1cd; stroke: #bbc1cd; stroke-width: 0.8"/>
      </g>
     </g>
     <g id="text_14">
      <!-- 0.15 -->
      <g style="fill: #bbc1cd" transform="translate(60.734375 268.075543) scale(0.1 -0.1)">
       <use xlink:href="#DejaVuSans-30"/>
       <use xlink:href="#DejaVuSans-2e" x="63.623047"/>
       <use xlink:href="#DejaVuSans-31" x="95.410156"/>
       <use xlink:href="#DejaVuSans-35" x="159.033203"/>
      </g>
     </g>
    </g>
    <g id="ytick_5">
     <g id="line2d_14">
      <g>
       <use xlink:href="#m7fad19616e" x="90" y="224.735641" style="fill: #bbc1cd; stroke: #bbc1cd; stroke-width: 0.8"/>
      </g>
     </g>
     <g id="text_15">
      <!-- 0.20 -->
      <g style="fill: #bbc1cd" transform="translate(60.734375 228.53486) scale(0.1 -0.1)">
       <use xlink:href="#DejaVuSans-30"/>
       <use xlink:href="#DejaVuSans-2e" x="63.623047"/>
       <use xlink:href="#DejaVuSans-32" x="95.410156"/>
       <use xlink:href="#DejaVuSans-30" x="159.033203"/>
      </g>
     </g>
    </g>
    <g id="ytick_6">
     <g id="line2d_15">
      <g>
       <use xlink:href="#m7fad19616e" x="90" y="185.194958" style="fill: #bbc1cd; stroke: #bbc1cd; stroke-width: 0.8"/>
      </g>
     </g>
     <g id="text_16">
      <!-- 0.25 -->
      <g style="fill: #bbc1cd" transform="translate(60.734375 188.994177) scale(0.1 -0.1)">
       <use xlink:href="#DejaVuSans-30"/>
       <use xlink:href="#DejaVuSans-2e" x="63.623047"/>
       <use xlink:href="#DejaVuSans-32" x="95.410156"/>
       <use xlink:href="#DejaVuSans-35" x="159.033203"/>
      </g>
     </g>
    </g>
    <g id="ytick_7">
     <g id="line2d_16">
      <g>
       <use xlink:href="#m7fad19616e" x="90" y="145.654275" style="fill: #bbc1cd; stroke: #bbc1cd; stroke-width: 0.8"/>
      </g>
     </g>
     <g id="text_17">
      <!-- 0.30 -->
      <g style="fill: #bbc1cd" transform="translate(60.734375 149.453494) scale(0.1 -0.1)">
       <use xlink:href="#DejaVuSans-30"/>
       <use xlink:href="#DejaVuSans-2e" x="63.623047"/>
       <use xlink:href="#DejaVuSans-33" x="95.410156"/>
       <use xlink:href="#DejaVuSans-30" x="159.033203"/>
      </g>
     </g>
    </g>
    <g id="ytick_8">
     <g id="line2d_17">
      <g>
       <use xlink:href="#m7fad19616e" x="90" y="106.113592" style="fill: #bbc1cd; stroke: #bbc1cd; stroke-width: 0.8"/>
      </g>
     </g>
     <g id="text_18">
      <!-- 0.35 -->
      <g style="fill: #bbc1cd" transform="translate(60.734375 109.912811) scale(0.1 -0.1)">
       <use xlink:href="#DejaVuSans-30"/>
       <use xlink:href="#DejaVuSans-2e" x="63.623047"/>
       <use xlink:href="#DejaVuSans-33" x="95.410156"/>
       <use xlink:href="#DejaVuSans-35" x="159.033203"/>
      </g>
     </g>
    </g>
    <g id="ytick_9">
     <g id="line2d_18">
      <g>
       <use xlink:href="#m7fad19616e" x="90" y="66.572909" style="fill: #bbc1cd; stroke: #bbc1cd; stroke-width: 0.8"/>
      </g>
     </g>
     <g id="text_19">
      <!-- 0.40 -->
      <g style="fill: #bbc1cd" transform="translate(60.734375 70.372128) scale(0.1 -0.1)">
       <use xlink:href="#DejaVuSans-30"/>
       <use xlink:href="#DejaVuSans-2e" x="63.623047"/>
       <use xlink:href="#DejaVuSans-34" x="95.410156"/>
       <use xlink:href="#DejaVuSans-30" x="159.033203"/>
      </g>
     </g>
    </g>
    <g id="text_20">
     <!-- Density -->
     <g style="fill: #bbc1cd" transform="translate(54.576562 239.600625) rotate(-90) scale(0.1 -0.1)">
      <defs>
       <path id="DejaVuSans-Bold-73" d="M 3272 3391 
L 3272 2541 
Q 2913 2691 2578 2766 
Q 2244 2841 1947 2841 
Q 1628 2841 1473 2761 
Q 1319 2681 1319 2516 
Q 1319 2381 1436 2309 
Q 1553 2238 1856 2203 
L 2053 2175 
Q 2913 2066 3209 1816 
Q 3506 1566 3506 1031 
Q 3506 472 3093 190 
Q 2681 -91 1863 -91 
Q 1516 -91 1145 -36 
Q 775 19 384 128 
L 384 978 
Q 719 816 1070 734 
Q 1422 653 1784 653 
Q 2113 653 2278 743 
Q 2444 834 2444 1013 
Q 2444 1163 2330 1236 
Q 2216 1309 1875 1350 
L 1678 1375 
Q 931 1469 631 1722 
Q 331 1975 331 2491 
Q 331 3047 712 3315 
Q 1094 3584 1881 3584 
Q 2191 3584 2531 3537 
Q 2872 3491 3272 3391 
z
" transform="scale(0.015625)"/>
       <path id="DejaVuSans-Bold-79" d="M 78 3500 
L 1197 3500 
L 2138 1125 
L 2938 3500 
L 4056 3500 
L 2584 -331 
Q 2363 -916 2067 -1148 
Q 1772 -1381 1288 -1381 
L 641 -1381 
L 641 -647 
L 991 -647 
Q 1275 -647 1404 -556 
Q 1534 -466 1606 -231 
L 1638 -134 
L 78 3500 
z
" transform="scale(0.015625)"/>
      </defs>
      <use xlink:href="#DejaVuSans-Bold-44"/>
      <use xlink:href="#DejaVuSans-Bold-65" x="83.007812"/>
      <use xlink:href="#DejaVuSans-Bold-6e" x="150.830078"/>
      <use xlink:href="#DejaVuSans-Bold-73" x="222.021484"/>
      <use xlink:href="#DejaVuSans-Bold-69" x="281.542969"/>
      <use xlink:href="#DejaVuSans-Bold-74" x="315.820312"/>
      <use xlink:href="#DejaVuSans-Bold-79" x="363.623047"/>
     </g>
    </g>
   </g>
   <g id="line2d_19">
    <path d="M 115.363636 382.777517 
L 134.659296 382.523229 
L 147.353808 382.143325 
L 157.001638 381.644712 
L 165.126126 381.008577 
L 172.235053 380.225764 
L 178.328419 379.334727 
L 183.914005 378.294376 
L 188.99181 377.123949 
L 193.561835 375.854772 
L 198.131859 374.348838 
L 202.194103 372.783965 
L 206.256347 370.979373 
L 210.318591 368.907769 
L 213.873055 366.853599 
L 217.427518 364.553219 
L 220.981982 361.986298 
L 224.536446 359.132248 
L 228.090909 355.970465 
L 231.645373 352.4806 
L 235.199836 348.642865 
L 238.7543 344.438373 
L 242.308763 339.849503 
L 245.863227 334.860293 
L 249.41769 329.456854 
L 252.972154 323.627803 
L 256.526618 317.364693 
L 260.081081 310.662459 
L 263.635545 303.519846 
L 267.697789 294.821638 
L 271.760033 285.564119 
L 275.822277 275.767672 
L 280.392301 264.139555 
L 284.962326 251.923336 
L 290.040131 237.748228 
L 296.133497 220.070675 
L 304.765766 194.265138 
L 316.444717 159.382372 
L 322.030303 143.368606 
L 326.600328 130.873068 
L 330.662572 120.36606 
L 334.217035 111.727967 
L 337.771499 103.684607 
L 340.818182 97.316267 
L 343.864865 91.476904 
L 346.403767 87.042537 
L 348.94267 83.022571 
L 351.481572 79.435719 
L 354.020475 76.298826 
L 356.051597 74.12333 
L 358.082719 72.251983 
L 360.113841 70.690513 
L 362.144963 69.443721 
L 364.176085 68.515449 
L 365.699427 68.030037 
L 367.222768 67.726273 
L 368.74611 67.604684 
L 370.269451 67.665484 
L 371.792793 67.908567 
L 373.316134 68.333508 
L 374.839476 68.939568 
L 376.870598 70.02752 
L 378.90172 71.432191 
L 380.932842 73.149258 
L 382.963964 75.173453 
L 384.995086 77.498591 
L 387.026208 80.117604 
L 389.565111 83.792488 
L 392.104013 87.896889 
L 394.642916 92.411735 
L 397.689599 98.342 
L 400.736282 104.794578 
L 404.290745 112.927231 
L 407.845209 121.64442 
L 411.907453 132.228826 
L 416.477477 144.794436 
L 422.063063 160.869221 
L 429.679771 183.556191 
L 443.897625 226.030714 
L 449.990991 243.487418 
L 455.068796 257.421122 
L 459.638821 269.383924 
L 464.208845 280.731638 
L 468.271089 290.261726 
L 472.333333 299.241589 
L 476.395577 307.655191 
L 479.950041 314.546242 
L 483.504505 320.997141 
L 487.058968 327.01137 
L 490.613432 332.595981 
L 494.167895 337.761153 
L 497.722359 342.519754 
L 501.276822 346.88691 
L 504.831286 350.879578 
L 508.385749 354.516152 
L 511.940213 357.816075 
L 515.494676 360.799496 
L 519.04914 363.486945 
L 522.603604 365.899047 
L 526.158067 368.056271 
L 529.712531 369.978708 
L 533.774775 371.913306 
L 537.837019 373.594719 
L 541.899263 375.04949 
L 546.469287 376.446156 
L 551.039312 377.62031 
L 556.117117 378.700294 
L 561.702703 379.657523 
L 567.796069 380.47484 
L 574.904996 381.190419 
L 583.029484 381.769641 
L 592.677314 382.221607 
L 604.864046 382.554277 
L 621.620803 382.769827 
L 622.636364 382.777517 
L 622.636364 382.777517 
" clip-path="url(#pf0ca339695)" style="fill: none; stroke: #b979d5; stroke-width: 1.5; stroke-linecap: square"/>
   </g>
   <g id="line2d_20">
    <path d="M 177.721049 384.48 
L 177.721049 51.84 
" clip-path="url(#pf0ca339695)" style="fill: none; stroke-dasharray: 5.55,2.4; stroke-dashoffset: 0; stroke: #e4be83; stroke-opacity: 0.7; stroke-width: 1.5"/>
   </g>
   <g id="line2d_21">
    <path d="M 303.66421 384.48 
L 303.66421 51.84 
" clip-path="url(#pf0ca339695)" style="fill: none; stroke-dasharray: 5.55,2.4; stroke-dashoffset: 0; stroke: #6aade9; stroke-opacity: 0.7; stroke-width: 1.5"/>
   </g>
   <g id="line2d_22">
    <path d="M 493.648391 384.48 
L 493.648391 51.84 
" clip-path="url(#pf0ca339695)" style="fill: none; stroke-dasharray: 1.5,2.475; stroke-dashoffset: 0; stroke: #ff6961; stroke-opacity: 0.7; stroke-width: 1.5"/>
   </g>
   <g id="line2d_23">
    <path d="M 244.351609 384.48 
L 244.351609 51.84 
" clip-path="url(#pf0ca339695)" style="fill: none; stroke-dasharray: 1.5,2.475; stroke-dashoffset: 0; stroke: #ff6961; stroke-opacity: 0.7; stroke-width: 1.5"/>
   </g>
   <g id="patch_3">
    <path d="M 90 384.48 
L 90 51.84 
" style="fill: none; stroke: #bbc1cd; stroke-width: 0.8; stroke-linejoin: miter; stroke-linecap: square"/>
   </g>
   <g id="patch_4">
    <path d="M 648 384.48 
L 648 51.84 
" style="fill: none; stroke: #bbc1cd; stroke-width: 0.8; stroke-linejoin: miter; stroke-linecap: square"/>
   </g>
   <g id="patch_5">
    <path d="M 90 384.48 
L 648 384.48 
" style="fill: none; stroke: #bbc1cd; stroke-width: 0.8; stroke-linejoin: miter; stroke-linecap: square"/>
   </g>
   <g id="patch_6">
    <path d="M 90 51.84 
L 648 51.84 
" style="fill: none; stroke: #bbc1cd; stroke-width: 0.8; stroke-linejoin: miter; stroke-linecap: square"/>
   </g>
   <g id="text_21">
    <!-- t-Distribution -->
    <g style="fill: #bbc1cd" transform="translate(323.265938 45.84) scale(0.12 -0.12)">
     <defs>
      <path id="DejaVuSans-Bold-2d" d="M 347 2297 
L 2309 2297 
L 2309 1388 
L 347 1388 
L 347 2297 
z
" transform="scale(0.015625)"/>
      <path id="DejaVuSans-Bold-62" d="M 2400 722 
Q 2759 722 2948 984 
Q 3138 1247 3138 1747 
Q 3138 2247 2948 2509 
Q 2759 2772 2400 2772 
Q 2041 2772 1848 2508 
Q 1656 2244 1656 1747 
Q 1656 1250 1848 986 
Q 2041 722 2400 722 
z
M 1656 2988 
Q 1888 3294 2169 3439 
Q 2450 3584 2816 3584 
Q 3463 3584 3878 3070 
Q 4294 2556 4294 1747 
Q 4294 938 3878 423 
Q 3463 -91 2816 -91 
Q 2450 -91 2169 54 
Q 1888 200 1656 506 
L 1656 0 
L 538 0 
L 538 4863 
L 1656 4863 
L 1656 2988 
z
" transform="scale(0.015625)"/>
      <path id="DejaVuSans-Bold-75" d="M 500 1363 
L 500 3500 
L 1625 3500 
L 1625 3150 
Q 1625 2866 1622 2436 
Q 1619 2006 1619 1863 
Q 1619 1441 1641 1255 
Q 1663 1069 1716 984 
Q 1784 875 1895 815 
Q 2006 756 2150 756 
Q 2500 756 2700 1025 
Q 2900 1294 2900 1772 
L 2900 3500 
L 4019 3500 
L 4019 0 
L 2900 0 
L 2900 506 
Q 2647 200 2364 54 
Q 2081 -91 1741 -91 
Q 1134 -91 817 281 
Q 500 653 500 1363 
z
" transform="scale(0.015625)"/>
      <path id="DejaVuSans-Bold-6f" d="M 2203 2784 
Q 1831 2784 1636 2517 
Q 1441 2250 1441 1747 
Q 1441 1244 1636 976 
Q 1831 709 2203 709 
Q 2569 709 2762 976 
Q 2956 1244 2956 1747 
Q 2956 2250 2762 2517 
Q 2569 2784 2203 2784 
z
M 2203 3584 
Q 3106 3584 3614 3096 
Q 4122 2609 4122 1747 
Q 4122 884 3614 396 
Q 3106 -91 2203 -91 
Q 1297 -91 786 396 
Q 275 884 275 1747 
Q 275 2609 786 3096 
Q 1297 3584 2203 3584 
z
" transform="scale(0.015625)"/>
     </defs>
     <use xlink:href="#DejaVuSans-Bold-74"/>
     <use xlink:href="#DejaVuSans-Bold-2d" x="47.802734"/>
     <use xlink:href="#DejaVuSans-Bold-44" x="89.306641"/>
     <use xlink:href="#DejaVuSans-Bold-69" x="172.314453"/>
     <use xlink:href="#DejaVuSans-Bold-73" x="206.591797"/>
     <use xlink:href="#DejaVuSans-Bold-74" x="266.113281"/>
     <use xlink:href="#DejaVuSans-Bold-72" x="313.916016"/>
     <use xlink:href="#DejaVuSans-Bold-69" x="363.232422"/>
     <use xlink:href="#DejaVuSans-Bold-62" x="397.509766"/>
     <use xlink:href="#DejaVuSans-Bold-75" x="469.091797"/>
     <use xlink:href="#DejaVuSans-Bold-74" x="540.283203"/>
     <use xlink:href="#DejaVuSans-Bold-69" x="588.085938"/>
     <use xlink:href="#DejaVuSans-Bold-6f" x="622.363281"/>
     <use xlink:href="#DejaVuSans-Bold-6e" x="691.064453"/>
    </g>
   </g>
   <g id="legend_1">
    <g id="patch_7">
     <path d="M 513.025 118.5525 
L 641 118.5525 
Q 643 118.5525 643 116.5525 
L 643 58.84 
Q 643 56.84 641 56.84 
L 513.025 56.84 
Q 511.025 56.84 511.025 58.84 
L 511.025 116.5525 
Q 511.025 118.5525 513.025 118.5525 
L 513.025 118.5525 
z
" style="fill: none; opacity: 0"/>
    </g>
    <g id="line2d_24">
     <path d="M 515.025 64.938438 
L 525.025 64.938438 
L 535.025 64.938438 
" style="fill: none; stroke: #b979d5; stroke-width: 1.5; stroke-linecap: square"/>
    </g>
    <g id="text_22">
     <!-- t-Distribution -->
     <g style="fill: #bbc1cd" transform="translate(543.025 68.438438) scale(0.1 -0.1)">
      <use xlink:href="#DejaVuSans-Bold-74"/>
      <use xlink:href="#DejaVuSans-Bold-2d" x="47.802734"/>
      <use xlink:href="#DejaVuSans-Bold-44" x="89.306641"/>
      <use xlink:href="#DejaVuSans-Bold-69" x="172.314453"/>
      <use xlink:href="#DejaVuSans-Bold-73" x="206.591797"/>
      <use xlink:href="#DejaVuSans-Bold-74" x="266.113281"/>
      <use xlink:href="#DejaVuSans-Bold-72" x="313.916016"/>
      <use xlink:href="#DejaVuSans-Bold-69" x="363.232422"/>
      <use xlink:href="#DejaVuSans-Bold-62" x="397.509766"/>
      <use xlink:href="#DejaVuSans-Bold-75" x="469.091797"/>
      <use xlink:href="#DejaVuSans-Bold-74" x="540.283203"/>
      <use xlink:href="#DejaVuSans-Bold-69" x="588.085938"/>
      <use xlink:href="#DejaVuSans-Bold-6f" x="622.363281"/>
      <use xlink:href="#DejaVuSans-Bold-6e" x="691.064453"/>
     </g>
    </g>
    <g id="line2d_25">
     <path d="M 515.025 79.616563 
L 525.025 79.616563 
L 535.025 79.616563 
" style="fill: none; stroke-dasharray: 5.55,2.4; stroke-dashoffset: 0; stroke: #e4be83; stroke-opacity: 0.7; stroke-width: 1.5"/>
    </g>
    <g id="text_23">
     <!-- MAR CC t = -3.02 -->
     <g style="fill: #bbc1cd" transform="translate(543.025 83.116563) scale(0.1 -0.1)">
      <defs>
       <path id="DejaVuSans-Bold-4d" d="M 588 4666 
L 2119 4666 
L 3181 2169 
L 4250 4666 
L 5778 4666 
L 5778 0 
L 4641 0 
L 4641 3413 
L 3566 897 
L 2803 897 
L 1728 3413 
L 1728 0 
L 588 0 
L 588 4666 
z
" transform="scale(0.015625)"/>
       <path id="DejaVuSans-Bold-41" d="M 3419 850 
L 1538 850 
L 1241 0 
L 31 0 
L 1759 4666 
L 3194 4666 
L 4922 0 
L 3713 0 
L 3419 850 
z
M 1838 1716 
L 3116 1716 
L 2478 3572 
L 1838 1716 
z
" transform="scale(0.015625)"/>
       <path id="DejaVuSans-Bold-52" d="M 2297 2597 
Q 2675 2597 2839 2737 
Q 3003 2878 3003 3200 
Q 3003 3519 2839 3656 
Q 2675 3794 2297 3794 
L 1791 3794 
L 1791 2597 
L 2297 2597 
z
M 1791 1766 
L 1791 0 
L 588 0 
L 588 4666 
L 2425 4666 
Q 3347 4666 3776 4356 
Q 4206 4047 4206 3378 
Q 4206 2916 3982 2619 
Q 3759 2322 3309 2181 
Q 3556 2125 3751 1926 
Q 3947 1728 4147 1325 
L 4800 0 
L 3519 0 
L 2950 1159 
Q 2778 1509 2601 1637 
Q 2425 1766 2131 1766 
L 1791 1766 
z
" transform="scale(0.015625)"/>
       <path id="DejaVuSans-Bold-43" d="M 4288 256 
Q 3956 84 3597 -3 
Q 3238 -91 2847 -91 
Q 1681 -91 1000 561 
Q 319 1213 319 2328 
Q 319 3447 1000 4098 
Q 1681 4750 2847 4750 
Q 3238 4750 3597 4662 
Q 3956 4575 4288 4403 
L 4288 3438 
Q 3953 3666 3628 3772 
Q 3303 3878 2944 3878 
Q 2300 3878 1931 3465 
Q 1563 3053 1563 2328 
Q 1563 1606 1931 1193 
Q 2300 781 2944 781 
Q 3303 781 3628 887 
Q 3953 994 4288 1222 
L 4288 256 
z
" transform="scale(0.015625)"/>
       <path id="DejaVuSans-Bold-3d" d="M 678 3084 
L 4684 3084 
L 4684 2350 
L 678 2350 
L 678 3084 
z
M 678 1663 
L 4684 1663 
L 4684 922 
L 678 922 
L 678 1663 
z
" transform="scale(0.015625)"/>
       <path id="DejaVuSans-Bold-33" d="M 2981 2516 
Q 3453 2394 3698 2092 
Q 3944 1791 3944 1325 
Q 3944 631 3412 270 
Q 2881 -91 1863 -91 
Q 1503 -91 1142 -33 
Q 781 25 428 141 
L 428 1069 
Q 766 900 1098 814 
Q 1431 728 1753 728 
Q 2231 728 2486 893 
Q 2741 1059 2741 1369 
Q 2741 1688 2480 1852 
Q 2219 2016 1709 2016 
L 1228 2016 
L 1228 2791 
L 1734 2791 
Q 2188 2791 2409 2933 
Q 2631 3075 2631 3366 
Q 2631 3634 2415 3781 
Q 2200 3928 1806 3928 
Q 1516 3928 1219 3862 
Q 922 3797 628 3669 
L 628 4550 
Q 984 4650 1334 4700 
Q 1684 4750 2022 4750 
Q 2931 4750 3382 4451 
Q 3834 4153 3834 3553 
Q 3834 3144 3618 2883 
Q 3403 2622 2981 2516 
z
" transform="scale(0.015625)"/>
       <path id="DejaVuSans-Bold-2e" d="M 653 1209 
L 1778 1209 
L 1778 0 
L 653 0 
L 653 1209 
z
" transform="scale(0.015625)"/>
       <path id="DejaVuSans-Bold-30" d="M 2944 2338 
Q 2944 3213 2780 3570 
Q 2616 3928 2228 3928 
Q 1841 3928 1675 3570 
Q 1509 3213 1509 2338 
Q 1509 1453 1675 1090 
Q 1841 728 2228 728 
Q 2613 728 2778 1090 
Q 2944 1453 2944 2338 
z
M 4147 2328 
Q 4147 1169 3647 539 
Q 3147 -91 2228 -91 
Q 1306 -91 806 539 
Q 306 1169 306 2328 
Q 306 3491 806 4120 
Q 1306 4750 2228 4750 
Q 3147 4750 3647 4120 
Q 4147 3491 4147 2328 
z
" transform="scale(0.015625)"/>
       <path id="DejaVuSans-Bold-32" d="M 1844 884 
L 3897 884 
L 3897 0 
L 506 0 
L 506 884 
L 2209 2388 
Q 2438 2594 2547 2791 
Q 2656 2988 2656 3200 
Q 2656 3528 2436 3728 
Q 2216 3928 1850 3928 
Q 1569 3928 1234 3808 
Q 900 3688 519 3450 
L 519 4475 
Q 925 4609 1322 4679 
Q 1719 4750 2100 4750 
Q 2938 4750 3402 4381 
Q 3866 4013 3866 3353 
Q 3866 2972 3669 2642 
Q 3472 2313 2841 1759 
L 1844 884 
z
" transform="scale(0.015625)"/>
      </defs>
      <use xlink:href="#DejaVuSans-Bold-4d"/>
      <use xlink:href="#DejaVuSans-Bold-41" x="99.511719"/>
      <use xlink:href="#DejaVuSans-Bold-52" x="176.904297"/>
      <use xlink:href="#DejaVuSans-Bold-20" x="253.90625"/>
      <use xlink:href="#DejaVuSans-Bold-43" x="288.720703"/>
      <use xlink:href="#DejaVuSans-Bold-43" x="362.109375"/>
      <use xlink:href="#DejaVuSans-Bold-20" x="435.498047"/>
      <use xlink:href="#DejaVuSans-Bold-74" x="470.3125"/>
      <use xlink:href="#DejaVuSans-Bold-20" x="518.115234"/>
      <use xlink:href="#DejaVuSans-Bold-3d" x="552.929688"/>
      <use xlink:href="#DejaVuSans-Bold-20" x="636.71875"/>
      <use xlink:href="#DejaVuSans-Bold-2d" x="671.533203"/>
      <use xlink:href="#DejaVuSans-Bold-33" x="713.037109"/>
      <use xlink:href="#DejaVuSans-Bold-2e" x="782.617188"/>
      <use xlink:href="#DejaVuSans-Bold-30" x="820.605469"/>
      <use xlink:href="#DejaVuSans-Bold-32" x="890.185547"/>
     </g>
    </g>
    <g id="line2d_26">
     <path d="M 515.025 94.294688 
L 525.025 94.294688 
L 535.025 94.294688 
" style="fill: none; stroke-dasharray: 5.55,2.4; stroke-dashoffset: 0; stroke: #6aade9; stroke-opacity: 0.7; stroke-width: 1.5"/>
    </g>
    <g id="text_24">
     <!-- MI t = -1.03 -->
     <g style="fill: #bbc1cd" transform="translate(543.025 97.794688) scale(0.1 -0.1)">
      <defs>
       <path id="DejaVuSans-Bold-49" d="M 588 4666 
L 1791 4666 
L 1791 0 
L 588 0 
L 588 4666 
z
" transform="scale(0.015625)"/>
       <path id="DejaVuSans-Bold-31" d="M 750 831 
L 1813 831 
L 1813 3847 
L 722 3622 
L 722 4441 
L 1806 4666 
L 2950 4666 
L 2950 831 
L 4013 831 
L 4013 0 
L 750 0 
L 750 831 
z
" transform="scale(0.015625)"/>
      </defs>
      <use xlink:href="#DejaVuSans-Bold-4d"/>
      <use xlink:href="#DejaVuSans-Bold-49" x="99.511719"/>
      <use xlink:href="#DejaVuSans-Bold-20" x="136.71875"/>
      <use xlink:href="#DejaVuSans-Bold-74" x="171.533203"/>
      <use xlink:href="#DejaVuSans-Bold-20" x="219.335938"/>
      <use xlink:href="#DejaVuSans-Bold-3d" x="254.150391"/>
      <use xlink:href="#DejaVuSans-Bold-20" x="337.939453"/>
      <use xlink:href="#DejaVuSans-Bold-2d" x="372.753906"/>
      <use xlink:href="#DejaVuSans-Bold-31" x="414.257812"/>
      <use xlink:href="#DejaVuSans-Bold-2e" x="483.837891"/>
      <use xlink:href="#DejaVuSans-Bold-30" x="521.826172"/>
      <use xlink:href="#DejaVuSans-Bold-33" x="591.40625"/>
     </g>
    </g>
    <g id="line2d_27">
     <path d="M 515.025 108.972813 
L 525.025 108.972813 
L 535.025 108.972813 
" style="fill: none; stroke-dasharray: 1.5,2.475; stroke-dashoffset: 0; stroke: #ff6961; stroke-opacity: 0.7; stroke-width: 1.5"/>
    </g>
    <g id="text_25">
     <!-- $\pm t_{0.05}$ Critical -->
     <g style="fill: #bbc1cd" transform="translate(543.025 112.472813) scale(0.1 -0.1)">
      <defs>
       <path id="DejaVuSans-b1" d="M 2944 4013 
L 2944 2803 
L 4684 2803 
L 4684 2272 
L 2944 2272 
L 2944 1063 
L 2419 1063 
L 2419 2272 
L 678 2272 
L 678 2803 
L 2419 2803 
L 2419 4013 
L 2944 4013 
z
M 678 531 
L 4684 531 
L 4684 0 
L 678 0 
L 678 531 
z
" transform="scale(0.015625)"/>
       <path id="DejaVuSans-Oblique-74" d="M 2706 3500 
L 2619 3053 
L 1472 3053 
L 1100 1153 
Q 1081 1047 1072 975 
Q 1063 903 1063 863 
Q 1063 663 1183 572 
Q 1303 481 1569 481 
L 2150 481 
L 2053 0 
L 1503 0 
Q 991 0 739 200 
Q 488 400 488 806 
Q 488 878 497 964 
Q 506 1050 525 1153 
L 897 3053 
L 409 3053 
L 500 3500 
L 978 3500 
L 1172 4494 
L 1747 4494 
L 1556 3500 
L 2706 3500 
z
" transform="scale(0.015625)"/>
       <path id="DejaVuSans-Bold-6c" d="M 538 4863 
L 1656 4863 
L 1656 0 
L 538 0 
L 538 4863 
z
" transform="scale(0.015625)"/>
      </defs>
      <use xlink:href="#DejaVuSans-b1" transform="translate(0 0.015625)"/>
      <use xlink:href="#DejaVuSans-Oblique-74" transform="translate(83.789062 0.015625)"/>
      <use xlink:href="#DejaVuSans-30" transform="translate(122.998047 -16.390625) scale(0.7)"/>
      <use xlink:href="#DejaVuSans-2e" transform="translate(167.53418 -16.390625) scale(0.7)"/>
      <use xlink:href="#DejaVuSans-30" transform="translate(189.785156 -16.390625) scale(0.7)"/>
      <use xlink:href="#DejaVuSans-35" transform="translate(234.321289 -16.390625) scale(0.7)"/>
      <use xlink:href="#DejaVuSans-Bold-20" transform="translate(281.591797 0.015625)"/>
      <use xlink:href="#DejaVuSans-Bold-43" transform="translate(316.40625 0.015625)"/>
      <use xlink:href="#DejaVuSans-Bold-72" transform="translate(389.794922 0.015625)"/>
      <use xlink:href="#DejaVuSans-Bold-69" transform="translate(439.111328 0.015625)"/>
      <use xlink:href="#DejaVuSans-Bold-74" transform="translate(473.388672 0.015625)"/>
      <use xlink:href="#DejaVuSans-Bold-69" transform="translate(521.191406 0.015625)"/>
      <use xlink:href="#DejaVuSans-Bold-63" transform="translate(555.46875 0.015625)"/>
      <use xlink:href="#DejaVuSans-Bold-61" transform="translate(614.746094 0.015625)"/>
      <use xlink:href="#DejaVuSans-Bold-6c" transform="translate(682.226562 0.015625)"/>
     </g>
    </g>
   </g>
  </g>
 </g>
 <defs>
  <clipPath id="pf0ca339695">
   <rect x="90" y="51.84" width="558" height="332.64"/>
  </clipPath>
 </defs>
</svg>
