<?xml version="1.0" encoding="utf-8" standalone="no"?>
<!DOCTYPE svg PUBLIC "-//W3C//DTD SVG 1.1//EN"
  "http://www.w3.org/Graphics/SVG/1.1/DTD/svg11.dtd">
<svg xmlns:xlink="http://www.w3.org/1999/xlink" width="720pt" height="432pt" viewBox="0 0 720 432" xmlns="http://www.w3.org/2000/svg" version="1.1">
 <metadata>
  <rdf:RDF xmlns:dc="http://purl.org/dc/elements/1.1/" xmlns:cc="http://creativecommons.org/ns#" xmlns:rdf="http://www.w3.org/1999/02/22-rdf-syntax-ns#">
   <cc:Work>
    <dc:type rdf:resource="http://purl.org/dc/dcmitype/StillImage"/>
    <dc:date>2024-12-29T15:28:48.025927</dc:date>
    <dc:format>image/svg+xml</dc:format>
    <dc:creator>
     <cc:Agent>
      <dc:title>Matplotlib v3.9.2, https://matplotlib.org/</dc:title>
     </cc:Agent>
    </dc:creator>
   </cc:Work>
  </rdf:RDF>
 </metadata>
 <defs>
  <style type="text/css">*{stroke-linejoin: round; stroke-linecap: butt}</style>
 </defs>
 <g id="figure_1">
  <g id="patch_1">
   <path d="M 0 432 
L 720 432 
L 720 0 
L 0 0 
z
" style="fill: #292c33"/>
  </g>
  <g id="axes_1">
   <g id="patch_2">
    <path d="M 90 384.48 
L 648 384.48 
L 648 51.84 
L 90 51.84 
z
" style="fill: #292c33"/>
   </g>
   <g id="matplotlib.axis_1">
    <g id="xtick_1">
     <g id="line2d_1">
      <defs>
       <path id="maf3c5b6b30" d="M 0 0 
L 0 3.5 
" style="stroke: #bbc1cd; stroke-width: 0.8"/>
      </defs>
      <g>
       <use xlink:href="#maf3c5b6b30" x="115.363636" y="384.48" style="fill: #bbc1cd; stroke: #bbc1cd; stroke-width: 0.8"/>
      </g>
     </g>
     <g id="text_1">
      <!-- 30 -->
      <g style="fill: #bbc1cd" transform="translate(109.001136 399.078438) scale(0.1 -0.1)">
       <defs>
        <path id="DejaVuSans-33" d="M 2597 2516 
Q 3050 2419 3304 2112 
Q 3559 1806 3559 1356 
Q 3559 666 3084 287 
Q 2609 -91 1734 -91 
Q 1441 -91 1130 -33 
Q 819 25 488 141 
L 488 750 
Q 750 597 1062 519 
Q 1375 441 1716 441 
Q 2309 441 2620 675 
Q 2931 909 2931 1356 
Q 2931 1769 2642 2001 
Q 2353 2234 1838 2234 
L 1294 2234 
L 1294 2753 
L 1863 2753 
Q 2328 2753 2575 2939 
Q 2822 3125 2822 3475 
Q 2822 3834 2567 4026 
Q 2313 4219 1838 4219 
Q 1578 4219 1281 4162 
Q 984 4106 628 3988 
L 628 4550 
Q 988 4650 1302 4700 
Q 1616 4750 1894 4750 
Q 2613 4750 3031 4423 
Q 3450 4097 3450 3541 
Q 3450 3153 3228 2886 
Q 3006 2619 2597 2516 
z
" transform="scale(0.015625)"/>
        <path id="DejaVuSans-30" d="M 2034 4250 
Q 1547 4250 1301 3770 
Q 1056 3291 1056 2328 
Q 1056 1369 1301 889 
Q 1547 409 2034 409 
Q 2525 409 2770 889 
Q 3016 1369 3016 2328 
Q 3016 3291 2770 3770 
Q 2525 4250 2034 4250 
z
M 2034 4750 
Q 2819 4750 3233 4129 
Q 3647 3509 3647 2328 
Q 3647 1150 3233 529 
Q 2819 -91 2034 -91 
Q 1250 -91 836 529 
Q 422 1150 422 2328 
Q 422 3509 836 4129 
Q 1250 4750 2034 4750 
z
" transform="scale(0.015625)"/>
       </defs>
       <use xlink:href="#DejaVuSans-33"/>
       <use xlink:href="#DejaVuSans-30" x="63.623047"/>
      </g>
     </g>
    </g>
    <g id="xtick_2">
     <g id="line2d_2">
      <g>
       <use xlink:href="#maf3c5b6b30" x="187.831169" y="384.48" style="fill: #bbc1cd; stroke: #bbc1cd; stroke-width: 0.8"/>
      </g>
     </g>
     <g id="text_2">
      <!-- 40 -->
      <g style="fill: #bbc1cd" transform="translate(181.468669 399.078438) scale(0.1 -0.1)">
       <defs>
        <path id="DejaVuSans-34" d="M 2419 4116 
L 825 1625 
L 2419 1625 
L 2419 4116 
z
M 2253 4666 
L 3047 4666 
L 3047 1625 
L 3713 1625 
L 3713 1100 
L 3047 1100 
L 3047 0 
L 2419 0 
L 2419 1100 
L 313 1100 
L 313 1709 
L 2253 4666 
z
" transform="scale(0.015625)"/>
       </defs>
       <use xlink:href="#DejaVuSans-34"/>
       <use xlink:href="#DejaVuSans-30" x="63.623047"/>
      </g>
     </g>
    </g>
    <g id="xtick_3">
     <g id="line2d_3">
      <g>
       <use xlink:href="#maf3c5b6b30" x="260.298701" y="384.48" style="fill: #bbc1cd; stroke: #bbc1cd; stroke-width: 0.8"/>
      </g>
     </g>
     <g id="text_3">
      <!-- 50 -->
      <g style="fill: #bbc1cd" transform="translate(253.936201 399.078438) scale(0.1 -0.1)">
       <defs>
        <path id="DejaVuSans-35" d="M 691 4666 
L 3169 4666 
L 3169 4134 
L 1269 4134 
L 1269 2991 
Q 1406 3038 1543 3061 
Q 1681 3084 1819 3084 
Q 2600 3084 3056 2656 
Q 3513 2228 3513 1497 
Q 3513 744 3044 326 
Q 2575 -91 1722 -91 
Q 1428 -91 1123 -41 
Q 819 9 494 109 
L 494 744 
Q 775 591 1075 516 
Q 1375 441 1709 441 
Q 2250 441 2565 725 
Q 2881 1009 2881 1497 
Q 2881 1984 2565 2268 
Q 2250 2553 1709 2553 
Q 1456 2553 1204 2497 
Q 953 2441 691 2322 
L 691 4666 
z
" transform="scale(0.015625)"/>
       </defs>
       <use xlink:href="#DejaVuSans-35"/>
       <use xlink:href="#DejaVuSans-30" x="63.623047"/>
      </g>
     </g>
    </g>
    <g id="xtick_4">
     <g id="line2d_4">
      <g>
       <use xlink:href="#maf3c5b6b30" x="332.766234" y="384.48" style="fill: #bbc1cd; stroke: #bbc1cd; stroke-width: 0.8"/>
      </g>
     </g>
     <g id="text_4">
      <!-- 60 -->
      <g style="fill: #bbc1cd" transform="translate(326.403734 399.078438) scale(0.1 -0.1)">
       <defs>
        <path id="DejaVuSans-36" d="M 2113 2584 
Q 1688 2584 1439 2293 
Q 1191 2003 1191 1497 
Q 1191 994 1439 701 
Q 1688 409 2113 409 
Q 2538 409 2786 701 
Q 3034 994 3034 1497 
Q 3034 2003 2786 2293 
Q 2538 2584 2113 2584 
z
M 3366 4563 
L 3366 3988 
Q 3128 4100 2886 4159 
Q 2644 4219 2406 4219 
Q 1781 4219 1451 3797 
Q 1122 3375 1075 2522 
Q 1259 2794 1537 2939 
Q 1816 3084 2150 3084 
Q 2853 3084 3261 2657 
Q 3669 2231 3669 1497 
Q 3669 778 3244 343 
Q 2819 -91 2113 -91 
Q 1303 -91 875 529 
Q 447 1150 447 2328 
Q 447 3434 972 4092 
Q 1497 4750 2381 4750 
Q 2619 4750 2861 4703 
Q 3103 4656 3366 4563 
z
" transform="scale(0.015625)"/>
       </defs>
       <use xlink:href="#DejaVuSans-36"/>
       <use xlink:href="#DejaVuSans-30" x="63.623047"/>
      </g>
     </g>
    </g>
    <g id="xtick_5">
     <g id="line2d_5">
      <g>
       <use xlink:href="#maf3c5b6b30" x="405.233766" y="384.48" style="fill: #bbc1cd; stroke: #bbc1cd; stroke-width: 0.8"/>
      </g>
     </g>
     <g id="text_5">
      <!-- 70 -->
      <g style="fill: #bbc1cd" transform="translate(398.871266 399.078438) scale(0.1 -0.1)">
       <defs>
        <path id="DejaVuSans-37" d="M 525 4666 
L 3525 4666 
L 3525 4397 
L 1831 0 
L 1172 0 
L 2766 4134 
L 525 4134 
L 525 4666 
z
" transform="scale(0.015625)"/>
       </defs>
       <use xlink:href="#DejaVuSans-37"/>
       <use xlink:href="#DejaVuSans-30" x="63.623047"/>
      </g>
     </g>
    </g>
    <g id="xtick_6">
     <g id="line2d_6">
      <g>
       <use xlink:href="#maf3c5b6b30" x="477.701299" y="384.48" style="fill: #bbc1cd; stroke: #bbc1cd; stroke-width: 0.8"/>
      </g>
     </g>
     <g id="text_6">
      <!-- 80 -->
      <g style="fill: #bbc1cd" transform="translate(471.338799 399.078438) scale(0.1 -0.1)">
       <defs>
        <path id="DejaVuSans-38" d="M 2034 2216 
Q 1584 2216 1326 1975 
Q 1069 1734 1069 1313 
Q 1069 891 1326 650 
Q 1584 409 2034 409 
Q 2484 409 2743 651 
Q 3003 894 3003 1313 
Q 3003 1734 2745 1975 
Q 2488 2216 2034 2216 
z
M 1403 2484 
Q 997 2584 770 2862 
Q 544 3141 544 3541 
Q 544 4100 942 4425 
Q 1341 4750 2034 4750 
Q 2731 4750 3128 4425 
Q 3525 4100 3525 3541 
Q 3525 3141 3298 2862 
Q 3072 2584 2669 2484 
Q 3125 2378 3379 2068 
Q 3634 1759 3634 1313 
Q 3634 634 3220 271 
Q 2806 -91 2034 -91 
Q 1263 -91 848 271 
Q 434 634 434 1313 
Q 434 1759 690 2068 
Q 947 2378 1403 2484 
z
M 1172 3481 
Q 1172 3119 1398 2916 
Q 1625 2713 2034 2713 
Q 2441 2713 2670 2916 
Q 2900 3119 2900 3481 
Q 2900 3844 2670 4047 
Q 2441 4250 2034 4250 
Q 1625 4250 1398 4047 
Q 1172 3844 1172 3481 
z
" transform="scale(0.015625)"/>
       </defs>
       <use xlink:href="#DejaVuSans-38"/>
       <use xlink:href="#DejaVuSans-30" x="63.623047"/>
      </g>
     </g>
    </g>
    <g id="xtick_7">
     <g id="line2d_7">
      <g>
       <use xlink:href="#maf3c5b6b30" x="550.168831" y="384.48" style="fill: #bbc1cd; stroke: #bbc1cd; stroke-width: 0.8"/>
      </g>
     </g>
     <g id="text_7">
      <!-- 90 -->
      <g style="fill: #bbc1cd" transform="translate(543.806331 399.078438) scale(0.1 -0.1)">
       <defs>
        <path id="DejaVuSans-39" d="M 703 97 
L 703 672 
Q 941 559 1184 500 
Q 1428 441 1663 441 
Q 2288 441 2617 861 
Q 2947 1281 2994 2138 
Q 2813 1869 2534 1725 
Q 2256 1581 1919 1581 
Q 1219 1581 811 2004 
Q 403 2428 403 3163 
Q 403 3881 828 4315 
Q 1253 4750 1959 4750 
Q 2769 4750 3195 4129 
Q 3622 3509 3622 2328 
Q 3622 1225 3098 567 
Q 2575 -91 1691 -91 
Q 1453 -91 1209 -44 
Q 966 3 703 97 
z
M 1959 2075 
Q 2384 2075 2632 2365 
Q 2881 2656 2881 3163 
Q 2881 3666 2632 3958 
Q 2384 4250 1959 4250 
Q 1534 4250 1286 3958 
Q 1038 3666 1038 3163 
Q 1038 2656 1286 2365 
Q 1534 2075 1959 2075 
z
" transform="scale(0.015625)"/>
       </defs>
       <use xlink:href="#DejaVuSans-39"/>
       <use xlink:href="#DejaVuSans-30" x="63.623047"/>
      </g>
     </g>
    </g>
    <g id="xtick_8">
     <g id="line2d_8">
      <g>
       <use xlink:href="#maf3c5b6b30" x="622.636364" y="384.48" style="fill: #bbc1cd; stroke: #bbc1cd; stroke-width: 0.8"/>
      </g>
     </g>
     <g id="text_8">
      <!-- 100 -->
      <g style="fill: #bbc1cd" transform="translate(613.092614 399.078438) scale(0.1 -0.1)">
       <defs>
        <path id="DejaVuSans-31" d="M 794 531 
L 1825 531 
L 1825 4091 
L 703 3866 
L 703 4441 
L 1819 4666 
L 2450 4666 
L 2450 531 
L 3481 531 
L 3481 0 
L 794 0 
L 794 531 
z
" transform="scale(0.015625)"/>
       </defs>
       <use xlink:href="#DejaVuSans-31"/>
       <use xlink:href="#DejaVuSans-30" x="63.623047"/>
       <use xlink:href="#DejaVuSans-30" x="127.246094"/>
      </g>
     </g>
    </g>
    <g id="text_9">
     <!-- Attendance (Percentage) -->
     <g style="fill: #bbc1cd" transform="translate(298.05 412.756563) scale(0.1 -0.1)">
      <defs>
       <path id="DejaVuSans-Bold-41" d="M 3419 850 
L 1538 850 
L 1241 0 
L 31 0 
L 1759 4666 
L 3194 4666 
L 4922 0 
L 3713 0 
L 3419 850 
z
M 1838 1716 
L 3116 1716 
L 2478 3572 
L 1838 1716 
z
" transform="scale(0.015625)"/>
       <path id="DejaVuSans-Bold-74" d="M 1759 4494 
L 1759 3500 
L 2913 3500 
L 2913 2700 
L 1759 2700 
L 1759 1216 
Q 1759 972 1856 886 
Q 1953 800 2241 800 
L 2816 800 
L 2816 0 
L 1856 0 
Q 1194 0 917 276 
Q 641 553 641 1216 
L 641 2700 
L 84 2700 
L 84 3500 
L 641 3500 
L 641 4494 
L 1759 4494 
z
" transform="scale(0.015625)"/>
       <path id="DejaVuSans-Bold-65" d="M 4031 1759 
L 4031 1441 
L 1416 1441 
Q 1456 1047 1700 850 
Q 1944 653 2381 653 
Q 2734 653 3104 758 
Q 3475 863 3866 1075 
L 3866 213 
Q 3469 63 3072 -14 
Q 2675 -91 2278 -91 
Q 1328 -91 801 392 
Q 275 875 275 1747 
Q 275 2603 792 3093 
Q 1309 3584 2216 3584 
Q 3041 3584 3536 3087 
Q 4031 2591 4031 1759 
z
M 2881 2131 
Q 2881 2450 2695 2645 
Q 2509 2841 2209 2841 
Q 1884 2841 1681 2658 
Q 1478 2475 1428 2131 
L 2881 2131 
z
" transform="scale(0.015625)"/>
       <path id="DejaVuSans-Bold-6e" d="M 4056 2131 
L 4056 0 
L 2931 0 
L 2931 347 
L 2931 1631 
Q 2931 2084 2911 2256 
Q 2891 2428 2841 2509 
Q 2775 2619 2662 2680 
Q 2550 2741 2406 2741 
Q 2056 2741 1856 2470 
Q 1656 2200 1656 1722 
L 1656 0 
L 538 0 
L 538 3500 
L 1656 3500 
L 1656 2988 
Q 1909 3294 2193 3439 
Q 2478 3584 2822 3584 
Q 3428 3584 3742 3212 
Q 4056 2841 4056 2131 
z
" transform="scale(0.015625)"/>
       <path id="DejaVuSans-Bold-64" d="M 2919 2988 
L 2919 4863 
L 4044 4863 
L 4044 0 
L 2919 0 
L 2919 506 
Q 2688 197 2409 53 
Q 2131 -91 1766 -91 
Q 1119 -91 703 423 
Q 288 938 288 1747 
Q 288 2556 703 3070 
Q 1119 3584 1766 3584 
Q 2128 3584 2408 3439 
Q 2688 3294 2919 2988 
z
M 2181 722 
Q 2541 722 2730 984 
Q 2919 1247 2919 1747 
Q 2919 2247 2730 2509 
Q 2541 2772 2181 2772 
Q 1825 2772 1636 2509 
Q 1447 2247 1447 1747 
Q 1447 1247 1636 984 
Q 1825 722 2181 722 
z
" transform="scale(0.015625)"/>
       <path id="DejaVuSans-Bold-61" d="M 2106 1575 
Q 1756 1575 1579 1456 
Q 1403 1338 1403 1106 
Q 1403 894 1545 773 
Q 1688 653 1941 653 
Q 2256 653 2472 879 
Q 2688 1106 2688 1447 
L 2688 1575 
L 2106 1575 
z
M 3816 1997 
L 3816 0 
L 2688 0 
L 2688 519 
Q 2463 200 2181 54 
Q 1900 -91 1497 -91 
Q 953 -91 614 226 
Q 275 544 275 1050 
Q 275 1666 698 1953 
Q 1122 2241 2028 2241 
L 2688 2241 
L 2688 2328 
Q 2688 2594 2478 2717 
Q 2269 2841 1825 2841 
Q 1466 2841 1156 2769 
Q 847 2697 581 2553 
L 581 3406 
Q 941 3494 1303 3539 
Q 1666 3584 2028 3584 
Q 2975 3584 3395 3211 
Q 3816 2838 3816 1997 
z
" transform="scale(0.015625)"/>
       <path id="DejaVuSans-Bold-63" d="M 3366 3391 
L 3366 2478 
Q 3138 2634 2908 2709 
Q 2678 2784 2431 2784 
Q 1963 2784 1702 2511 
Q 1441 2238 1441 1747 
Q 1441 1256 1702 982 
Q 1963 709 2431 709 
Q 2694 709 2930 787 
Q 3166 866 3366 1019 
L 3366 103 
Q 3103 6 2833 -42 
Q 2563 -91 2291 -91 
Q 1344 -91 809 395 
Q 275 881 275 1747 
Q 275 2613 809 3098 
Q 1344 3584 2291 3584 
Q 2566 3584 2833 3536 
Q 3100 3488 3366 3391 
z
" transform="scale(0.015625)"/>
       <path id="DejaVuSans-Bold-20" transform="scale(0.015625)"/>
       <path id="DejaVuSans-Bold-28" d="M 2413 -844 
L 1484 -844 
Q 1006 -72 778 623 
Q 550 1319 550 2003 
Q 550 2688 779 3389 
Q 1009 4091 1484 4856 
L 2413 4856 
Q 2013 4116 1813 3408 
Q 1613 2700 1613 2009 
Q 1613 1319 1811 609 
Q 2009 -100 2413 -844 
z
" transform="scale(0.015625)"/>
       <path id="DejaVuSans-Bold-50" d="M 588 4666 
L 2584 4666 
Q 3475 4666 3951 4270 
Q 4428 3875 4428 3144 
Q 4428 2409 3951 2014 
Q 3475 1619 2584 1619 
L 1791 1619 
L 1791 0 
L 588 0 
L 588 4666 
z
M 1791 3794 
L 1791 2491 
L 2456 2491 
Q 2806 2491 2997 2661 
Q 3188 2831 3188 3144 
Q 3188 3456 2997 3625 
Q 2806 3794 2456 3794 
L 1791 3794 
z
" transform="scale(0.015625)"/>
       <path id="DejaVuSans-Bold-72" d="M 3138 2547 
Q 2991 2616 2845 2648 
Q 2700 2681 2553 2681 
Q 2122 2681 1889 2404 
Q 1656 2128 1656 1613 
L 1656 0 
L 538 0 
L 538 3500 
L 1656 3500 
L 1656 2925 
Q 1872 3269 2151 3426 
Q 2431 3584 2822 3584 
Q 2878 3584 2943 3579 
Q 3009 3575 3134 3559 
L 3138 2547 
z
" transform="scale(0.015625)"/>
       <path id="DejaVuSans-Bold-67" d="M 2919 594 
Q 2688 288 2409 144 
Q 2131 0 1766 0 
Q 1125 0 706 504 
Q 288 1009 288 1791 
Q 288 2575 706 3076 
Q 1125 3578 1766 3578 
Q 2131 3578 2409 3434 
Q 2688 3291 2919 2981 
L 2919 3500 
L 4044 3500 
L 4044 353 
Q 4044 -491 3511 -936 
Q 2978 -1381 1966 -1381 
Q 1638 -1381 1331 -1331 
Q 1025 -1281 716 -1178 
L 716 -306 
Q 1009 -475 1290 -558 
Q 1572 -641 1856 -641 
Q 2406 -641 2662 -400 
Q 2919 -159 2919 353 
L 2919 594 
z
M 2181 2772 
Q 1834 2772 1640 2515 
Q 1447 2259 1447 1791 
Q 1447 1309 1634 1061 
Q 1822 813 2181 813 
Q 2531 813 2725 1069 
Q 2919 1325 2919 1791 
Q 2919 2259 2725 2515 
Q 2531 2772 2181 2772 
z
" transform="scale(0.015625)"/>
       <path id="DejaVuSans-Bold-29" d="M 513 -844 
Q 913 -100 1113 609 
Q 1313 1319 1313 2009 
Q 1313 2700 1113 3408 
Q 913 4116 513 4856 
L 1441 4856 
Q 1916 4091 2145 3389 
Q 2375 2688 2375 2003 
Q 2375 1319 2147 623 
Q 1919 -72 1441 -844 
L 513 -844 
z
" transform="scale(0.015625)"/>
      </defs>
      <use xlink:href="#DejaVuSans-Bold-41"/>
      <use xlink:href="#DejaVuSans-Bold-74" x="77.392578"/>
      <use xlink:href="#DejaVuSans-Bold-74" x="125.195312"/>
      <use xlink:href="#DejaVuSans-Bold-65" x="172.998047"/>
      <use xlink:href="#DejaVuSans-Bold-6e" x="240.820312"/>
      <use xlink:href="#DejaVuSans-Bold-64" x="312.011719"/>
      <use xlink:href="#DejaVuSans-Bold-61" x="383.59375"/>
      <use xlink:href="#DejaVuSans-Bold-6e" x="451.074219"/>
      <use xlink:href="#DejaVuSans-Bold-63" x="522.265625"/>
      <use xlink:href="#DejaVuSans-Bold-65" x="581.542969"/>
      <use xlink:href="#DejaVuSans-Bold-20" x="649.365234"/>
      <use xlink:href="#DejaVuSans-Bold-28" x="684.179688"/>
      <use xlink:href="#DejaVuSans-Bold-50" x="729.882812"/>
      <use xlink:href="#DejaVuSans-Bold-65" x="803.173828"/>
      <use xlink:href="#DejaVuSans-Bold-72" x="870.996094"/>
      <use xlink:href="#DejaVuSans-Bold-63" x="920.3125"/>
      <use xlink:href="#DejaVuSans-Bold-65" x="979.589844"/>
      <use xlink:href="#DejaVuSans-Bold-6e" x="1047.412109"/>
      <use xlink:href="#DejaVuSans-Bold-74" x="1118.603516"/>
      <use xlink:href="#DejaVuSans-Bold-61" x="1166.40625"/>
      <use xlink:href="#DejaVuSans-Bold-67" x="1233.886719"/>
      <use xlink:href="#DejaVuSans-Bold-65" x="1305.46875"/>
      <use xlink:href="#DejaVuSans-Bold-29" x="1373.291016"/>
     </g>
    </g>
   </g>
   <g id="matplotlib.axis_2">
    <g id="ytick_1">
     <g id="line2d_9">
      <defs>
       <path id="mf9a4bce394" d="M 0 0 
L -3.5 0 
" style="stroke: #bbc1cd; stroke-width: 0.8"/>
      </defs>
      <g>
       <use xlink:href="#mf9a4bce394" x="90" y="369.36" style="fill: #bbc1cd; stroke: #bbc1cd; stroke-width: 0.8"/>
      </g>
     </g>
     <g id="text_10">
      <!-- 0.0 -->
      <g style="fill: #bbc1cd" transform="translate(67.096875 373.159219) scale(0.1 -0.1)">
       <defs>
        <path id="DejaVuSans-2e" d="M 684 794 
L 1344 794 
L 1344 0 
L 684 0 
L 684 794 
z
" transform="scale(0.015625)"/>
       </defs>
       <use xlink:href="#DejaVuSans-30"/>
       <use xlink:href="#DejaVuSans-2e" x="63.623047"/>
       <use xlink:href="#DejaVuSans-30" x="95.410156"/>
      </g>
     </g>
    </g>
    <g id="ytick_2">
     <g id="line2d_10">
      <g>
       <use xlink:href="#mf9a4bce394" x="90" y="308.88" style="fill: #bbc1cd; stroke: #bbc1cd; stroke-width: 0.8"/>
      </g>
     </g>
     <g id="text_11">
      <!-- 0.2 -->
      <g style="fill: #bbc1cd" transform="translate(67.096875 312.679219) scale(0.1 -0.1)">
       <defs>
        <path id="DejaVuSans-32" d="M 1228 531 
L 3431 531 
L 3431 0 
L 469 0 
L 469 531 
Q 828 903 1448 1529 
Q 2069 2156 2228 2338 
Q 2531 2678 2651 2914 
Q 2772 3150 2772 3378 
Q 2772 3750 2511 3984 
Q 2250 4219 1831 4219 
Q 1534 4219 1204 4116 
Q 875 4013 500 3803 
L 500 4441 
Q 881 4594 1212 4672 
Q 1544 4750 1819 4750 
Q 2544 4750 2975 4387 
Q 3406 4025 3406 3419 
Q 3406 3131 3298 2873 
Q 3191 2616 2906 2266 
Q 2828 2175 2409 1742 
Q 1991 1309 1228 531 
z
" transform="scale(0.015625)"/>
       </defs>
       <use xlink:href="#DejaVuSans-30"/>
       <use xlink:href="#DejaVuSans-2e" x="63.623047"/>
       <use xlink:href="#DejaVuSans-32" x="95.410156"/>
      </g>
     </g>
    </g>
    <g id="ytick_3">
     <g id="line2d_11">
      <g>
       <use xlink:href="#mf9a4bce394" x="90" y="248.4" style="fill: #bbc1cd; stroke: #bbc1cd; stroke-width: 0.8"/>
      </g>
     </g>
     <g id="text_12">
      <!-- 0.4 -->
      <g style="fill: #bbc1cd" transform="translate(67.096875 252.199219) scale(0.1 -0.1)">
       <use xlink:href="#DejaVuSans-30"/>
       <use xlink:href="#DejaVuSans-2e" x="63.623047"/>
       <use xlink:href="#DejaVuSans-34" x="95.410156"/>
      </g>
     </g>
    </g>
    <g id="ytick_4">
     <g id="line2d_12">
      <g>
       <use xlink:href="#mf9a4bce394" x="90" y="187.92" style="fill: #bbc1cd; stroke: #bbc1cd; stroke-width: 0.8"/>
      </g>
     </g>
     <g id="text_13">
      <!-- 0.6 -->
      <g style="fill: #bbc1cd" transform="translate(67.096875 191.719219) scale(0.1 -0.1)">
       <use xlink:href="#DejaVuSans-30"/>
       <use xlink:href="#DejaVuSans-2e" x="63.623047"/>
       <use xlink:href="#DejaVuSans-36" x="95.410156"/>
      </g>
     </g>
    </g>
    <g id="ytick_5">
     <g id="line2d_13">
      <g>
       <use xlink:href="#mf9a4bce394" x="90" y="127.44" style="fill: #bbc1cd; stroke: #bbc1cd; stroke-width: 0.8"/>
      </g>
     </g>
     <g id="text_14">
      <!-- 0.8 -->
      <g style="fill: #bbc1cd" transform="translate(67.096875 131.239219) scale(0.1 -0.1)">
       <use xlink:href="#DejaVuSans-30"/>
       <use xlink:href="#DejaVuSans-2e" x="63.623047"/>
       <use xlink:href="#DejaVuSans-38" x="95.410156"/>
      </g>
     </g>
    </g>
    <g id="ytick_6">
     <g id="line2d_14">
      <g>
       <use xlink:href="#mf9a4bce394" x="90" y="66.96" style="fill: #bbc1cd; stroke: #bbc1cd; stroke-width: 0.8"/>
      </g>
     </g>
     <g id="text_15">
      <!-- 1.0 -->
      <g style="fill: #bbc1cd" transform="translate(67.096875 70.759219) scale(0.1 -0.1)">
       <use xlink:href="#DejaVuSans-31"/>
       <use xlink:href="#DejaVuSans-2e" x="63.623047"/>
       <use xlink:href="#DejaVuSans-30" x="95.410156"/>
      </g>
     </g>
    </g>
    <g id="text_16">
     <!-- Probability of Missing Data -->
     <g style="fill: #bbc1cd" transform="translate(60.939062 294.663906) rotate(-90) scale(0.1 -0.1)">
      <defs>
       <path id="DejaVuSans-Bold-6f" d="M 2203 2784 
Q 1831 2784 1636 2517 
Q 1441 2250 1441 1747 
Q 1441 1244 1636 976 
Q 1831 709 2203 709 
Q 2569 709 2762 976 
Q 2956 1244 2956 1747 
Q 2956 2250 2762 2517 
Q 2569 2784 2203 2784 
z
M 2203 3584 
Q 3106 3584 3614 3096 
Q 4122 2609 4122 1747 
Q 4122 884 3614 396 
Q 3106 -91 2203 -91 
Q 1297 -91 786 396 
Q 275 884 275 1747 
Q 275 2609 786 3096 
Q 1297 3584 2203 3584 
z
" transform="scale(0.015625)"/>
       <path id="DejaVuSans-Bold-62" d="M 2400 722 
Q 2759 722 2948 984 
Q 3138 1247 3138 1747 
Q 3138 2247 2948 2509 
Q 2759 2772 2400 2772 
Q 2041 2772 1848 2508 
Q 1656 2244 1656 1747 
Q 1656 1250 1848 986 
Q 2041 722 2400 722 
z
M 1656 2988 
Q 1888 3294 2169 3439 
Q 2450 3584 2816 3584 
Q 3463 3584 3878 3070 
Q 4294 2556 4294 1747 
Q 4294 938 3878 423 
Q 3463 -91 2816 -91 
Q 2450 -91 2169 54 
Q 1888 200 1656 506 
L 1656 0 
L 538 0 
L 538 4863 
L 1656 4863 
L 1656 2988 
z
" transform="scale(0.015625)"/>
       <path id="DejaVuSans-Bold-69" d="M 538 3500 
L 1656 3500 
L 1656 0 
L 538 0 
L 538 3500 
z
M 538 4863 
L 1656 4863 
L 1656 3950 
L 538 3950 
L 538 4863 
z
" transform="scale(0.015625)"/>
       <path id="DejaVuSans-Bold-6c" d="M 538 4863 
L 1656 4863 
L 1656 0 
L 538 0 
L 538 4863 
z
" transform="scale(0.015625)"/>
       <path id="DejaVuSans-Bold-79" d="M 78 3500 
L 1197 3500 
L 2138 1125 
L 2938 3500 
L 4056 3500 
L 2584 -331 
Q 2363 -916 2067 -1148 
Q 1772 -1381 1288 -1381 
L 641 -1381 
L 641 -647 
L 991 -647 
Q 1275 -647 1404 -556 
Q 1534 -466 1606 -231 
L 1638 -134 
L 78 3500 
z
" transform="scale(0.015625)"/>
       <path id="DejaVuSans-Bold-66" d="M 2841 4863 
L 2841 4128 
L 2222 4128 
Q 1984 4128 1890 4042 
Q 1797 3956 1797 3744 
L 1797 3500 
L 2753 3500 
L 2753 2700 
L 1797 2700 
L 1797 0 
L 678 0 
L 678 2700 
L 122 2700 
L 122 3500 
L 678 3500 
L 678 3744 
Q 678 4316 997 4589 
Q 1316 4863 1984 4863 
L 2841 4863 
z
" transform="scale(0.015625)"/>
       <path id="DejaVuSans-Bold-4d" d="M 588 4666 
L 2119 4666 
L 3181 2169 
L 4250 4666 
L 5778 4666 
L 5778 0 
L 4641 0 
L 4641 3413 
L 3566 897 
L 2803 897 
L 1728 3413 
L 1728 0 
L 588 0 
L 588 4666 
z
" transform="scale(0.015625)"/>
       <path id="DejaVuSans-Bold-73" d="M 3272 3391 
L 3272 2541 
Q 2913 2691 2578 2766 
Q 2244 2841 1947 2841 
Q 1628 2841 1473 2761 
Q 1319 2681 1319 2516 
Q 1319 2381 1436 2309 
Q 1553 2238 1856 2203 
L 2053 2175 
Q 2913 2066 3209 1816 
Q 3506 1566 3506 1031 
Q 3506 472 3093 190 
Q 2681 -91 1863 -91 
Q 1516 -91 1145 -36 
Q 775 19 384 128 
L 384 978 
Q 719 816 1070 734 
Q 1422 653 1784 653 
Q 2113 653 2278 743 
Q 2444 834 2444 1013 
Q 2444 1163 2330 1236 
Q 2216 1309 1875 1350 
L 1678 1375 
Q 931 1469 631 1722 
Q 331 1975 331 2491 
Q 331 3047 712 3315 
Q 1094 3584 1881 3584 
Q 2191 3584 2531 3537 
Q 2872 3491 3272 3391 
z
" transform="scale(0.015625)"/>
       <path id="DejaVuSans-Bold-44" d="M 1791 3756 
L 1791 909 
L 2222 909 
Q 2959 909 3348 1275 
Q 3738 1641 3738 2338 
Q 3738 3031 3350 3393 
Q 2963 3756 2222 3756 
L 1791 3756 
z
M 588 4666 
L 1856 4666 
Q 2919 4666 3439 4514 
Q 3959 4363 4331 4000 
Q 4659 3684 4818 3271 
Q 4978 2859 4978 2338 
Q 4978 1809 4818 1395 
Q 4659 981 4331 666 
Q 3956 303 3431 151 
Q 2906 0 1856 0 
L 588 0 
L 588 4666 
z
" transform="scale(0.015625)"/>
      </defs>
      <use xlink:href="#DejaVuSans-Bold-50"/>
      <use xlink:href="#DejaVuSans-Bold-72" x="73.291016"/>
      <use xlink:href="#DejaVuSans-Bold-6f" x="122.607422"/>
      <use xlink:href="#DejaVuSans-Bold-62" x="191.308594"/>
      <use xlink:href="#DejaVuSans-Bold-61" x="262.890625"/>
      <use xlink:href="#DejaVuSans-Bold-62" x="330.371094"/>
      <use xlink:href="#DejaVuSans-Bold-69" x="401.953125"/>
      <use xlink:href="#DejaVuSans-Bold-6c" x="436.230469"/>
      <use xlink:href="#DejaVuSans-Bold-69" x="470.507812"/>
      <use xlink:href="#DejaVuSans-Bold-74" x="504.785156"/>
      <use xlink:href="#DejaVuSans-Bold-79" x="552.587891"/>
      <use xlink:href="#DejaVuSans-Bold-20" x="617.773438"/>
      <use xlink:href="#DejaVuSans-Bold-6f" x="652.587891"/>
      <use xlink:href="#DejaVuSans-Bold-66" x="721.289062"/>
      <use xlink:href="#DejaVuSans-Bold-20" x="764.794922"/>
      <use xlink:href="#DejaVuSans-Bold-4d" x="799.609375"/>
      <use xlink:href="#DejaVuSans-Bold-69" x="899.121094"/>
      <use xlink:href="#DejaVuSans-Bold-73" x="933.398438"/>
      <use xlink:href="#DejaVuSans-Bold-73" x="992.919922"/>
      <use xlink:href="#DejaVuSans-Bold-69" x="1052.441406"/>
      <use xlink:href="#DejaVuSans-Bold-6e" x="1086.71875"/>
      <use xlink:href="#DejaVuSans-Bold-67" x="1157.910156"/>
      <use xlink:href="#DejaVuSans-Bold-20" x="1229.492188"/>
      <use xlink:href="#DejaVuSans-Bold-44" x="1264.306641"/>
      <use xlink:href="#DejaVuSans-Bold-61" x="1347.314453"/>
      <use xlink:href="#DejaVuSans-Bold-74" x="1414.794922"/>
      <use xlink:href="#DejaVuSans-Bold-61" x="1462.597656"/>
     </g>
    </g>
   </g>
   <g id="line2d_15">
    <path d="M 115.363636 339.12 
L 122.61039 369.36 
L 129.857143 234.96 
L 137.103896 314.378182 
L 144.350649 257.949474 
L 151.597403 268.56 
L 158.844156 262.630588 
L 166.090909 286.2 
L 173.337662 289.480755 
L 180.584416 323.648372 
L 187.831169 298.973793 
L 195.077922 291.469091 
L 202.324675 296.716425 
L 209.571429 291.36543 
L 216.818182 287.067541 
L 224.064935 293.06 
L 231.311688 295.478182 
L 238.558442 289.131429 
L 245.805195 291.580843 
L 253.051948 298.416522 
L 260.298701 287.551304 
L 267.545455 292.615239 
L 274.792208 286.939761 
L 282.038961 296.011411 
L 289.285714 292.431892 
L 296.532468 294.189429 
L 303.779221 288.806837 
L 311.025974 293.278657 
L 318.272727 294.692727 
L 325.519481 293.549766 
L 332.766234 294.372757 
L 340.012987 295.063049 
L 347.25974 293.793941 
L 354.506494 294.213201 
L 361.753247 292.780245 
L 369 294.961201 
L 376.246753 294.200717 
L 383.493506 294.661376 
L 390.74026 293.854645 
L 397.987013 293.74705 
L 405.233766 292.718411 
L 412.480519 295.540394 
L 419.727273 293.839708 
L 426.974026 293.446744 
L 434.220779 295.121489 
L 441.467532 293.206762 
L 448.714286 292.867859 
L 455.961039 293.944669 
L 463.207792 294.796209 
L 470.454545 293.604764 
L 477.701299 294.148437 
L 484.948052 295.132512 
L 492.194805 293.855189 
L 499.441558 293.165078 
L 506.688312 293.335592 
L 513.935065 293.499576 
L 521.181818 294.288493 
L 528.428571 292.77686 
L 535.675325 293.734101 
L 542.922078 294.234817 
L 550.168831 293.324811 
L 557.415584 293.293423 
L 564.662338 293.699166 
L 571.909091 292.218253 
L 579.155844 295.259603 
L 586.402597 292.837704 
L 593.649351 293.518592 
L 600.896104 294.15636 
L 608.142857 294.474358 
L 615.38961 293.902988 
L 622.636364 293.339289 
" clip-path="url(#p8650c86aaa)" style="fill: none; stroke: #e4be83; stroke-width: 1.5; stroke-linecap: square"/>
   </g>
   <g id="line2d_16">
    <path d="M 115.363636 66.96 
L 122.61039 127.44 
L 129.857143 134.16 
L 137.103896 66.96 
L 144.350649 82.875789 
L 151.597403 127.44 
L 158.844156 93.642353 
L 166.090909 82.08 
L 173.337662 101.193962 
L 180.584416 123.220465 
L 187.831169 119.097931 
L 195.077922 121.941818 
L 202.324675 112.573408 
L 209.571429 123.061357 
L 216.818182 120.499672 
L 224.064935 123.66 
L 231.311688 125.950909 
L 238.558442 138.372245 
L 245.805195 139.039823 
L 253.051948 141.464348 
L 260.298701 139.586087 
L 267.545455 148.466965 
L 274.792208 150.679332 
L 282.038961 147.418307 
L 289.285714 156.964865 
L 296.532468 160.043906 
L 303.779221 161.087227 
L 311.025974 162.411746 
L 318.272727 166.418182 
L 325.519481 168.250545 
L 332.766234 170.400479 
L 340.012987 180.055441 
L 347.25974 180.07829 
L 354.506494 181.384235 
L 361.753247 184.297555 
L 369 187.32602 
L 376.246753 191.310135 
L 383.493506 192.520868 
L 390.74026 198.663213 
L 397.987013 200.328345 
L 405.233766 203.553528 
L 412.480519 205.741749 
L 419.727273 210.688741 
L 426.974026 211.448799 
L 434.220779 215.19605 
L 441.467532 218.556487 
L 448.714286 221.469842 
L 455.961039 223.585753 
L 463.207792 226.367468 
L 470.454545 229.664487 
L 477.701299 234.440187 
L 484.948052 235.705774 
L 492.194805 239.044027 
L 499.441558 242.733648 
L 506.688312 245.202177 
L 513.935065 249.979903 
L 521.181818 250.895916 
L 528.428571 253.66556 
L 535.675325 257.07223 
L 542.922078 262.817271 
L 550.168831 262.163937 
L 557.415584 267.252613 
L 564.662338 269.106151 
L 571.909091 270.978426 
L 579.155844 274.805015 
L 586.402597 278.035698 
L 593.649351 281.017547 
L 600.896104 285.242006 
L 608.142857 287.574704 
L 615.38961 289.32736 
L 622.636364 294.903237 
" clip-path="url(#p8650c86aaa)" style="fill: none; stroke: #6aade9; stroke-width: 1.5; stroke-linecap: square"/>
   </g>
   <g id="patch_3">
    <path d="M 90 384.48 
L 90 51.84 
" style="fill: none; stroke: #bbc1cd; stroke-width: 0.8; stroke-linejoin: miter; stroke-linecap: square"/>
   </g>
   <g id="patch_4">
    <path d="M 648 384.48 
L 648 51.84 
" style="fill: none; stroke: #bbc1cd; stroke-width: 0.8; stroke-linejoin: miter; stroke-linecap: square"/>
   </g>
   <g id="patch_5">
    <path d="M 90 384.48 
L 648 384.48 
" style="fill: none; stroke: #bbc1cd; stroke-width: 0.8; stroke-linejoin: miter; stroke-linecap: square"/>
   </g>
   <g id="patch_6">
    <path d="M 90 51.84 
L 648 51.84 
" style="fill: none; stroke: #bbc1cd; stroke-width: 0.8; stroke-linejoin: miter; stroke-linecap: square"/>
   </g>
   <g id="text_17">
    <!-- Probability of Missingness per Attendance -->
    <g style="fill: #bbc1cd" transform="translate(225.285938 45.84) scale(0.12 -0.12)">
     <defs>
      <path id="DejaVuSans-Bold-70" d="M 1656 506 
L 1656 -1331 
L 538 -1331 
L 538 3500 
L 1656 3500 
L 1656 2988 
Q 1888 3294 2169 3439 
Q 2450 3584 2816 3584 
Q 3463 3584 3878 3070 
Q 4294 2556 4294 1747 
Q 4294 938 3878 423 
Q 3463 -91 2816 -91 
Q 2450 -91 2169 54 
Q 1888 200 1656 506 
z
M 2400 2772 
Q 2041 2772 1848 2508 
Q 1656 2244 1656 1747 
Q 1656 1250 1848 986 
Q 2041 722 2400 722 
Q 2759 722 2948 984 
Q 3138 1247 3138 1747 
Q 3138 2247 2948 2509 
Q 2759 2772 2400 2772 
z
" transform="scale(0.015625)"/>
     </defs>
     <use xlink:href="#DejaVuSans-Bold-50"/>
     <use xlink:href="#DejaVuSans-Bold-72" x="73.291016"/>
     <use xlink:href="#DejaVuSans-Bold-6f" x="122.607422"/>
     <use xlink:href="#DejaVuSans-Bold-62" x="191.308594"/>
     <use xlink:href="#DejaVuSans-Bold-61" x="262.890625"/>
     <use xlink:href="#DejaVuSans-Bold-62" x="330.371094"/>
     <use xlink:href="#DejaVuSans-Bold-69" x="401.953125"/>
     <use xlink:href="#DejaVuSans-Bold-6c" x="436.230469"/>
     <use xlink:href="#DejaVuSans-Bold-69" x="470.507812"/>
     <use xlink:href="#DejaVuSans-Bold-74" x="504.785156"/>
     <use xlink:href="#DejaVuSans-Bold-79" x="552.587891"/>
     <use xlink:href="#DejaVuSans-Bold-20" x="617.773438"/>
     <use xlink:href="#DejaVuSans-Bold-6f" x="652.587891"/>
     <use xlink:href="#DejaVuSans-Bold-66" x="721.289062"/>
     <use xlink:href="#DejaVuSans-Bold-20" x="764.794922"/>
     <use xlink:href="#DejaVuSans-Bold-4d" x="799.609375"/>
     <use xlink:href="#DejaVuSans-Bold-69" x="899.121094"/>
     <use xlink:href="#DejaVuSans-Bold-73" x="933.398438"/>
     <use xlink:href="#DejaVuSans-Bold-73" x="992.919922"/>
     <use xlink:href="#DejaVuSans-Bold-69" x="1052.441406"/>
     <use xlink:href="#DejaVuSans-Bold-6e" x="1086.71875"/>
     <use xlink:href="#DejaVuSans-Bold-67" x="1157.910156"/>
     <use xlink:href="#DejaVuSans-Bold-6e" x="1229.492188"/>
     <use xlink:href="#DejaVuSans-Bold-65" x="1300.683594"/>
     <use xlink:href="#DejaVuSans-Bold-73" x="1368.505859"/>
     <use xlink:href="#DejaVuSans-Bold-73" x="1428.027344"/>
     <use xlink:href="#DejaVuSans-Bold-20" x="1487.548828"/>
     <use xlink:href="#DejaVuSans-Bold-70" x="1522.363281"/>
     <use xlink:href="#DejaVuSans-Bold-65" x="1593.945312"/>
     <use xlink:href="#DejaVuSans-Bold-72" x="1661.767578"/>
     <use xlink:href="#DejaVuSans-Bold-20" x="1711.083984"/>
     <use xlink:href="#DejaVuSans-Bold-41" x="1745.898438"/>
     <use xlink:href="#DejaVuSans-Bold-74" x="1823.291016"/>
     <use xlink:href="#DejaVuSans-Bold-74" x="1871.09375"/>
     <use xlink:href="#DejaVuSans-Bold-65" x="1918.896484"/>
     <use xlink:href="#DejaVuSans-Bold-6e" x="1986.71875"/>
     <use xlink:href="#DejaVuSans-Bold-64" x="2057.910156"/>
     <use xlink:href="#DejaVuSans-Bold-61" x="2129.492188"/>
     <use xlink:href="#DejaVuSans-Bold-6e" x="2196.972656"/>
     <use xlink:href="#DejaVuSans-Bold-63" x="2268.164062"/>
     <use xlink:href="#DejaVuSans-Bold-65" x="2327.441406"/>
    </g>
   </g>
   <g id="legend_1">
    <g id="patch_7">
     <path d="M 576.270313 89.19625 
L 641 89.19625 
Q 643 89.19625 643 87.19625 
L 643 58.84 
Q 643 56.84 641 56.84 
L 576.270313 56.84 
Q 574.270313 56.84 574.270313 58.84 
L 574.270313 87.19625 
Q 574.270313 89.19625 576.270313 89.19625 
L 576.270313 89.19625 
z
" style="fill: none; opacity: 0"/>
    </g>
    <g id="line2d_17">
     <path d="M 578.270313 64.938437 
L 588.270313 64.938437 
L 598.270313 64.938437 
" style="fill: none; stroke: #e4be83; stroke-width: 1.5; stroke-linecap: square"/>
    </g>
    <g id="text_18">
     <!-- MCAR -->
     <g style="fill: #bbc1cd" transform="translate(606.270313 68.438437) scale(0.1 -0.1)">
      <defs>
       <path id="DejaVuSans-Bold-43" d="M 4288 256 
Q 3956 84 3597 -3 
Q 3238 -91 2847 -91 
Q 1681 -91 1000 561 
Q 319 1213 319 2328 
Q 319 3447 1000 4098 
Q 1681 4750 2847 4750 
Q 3238 4750 3597 4662 
Q 3956 4575 4288 4403 
L 4288 3438 
Q 3953 3666 3628 3772 
Q 3303 3878 2944 3878 
Q 2300 3878 1931 3465 
Q 1563 3053 1563 2328 
Q 1563 1606 1931 1193 
Q 2300 781 2944 781 
Q 3303 781 3628 887 
Q 3953 994 4288 1222 
L 4288 256 
z
" transform="scale(0.015625)"/>
       <path id="DejaVuSans-Bold-52" d="M 2297 2597 
Q 2675 2597 2839 2737 
Q 3003 2878 3003 3200 
Q 3003 3519 2839 3656 
Q 2675 3794 2297 3794 
L 1791 3794 
L 1791 2597 
L 2297 2597 
z
M 1791 1766 
L 1791 0 
L 588 0 
L 588 4666 
L 2425 4666 
Q 3347 4666 3776 4356 
Q 4206 4047 4206 3378 
Q 4206 2916 3982 2619 
Q 3759 2322 3309 2181 
Q 3556 2125 3751 1926 
Q 3947 1728 4147 1325 
L 4800 0 
L 3519 0 
L 2950 1159 
Q 2778 1509 2601 1637 
Q 2425 1766 2131 1766 
L 1791 1766 
z
" transform="scale(0.015625)"/>
      </defs>
      <use xlink:href="#DejaVuSans-Bold-4d"/>
      <use xlink:href="#DejaVuSans-Bold-43" x="99.511719"/>
      <use xlink:href="#DejaVuSans-Bold-41" x="172.900391"/>
      <use xlink:href="#DejaVuSans-Bold-52" x="250.292969"/>
     </g>
    </g>
    <g id="line2d_18">
     <path d="M 578.270313 79.616562 
L 588.270313 79.616562 
L 598.270313 79.616562 
" style="fill: none; stroke: #6aade9; stroke-width: 1.5; stroke-linecap: square"/>
    </g>
    <g id="text_19">
     <!-- MAR -->
     <g style="fill: #bbc1cd" transform="translate(606.270313 83.116562) scale(0.1 -0.1)">
      <use xlink:href="#DejaVuSans-Bold-4d"/>
      <use xlink:href="#DejaVuSans-Bold-41" x="99.511719"/>
      <use xlink:href="#DejaVuSans-Bold-52" x="176.904297"/>
     </g>
    </g>
   </g>
  </g>
 </g>
 <defs>
  <clipPath id="p8650c86aaa">
   <rect x="90" y="51.84" width="558" height="332.64"/>
  </clipPath>
 </defs>
</svg>
