<?xml version="1.0" encoding="UTF-8"?>
<!DOCTYPE svg PUBLIC "-//W3C//DTD SVG 1.1//EN" "http://www.w3.org/Graphics/SVG/1.1/DTD/svg11.dtd">
<!-- Creator: CorelDRAW X7 -->
<svg xmlns="http://www.w3.org/2000/svg" xml:space="preserve" width="92.4718mm" height="79.6292mm" version="1.1" style="shape-rendering:geometricPrecision; text-rendering:geometricPrecision; image-rendering:optimizeQuality; fill-rule:evenodd; clip-rule:evenodd"
viewBox="0 0 569 490"
 xmlns:xlink="http://www.w3.org/1999/xlink">
 <defs>
  <style type="text/css">
   <![CDATA[
    .fil1 {fill:black}
    .fil0 {fill:black;fill-rule:nonzero}
   ]]>
  </style>
 </defs>
 <g id="Layer_x0020_1">
  <metadata id="CorelCorpID_0Corel-Layer"/>
  <g id="_970283024">
   <path class="fil0" d="M425 116c1,0 2,0 3,1 0,1 0,3 0,4 -1,0 -4,4 -3,8 1,3 3,5 7,7 2,1 5,2 7,2 11,0 20,-10 20,-10 1,-1 3,-1 4,-1 1,1 2,1 3,1 6,0 10,-10 10,-14 1,-1 2,-2 3,-2 1,-1 3,0 3,1 4,7 10,10 18,10 21,0 51,-19 60,-44 4,-11 6,-28 -13,-44 -11,-9 -21,-14 -32,-14 -17,0 -28,12 -28,12 -1,1 -1,1 -2,1 -1,0 -2,-1 -3,-1 -7,-12 -18,-18 -31,-18 -12,0 -21,5 -21,5 -1,0 -2,0 -3,0 -13,-9 -28,-14 -44,-14 -25,0 -50,12 -65,30 -11,14 -15,30 -12,45 7,31 49,37 82,37 20,0 37,-2 37,-2 0,0 0,0 0,0zm14 28c-3,0 -7,-1 -10,-2 -6,-3 -9,-7 -10,-12 -1,-3 0,-5 1,-7 -7,0 -19,2 -32,2 -36,0 -80,-8 -88,-43 -3,-17 1,-35 13,-50 16,-20 43,-32 70,-32 16,0 32,5 46,14 3,-2 12,-5 22,-5 14,0 26,6 34,17 5,-4 15,-11 30,-11 12,0 24,5 36,16 17,14 22,32 15,50 -10,27 -43,48 -66,48 -8,0 -15,-3 -19,-8 -3,6 -7,13 -15,13 -1,0 -3,0 -4,0 -3,3 -12,10 -23,10z"/>
   <path class="fil0" d="M117 219l54 0c1,0 2,1 3,2l0 3c1,3 2,8 3,11 2,-2 4,-6 8,-14 1,-1 2,-2 3,-2l48 0 0 -115 -119 0 0 115zm60 24c-4,0 -6,-4 -9,-18l0 0 -54 0c-2,0 -3,-1 -3,-3l0 -121c0,-2 1,-3 3,-3l125 0c2,0 3,1 3,3l0 121c0,2 -1,3 -3,3l-49 0c-9,17 -11,18 -12,18 0,0 -1,0 -1,0z"/>
   <path class="fil0" d="M16 171l25 0c2,0 3,0 3,1 2,5 4,8 5,10 0,-2 1,-5 1,-9 0,-1 2,-2 3,-2l42 0 0 -27 -79 0 0 27zm34 21c-2,0 -3,-1 -10,-15l-27 0c-2,0 -3,-1 -3,-3l0 -33c0,-2 1,-3 3,-3l85 0c2,0 3,1 3,3l0 33c0,2 -1,3 -3,3l-42 0c-2,13 -3,14 -5,15 0,0 -1,0 -1,0z"/>
   <path class="fil0" d="M16 229l48 0c1,0 2,1 3,2 2,6 4,10 6,13 0,-3 0,-6 0,-12 0,-1 2,-3 3,-3l22 0 0 -21 -82 0 0 21zm58 28c0,0 -1,0 -1,0 -1,-1 -2,-1 -11,-21l-49 0c-1,0 -3,-2 -3,-4l0 -27c0,-2 2,-3 3,-3l88 0c2,0 3,1 3,3l0 27c0,2 -1,4 -3,4l-22 0c0,4 0,8 0,11 -1,7 -1,10 -5,10z"/>
   <path class="fil0" d="M91 389l205 0 0 -134 -205 0 0 134zm208 6l-211 0c-2,0 -3,-2 -3,-3l0 -140c0,-2 1,-3 3,-3l211 0c1,0 3,1 3,3l0 140c0,1 -2,3 -3,3z"/>
   <path class="fil0" d="M113 366l153 0 0 -85 -153 0 0 85zm155 4l-157 0c-2,0 -3,-1 -3,-2l0 -89c0,-2 1,-3 3,-3l157 0c1,0 2,1 2,3l0 89c0,1 -1,2 -2,2z"/>
   <path class="fil0" d="M196 462c0,0 0,0 0,0l-51 -3c-1,0 -1,0 -2,-1 0,-1 -1,-2 0,-3 5,-15 18,-24 23,-26l0 -37c0,-2 1,-3 3,-3 1,0 3,1 3,3l0 39c0,1 -1,2 -2,2 0,0 -13,7 -20,20l46 3 30 -8c-1,-4 -4,-10 -12,-14 -1,0 -2,-1 -2,-3l0 -39c0,-2 2,-3 3,-3 2,0 3,1 3,3l0 37c14,7 14,20 14,21 0,1 -1,3 -2,3l-33 9c0,0 0,0 -1,0z"/>
   <path class="fil0" d="M247 255c-1,0 -3,-1 -3,-2 0,-1 -10,-70 57,-80 1,0 3,1 3,3 0,1 -1,3 -3,3 -60,10 -51,70 -51,73 1,1 -1,3 -2,3 0,0 -1,0 -1,0z"/>
   <path class="fil0" d="M526 442c0,0 0,0 0,0 -2,0 -3,-2 -3,-3 0,-2 8,-173 -3,-219 -10,-45 -118,-47 -119,-47 -2,0 -3,-1 -3,-3 0,-1 1,-3 3,-3 0,0 0,0 0,0 4,0 114,2 125,51 11,48 3,214 3,221 0,2 -1,3 -3,3z"/>
   <path class="fil0" d="M267 255c-1,0 -1,0 -1,0 -2,0 -3,-2 -2,-3 0,-1 3,-18 25,-23 2,0 4,1 4,3 0,1 -1,3 -2,3 -19,4 -21,18 -21,18 -1,1 -2,2 -3,2z"/>
   <path class="fil0" d="M305 242c0,0 0,0 0,0 -6,-1 -17,-4 -19,-15 -1,-9 3,-15 7,-17 3,-2 7,-1 10,1 1,1 1,3 0,4 -2,2 -4,2 -5,1 -1,-1 -2,-1 -2,-1 -3,2 -5,5 -4,11 2,9 12,9 13,9 2,1 3,2 3,4 0,1 -2,3 -3,3z"/>
   <path class="fil0" d="M341 285c0,0 0,0 0,0 -1,0 -36,-4 -39,-46 -1,-7 -2,-14 -2,-21 -4,-32 -6,-58 13,-68 17,-9 44,-14 64,-7 13,5 21,13 27,26 12,27 18,81 -2,104 -11,14 -23,11 -24,11 -1,0 -2,-2 -2,-3 1,-2 2,-3 4,-3 0,0 8,2 17,-9 18,-21 12,-73 1,-97 -5,-12 -12,-19 -23,-23 -19,-7 -44,-2 -59,7 -16,8 -13,31 -10,61 0,7 1,14 2,21 3,38 33,41 33,41 2,0 3,2 3,4 0,1 -2,2 -3,2z"/>
   <path class="fil0" d="M262 429c-8,0 -15,-2 -20,-7 -14,-10 -15,-29 -15,-30 0,-2 1,-3 3,-3 2,0 3,1 3,2 0,1 1,18 13,27 5,4 13,6 22,5 33,-5 54,-58 54,-59 1,-1 2,-2 3,-2l3 0 10 -16c-1,-1 -1,-3 -1,-5 0,-3 3,-5 14,-10 4,-1 8,-3 9,-4 2,-2 5,-2 8,-2 2,0 4,0 6,-1 2,-1 2,-8 1,-12 0,0 0,-1 1,-1 0,-1 0,-5 0,-7 -1,-4 -1,-5 0,-7 0,0 0,-4 0,-6 -2,0 -6,0 -7,1 -3,0 -4,0 -5,0 -2,0 -3,-2 -3,-3 0,-3 2,-4 9,-8 6,-4 6,-5 5,-7 -1,-2 -9,0 -26,7 -21,10 -30,36 -30,37 0,1 -1,2 -2,2 -2,0 -3,0 -3,-1 -1,-1 -1,-1 -1,-1 -3,3 -7,9 -12,15 -1,2 -3,2 -4,1 -2,-1 -2,-3 -1,-4 8,-11 13,-18 14,-18 0,-1 1,-1 2,-1 1,0 2,0 3,0 3,-8 13,-27 32,-35 22,-10 30,-12 34,-4 3,7 -2,11 -6,13 3,0 5,1 6,3 1,3 2,9 1,12 0,0 0,2 0,3 0,4 0,7 0,9 0,4 1,15 -6,18 -3,1 -6,1 -8,1 -2,0 -4,0 -4,1 -2,1 -5,2 -10,5 -4,1 -9,4 -11,5 0,1 1,2 1,2 1,1 1,2 0,3l-12 20c0,1 -1,1 -3,1l-2 0c-4,11 -25,56 -58,61 -3,0 -5,0 -7,0z"/>
   <path class="fil0" d="M413 236c-1,0 -1,-1 -2,-1 -2,0 -3,-1 -2,-3 0,-2 1,-3 3,-3 5,1 8,-4 9,-7 3,-8 2,-15 1,-16 -4,-2 -9,3 -9,3 -2,1 -4,1 -5,0 -1,-2 -1,-4 0,-5 4,-3 11,-7 17,-3 6,3 5,15 2,22 -3,8 -8,13 -14,13z"/>
   <path class="fil0" d="M495 440c-1,0 -2,-1 -3,-2 -1,-2 0,-4 1,-4 14,-7 11,-37 5,-98 -1,-8 -2,-16 -2,-25 -8,-79 -69,-90 -71,-90 -2,-1 -3,-2 -3,-4 1,-2 2,-3 4,-3 0,1 67,12 76,96 1,9 1,17 2,25 7,68 10,96 -8,104 0,1 -1,1 -1,1z"/>
   <path class="fil0" d="M416 148c-3,0 -6,2 -6,3 0,2 3,5 7,5 4,1 7,-1 7,-3 0,-2 -3,-4 -7,-5 -1,0 -1,0 -1,0zm3 15c-1,0 -2,0 -2,-1 -7,0 -13,-5 -13,-11 0,-5 6,-10 13,-9 7,1 13,6 13,11 0,6 -5,10 -11,10z"/>
   <path class="fil0" d="M489 274c-1,0 -2,-1 -2,-2 -8,-60 15,-79 16,-79 1,-1 2,-1 3,0 1,1 1,2 0,3 -1,0 -22,19 -15,76 1,1 0,2 -2,2 0,0 0,0 0,0z"/>
   <path class="fil0" d="M112 281c-1,0 -1,0 -2,-1l-24 -26c-1,-1 -1,-3 0,-4 1,0 3,0 4,1l23 26c1,1 1,3 0,3 0,1 -1,1 -1,1z"/>
   <path class="fil0" d="M268 281c-1,0 -1,0 -2,-1 -1,-1 0,-2 1,-3l30 -27c1,0 3,0 3,1 1,1 1,2 0,3l-30 26c-1,1 -1,1 -2,1z"/>
   <path class="fil0" d="M299 394c-1,0 -1,0 -2,0l-30 -24c-1,-1 -2,-3 -1,-4 1,-1 2,-1 3,0l31 24c1,1 1,2 0,3 0,1 -1,1 -1,1z"/>
   <path class="fil0" d="M88 394c-1,0 -1,0 -2,-1 -1,-1 -1,-2 0,-3l23 -24c1,-1 2,-1 3,0 1,1 1,3 0,3l-22 24c-1,1 -2,1 -2,1z"/>
   <path class="fil0" d="M196 461c0,0 0,0 0,0 -2,0 -2,-2 -2,-3 0,-1 6,-21 21,-28 1,-1 3,0 3,1 1,1 0,2 -1,3 -13,6 -18,25 -18,25 -1,1 -2,2 -3,2z"/>
   <path class="fil0" d="M216 434c0,0 0,0 0,0l-47 -1c-2,0 -3,-1 -3,-2 0,-2 1,-3 3,-3l47 1c1,0 2,2 2,3 0,1 -1,2 -2,2z"/>
   <path class="fil0" d="M203 434c0,0 0,0 0,0 -1,0 -2,-1 -2,-3l1 -39c0,-2 1,-3 3,-3 1,0 2,1 2,3l-1 39c0,2 -1,3 -3,3z"/>
   <path class="fil0" d="M340 346c0,0 -1,0 -1,-1l-28 -29c-1,-1 -1,-2 0,-3 1,-1 3,-1 4,0l27 29c1,1 1,2 0,3 -1,1 -1,1 -2,1z"/>
   <path class="fil0" d="M325 368c-1,0 -1,-1 -2,-1 -22,-22 -23,-40 -23,-40 0,-2 1,-3 2,-3 2,0 3,1 3,2 0,1 1,18 22,38 1,1 1,2 0,3 -1,0 -1,1 -2,1z"/>
   <path class="fil0" d="M305 340c0,0 0,0 -1,0 -1,-1 -1,-2 -1,-3 1,-1 6,-13 12,-20 1,-1 3,-1 4,0 0,1 1,3 0,4 -6,5 -11,18 -11,18 -1,1 -2,1 -3,1z"/>
   <path class="fil0" d="M308 346c0,0 -1,0 -1,-1 -1,0 -1,-2 -1,-3l15 -18c1,-1 3,-1 4,0 1,1 1,2 0,3l-15 18c0,1 -1,1 -2,1z"/>
   <path class="fil0" d="M313 354c-1,0 -1,0 -2,-1 0,-1 -1,-2 0,-3l17 -19c1,-1 2,-1 3,0 1,1 1,2 1,3l-17 19c-1,0 -1,1 -2,1z"/>
   <path class="fil0" d="M319 362c0,0 -1,0 -1,-1 -1,-1 -1,-2 0,-3l16 -20c1,-1 2,-2 3,-1 1,1 2,2 1,3l-17 21c0,0 -1,1 -2,1z"/>
   <path class="fil0" d="M363 441c-1,0 -2,-1 -2,-2 -1,-8 -2,-14 -3,-20 -2,-8 -4,-16 -3,-26 1,-18 -7,-57 -7,-58 0,-1 1,-2 2,-2 1,-1 2,0 3,1 0,2 8,41 6,59 0,10 1,17 3,25 1,6 3,13 3,21 0,1 -1,2 -2,2 0,0 0,0 0,0z"/>
   <path class="fil0" d="M392 439c0,0 0,-1 -1,-1 -1,0 -1,-2 -1,-3 0,-1 10,-22 32,-26 1,-3 6,-11 11,-14 3,-2 3,-2 1,-8 -1,-2 -1,-5 -2,-8 -5,-17 3,-42 13,-54 1,-1 2,-1 3,0 1,1 1,2 1,3 -10,11 -17,35 -13,50 1,3 2,6 3,8 2,7 3,9 -3,12 -4,3 -9,11 -11,14 0,1 -1,2 -2,2 -20,3 -29,23 -29,23 0,1 -1,2 -2,2z"/>
   <path class="fil1" d="M303 220c0,0 5,-26 6,-34 0,-9 2,-27 31,-30 29,-3 47,-1 51,13 5,15 13,30 16,31 3,1 2,-1 2,-1 0,0 -4,-38 -28,-51 -23,-12 -62,-4 -72,9 -9,12 -10,28 -6,63zm77 -14c2,0 4,3 4,6 0,3 -2,6 -4,6 -3,0 -4,-3 -4,-6 0,-3 1,-6 4,-6zm-53 5c2,0 4,2 4,5 0,3 -2,6 -4,6 -2,0 -4,-3 -4,-6 0,-3 2,-5 4,-5z"/>
   <path class="fil0" d="M357 240c-5,0 -9,-2 -13,-4 -1,-1 -2,-3 -3,-4 0,-3 2,-6 3,-8l1 -1c0,-2 1,-7 0,-11 0,-2 1,-3 2,-3 1,0 3,1 3,2 0,2 1,11 -2,14l0 1c-1,2 -2,4 -2,5 0,0 0,1 1,1 5,3 9,4 12,4 3,-1 7,-7 8,-8 -1,-1 -2,-3 -3,-4 -1,-1 -1,-3 0,-4 1,-1 2,0 3,0 1,1 3,4 4,6 1,2 0,3 -1,5 -1,3 -5,8 -9,9 -2,0 -3,0 -4,0z"/>
   <path class="fil0" d="M335 201c-1,0 -2,-1 -2,-2 -2,-3 -4,-6 -7,-6 -5,-2 -10,2 -10,2 -1,1 -2,1 -3,0 -1,-1 -1,-3 0,-4 1,0 7,-5 14,-3 4,1 8,4 10,9 1,1 0,3 -1,3 0,0 -1,1 -1,1z"/>
   <path class="fil0" d="M371 188c-1,0 -1,0 -1,0 -1,0 -2,-1 -2,-2 2,-5 6,-13 16,-12 1,0 2,1 2,2 0,2 -1,3 -2,3 -9,-1 -11,7 -11,8 0,1 -1,1 -2,1z"/>
   <path class="fil0" d="M379 308c-1,0 -2,-1 -2,-2 -1,-1 0,-2 1,-3 25,-11 40,-24 44,-40 4,-17 -6,-31 -6,-31 -1,-1 -1,-2 0,-3 1,-1 3,-1 4,1 0,0 11,15 6,34 -4,17 -20,32 -46,43 -1,1 -1,1 -1,1z"/>
   <path class="fil0" d="M325 302c0,0 -1,0 -1,-1 0,0 -17,-3 -27,-24 -1,-1 -1,-2 1,-3 1,0 2,0 3,1 9,19 24,22 24,22 1,0 2,1 2,3 0,1 -1,2 -2,2z"/>
   <path class="fil0" d="M296 253c-1,0 -2,0 -2,-1 0,-1 -2,-6 2,-16 0,-1 2,-2 3,-1 1,0 2,1 1,3 -3,8 -2,12 -2,12 0,1 0,3 -1,3 -1,0 -1,0 -1,0z"/>
   <path class="fil0" d="M266 441c-1,0 -2,-1 -3,-2 0,0 -4,-7 -5,-13 0,-1 2,-3 3,-3 2,0 3,1 3,3 1,4 3,8 4,10 1,1 1,3 0,4 -1,1 -2,1 -2,1z"/>
   <path class="fil0" d="M488 488c0,0 0,0 0,0l-485 -24c-2,0 -3,-1 -3,-3 0,-1 1,-3 2,-3l106 -28c0,-1 1,-1 1,-1l54 2c1,0 3,2 3,4 0,1 -2,3 -4,3l-53 -2 -86 23 465 23 69 -43c1,-1 3,0 4,1 1,2 0,3 -1,4l-70 43c-1,1 -1,1 -2,1z"/>
   <path class="fil0" d="M559 490c-2,0 -3,-1 -3,-3l-1 -42 -331 -4c-2,0 -3,-2 -3,-3 0,-2 1,-3 3,-3l334 4c2,0 3,1 3,3l1 45c0,1 -1,3 -3,3 0,0 0,0 0,0z"/>
   <path class="fil0" d="M376 274c-1,0 -2,-1 -3,-2 0,-1 0,-3 2,-4 7,-3 9,-9 5,-19 -1,-2 -2,-3 -3,-4 -4,-1 -8,0 -10,1 -1,1 -3,0 -4,-2 -1,-1 0,-3 2,-4 1,0 8,-3 14,-1 3,2 5,4 7,8 3,8 5,20 -9,27 0,0 0,0 -1,0z"/>
   <path class="fil0" d="M348 282c0,0 0,0 0,0 -5,0 -14,-4 -17,-16 -1,-4 0,-7 2,-10 6,-9 21,-11 23,-12 1,0 3,1 3,3 1,1 -1,3 -2,3 -4,1 -15,4 -19,9 -1,2 -1,4 -1,5 2,11 10,12 11,12 2,0 3,1 3,3 0,1 -1,3 -3,3z"/>
   <path class="fil0" d="M356 278c-1,0 -1,0 -1,0 -5,-1 -9,-6 -10,-13 -2,-7 -1,-8 0,-8 0,-1 1,-1 27,-7 2,0 3,0 3,2 0,0 4,11 -1,19 -1,2 -2,2 -3,1 -1,0 -2,-2 -1,-3 3,-5 2,-11 1,-14 -8,2 -19,4 -23,5 1,4 3,12 8,13 1,0 2,2 2,3 0,1 -1,2 -2,2z"/>
   <path class="fil0" d="M226 119c0,0 0,0 -1,0 0,0 -1,0 -9,-3 -3,0 -15,0 -27,1 -18,1 -37,2 -44,-1 -9,-4 -15,1 -16,1 -1,1 -2,1 -3,-1 -1,-1 0,-2 1,-3 0,0 9,-6 20,-1 6,2 26,1 42,0 15,-1 25,-1 29,0 7,2 9,3 9,3 1,0 2,1 1,3 0,0 -1,1 -2,1z"/>
   <path class="fil0" d="M162 130c-4,0 -9,-1 -14,-1 -12,-2 -18,0 -18,0 -1,1 -3,0 -3,-1 -1,-1 0,-2 1,-3 0,0 7,-3 21,-1 13,2 28,0 28,0 1,0 2,1 3,2 0,1 -1,2 -2,3 -1,0 -7,1 -16,1z"/>
   <path class="fil0" d="M150 141c-3,0 -7,0 -11,-1 -7,-2 -10,0 -11,1 -1,0 -2,0 -3,-1 -1,-1 0,-2 1,-3 0,0 5,-4 15,-2 7,2 14,1 19,1 1,-1 2,0 2,1 1,2 0,3 -1,3 -3,1 -7,1 -11,1z"/>
   <path class="fil0" d="M175 157c-3,0 -6,0 -8,-1 -5,-2 -13,-1 -16,-1 -1,0 -2,0 -2,-2 -1,-1 0,-2 2,-2 0,0 11,-2 17,1 6,2 15,0 15,0 1,0 2,0 3,2 0,1 -1,2 -2,2 -1,0 -4,1 -9,1z"/>
   <path class="fil0" d="M174 166c-1,0 -3,0 -4,0 -3,0 -7,-1 -13,-1l0 0c-2,0 -3,-1 -3,-2 0,-1 1,-2 3,-2l0 0c5,0 10,0 14,1 6,1 11,-1 11,-1 1,-1 2,0 3,1 0,1 0,3 -2,3 0,0 -4,1 -9,1z"/>
   <path class="fil0" d="M159 177c-1,0 -2,-1 -2,-2 -1,-1 0,-3 1,-3 1,0 1,0 1,0 2,0 6,-2 11,-1 5,1 7,-1 7,-1 1,-1 3,-1 4,0 1,1 0,3 0,4 -1,0 -5,3 -12,2 -4,-1 -7,0 -8,1 -1,0 -1,0 -2,0 0,0 0,0 0,0z"/>
   <path class="fil0" d="M194 186c0,1 0,1 0,1 0,0 0,0 0,-1zm-65 3c-1,0 -2,-1 -2,-3 0,-1 1,-2 2,-2 67,-1 68,0 69,1 0,0 1,1 1,1 0,2 -1,3 -3,3 0,0 0,0 0,0 -5,-1 -43,-1 -67,0l0 0z"/>
   <path class="fil0" d="M183 198c-4,0 -11,-1 -15,-2 -3,-1 -13,0 -17,1 -1,0 -2,-1 -3,-2 0,-2 1,-3 2,-3 2,0 14,-1 19,0 5,1 13,2 15,1 3,0 4,0 4,0 1,-1 3,0 3,1 0,1 0,3 -1,3 -1,0 -2,1 -5,1 -1,0 -1,0 -2,0z"/>
   <path class="fil0" d="M175 213c-5,0 -11,-2 -14,-3 -4,-2 -13,1 -16,2 -1,0 -3,-1 -3,-2 -1,-1 0,-2 1,-3 2,0 14,-4 20,-1 7,2 13,3 16,2 4,-2 6,-3 6,-3 1,-1 2,0 3,1 1,1 0,2 -1,3 0,0 -2,2 -7,3 -1,1 -3,1 -5,1z"/>
   <path class="fil0" d="M64 153c-4,0 -8,0 -12,-2 -8,-2 -16,1 -16,1 -1,0 -2,0 -3,-1 0,-2 0,-3 2,-3 0,0 9,-4 18,-1 7,2 13,2 20,1 8,-1 14,-3 14,-3 2,0 3,1 3,2 0,1 0,2 -1,3 -1,0 -7,2 -15,3 -4,0 -7,0 -10,0z"/>
   <path class="fil0" d="M74 162c-2,0 -4,0 -6,-1 -3,0 -9,-1 -20,0 0,0 -1,0 -1,0 -1,0 -2,-1 -2,-2 0,-1 1,-2 2,-2l1 0c9,-1 16,-1 21,0 7,2 12,-1 12,-1 1,-1 3,0 3,1 1,1 1,3 -1,3 0,0 -4,2 -9,2z"/>
   <path class="fil0" d="M72 169c-2,0 -4,0 -6,-1 -3,-1 -10,-1 -12,0 -1,0 -2,-1 -3,-2 0,-1 1,-3 2,-3 1,0 10,-1 15,1 3,2 8,0 8,0 2,-1 3,0 3,1 1,2 0,3 -1,3 0,0 -3,1 -6,1z"/>
   <path class="fil0" d="M44 217c-2,0 -4,0 -7,-1 -7,-3 -12,0 -12,0 -1,0 -3,0 -3,-1 -1,-1 0,-3 1,-3 0,-1 7,-4 15,-1 5,2 8,2 11,1 2,0 3,0 5,0 6,-1 7,-1 7,-1 2,0 3,2 3,3 0,1 -1,2 -3,2 0,0 -1,0 -7,0 -1,0 -3,0 -4,1 -2,0 -4,0 -6,0z"/>
   <path class="fil0" d="M85 217c-1,0 -2,-1 -4,-1 -3,-1 -7,-1 -8,-1 -1,1 -2,0 -3,-2 0,-1 1,-2 2,-2 2,0 6,-1 11,1 3,1 6,-2 6,-2 2,0 3,0 4,1 0,1 0,2 -1,3 0,0 -3,3 -7,3z"/>
   <path class="fil0" d="M85 223c-3,0 -7,-1 -11,-2 -4,-1 -9,0 -10,0 -1,1 -2,0 -2,-1 -1,-1 0,-3 1,-3 0,0 7,-2 13,0 4,1 9,2 10,2 1,-1 2,0 3,1 0,1 0,2 -1,3 -1,0 -2,0 -3,0z"/>
   <path class="fil0" d="M67 227c0,0 0,0 0,0 -2,0 -18,-1 -22,-3 -3,-1 -9,1 -12,2 -1,0 -3,-1 -3,-2 0,-1 0,-2 1,-3 1,0 10,-3 15,-1 4,1 16,2 21,3 1,0 2,1 2,2 0,1 -1,2 -2,2z"/>
  </g>
 </g>
</svg>
