<?xml version="1.0" encoding="UTF-8"?>
<!DOCTYPE svg PUBLIC "-//W3C//DTD SVG 1.1//EN" "http://www.w3.org/Graphics/SVG/1.1/DTD/svg11.dtd">
<!-- Creator: CorelDRAW X7 -->
<svg xmlns="http://www.w3.org/2000/svg" xml:space="preserve" width="95.5006mm" height="67.7534mm" version="1.1" style="shape-rendering:geometricPrecision; text-rendering:geometricPrecision; image-rendering:optimizeQuality; fill-rule:evenodd; clip-rule:evenodd"
viewBox="0 0 437 310"
 xmlns:xlink="http://www.w3.org/1999/xlink">
 <defs>
  <style type="text/css">
   <![CDATA[
    .fil1 {fill:black}
    .fil0 {fill:black;fill-rule:nonzero}
   ]]>
  </style>
 </defs>
 <g id="Layer_x0020_1">
  <metadata id="CorelCorpID_0Corel-Layer"/>
  <g id="_1042365200">
   <path class="fil0" d="M13 235l164 17 -9 -131 -163 -17 8 131zm166 22c0,0 0,0 0,0l-168 -17c-1,0 -2,-1 -2,-2l-9 -136c0,-1 0,-2 1,-2 0,0 1,-1 2,-1l167 18c2,0 2,1 2,2l9 135c0,0 0,0 0,1 0,1 -1,2 -2,2l0 0z"/>
   <path class="fil0" d="M28 219l130 11 -6 -90 -131 -11 7 90zm132 15l0 0c0,0 0,0 0,0l-134 -12c-1,0 -1,0 -1,-1l-7 -94c0,0 0,-1 0,-1 0,0 1,-1 1,-1l134 12c1,0 2,1 2,2l7 93c0,0 0,0 0,0 0,1 -1,2 -2,2z"/>
   <path class="fil0" d="M114 279c0,0 0,0 -1,0l-29 -6c-1,0 -2,0 -2,-1l-7 -27c0,-1 0,-3 2,-3 1,0 2,0 2,2l7 25 25 4 -5 -25c-1,-1 0,-3 1,-3 2,0 3,1 3,2l6 29c0,1 0,1 -1,2 0,0 -1,1 -1,1z"/>
   <path class="fil0" d="M124 310c0,0 0,0 0,0l-74 -17c-1,-1 -2,-2 -2,-3l0 -11c0,0 1,-1 1,-1l31 -22c1,-1 2,-1 3,0 0,1 0,3 -1,3l-29 22 0 8 70 17 28 -33 -29 -10c-1,0 -2,-1 -2,-3 1,-1 2,-1 3,-1l33 11c1,0 1,0 2,1 0,1 0,2 -1,2l-31 37c-1,0 -1,0 -2,0z"/>
   <path class="fil0" d="M114 278c-1,0 -1,0 -2,-1 0,-1 0,-2 1,-2l7 -5 -2 -21c0,-1 0,-2 1,-2 1,0 2,0 2,1l3 23c0,0 0,1 -1,1l-8 6c-1,0 -1,0 -1,0z"/>
   <path class="fil0" d="M121 298c0,0 0,0 0,0l-71 -17c-1,0 -1,-1 -1,-2 0,-1 1,-2 2,-1l70 16 25 -26c1,-1 2,-1 2,0 1,0 1,2 0,2l-26 27c0,1 0,1 -1,1z"/>
   <path class="fil0" d="M348 273c-7,0 -15,-1 -21,-2 -4,-1 -8,-2 -9,-2 -8,1 -17,-9 -19,-12l-121 -18c-2,0 -3,-1 -2,-2 0,-1 1,-2 2,-2l122 17c1,0 1,1 2,1 3,5 11,12 15,12 3,-1 6,0 11,1 11,2 27,6 35,-2 8,-6 9,-15 9,-19 0,-7 -2,-13 -3,-14 -5,-6 -6,-12 -3,-21 2,-9 2,-9 -4,-16 -6,-8 -5,-14 -2,-24 3,-8 -1,-15 -4,-18 -5,-3 -7,-8 -8,-14 -1,-4 -7,-6 -9,-7 -1,0 -1,0 -2,-1 0,0 0,-1 0,-2 0,0 0,-2 0,-4 -1,0 -2,1 -3,1 -1,0 -2,0 -2,-1 -1,0 -1,-1 -1,-2 1,-1 1,-1 1,-1 -1,-1 -3,-3 -4,-3 -1,-1 -1,-2 -1,-3 0,0 16,-33 17,-62 2,-33 -26,-42 -38,-45 -22,-5 -39,-6 -48,8 -11,15 -23,73 -24,73 0,1 0,2 -1,2 0,0 -1,0 -2,0 -3,-1 -10,0 -16,1 -10,1 -18,3 -21,-1 -2,-2 -2,-2 -11,-2 -6,0 -14,1 -26,1 -32,0 -49,23 -49,24 -1,1 -3,1 -4,0 -1,-1 -1,-2 0,-3 1,-1 19,-26 53,-26 12,0 20,0 25,0 9,-1 12,-1 16,3 1,2 10,0 16,-1 6,0 12,-1 16,-1 3,-11 14,-58 24,-73 12,-16 32,-14 53,-10 10,3 44,13 42,51 -1,25 -13,54 -17,61 1,1 2,2 3,2 1,1 1,2 1,3 2,0 4,0 5,2 1,2 1,4 1,5 3,1 10,4 10,10 1,5 3,9 6,12 4,3 10,11 6,23 -3,10 -3,13 2,19 6,8 7,10 4,20 -3,9 -1,13 2,16 3,4 5,11 5,18 -1,9 -4,17 -10,22 -6,5 -12,6 -19,6z"/>
   <path class="fil0" d="M429 279c0,0 0,0 -1,0l-63 -11c-2,0 -2,-1 -2,-3 0,-1 1,-2 2,-2l64 11c1,1 2,2 2,3 0,1 -1,2 -2,2z"/>
   <path class="fil0" d="M407 275c0,0 0,0 0,0 -1,0 -2,-1 -2,-3 26,-95 23,-156 21,-161 -1,-6 -1,-7 3,-23 1,-2 2,-5 3,-8 6,-21 -11,-43 -18,-48 -7,-5 -35,-13 -57,-18 -19,-4 -26,3 -26,3 -1,1 -3,1 -4,0 0,-1 0,-2 0,-3 1,-1 9,-9 31,-4 16,3 49,12 58,18 8,5 27,28 20,53 -1,3 -2,6 -2,8 -5,16 -5,16 -3,21 1,5 5,65 -21,164 -1,1 -2,1 -3,1z"/>
   <path class="fil0" d="M339 111c-2,0 -4,-1 -6,-2 -1,-1 -2,-2 -1,-3 1,-1 2,-2 3,-1 5,3 9,-1 11,-3 5,-5 7,-12 5,-14 -3,-5 -9,-2 -9,-2 -1,1 -2,1 -3,0 -1,-1 0,-3 1,-3 3,-2 10,-5 15,2 4,5 0,14 -5,20 -4,4 -8,6 -11,6z"/>
   <path class="fil0" d="M231 81c-4,0 -7,-3 -9,-7 -3,-9 0,-26 8,-29 2,-1 8,-2 13,9 0,1 0,3 -2,3 -1,1 -2,0 -3,-1 -1,-2 -4,-8 -7,-7 -4,2 -8,16 -5,23 1,4 4,5 8,3 1,0 2,1 3,2 0,1 -1,2 -2,3 -1,0 -3,1 -4,1z"/>
   <path class="fil0" d="M282 135c-7,0 -9,-2 -11,-2 -2,-1 -3,-1 -5,-1 -5,0 -10,-2 -14,-6 -3,-4 -4,-9 -3,-14 1,-6 4,-11 8,-14 6,-3 12,-3 19,-1 1,0 2,1 2,3 -1,1 -2,1 -3,1 -6,-2 -11,-1 -15,1 -4,2 -6,6 -7,11 -1,5 1,8 3,10 2,3 6,4 9,4 4,0 6,1 8,1 1,1 4,2 10,2 14,0 15,-17 15,-20 0,-1 -1,-2 -2,-3 -2,-3 -7,-3 -9,-3 -1,0 -3,-1 -3,-2 0,-2 1,-3 3,-3 0,0 8,0 13,4 1,2 2,5 2,7 0,11 -5,24 -19,25 0,0 0,0 -1,0z"/>
   <path class="fil0" d="M382 270c-1,0 -1,0 -1,0 -1,0 -1,-1 -1,-2 26,-46 26,-160 26,-167 -17,-49 7,-72 8,-73 0,0 1,0 2,0 1,1 1,2 0,3 0,0 -23,22 -7,69 0,1 0,1 0,1 0,5 1,121 -26,168 0,1 -1,1 -1,1z"/>
   <path class="fil0" d="M428 108c0,0 -1,0 -1,0l-73 -16c-1,-1 -2,-1 -1,-2 0,-1 1,-2 2,-2l73 17c1,0 2,1 1,2 0,1 -1,1 -1,1z"/>
   <path class="fil0" d="M300 256c-1,0 -1,0 -2,-1 0,-1 -10,-28 -11,-45 0,-16 0,-35 0,-35 0,-1 1,-2 1,-2l1 0c-1,-3 -3,-8 -3,-14 -1,-7 2,-16 10,-18 6,-3 12,-10 14,-17 3,-8 9,-11 12,-11 2,0 3,1 3,2 2,0 4,0 6,1 1,0 1,1 1,2 -1,1 -2,1 -2,1 -3,-1 -5,0 -5,0 0,1 -1,1 -2,0 0,0 -1,-1 -1,-1 0,0 0,-1 0,-1 -2,-1 -6,2 -9,8 -2,7 -9,16 -16,19 -7,2 -8,9 -8,15 0,7 4,14 4,14 0,0 1,1 0,2 0,0 0,0 -1,1l-2 0c1,5 1,20 1,34 0,17 10,44 11,44 0,1 0,2 -1,2 -1,0 -1,0 -1,0z"/>
   <path class="fil0" d="M340 221c-1,0 -1,-1 -2,-1 -1,-2 -7,-26 -9,-36l-3 0c0,0 -1,0 -1,-1l-3 -11 -2 -1c-1,0 -1,0 -2,-1l-2 -7c0,-1 1,-2 1,-2 0,0 11,-5 16,-13 4,-8 5,-19 5,-19 0,-1 0,-2 1,-2l0 0c1,0 2,1 2,2 0,0 0,12 -5,21 -5,7 -13,12 -16,14l1 4 3 1c1,0 1,0 1,1l3 11 2 -1c1,0 2,1 2,2 3,13 8,34 9,36 1,1 0,2 0,3 -1,0 -1,0 -1,0z"/>
   <path class="fil0" d="M292 176c-1,0 -2,-1 -2,-2 0,-1 1,-2 1,-2l29 -4c1,0 2,0 2,1 0,1 -1,2 -2,2l-28 5c0,0 0,0 0,0z"/>
   <path class="fil0" d="M289 193c-1,0 -2,-1 -2,-1 0,-1 1,-2 2,-2 0,0 25,-3 39,-9 1,-1 2,0 2,1 0,1 0,2 -1,2 -14,6 -39,9 -40,9 0,0 0,0 0,0z"/>
   <path class="fil0" d="M304 191c-1,0 -2,-1 -2,-2l-3 -16c0,-1 0,-2 1,-2 1,0 2,0 2,1l3 17c1,1 0,2 -1,2 0,0 0,0 0,0z"/>
   <path class="fil0" d="M312 189c-1,0 -1,-1 -1,-2l-3 -16c0,-1 1,-2 2,-2 1,0 2,1 2,2l2 16c0,1 -1,2 -1,2 -1,0 -1,0 -1,0z"/>
   <path class="fil0" d="M319 136c0,0 0,0 0,0 -1,-1 -2,-2 -1,-3 4,-9 4,-16 4,-16 0,-1 1,-2 2,-2 0,0 0,0 0,0 1,0 2,1 2,2 0,0 0,8 -5,18 0,1 -1,1 -2,1z"/>
   <path class="fil0" d="M324 145c0,0 0,0 -1,0 0,-1 -1,-2 0,-3 5,-10 9,-20 9,-21 0,0 1,-1 2,-1 1,1 2,2 1,3 0,0 -4,11 -9,21 -1,0 -1,1 -2,1z"/>
   <path class="fil0" d="M278 38c0,0 -1,-1 -1,-1 0,0 -2,-3 -5,-6 -1,-1 -6,2 -11,5 -1,1 -2,1 -2,0 -1,-1 -1,-2 0,-2 3,-2 11,-9 15,-5 3,3 6,6 6,6 0,1 0,2 -1,2 0,0 0,1 -1,1z"/>
   <path class="fil0" d="M321 58c-1,0 -2,0 -3,0 -7,-1 -11,-10 -11,-10 0,-1 1,-2 1,-3 1,0 2,1 3,1 0,0 2,8 8,9 5,1 8,-2 8,-2 1,0 2,0 3,0 0,1 0,2 0,3 -1,0 -3,2 -9,2z"/>
   <path class="fil0" d="M283 95c-5,0 -8,-2 -11,-7 -4,-5 -1,-7 1,-9 1,0 2,-1 2,-2 3,-2 6,-9 7,-12 0,0 1,-1 2,-1 1,1 1,2 1,3 0,0 -4,9 -7,13 -1,1 -2,1 -3,2 -2,2 -2,2 0,4 4,5 6,6 10,6 4,-1 9,-4 9,-6 0,-1 1,-2 2,-2 1,0 1,1 1,2 0,5 -6,8 -12,9 -1,0 -1,0 -2,0z"/>
   <path class="fil0" d="M267 115c2,2 6,3 10,3 2,0 3,-1 4,-1 -1,-1 -3,-3 -7,-5 -1,-1 -1,-1 -2,-1 -2,0 -4,2 -5,4zm10 6c-5,0 -12,-1 -13,-6 0,0 0,-1 0,-1 0,0 3,-6 8,-6 1,0 2,0 3,1 2,1 9,5 9,9 0,1 -1,2 -2,2 -1,1 -3,1 -5,1z"/>
   <path class="fil0" d="M207 157c-4,0 -9,-1 -13,-5 -2,0 -6,-1 -9,-4 -3,2 -7,4 -14,0 -1,0 -1,-1 -1,-2 1,-1 2,-1 3,-1 6,4 11,0 11,0 0,0 1,-1 1,-1 1,0 1,1 1,1 2,3 7,4 9,4 0,0 0,0 0,0 11,10 27,1 27,1 0,0 0,0 0,0 8,-2 8,-9 8,-10 0,0 0,-1 1,-1 0,0 1,-2 2,-7 1,-7 -3,-12 -3,-12 0,0 0,0 0,0 0,-1 -4,-15 -10,-20 -4,-3 -22,-1 -32,2 -1,0 -1,0 -2,-1 0,0 0,-1 0,-1 0,0 0,-1 -1,-2 -1,-1 -2,-2 -6,-3 -9,-1 -16,10 -16,10 0,0 -1,1 -2,0 -17,-1 -22,11 -22,11 0,1 -1,2 -2,1 -1,0 -1,-1 -1,-2 0,-1 6,-14 25,-13 2,-3 9,-11 18,-10 4,0 7,2 9,4 0,1 1,1 1,2 7,-2 27,-6 33,-1 6,5 10,19 11,21 1,2 5,7 3,15 0,5 -2,7 -3,8 0,4 -3,10 -10,12 -1,1 -8,4 -16,4z"/>
   <path class="fil0" d="M185 148c-1,0 -2,-1 -2,-2 -6,-34 3,-46 3,-47 0,-1 2,-1 2,0 1,0 1,1 1,2 0,0 -9,12 -2,45 0,1 -1,2 -2,2 0,0 0,0 0,0z"/>
   <path class="fil0" d="M163 120c0,0 -1,0 -1,-1 -3,-4 -2,-14 -2,-15 0,-1 1,-2 2,-2 1,0 1,1 1,2 0,3 0,10 2,13 0,1 0,2 -1,3 0,0 -1,0 -1,0z"/>
   <path class="fil0" d="M194 152c0,0 -1,0 -1,-1 -1,-3 -3,-19 3,-21 5,-1 7,4 10,8 1,3 2,6 4,6 0,1 1,2 0,3 0,1 -1,1 -2,0 -3,-1 -4,-4 -6,-7 -1,-4 -3,-7 -5,-6 -2,0 -2,9 -1,16 0,1 0,2 -1,2 0,0 -1,0 -1,0z"/>
   <path class="fil0" d="M214 142c0,0 -1,0 -1,0 -2,-2 -3,-3 -4,-4 -3,-2 -3,-2 -3,-1l-3 1c0,0 -1,0 -2,-1 0,-1 0,-2 1,-2l2 -1c3,-2 5,0 7,1 1,1 2,3 4,4 1,0 1,1 1,2 -1,1 -1,1 -2,1z"/>
   <path class="fil0" d="M218 132c-9,0 -16,-4 -19,-9 -2,-1 -2,-3 -2,-4 1,-3 5,-3 10,-2 3,1 6,1 8,1 1,-1 2,0 2,1 0,1 0,2 -1,2 -3,1 -6,0 -10,0 -2,-1 -4,-1 -5,-1 0,0 0,1 1,3 3,3 9,6 16,6 0,0 0,0 0,0 1,0 2,0 2,1 0,1 -1,2 -2,2 0,0 0,0 0,0z"/>
   <path class="fil0" d="M205 120c0,0 0,0 -1,0 -1,0 -8,-4 -7,-8 0,-3 4,-4 10,-5 3,-1 7,-2 8,-3 0,-1 1,-1 2,-1 1,1 1,2 1,3 -1,2 -5,3 -10,4 -3,1 -7,2 -8,3 0,1 3,3 6,4 1,0 1,1 1,2 -1,1 -1,1 -2,1z"/>
   <path class="fil0" d="M209 138c0,0 -1,0 -1,-1 -1,0 -2,-4 -1,-7 0,-1 1,-2 2,-3 1,0 2,1 2,1 1,1 0,2 -1,3 0,0 0,0 0,0 -1,1 0,3 1,5 0,0 0,2 -1,2 0,0 0,0 -1,0z"/>
   <path class="fil0" d="M177 231c-1,0 -1,-1 -1,-2 0,-1 2,-6 6,-13 1,-1 2,-3 3,-4 1,-1 1,-2 1,-2 0,0 0,-1 -1,-1 0,-1 -2,-1 -3,-3 -7,-6 -9,-23 -9,-24 -1,-1 0,-2 1,-2 1,0 2,1 2,1 0,1 2,17 8,23 2,1 3,2 3,2 4,3 4,4 1,8 -1,1 -2,2 -3,4 -5,9 -6,11 -6,11 0,1 -1,2 -2,2 0,0 0,0 0,0z"/>
   <path class="fil0" d="M292 255c-1,0 -1,0 -1,0 -3,-3 -5,-11 -6,-20 -1,-2 -1,-4 -1,-5 0,0 0,0 0,0 -1,-1 -2,-1 -4,-1 -2,0 -6,0 -11,0 -9,-1 -26,-5 -51,-11l0 0c-5,-2 -5,-1 -8,3 0,1 -1,1 -1,2 -4,5 -20,16 -21,17 -1,0 -2,0 -2,-1 -1,0 -1,-1 0,-2 5,-3 17,-12 20,-16 0,-1 1,-1 1,-2 3,-4 5,-6 12,-5l0 0c30,8 44,10 51,11 4,1 8,1 10,1 4,0 6,0 7,3 1,1 1,3 1,5 1,6 3,16 5,18 1,1 1,2 0,2 0,1 -1,1 -1,1z"/>
   <path class="fil0" d="M288 143c-3,0 -7,0 -11,0 -11,-2 -27,-8 -39,-21 -12,-14 -8,-33 -7,-33 0,-1 1,-2 2,-2 1,0 1,1 1,2 0,0 -4,18 7,30 11,13 26,19 36,20 11,2 22,0 22,0 1,0 1,1 2,2 0,1 -1,2 -2,2 0,0 -5,0 -11,0z"/>
   <path class="fil0" d="M251 160c-1,0 -2,0 -4,-1 -6,-3 -14,-14 -15,-22 0,-1 1,-2 1,-2 1,0 2,0 2,1 2,8 9,18 14,20 2,1 4,1 4,0 0,0 0,-2 -1,-4 -6,-5 -5,-21 -5,-23 0,-1 1,-2 2,-2 1,0 2,1 2,2 -1,5 0,17 3,21 4,5 2,7 2,8 -1,2 -3,2 -5,2z"/>
   <path class="fil0" d="M280 164c-2,0 -4,-1 -6,-1 -5,-2 -6,-6 -6,-10 1,-3 4,-6 7,-5 5,0 12,-5 14,-8 1,0 2,0 2,0 1,1 1,2 1,3 -1,0 -9,9 -17,8 -2,0 -3,2 -3,3 -1,2 0,5 3,5 5,2 12,0 12,0 1,0 2,1 2,2 0,1 0,2 -1,2 0,0 -4,1 -8,1z"/>
   <path class="fil0" d="M265 160c-8,0 -11,-3 -11,-3 -1,-1 -1,-2 0,-2 0,-1 1,-1 2,-1 0,1 4,4 14,2 1,0 1,1 2,1 0,1 -1,2 -2,2 -2,1 -4,1 -5,1z"/>
   <path class="fil1" d="M314 75c2,1 2,4 1,6 -1,2 -4,3 -6,2 -1,-1 -2,-4 0,-6 1,-2 4,-3 5,-2z"/>
   <path class="fil1" d="M263 60c2,1 2,4 1,6 -1,2 -4,3 -6,2 -1,-1 -2,-3 0,-6 1,-2 3,-3 5,-2z"/>
   <path class="fil1" d="M241 53c0,0 11,-15 15,-22 3,-8 7,-25 42,-17 34,8 37,16 38,27 2,11 3,33 4,35 2,2 3,2 3,2 0,0 7,-22 3,-37 -4,-15 -15,-29 -34,-34 -20,-5 -41,-7 -53,3 -12,11 -18,43 -18,43z"/>
  </g>
 </g>
</svg>
