<?xml version="1.0" encoding="UTF-8"?>
<!DOCTYPE svg PUBLIC "-//W3C//DTD SVG 1.1//EN" "http://www.w3.org/Graphics/SVG/1.1/DTD/svg11.dtd">
<!-- Creator: CorelDRAW X7 -->
<svg xmlns="http://www.w3.org/2000/svg" xml:space="preserve" width="87.75mm" height="85.4791mm" version="1.1" style="shape-rendering:geometricPrecision; text-rendering:geometricPrecision; image-rendering:optimizeQuality; fill-rule:evenodd; clip-rule:evenodd"
viewBox="0 0 424 413"
 xmlns:xlink="http://www.w3.org/1999/xlink">
 <defs>
  <style type="text/css">
   <![CDATA[
    .fil1 {fill:black}
    .fil0 {fill:black;fill-rule:nonzero}
   ]]>
  </style>
 </defs>
 <g id="Layer_x0020_1">
  <metadata id="CorelCorpID_0Corel-Layer"/>
  <g id="_970310768">
   <path class="fil0" d="M262 341c0,0 0,0 0,0l-60 -3c-2,0 -3,-1 -3,-3 0,-1 2,-2 3,-2l57 3 0 -126 -158 -7 0 126 54 2 0 -26c0,0 1,-1 1,-1 1,-1 1,-1 2,-1l35 1c2,0 3,1 3,3l0 19c0,1 -1,2 -3,2 -1,0 -2,-1 -2,-2l0 -17 -31 -1 0 26c0,0 0,1 -1,1 0,1 -1,1 -1,1l-59 -3c-1,0 -3,-1 -3,-2l0 -131 0 0c1,0 1,0 1,-1 0,0 0,0 0,0 0,-1 1,-1 1,-1 0,0 0,0 0,0l0 0c0,0 1,0 1,0l0 0 0 0 163 7c1,0 2,1 2,2l0 131c0,1 0,1 0,2 -1,0 -1,1 -2,1z"/>
   <path class="fil0" d="M119 302l120 3 0 -68 -120 -4 0 69zm122 7c0,0 0,0 0,0l-124 -4c-1,0 -2,-1 -2,-2l0 -72c0,0 0,-1 1,-1 0,0 1,-1 1,-1l124 4c1,0 2,1 2,2l0 72c0,1 -1,1 -1,2 0,0 -1,0 -1,0z"/>
   <path class="fil0" d="M160 375l31 1 0 -67 -31 -1 0 67zm33 6c0,0 0,0 0,0l-35 -2c-2,0 -3,-1 -3,-2l0 -72c0,-1 1,-1 1,-2 1,0 1,0 2,0l35 1c2,0 3,1 3,2l0 72c0,1 0,1 -1,2 0,0 -1,1 -2,1z"/>
   <path class="fil0" d="M222 401c0,0 0,0 0,0l-94 -9c-1,0 -2,-1 -2,-2 -1,0 -1,-1 0,-2l15 -35c1,-1 2,-1 3,-1l14 0c1,0 2,1 2,2 0,1 -1,2 -2,2l-13 0 -14 31 89 9 -2 -38 -16 0c-2,0 -3,-1 -3,-2 0,-1 1,-3 3,-3l18 0c0,0 0,0 0,0 1,0 3,1 3,2l1 43c1,1 0,2 0,2 -1,1 -1,1 -2,1z"/>
   <path class="fil0" d="M193 380c0,0 0,0 -1,0 0,-1 -1,-2 0,-3l7 -10 0 -61c0,-1 1,-2 2,-2l0 0c1,0 2,1 2,2l0 62c0,0 0,0 0,1l-8 10c0,1 -1,1 -2,1z"/>
   <path class="fil0" d="M118 233c-1,0 -1,0 -2,-1l-19 -31c0,-1 0,-2 1,-2 1,-1 2,0 2,0l19 31c1,1 1,2 0,3 0,0 -1,0 -1,0z"/>
   <path class="fil0" d="M241 237c-1,0 -1,0 -1,0 -1,-1 -1,-2 -1,-3l21 -28c1,0 2,-1 3,0 1,1 1,2 0,3l-21 27c0,1 -1,1 -1,1z"/>
   <path class="fil0" d="M262 340c-1,0 -1,0 -2,-1l-21 -31c0,-1 0,-2 1,-2 1,-1 2,-1 2,0l21 31c1,1 1,2 0,3 0,0 -1,0 -1,0z"/>
   <path class="fil0" d="M99 333c0,0 -1,0 -1,0 -1,-1 -1,-2 -1,-3l19 -28c0,-1 1,-1 2,0 1,0 1,1 1,2l-19 28c0,1 -1,1 -1,1z"/>
   <path class="fil0" d="M312 316c-4,0 -7,-6 -11,-13 -1,-2 -2,-5 -3,-6 -1,0 -2,0 -3,0 -4,1 -11,1 -12,-4 0,-3 2,-6 5,-8 2,-2 4,-4 4,-5 -1,-4 -2,-16 -3,-20 0,-1 -1,-1 -2,-2 -5,-1 -10,-5 -8,-17 1,-9 -1,-14 -3,-19 -1,-5 -3,-10 -2,-18 1,-7 4,-14 8,-20 3,-7 6,-13 5,-16 -3,-8 -4,-10 -4,-10 -1,-1 -1,-3 0,-3 1,-1 3,-1 3,0 1,0 2,3 6,11 2,6 -2,12 -6,20 -3,6 -7,13 -8,19 0,6 1,10 3,15 2,6 4,12 3,22 -2,9 1,11 4,12 2,1 5,2 5,4 2,5 3,15 3,22 1,3 -2,6 -5,8 -1,1 -3,3 -3,4 1,1 5,1 7,1 2,-1 4,-1 5,0 1,0 2,2 6,8 1,3 4,8 6,10 0,-2 0,-6 0,-7 -1,-5 -1,-8 2,-8 2,0 3,1 6,5 2,2 6,9 9,8 0,0 0,0 0,-1 1,-2 0,-8 -2,-11 0,-1 0,-2 1,-3 1,0 2,0 3,0 3,3 9,5 11,4 0,0 0,-1 0,-1 0,-3 -4,-7 -6,-10 -1,-1 -1,-2 -1,-3 0,-1 2,-1 3,-1 1,0 4,0 6,-1 0,0 0,0 0,-1 0,-1 -6,-3 -15,-4 -1,0 -2,-1 -2,-2 0,-1 0,-20 0,-36 0,-6 -2,-12 -3,-19 -2,-9 -4,-19 -3,-30 2,-15 1,-21 -4,-53 0,-5 -1,-10 -2,-16 -6,-43 -38,-40 -40,-40 -1,0 -2,0 -2,-2 -7,-30 -20,-49 -65,-42 -14,2 -24,8 -29,17 -10,14 -4,34 -4,34 0,0 0,1 0,2 0,0 -1,1 -2,1 -18,4 -23,28 -16,73 2,17 -4,38 -5,39 0,2 -1,2 -3,2 -1,-1 -2,-2 -1,-3 0,0 6,-21 4,-37 -3,-18 -11,-69 18,-78 -1,-6 -4,-22 4,-36 7,-10 18,-16 33,-19 51,-8 64,18 70,44 8,1 37,4 43,45 1,6 1,11 2,15 5,33 6,39 4,55 -2,10 1,19 3,28 1,7 2,13 3,20 0,13 0,28 0,33 7,1 17,3 17,10 0,2 -1,3 -2,4 -2,1 -3,2 -4,2 2,2 4,6 4,9 0,2 0,3 -1,4 -4,3 -8,2 -12,0 1,3 1,7 0,9 -1,2 -2,3 -4,3 -5,2 -10,-4 -13,-9 0,6 0,11 -3,12 -1,0 -1,0 -2,0z"/>
   <path class="fil0" d="M203 207c-1,0 -2,-1 -2,-3 -1,-6 -2,-7 -4,-8 -1,-1 -2,-1 -3,-2 -3,-4 -1,-10 -1,-11 0,-1 2,-2 3,-1 1,0 2,2 2,3 -1,2 -1,5 0,6 0,0 1,0 1,1 3,2 6,4 6,12 0,2 -1,3 -2,3 0,0 0,0 0,0z"/>
   <path class="fil0" d="M199 167c0,0 -1,0 -1,0 -17,-11 -27,-75 -27,-78 0,-1 1,-2 2,-2 1,0 1,0 2,1 0,1 10,66 25,76 1,0 1,1 1,2 -1,1 -1,1 -2,1z"/>
   <path class="fil0" d="M260 158c-1,0 -1,-1 -2,-1 0,-1 0,-2 1,-3 25,-12 14,-74 14,-75 0,-1 1,-2 2,-2 1,0 2,1 2,2 0,2 11,65 -16,79 -1,0 -1,0 -1,0z"/>
   <path class="fil0" d="M230 136c-9,0 -18,7 -18,11 0,1 0,1 0,1 0,0 -2,12 -1,21 0,6 8,7 14,7 4,0 9,-1 14,-2 5,-1 8,-3 10,-6 2,-4 1,-11 -3,-19 -4,-11 -11,-13 -16,-13zm-5 44c-15,0 -17,-7 -18,-11 -1,-9 1,-20 2,-22 0,-6 10,-15 21,-15 5,0 14,2 20,15 4,10 4,17 2,23 -2,4 -6,6 -12,8 -6,1 -11,2 -15,2z"/>
   <path class="fil0" d="M226 170c-9,0 -17,-1 -17,-1 -1,0 -1,-1 -1,-1 0,-1 0,-2 1,-1 0,0 11,1 20,1 10,-1 22,-4 22,-4 1,0 1,0 2,1 0,0 -1,1 -1,1 -1,0 -13,4 -23,4 -1,0 -2,0 -3,0z"/>
   <path class="fil0" d="M211 147c-1,0 -1,-1 -2,-1 0,-1 1,-2 2,-2l34 -2c1,0 2,0 2,1 0,1 -1,1 -1,1l-35 3c0,0 0,0 0,0z"/>
   <path class="fil0" d="M210 169c0,0 0,0 -1,0 0,0 0,-1 0,-2 0,0 4,-9 12,-10 5,-1 8,1 10,3 2,-2 6,-7 11,-7 7,0 10,4 11,6 0,1 -1,2 -1,2 -1,0 -1,0 -2,-1 0,0 -1,-5 -7,-4 -7,0 -11,7 -11,7 -1,0 -1,0 -1,0 -1,0 -1,0 -1,0 0,-1 -2,-5 -9,-4 -6,1 -10,9 -10,9 0,1 -1,1 -1,1z"/>
   <path class="fil0" d="M278 116c0,0 0,0 -1,0 -1,0 -1,-1 -1,-2 0,-1 0,-2 1,-2 9,0 11,-4 12,-8 1,-6 -2,-14 -6,-15 -1,0 -3,1 -5,4 0,1 -1,1 -2,0 -1,0 -1,-1 -1,-2 4,-6 8,-6 10,-5 5,2 9,11 8,19 -2,7 -7,11 -15,11z"/>
   <path class="fil0" d="M173 124c-2,0 -5,-1 -7,-3 -5,-4 -8,-12 -6,-18 1,-3 5,-7 15,-5 1,0 2,1 2,2 -1,1 -2,1 -3,1 -4,0 -9,0 -10,4 -2,4 0,10 4,13 3,2 6,3 10,0 1,-1 2,0 3,0 0,1 0,2 0,3 -3,2 -5,3 -8,3z"/>
   <path class="fil0" d="M405 268c-2,0 -3,-1 -3,-2 0,-1 0,-36 5,-126 5,-85 -16,-109 -17,-111 -42,-31 -105,-24 -109,-23 -20,7 -26,34 -26,34 0,1 -1,2 -3,2 -1,0 -2,-1 -2,-3 1,-1 7,-30 30,-38 0,0 0,0 0,0 3,0 68,-8 113,24 0,0 0,0 0,0 1,1 24,24 19,115 -5,90 -5,125 -5,126 0,1 -1,2 -2,2z"/>
   <path class="fil0" d="M2 309c0,0 -1,-1 -1,-1 -1,-1 -1,-2 0,-3l57 -61c1,-1 1,-1 2,-1l39 5c2,0 2,1 2,2 0,2 -1,3 -2,2l-38 -4 -57 60c0,0 -1,1 -2,1z"/>
   <path class="fil0" d="M288 259c0,0 0,0 0,0l-26 -1c-2,0 -3,-1 -3,-2 1,-2 2,-3 3,-3l26 1c2,0 3,1 3,3 0,1 -1,2 -3,2z"/>
   <path class="fil0" d="M385 390c0,0 0,0 -1,0 -1,-1 -2,-2 -1,-3l35 -117 -89 -11c-1,0 -2,-1 -2,-2 0,-2 2,-3 3,-2l91 11c1,0 2,0 2,1 1,1 1,1 0,2l-36 119c0,1 -1,2 -2,2z"/>
   <path class="fil0" d="M215 325c-1,0 -2,1 -2,2 0,1 1,2 2,2 1,0 3,-1 3,-2 0,-1 -2,-2 -3,-2zm0 8c-3,0 -6,-3 -6,-6 0,-3 3,-6 6,-6 3,0 6,3 6,6 0,3 -3,6 -6,6z"/>
   <path class="fil0" d="M222 413c0,0 0,0 0,0l-95 -10c-1,0 -2,-1 -2,-2l0 -11c0,-1 1,-2 2,-2l0 0c1,0 2,1 2,2l0 9 91 10 0 -11c0,-1 1,-1 2,-1l0 0c1,0 2,0 2,1l0 13c0,0 -1,1 -1,1 0,0 -1,1 -1,1z"/>
   <path class="fil0" d="M379 265c0,0 0,0 -1,0 -1,0 -1,-1 -1,-2 0,-1 6,-85 1,-160 -3,-49 4,-67 10,-73 3,-3 6,-3 6,-3 1,0 2,1 1,2 0,1 -1,2 -1,2 -1,0 -2,0 -4,2 -4,5 -12,20 -8,70 4,75 -2,159 -2,160 0,1 0,2 -1,2z"/>
   <path class="fil0" d="M363 111c-15,0 -37,-1 -53,-9 -1,0 -1,-2 -1,-2 1,-1 2,-2 3,-1 26,12 68,8 68,8 1,0 2,0 2,1 0,1 -1,2 -2,2 0,0 -7,1 -17,1z"/>
   <path class="fil0" d="M312 287c-9,0 -18,-5 -19,-5 -1,-1 -1,-2 -1,-3 1,-1 2,-1 3,0 0,0 10,5 19,4 8,-1 14,-9 14,-9 1,-1 2,-1 2,-1 1,1 2,2 1,3 0,0 -7,10 -17,11 0,0 -1,0 -2,0z"/>
   <path class="fil1" d="M174 96c0,0 5,-5 5,-12 1,-6 1,-30 8,-33 8,-4 47,-14 60,-6 14,8 18,28 21,34 2,6 7,9 7,9 0,0 0,-10 -1,-15 -2,-5 -11,-41 -46,-40 -35,2 -50,11 -55,28 -5,17 1,35 1,35z"/>
   <path class="fil0" d="M217 188c-10,0 -16,-4 -20,-22 -7,-28 24,-41 25,-41 1,-1 2,0 3,1 0,1 0,3 -2,3 -1,1 -27,12 -22,36 5,19 11,19 22,18 3,-1 6,-1 9,-1 1,0 3,0 4,0 9,0 16,0 19,-4 3,-2 4,-7 3,-13 -1,-25 -6,-38 -25,-37 -1,0 -2,-1 -2,-2 0,-2 1,-3 2,-3 25,-1 29,19 30,41 0,8 -1,14 -4,17 -5,6 -13,6 -23,6 -1,0 -3,0 -4,0 -3,0 -6,0 -8,0 -3,1 -5,1 -7,1z"/>
   <path class="fil0" d="M226 122c-4,0 -10,-3 -12,-4 -4,-3 -2,-7 0,-9 0,-1 1,-2 1,-2 1,-1 0,-8 -1,-14 0,-1 0,-2 1,-2 1,0 2,0 2,1 1,3 3,14 1,17 0,0 -1,1 -1,2 -2,3 -2,3 -1,4 3,2 9,4 11,3 2,-1 6,-6 7,-7 -1,-1 -2,-3 -2,-5 -1,0 -1,-2 0,-2 1,-1 2,0 3,0 0,1 2,4 2,6 1,4 -6,10 -9,12 0,0 -1,0 -2,0z"/>
   <path class="fil0" d="M186 83c-1,0 -1,0 -1,0 -1,0 -1,-2 -1,-2 7,-12 17,-12 17,-12 1,0 2,1 2,2 0,1 -1,2 -2,2l0 0c0,0 -8,0 -14,10 0,0 -1,0 -1,0z"/>
   <path class="fil0" d="M253 75c-1,0 -1,-1 -2,-1 -6,-6 -17,-7 -17,-7 -1,0 -2,0 -2,-1 1,-1 1,-2 2,-2 1,0 12,0 20,7 0,1 1,2 0,3 -1,0 -1,1 -1,1z"/>
   <path class="fil1" d="M198 94c4,0 6,4 6,8 0,5 -2,9 -6,9 -3,0 -6,-4 -6,-9 0,-4 3,-8 6,-8zm-2 2c1,0 1,1 1,2 0,1 0,2 -1,2 -1,0 -1,-1 -1,-2 0,-1 0,-2 1,-2z"/>
   <path class="fil1" d="M249 89c3,0 6,4 6,9 0,4 -3,8 -6,8 -4,0 -7,-4 -7,-8 0,-5 3,-9 7,-9zm-2 2c1,0 2,1 2,2 0,1 -1,2 -2,2 -1,0 -1,-1 -1,-2 0,-1 0,-2 1,-2z"/>
   <path class="fil1" d="M191 120c1,0 2,1 2,2 0,2 -1,3 -2,3 -1,0 -2,-1 -2,-3 0,-1 1,-2 2,-2z"/>
   <path class="fil1" d="M197 118c1,0 1,1 1,2 0,1 0,2 -1,2 -1,0 -2,-1 -2,-2 0,-1 1,-2 2,-2z"/>
   <path class="fil1" d="M261 114c-1,0 -2,2 -2,3 0,2 1,3 2,3 1,0 2,-1 2,-3 0,-1 -1,-3 -2,-3z"/>
   <path class="fil1" d="M255 112c0,0 -1,1 -1,3 0,1 1,2 1,2 1,0 2,-1 2,-2 0,-2 -1,-3 -2,-3z"/>
  </g>
 </g>
</svg>
