<?xml version="1.0" encoding="UTF-8"?>
<!DOCTYPE svg PUBLIC "-//W3C//DTD SVG 1.1//EN" "http://www.w3.org/Graphics/SVG/1.1/DTD/svg11.dtd">
<!-- Creator: CorelDRAW X7 -->
<svg xmlns="http://www.w3.org/2000/svg" xml:space="preserve" width="88.4129mm" height="54.5556mm" version="1.1" style="shape-rendering:geometricPrecision; text-rendering:geometricPrecision; image-rendering:optimizeQuality; fill-rule:evenodd; clip-rule:evenodd"
viewBox="0 0 503 311"
 xmlns:xlink="http://www.w3.org/1999/xlink">
 <defs>
  <style type="text/css">
   <![CDATA[
    .fil1 {fill:black}
    .fil0 {fill:black;fill-rule:nonzero}
   ]]>
  </style>
 </defs>
 <g id="Layer_x0020_1">
  <metadata id="CorelCorpID_0Corel-Layer"/>
  <g id="_970316720">
   <path class="fil0" d="M20 245c-1,0 -2,0 -3,-1l-15 -20c0,-1 0,-1 0,-2l0 -137c0,-1 0,-1 0,-2l37 -47c1,0 1,-1 2,-1l89 -19c1,0 2,0 2,0 1,1 1,2 1,3l-14 221c0,2 -1,3 -3,3l-53 1c-1,0 -3,-1 -3,-3 0,-1 1,-3 3,-3l51 -1 13 -215 -84 19 -35 45 0 135 13 18 9 0c0,0 0,0 0,0 2,0 3,1 3,3 0,2 -1,3 -3,3l-10 0c0,0 0,0 0,0z"/>
   <path class="fil0" d="M10 303l78 2c-6,-13 -26,-14 -26,-14 -2,-1 -3,-2 -3,-3l1 -58 -26 4 -1 56c0,1 -1,1 -1,2 -1,0 -2,1 -2,1l-1 0c-5,0 -13,5 -19,10zm83 8c-1,0 -1,0 -1,0 0,0 0,0 0,0l-89 -3c-1,0 -2,0 -3,-1 0,-1 0,-1 0,-1 0,-1 0,-2 1,-2 1,-2 15,-15 26,-17l1 -56c0,-1 1,-2 3,-2l31 -5c1,0 2,0 3,1 0,0 1,1 1,2l-1 58c7,1 25,5 30,22 0,0 0,0 0,1 0,1 -1,3 -2,3z"/>
   <path class="fil0" d="M440 306c0,0 0,0 0,0 -2,0 -3,-1 -3,-3 0,-2 5,-191 -16,-246 -22,-57 -115,-55 -169,-48 -58,7 -62,58 -62,61l0 34c0,2 -1,3 -3,3 -2,0 -3,-1 -3,-3l0 -35c0,0 4,-58 67,-66 56,-6 152,-9 175,52 22,56 17,241 17,248 0,2 -1,3 -3,3z"/>
   <path class="fil0" d="M420 306c0,0 -1,0 -1,-1 -1,0 -2,-1 -2,-3 6,-44 -9,-143 -43,-187 -8,-10 -23,-17 -34,-21 -1,0 -2,0 -2,-1 -4,-9 -15,-34 -24,-39 -10,-6 -55,-6 -83,1 -25,7 -26,42 -26,43 0,1 -1,2 -2,2 -36,8 -58,81 -55,141 3,55 58,58 60,58 2,0 3,1 3,3 0,1 -1,2 -3,2 0,0 -62,-2 -66,-63 -3,-61 19,-135 58,-146 0,-8 4,-38 30,-45 27,-8 75,-8 87,-1 11,7 23,33 26,40 9,3 26,11 35,22 35,46 51,147 45,192 -1,1 -2,3 -3,3z"/>
   <path class="fil0" d="M500 307l0 0c-16,0 -408,-4 -410,-4 -2,0 -3,-1 -3,-3 0,-1 2,-3 3,-3 4,1 406,4 410,4 2,0 3,2 3,3 0,2 -1,3 -3,3z"/>
   <path class="fil0" d="M166 304c0,0 -1,0 -1,0 -1,0 -2,-2 -2,-3l1 -15c1,-1 2,-3 4,-2 1,0 2,1 2,3l-2 14c0,2 -1,3 -2,3z"/>
   <path class="fil0" d="M277 228c-23,0 -45,-9 -60,-25 -5,-6 -9,-23 -13,-52 -3,-26 -4,-53 -4,-53 0,-1 1,-2 2,-2 2,0 2,0 3,2 0,0 1,26 4,52 3,35 8,46 11,50 16,17 39,25 64,23 27,-2 50,-17 58,-31 7,-12 2,-78 -4,-101 0,-1 0,-2 1,-2 2,-1 3,0 3,1 6,22 12,90 4,104 -9,15 -33,31 -62,34 -2,0 -4,0 -7,0z"/>
   <path class="fil0" d="M206 165c-4,0 -7,-2 -11,-6 -5,-7 -8,-19 -4,-25 2,-3 6,-6 14,-5 1,1 2,2 2,3 -1,1 -2,2 -3,2 -5,-1 -8,-1 -10,2 -2,4 0,14 5,20 1,2 5,6 8,5 1,-1 3,0 3,1 0,1 0,2 -1,3 -1,0 -2,0 -3,0z"/>
   <path class="fil0" d="M348 156c-2,0 -3,0 -3,-2 0,-1 1,-2 3,-2 8,0 12,-5 14,-10 4,-8 2,-17 -1,-21 -1,-1 -2,-2 -4,-2 -4,0 -8,5 -10,7 -1,1 -2,1 -3,0 -1,-1 -1,-2 0,-3 0,0 6,-8 13,-8 3,0 5,1 7,3 5,6 6,17 2,26 -4,8 -10,12 -18,12l0 0z"/>
   <path class="fil0" d="M226 101c-1,0 -2,-1 -2,-2 0,-1 1,-2 2,-3 16,-2 15,-19 15,-19 0,-2 1,-3 2,-3 1,0 2,1 2,2 1,8 -2,23 -19,25 0,0 0,0 0,0z"/>
   <path class="fil0" d="M309 95c-10,0 -16,-7 -18,-12 0,-1 0,-2 1,-2 1,-1 3,0 3,1 0,0 5,11 17,8 1,0 2,1 2,2 0,1 0,2 -2,3 -1,0 -2,0 -3,0z"/>
   <path class="fil0" d="M274 162c-2,0 -5,0 -7,-2 -4,-2 -8,-5 -8,-9 0,-2 1,-4 3,-6 4,-3 3,-11 3,-11 -1,-1 0,-2 1,-2 1,-1 3,0 3,1 0,1 2,11 -4,15 -1,1 -2,2 -2,3 0,1 2,3 6,6 6,3 13,-1 15,-3 6,-5 4,-7 4,-8 -1,-1 -1,-2 0,-3 1,-1 3,0 3,1 2,3 3,7 -5,14 -2,1 -7,4 -12,4z"/>
   <path class="fil0" d="M207 304c-1,0 -2,-1 -2,-2 -1,-2 0,-3 2,-3 30,-6 35,-20 35,-20 1,-1 1,-1 2,-1 4,-3 3,-10 3,-10 0,-1 0,-2 1,-2 0,0 2,-2 2,-5 0,-3 -2,-6 -2,-6 -1,-1 -1,-3 1,-4 0,0 1,-1 1,-4 0,-2 -2,-4 -2,-4 -1,0 -1,-1 -1,-2 0,-1 0,-9 -10,-11 -11,-2 -16,6 -16,6 -1,0 -1,1 -2,1 -1,0 -6,1 -9,-1 -3,0 -19,5 -32,10 -1,0 -3,0 -3,-2 -1,-1 0,-3 1,-3 33,-13 36,-11 37,-10 0,0 2,1 4,0 2,-2 9,-8 21,-6 11,2 14,10 14,15 2,1 3,4 3,7 1,3 0,5 -1,7 1,1 2,4 2,7 0,4 -2,7 -3,8 0,3 -1,9 -6,13 -1,3 -9,16 -39,22 0,0 0,0 -1,0z"/>
   <path class="fil0" d="M253 262c-2,0 -3,-1 -3,-2 0,-1 1,-3 2,-3 3,-1 4,-2 5,-5 2,-5 0,-14 -2,-16 -2,-2 -6,1 -6,1 -1,1 -3,0 -3,-1 -1,-1 -1,-3 0,-4 3,-2 9,-4 13,0 3,3 6,14 4,22 -2,4 -5,7 -10,8 0,0 0,0 0,0z"/>
   <path class="fil0" d="M245 282c-3,0 -22,-1 -30,-15 -7,-16 1,-33 1,-34 1,-1 2,-1 3,-1 1,1 2,2 1,3 0,0 -7,16 -1,30 7,13 26,13 26,13 1,0 2,1 2,2 0,1 -1,2 -2,2 0,0 0,0 0,0z"/>
   <path class="fil0" d="M233 294c-12,0 -23,-8 -29,-21 -6,-11 -7,-28 4,-41 1,-1 3,-1 3,-1 1,1 1,3 1,3 -11,13 -9,28 -4,38 5,11 15,18 26,18 1,0 2,0 2,2 0,1 -1,2 -2,2 0,0 -1,0 -1,0z"/>
   <path class="fil0" d="M385 304c-15,0 -32,-10 -43,-23 -6,1 -22,3 -27,-4 -2,-3 -2,-5 -1,-8 0,0 0,0 1,-1 -2,-1 -3,-3 -4,-5 -1,-3 0,-5 1,-6 0,-1 0,-1 0,-1 -2,-2 -3,-4 -3,-7 -1,-3 1,-5 2,-7 -1,-2 -2,-5 -2,-8 0,-3 2,-6 5,-8 8,-6 19,-3 23,-3 2,0 9,-1 14,3 3,2 4,3 5,4 13,-5 36,-8 46,11 1,1 0,3 -1,4 -2,0 -4,0 -4,-2 -11,-20 -40,-7 -40,-7 -1,1 -2,1 -3,0 -1,0 -1,0 -1,-1 0,0 -2,-2 -5,-5 -5,-3 -10,-1 -10,-1 -1,0 -1,0 -2,0 0,0 -12,-3 -19,2 -1,1 -2,2 -2,4 -1,3 2,6 2,6 0,1 0,2 0,2 0,1 0,2 -1,2 0,0 -2,1 -2,4 0,2 3,4 4,5 1,1 2,2 2,3 -1,1 -1,2 -3,2 0,0 0,0 0,1 0,0 0,1 0,1 1,4 4,5 4,5 2,0 3,1 3,3 -1,1 -2,2 -3,2 -1,0 -2,1 -2,1 0,0 0,1 1,2 2,3 14,3 22,1 1,0 2,0 3,1 14,16 34,26 47,21 10,-3 15,-13 16,-30 2,-32 -13,-111 -13,-112 0,-1 1,-3 3,-3 1,-1 3,1 3,2 0,3 15,81 13,113 -1,25 -12,33 -20,36 -3,1 -6,1 -9,1z"/>
   <path class="fil0" d="M315 260l0 0c-5,0 -9,-2 -12,-5 -3,-3 -4,-7 -4,-12 0,-4 2,-7 5,-9 3,-3 8,-2 8,-1 2,0 3,2 2,3 0,2 -2,3 -3,2 0,0 -3,0 -4,1 -1,1 -2,2 -2,4 -1,4 0,6 2,8 2,2 5,4 8,4 2,0 3,1 3,2 0,2 -1,3 -3,3z"/>
   <path class="fil0" d="M343 280c-1,0 -1,0 -1,0 -1,-1 -2,-2 -1,-3 13,-24 -6,-49 -6,-49 -1,-1 0,-3 1,-3 1,-1 2,-1 3,0 0,1 20,28 6,54 -1,0 -1,1 -2,1z"/>
   <path class="fil0" d="M348 285c-1,0 -1,0 -1,0 -1,-1 -2,-2 -1,-3 18,-30 8,-47 8,-47 -1,-1 -1,-2 0,-3 1,-1 3,0 3,1 1,0 13,19 -7,51 -1,1 -1,1 -2,1z"/>
   <path class="fil0" d="M288 176c-14,0 -27,6 -35,11 -2,2 -4,4 -5,7 0,4 3,9 3,9 2,2 3,3 6,3 4,0 9,-4 14,-8 2,-1 4,-3 6,-4 3,-1 5,-2 7,-2 4,0 7,2 11,4 3,1 6,3 9,4 1,0 1,0 2,0l0 0c4,0 10,-4 10,-9 1,-4 -2,-8 -9,-11 -6,-2 -12,-4 -19,-4zm-31 34c-4,0 -7,-2 -10,-5 0,0 -4,-6 -3,-12 1,-4 3,-7 7,-10 8,-5 22,-11 37,-11 8,0 15,1 21,4 12,5 12,13 12,16 -2,6 -8,12 -15,12l0 0c-1,0 -2,0 -3,0 -4,-1 -7,-3 -10,-5 -3,-1 -6,-3 -9,-3 -1,0 -3,1 -5,2 -1,1 -3,2 -5,4 -6,4 -11,8 -17,8z"/>
   <path class="fil0" d="M5 87c-1,0 -2,-1 -2,-2 -1,-1 0,-2 1,-2l83 -14 42 -52c1,-1 2,-1 3,0 1,1 1,2 0,3l-42 52c0,0 -1,1 -1,1l-84 14c0,0 0,0 0,0z"/>
   <path class="fil0" d="M116 242c0,0 -1,0 -1,0l-29 -28c0,0 0,-1 0,-1l0 -142c0,-2 1,-3 2,-3l0 0c2,0 3,1 3,3l-1 141 28 27c1,1 1,2 0,3 -1,0 -1,0 -2,0z"/>
   <path class="fil0" d="M5 224c-1,0 -2,-1 -2,-2 -1,-1 0,-2 1,-2l84 -9c1,0 2,0 2,2 0,1 -1,2 -2,2l-83 9c0,0 0,0 0,0z"/>
   <path class="fil0" d="M261 210c-1,0 -2,-1 -2,-1 0,-1 0,-1 0,-1 -1,-1 -3,-15 -5,-25 -1,-1 0,-2 1,-2 1,0 3,0 3,1l2 13c1,3 2,6 2,9 0,1 1,2 1,3 0,0 0,0 0,0l0 0c0,2 0,3 -2,3 0,0 0,0 0,0z"/>
   <path class="fil0" d="M278 198c-1,0 -2,-1 -2,-2l-2 -20c0,-1 0,-2 2,-3 1,0 2,1 2,2l2 21c0,1 0,2 -2,2 0,0 0,0 0,0z"/>
   <path class="fil0" d="M294 199l0 0c-2,0 -2,-1 -2,-2l0 -22c0,-2 1,-3 2,-3 1,0 2,1 2,3l0 22c0,2 -1,2 -2,2z"/>
   <path class="fil0" d="M304 204c-1,0 -2,-1 -2,-2l-1 -26c0,-1 1,-2 2,-2 1,0 2,1 2,2l1 26c0,1 0,2 -2,2 0,0 0,0 0,0z"/>
   <path class="fil0" d="M312 202c-1,0 -2,-1 -2,-2l-2 -21c0,-1 1,-2 2,-2 2,0 3,1 3,2l1 21c0,1 -1,2 -2,2 0,0 0,0 0,0z"/>
   <path class="fil0" d="M399 159c-1,0 -2,-1 -2,-2 -15,-65 10,-124 10,-125 0,-1 1,-1 3,-1 1,1 1,2 1,3 -1,0 -24,59 -10,122 0,2 0,3 -2,3 0,0 0,0 0,0z"/>
   <path class="fil0" d="M232 244c0,0 -1,0 -2,-1 0,-1 0,-2 1,-3 1,0 10,-6 19,-1 2,1 2,2 1,3 0,1 -1,1 -2,1 -8,-4 -16,1 -16,1 0,0 0,0 -1,0z"/>
   <path class="fil0" d="M232 258c0,0 -1,0 -1,-1 -1,-1 -1,-2 0,-3 1,0 11,-7 20,-3 1,1 2,2 1,3 0,1 -1,2 -3,1 -7,-3 -15,3 -15,3 -1,0 -1,0 -2,0z"/>
   <path class="fil0" d="M250 270c0,0 -1,0 -1,0 -5,-1 -12,-1 -12,-1 -1,1 -2,0 -2,-1 0,-2 1,-3 2,-3 0,0 8,-1 13,1 2,0 2,1 2,3 0,0 -1,1 -2,1z"/>
   <path class="fil0" d="M315 245c-1,0 -2,0 -2,-1 -1,-1 -1,-2 0,-3 9,-8 22,-4 23,-4 1,1 2,2 1,3 0,1 -1,2 -2,1 -1,0 -12,-3 -19,3 0,1 -1,1 -1,1z"/>
   <path class="fil0" d="M316 258c-1,0 -1,0 -2,-1 0,-1 0,-2 1,-3 8,-5 21,-3 22,-3 1,1 2,2 2,3 -1,1 -2,2 -3,2 0,0 -12,-3 -19,1 0,1 -1,1 -1,1z"/>
   <path class="fil0" d="M322 270c-1,0 -2,0 -4,0 -1,0 -1,-1 -1,-3 0,-1 1,-2 2,-1 7,1 15,-3 15,-3 1,-1 2,0 3,1 0,1 0,2 -1,3 0,0 -6,3 -14,3z"/>
   <path class="fil0" d="M359 248c-1,0 -1,0 -1,-1 -5,-3 -13,-3 -13,-3 -2,0 -2,-1 -2,-2 0,-1 1,-2 2,-2 0,0 9,0 15,4 1,1 1,2 1,3 -1,1 -2,1 -2,1z"/>
   <path class="fil0" d="M358 259c0,0 -1,0 -1,0 -3,-3 -7,-3 -9,-4 0,0 -2,0 -2,-2 0,-1 1,-2 2,-2 0,0 1,0 1,0l0 0c2,1 7,1 11,5 1,0 1,2 0,3 -1,0 -1,0 -2,0z"/>
   <path class="fil0" d="M354 272c0,0 0,0 0,0 -9,-3 -9,-3 -9,-5 1,-1 2,-2 3,-2 0,0 0,1 0,1 1,0 4,1 7,2 1,1 2,2 1,3 0,1 -1,1 -2,1z"/>
   <path class="fil0" d="M203 250c-1,0 -2,-1 -2,-2 -1,-1 0,-2 1,-3l13 -3c1,0 2,0 2,2 1,1 0,2 -1,2l-13 4c0,0 0,0 0,0z"/>
   <path class="fil0" d="M203 267c-1,0 -2,0 -2,-1 -1,-1 0,-2 1,-3l13 -5c1,0 2,0 2,1 1,1 0,3 -1,3l-12 5c-1,0 -1,0 -1,0z"/>
   <path class="fil0" d="M213 285c-1,0 -1,0 -2,-1 0,-1 0,-2 1,-3l12 -8c1,-1 2,-1 3,0 1,1 0,2 -1,3l-12 9c0,0 -1,0 -1,0z"/>
   <path class="fil0" d="M200 238c-1,0 -2,-1 -2,-2 -4,-16 1,-33 1,-34 0,-1 2,-2 3,-2 1,1 2,2 1,3 0,0 -5,17 -1,32 0,1 -1,2 -2,3 0,0 0,0 0,0z"/>
   <path class="fil0" d="M52 290l0 0c-1,0 -2,-1 -2,-2l1 -60c0,-1 1,-2 2,-2 1,0 2,1 2,2l-1 60c0,1 -1,2 -2,2z"/>
   <path class="fil0" d="M30 292c-1,0 -2,-1 -2,-2 -1,-1 0,-2 1,-2 1,0 22,-3 38,-2 1,0 2,1 2,3 0,1 -1,2 -2,2 -16,-2 -37,1 -37,1 0,0 0,0 0,0z"/>
   <path class="fil1" d="M241 117c4,0 8,6 8,13 0,6 -4,12 -8,12 -5,0 -9,-6 -9,-12 0,-7 4,-13 9,-13zm-5 5c1,0 1,2 1,5 0,3 0,5 -1,5 0,0 -1,-2 -1,-5 0,-3 1,-5 1,-5z"/>
   <path class="fil1" d="M307 113c5,0 8,6 8,13 0,7 -3,12 -8,12 -5,0 -9,-5 -9,-12 0,-7 4,-13 9,-13zm-5 5c1,0 1,2 1,5 0,3 0,6 -1,6 0,0 -1,-3 -1,-6 0,-3 1,-5 1,-5z"/>
   <path class="fil1" d="M206 144c0,0 5,-3 6,-26 3,-49 10,-59 60,-63 26,-2 40,5 46,12 7,8 16,31 18,38 3,6 8,7 8,7l-5 -24c0,0 -5,-31 -26,-43 -21,-11 -30,-4 -36,-6 0,0 -2,-3 -5,-2 -3,0 -5,3 -5,3 0,0 -3,-3 -6,-1 0,0 -3,-3 -6,-2 -4,1 -5,4 -5,4 0,0 -3,-7 -8,-3 0,0 -4,-3 -7,3 0,0 -5,-5 -9,-1 0,0 -3,-2 -6,2 0,0 -4,-1 -6,5 0,0 -7,-2 -7,10 0,0 -4,0 -3,6 0,6 -3,8 -2,11 1,3 -3,8 -2,11 1,3 4,24 3,24 0,0 3,35 3,35z"/>
   <path class="fil1" d="M229 146c0,0 2,6 1,11 0,5 -1,7 2,7 3,0 2,-7 1,-10 0,-2 -5,-12 -4,-8z"/>
   <path class="fil1" d="M236 151c0,0 1,6 0,9 0,4 -1,5 2,5 2,1 1,-5 1,-7 -1,-2 -4,-9 -3,-7z"/>
   <path class="fil1" d="M241 156c0,0 1,3 0,5 0,3 0,4 1,4 2,0 2,-3 1,-5 0,-1 -3,-6 -2,-4z"/>
   <path class="fil1" d="M325 137c0,0 -1,5 -1,9 0,3 1,5 -1,5 -3,-1 -2,-6 -2,-8 1,-2 4,-8 4,-6z"/>
   <path class="fil1" d="M320 141c0,0 -1,3 -1,6 1,3 1,4 -1,4 -1,-1 -1,-4 -1,-6 1,-1 3,-6 3,-4z"/>
   <path class="fil1" d="M316 143c0,0 -1,2 -1,4 1,2 1,3 0,3 -1,-1 -1,-3 -1,-4 0,-1 2,-5 2,-3z"/>
   <path class="fil0" d="M280 227c-26,0 -44,-11 -50,-29 -1,-6 0,-11 4,-16 7,-11 26,-17 39,-17 1,-1 3,1 3,2 0,2 -1,3 -3,3 -12,1 -28,6 -35,15 -2,4 -3,7 -2,11 5,18 25,27 52,25 20,-2 33,-15 39,-25 4,-9 5,-17 2,-23 -7,-13 -34,-9 -44,-7 -2,1 -3,0 -4,-2 0,-1 1,-3 3,-3 1,-1 39,-10 50,9 4,8 3,18 -2,28 -7,12 -21,26 -43,28 -3,1 -6,1 -9,1z"/>
  </g>
 </g>
</svg>
