<?xml version="1.0" encoding="UTF-8"?>
<!DOCTYPE svg PUBLIC "-//W3C//DTD SVG 1.1//EN" "http://www.w3.org/Graphics/SVG/1.1/DTD/svg11.dtd">
<!-- Creator: CorelDRAW X7 -->
<svg xmlns="http://www.w3.org/2000/svg" xml:space="preserve" width="85.8259mm" height="77.7855mm" version="1.1" style="shape-rendering:geometricPrecision; text-rendering:geometricPrecision; image-rendering:optimizeQuality; fill-rule:evenodd; clip-rule:evenodd"
viewBox="0 0 357 323"
 xmlns:xlink="http://www.w3.org/1999/xlink">
 <defs>
  <style type="text/css">
   <![CDATA[
    .fil0 {fill:black}
    .fil1 {fill:black;fill-rule:nonzero}
   ]]>
  </style>
 </defs>
 <g id="Layer_x0020_1">
  <metadata id="CorelCorpID_0Corel-Layer"/>
  <g id="_970300432">
   <path class="fil0" d="M164 45c2,0 4,3 5,7 0,3 -1,6 -3,6 -2,0 -4,-3 -5,-6 0,-4 1,-7 3,-7z"/>
   <path class="fil0" d="M195 43c2,0 4,3 4,7 1,3 0,6 -2,6 -2,0 -4,-3 -5,-6 0,-4 1,-7 3,-7z"/>
   <path class="fil0" d="M144 52c0,0 4,3 3,-8 0,-11 2,-26 15,-29 13,-4 31,-5 37,-2 6,3 11,13 14,21 3,8 9,9 9,9 0,0 -4,-34 -23,-39 -19,-5 -42,1 -48,8 -6,6 -14,9 -7,40z"/>
   <path class="fil1" d="M147 304l93 0c0,0 2,0 3,-2 0,-3 0,-5 0,-5l-32 -8c-1,0 -1,-1 -1,-2l0 -63c0,-2 -2,-4 -5,-4l-24 0c-3,0 -5,2 -5,4l0 64c0,1 0,1 -1,2l-31 7c0,0 -1,2 0,5 0,2 3,2 3,2zm93 4l-93 0c0,0 0,0 0,0 -3,0 -7,-1 -7,-5 -1,-4 -1,-9 2,-10 0,0 0,0 1,0l29 -7 0 -62c0,-4 4,-8 9,-8l24 0c5,0 9,4 9,8l0 62 30 7c0,0 0,0 0,0 3,1 3,6 3,10 -1,4 -5,5 -7,5 0,0 0,0 0,0z"/>
   <path class="fil1" d="M116 218c0,0 -1,0 -1,0 -1,0 -20,-9 -20,-36 0,-25 10,-35 13,-37 1,-5 8,-30 29,-42 -2,-6 -4,-23 8,-30 -1,-7 -5,-31 -5,-44 1,-14 11,-23 29,-27 16,-3 35,-4 46,12 10,14 11,44 11,52 6,1 13,4 13,14 0,3 0,7 -2,11 9,2 38,14 44,48 7,36 7,55 -11,60 -1,1 -2,0 -3,-1 0,-1 1,-2 2,-3 13,-4 15,-17 8,-55 -7,-37 -42,-46 -43,-46 0,0 -1,0 -1,-1 0,0 0,-1 0,-2 1,-4 2,-8 2,-11 0,-10 -10,-10 -11,-10 0,0 -1,0 -1,-1 0,0 -1,0 -1,-1 0,0 0,-36 -11,-52 -9,-14 -25,-13 -41,-10 -11,2 -25,8 -26,23 0,15 5,44 5,44 0,1 0,2 -1,3 -13,6 -7,27 -7,27 0,1 0,2 -1,3 -22,12 -28,40 -28,40 0,1 -1,1 -1,1 0,1 -12,9 -12,35 0,25 17,32 18,32 1,1 1,2 1,3 -1,1 -1,1 -2,1z"/>
   <path class="fil1" d="M145 74c-10,0 -13,-6 -13,-9 -2,-6 0,-12 4,-15 1,-1 5,-2 10,3 1,1 0,2 0,3 -1,1 -3,1 -3,0 -2,-2 -3,-3 -5,-2 -2,1 -4,6 -2,10 1,4 5,6 11,6 1,0 2,1 2,2 0,1 -1,2 -2,2 -1,0 -1,0 -2,0z"/>
   <path class="fil1" d="M226 66c0,0 -1,0 -2,0 -1,0 -2,-1 -2,-2 0,-1 1,-2 2,-2 5,0 8,-1 9,-4 1,-5 -2,-11 -5,-12 -1,-1 -2,-1 -4,1 0,1 -2,2 -3,1 -1,-1 -1,-2 0,-3 3,-5 7,-4 8,-3 6,2 9,11 8,17 -1,2 -3,7 -11,7z"/>
   <path class="fil1" d="M159 182c-1,0 -1,-1 -1,-1 -1,0 -1,-1 0,-2 0,0 24,-32 27,-38 3,-5 -3,-10 -3,-10 -1,-1 -1,-1 -1,-1 0,-1 0,-1 0,-2l3 -3c1,-1 2,-1 2,-1 1,0 1,1 1,1 1,0 1,0 1,1 2,0 8,-4 11,-8 1,-2 3,-4 2,-7 -2,-6 -14,-6 -14,-6 -1,0 -1,0 -1,-1 0,-1 0,-2 1,-2 0,0 6,-1 10,-1 3,0 9,-3 10,-5 0,0 0,0 0,-1 -2,-1 -16,1 -28,4 -1,0 -1,0 -2,-1 -4,-6 -9,-10 -10,-10 -1,2 1,11 4,20 0,0 0,1 0,2 -1,0 -1,0 -2,0 -21,-12 -23,-35 -23,-36 0,-1 0,-2 1,-2 1,0 2,1 2,2 0,0 2,19 18,31 -3,-9 -4,-18 -1,-19 4,-2 10,5 13,10 19,-5 30,-5 31,-2 0,1 0,2 0,4 -3,3 -10,6 -13,6 0,0 0,0 0,0 3,1 6,3 7,6 1,3 0,7 -3,10 -4,5 -10,9 -13,9 -1,-1 -2,-1 -2,-1l-1 1c3,3 6,8 3,13 -3,7 -27,38 -28,39 0,0 -1,1 -1,1z"/>
   <path class="fil1" d="M114 172c-1,0 -1,0 -1,0 -1,-1 -1,-2 0,-2 7,-11 38,-42 51,-54 1,-1 2,-1 2,-1 1,0 1,0 1,0 1,-1 2,-2 2,-3 -5,2 -22,5 -31,-7 -1,-1 -1,-2 0,-2 1,-1 2,-1 2,0 10,12 30,6 30,6 0,0 1,0 1,0 2,1 2,2 2,3 0,1 -1,3 -4,5 -1,1 -2,1 -2,1 -1,0 -1,0 -1,0 -13,13 -44,43 -51,54 0,0 -1,0 -1,0z"/>
   <path class="fil1" d="M208 96c0,0 -1,0 -1,-1 0,-1 0,-1 1,-2 14,-5 14,-25 14,-25 0,-1 1,-2 2,-2 1,0 1,1 1,2 0,1 0,22 -16,28 0,0 0,0 -1,0z"/>
   <path class="fil1" d="M200 120c-1,0 -1,0 -1,-1 0,-1 0,-2 1,-2 20,-2 33,-25 33,-26 1,0 2,-1 3,0 0,0 1,1 0,2 0,1 -14,25 -36,27 0,0 0,0 0,0z"/>
   <path class="fil1" d="M213 262l38 0 0 -65 -113 0 0 65 35 0 0 -38c0,-4 3,-7 8,-7l24 0c5,0 8,3 8,7l0 38zm40 4l-41 0c-1,0 -2,-1 -2,-2l0 -40c0,-2 -2,-4 -5,-4l-24 0c-3,0 -5,2 -5,4l0 40c0,1 -1,2 -2,2l-38 0c-1,0 -2,-1 -2,-2l0 -68c0,-1 1,-2 2,-2l117 0c1,0 1,1 1,2l0 68c0,1 0,2 -1,2z"/>
   <path class="fil1" d="M136 197c0,0 -1,0 -1,0l-18 -14c-1,0 -1,-1 -1,-2 1,-1 2,-1 2,0l19 14c1,0 1,1 0,2 0,0 -1,0 -1,0z"/>
   <path class="fil1" d="M253 197c-1,0 -1,0 -1,0 -1,-1 -1,-2 0,-2l14 -13c1,-1 2,-1 2,0 1,1 1,2 0,2l-14 13c-1,0 -1,0 -1,0z"/>
   <path class="fil1" d="M267 280c0,0 -1,0 -1,0l-14 -15c-1,0 -1,-1 0,-2 0,-1 1,-1 2,0l14 15c1,0 1,1 0,2 0,0 0,0 -1,0z"/>
   <path class="fil1" d="M118 280c-1,0 -1,0 -1,0 -1,-1 -1,-2 0,-3l18 -14c1,-1 2,-1 2,0 1,1 1,2 0,2l-18 15c0,0 -1,0 -1,0z"/>
   <path class="fil1" d="M234 163c-1,0 -2,0 -2,0 -10,-4 -31,-1 -31,-1 0,0 -1,0 -1,0 0,-1 -1,-1 -1,-1 0,-1 0,-3 0,-3 -1,-1 -7,-1 -13,-1 -3,-1 -4,1 -4,1 0,1 -1,1 -2,1l-4 -2c0,0 -1,-1 0,-2 0,-1 1,-1 2,-1l2 2c1,-1 3,-3 6,-3 14,1 15,2 16,3 0,1 0,2 0,3 6,-1 22,-2 31,1 0,0 1,0 1,0 1,0 1,0 2,0 1,-1 1,-3 1,-5 0,-8 -1,-17 -1,-17 0,-1 1,-2 2,-2 1,0 1,1 1,2 0,0 1,9 1,17 0,3 -1,6 -2,7 -2,1 -3,1 -4,1z"/>
   <path class="fil1" d="M2 323c-1,0 -1,0 -2,-1 0,-1 0,-2 1,-3l40 -27c0,-1 0,-1 1,-1l0 0 108 0c1,0 2,1 2,2 0,2 -1,3 -2,3l0 0 -107 -1 -40 28c0,0 -1,0 -1,0z"/>
   <path class="fil1" d="M355 316c-1,0 -1,0 -2,0l-23 -21 -97 0c-1,0 -2,-1 -2,-2 0,-2 1,-2 2,-2l98 0c1,0 1,0 2,0l23 22c1,0 1,2 0,2 0,1 -1,1 -1,1z"/>
   <path class="fil1" d="M83 296c0,0 0,0 0,0 -2,-1 -2,-1 -2,-3l3 -182c0,-1 2,-25 55,-31 2,-1 3,0 3,1 0,1 -1,3 -2,3 -49,6 -52,27 -52,27l-3 182c0,2 -1,3 -2,3z"/>
   <path class="fil1" d="M300 295c-1,0 -2,-1 -2,-2l-6 -180c-6,-30 -54,-31 -55,-31 -1,0 -2,-1 -2,-2 0,-1 1,-2 2,-2 2,0 53,1 59,34 0,0 0,0 0,0l6 181c0,1 -1,2 -2,2 0,0 0,0 0,0z"/>
   <path class="fil1" d="M174 182c0,0 0,-1 -1,-1 0,0 0,-1 0,-2 6,-7 6,-21 6,-21 0,-1 1,-2 2,-2 1,0 1,1 1,2 0,0 0,15 -6,23 -1,0 -1,1 -2,1z"/>
   <path class="fil1" d="M193 182c-1,0 -2,-1 -2,-1 0,-1 0,-2 1,-2 5,-3 7,-14 7,-18 0,-1 1,-2 2,-2 1,0 2,1 1,2 0,0 -1,16 -9,20 0,0 0,1 0,1z"/>
   <path class="fil1" d="M182 150c0,0 0,0 -1,0 -1,-1 -22,-15 -25,-25 0,-1 0,-2 1,-2 1,-1 2,0 2,1 2,7 18,19 24,23 1,1 1,2 0,3 0,0 0,0 -1,0z"/>
   <path class="fil1" d="M184 132c-1,0 -1,-1 -2,-1 -2,-3 -14,-12 -16,-13 0,0 -1,-1 -1,-1 0,-1 1,-2 1,-2 3,0 17,11 19,14 0,1 0,2 -1,2 0,1 0,1 0,1z"/>
   <path class="fil1" d="M182 71c-1,0 -3,-1 -4,-1 -3,-2 -4,-3 -5,-5 0,-2 0,-3 2,-5 1,-2 2,-7 2,-10 0,-1 1,-2 1,-2 1,0 2,1 2,2 0,1 0,9 -3,12 -1,1 -1,2 -1,2 0,1 1,2 3,3 3,1 5,0 8,-1l0 0c1,-1 2,-2 2,-2 0,-1 0,-2 0,-2 -1,0 -1,-1 0,-2 1,0 2,0 2,0 1,1 1,3 1,5 -1,1 -2,3 -3,4l-1 0c-2,1 -4,2 -6,2z"/>
   <path class="fil1" d="M198 96c-1,0 -2,0 -2,-1 -1,-1 0,-3 1,-3 1,0 2,-2 3,-3 1,-5 -1,-12 -3,-13 -1,-2 -5,-1 -8,-1 -1,1 -2,0 -3,-1 0,-1 1,-2 2,-3 1,0 9,-2 12,2 3,2 5,11 4,17 -1,3 -3,5 -6,6 0,0 0,0 0,0z"/>
   <path class="fil1" d="M169 89c0,0 -1,-1 -1,-1 -1,-3 -1,-5 0,-7 3,-6 12,-8 13,-8 1,-1 2,0 2,1 1,1 0,2 -1,3 -2,0 -9,3 -10,6 -1,1 -1,2 -1,3 1,1 0,2 -1,3 0,0 0,0 -1,0z"/>
   <path class="fil1" d="M172 48c-1,0 -1,0 -2,-1 -3,-13 -12,-11 -12,-11 -1,0 -2,-1 -2,-2 0,0 1,-1 1,-1 1,0 12,-2 16,13 1,1 0,2 -1,2 0,0 0,0 0,0z"/>
   <path class="fil1" d="M197 40c-6,0 -9,-6 -9,-6 0,-1 0,-2 1,-2 1,-1 1,0 2,1 0,0 2,4 7,4 4,0 6,-7 6,-7 0,-1 1,-2 2,-1 1,0 1,1 1,1 0,1 -2,9 -9,10 0,0 -1,0 -1,0z"/>
   <path class="fil1" d="M122 122l-36 0c-1,0 -1,-1 -1,-2 0,0 0,-1 1,-1l36 0c1,0 1,1 1,1 0,1 0,2 -1,2z"/>
   <path class="fil1" d="M295 121c0,0 0,0 0,0l-24 -2c-1,0 -2,0 -2,-1 0,-1 1,-2 2,-2l24 2c1,0 1,0 1,1 0,1 -1,2 -1,2z"/>
   <path class="fil1" d="M163 134c0,0 -1,0 -1,0 -1,-1 -1,-2 0,-3l10 -11c1,0 2,0 3,0 0,1 0,2 0,2l-11 11c0,1 0,1 -1,1z"/>
   <path class="fil1" d="M170 140c-1,0 -1,0 -2,0 0,-1 0,-2 0,-2l11 -12c1,-1 2,-1 2,0 1,0 1,1 0,2l-10 12c-1,0 -1,0 -1,0z"/>
   <path class="fil1" d="M201 165c0,0 -1,0 -1,0l-20 -3c-1,0 -1,-1 -1,-1 0,-1 1,-2 2,-2l20 3c1,0 1,1 1,2 0,1 -1,1 -1,1z"/>
   <path class="fil1" d="M198 175c0,0 0,0 0,0 -7,-1 -18,-2 -19,-2 0,0 0,0 0,0 -1,-1 -2,-1 -1,-2 0,-1 0,-1 1,-1l1 0c0,0 0,0 0,0 1,0 4,0 9,1 4,0 9,1 9,1 1,0 2,1 1,2 0,1 0,1 -1,1z"/>
   <path class="fil1" d="M176 84c-1,0 -1,0 -1,-1 -1,-1 0,-2 1,-2 1,0 15,-4 19,-3 1,0 2,1 1,1 0,1 -1,2 -2,2 -2,-1 -12,1 -17,3 -1,0 -1,0 -1,0z"/>
   <path class="fil1" d="M214 278l53 0 0 -95 -148 0 0 95 53 0 0 -54c0,-4 4,-8 9,-8l24 0c5,0 9,4 9,8l0 54zm55 4l-57 0c-1,0 -2,-1 -2,-2l0 -56c0,-2 -2,-4 -5,-4l-24 0c-3,0 -5,2 -5,4l0 56c0,1 -1,2 -2,2l-57 0c-1,0 -2,-1 -2,-2l0 -99c0,-1 1,-2 2,-2l152 0c1,0 2,1 2,2l0 99c0,1 -1,2 -2,2z"/>
   <path class="fil1" d="M212 226l-38 0c-1,0 -1,-1 -1,-2 0,0 0,-1 1,-1l38 0c1,0 1,1 1,1 0,1 0,2 -1,2z"/>
  </g>
 </g>
</svg>
