<?xml version="1.0" encoding="UTF-8"?>
<!DOCTYPE svg PUBLIC "-//W3C//DTD SVG 1.1//EN" "http://www.w3.org/Graphics/SVG/1.1/DTD/svg11.dtd">
<!-- Creator: CorelDRAW X7 -->
<svg xmlns="http://www.w3.org/2000/svg" xml:space="preserve" width="93.6785mm" height="84.6794mm" version="1.1" style="shape-rendering:geometricPrecision; text-rendering:geometricPrecision; image-rendering:optimizeQuality; fill-rule:evenodd; clip-rule:evenodd"
viewBox="0 0 477 431"
 xmlns:xlink="http://www.w3.org/1999/xlink">
 <defs>
  <style type="text/css">
   <![CDATA[
    .fil1 {fill:black}
    .fil0 {fill:black;fill-rule:nonzero}
   ]]>
  </style>
 </defs>
 <g id="Layer_x0020_1">
  <metadata id="CorelCorpID_0Corel-Layer"/>
  <g id="_970281488">
   <path class="fil0" d="M78 384l0 0c-1,0 -3,-1 -3,-3 1,-5 3,-116 33,-135 2,-4 9,-20 23,-26 -2,-11 -8,-56 -4,-67 4,-15 18,-22 43,-23 26,-2 35,10 36,12 1,1 10,12 14,34 5,18 1,35 -1,42 6,2 13,8 13,17 8,1 30,7 38,28 5,13 14,24 21,32 5,7 10,12 12,17 0,2 1,4 2,6 5,13 12,32 7,41 -7,11 -60,12 -63,11 -1,0 -1,-1 -3,-2 -1,0 -3,-2 -4,-1 0,0 -1,0 -1,0 -2,2 -6,4 -11,5 -6,0 -10,-1 -11,-2 -3,1 -9,3 -11,3 -2,0 -4,-1 -5,-2 -2,1 -6,2 -9,2 -1,0 -8,-1 -10,-5 -2,-5 -4,-17 7,-25 9,-8 23,-2 28,1 3,-3 14,-8 24,-7 6,0 10,-1 13,-2 4,-1 7,-3 14,-2 12,1 22,10 23,11 1,1 1,2 0,3 -1,1 -3,1 -4,0 0,0 -9,-8 -20,-9 -5,-1 -8,0 -11,2 -4,1 -8,2 -15,2 -11,-1 -22,7 -23,7 0,0 -1,0 -2,0 0,0 -16,-9 -24,-3 -9,8 -7,18 -6,20 1,1 4,2 7,2 1,0 6,-1 9,-2 1,0 2,0 2,1 0,0 1,1 2,1 1,0 6,-2 10,-3 1,0 1,0 2,0 0,0 3,2 10,1 4,0 6,-1 7,-3 1,0 2,-1 4,-1 2,-1 5,0 8,2 1,0 1,1 2,1 6,1 52,-2 56,-9 5,-7 -3,-25 -7,-37 -1,-2 -1,-3 -2,-5 -2,-4 -6,-9 -11,-15 -7,-9 -17,-21 -22,-35 -8,-21 -36,-25 -36,-25 -1,0 -1,0 -2,-1 0,0 0,-1 0,-2 2,-10 -11,-14 -12,-15 -1,0 -2,-1 -1,-3 0,0 6,-20 1,-41 -4,-22 -13,-32 -13,-32 0,0 0,0 0,-1 0,0 -8,-11 -32,-9 -29,1 -36,10 -39,19 -3,10 3,52 5,68 1,1 0,2 -1,2 -15,6 -22,24 -22,24 0,1 -1,1 -1,2 -29,16 -31,130 -31,131 0,2 -2,3 -3,3z"/>
   <path class="fil0" d="M246 341c-1,0 -1,0 -2,-1 -1,0 0,-2 0,-2 6,-5 6,-22 5,-26 -2,-5 0,-13 0,-14 0,-1 1,-2 2,-2 1,0 2,1 2,3 -1,2 -2,9 -1,12 2,4 2,24 -5,30 -1,0 -1,0 -1,0z"/>
   <path class="fil0" d="M265 337c0,0 0,0 -1,0 0,0 -9,-7 -15,-18 0,-1 0,-2 1,-3 1,0 2,0 3,1 5,11 13,17 14,17 0,0 1,1 0,2 0,1 -1,1 -2,1z"/>
   <path class="fil0" d="M158 380c-1,0 -2,-1 -2,-1 -1,-1 -1,-3 0,-4 16,-15 20,-68 20,-69 0,-1 1,-1 1,-2 0,0 3,-2 4,-7 0,-4 -3,-5 -3,-5 -1,-1 -2,-2 -2,-3 0,-5 2,-7 2,-7 1,-1 2,-4 4,-7 0,0 0,-1 1,-1 1,0 2,0 2,0 1,1 2,2 3,2 1,-1 3,-3 3,-7 -1,-5 -4,-7 -4,-7 -1,0 -2,-1 -2,-2 0,0 0,-4 -1,-6 -1,-1 -1,-2 -2,-1 -1,1 -2,1 -2,1 -1,-1 -2,-1 -2,-2 0,0 -1,-2 -3,-2 -2,0 -7,4 -11,9 -1,1 -2,1 -3,1 -1,0 -1,-1 -2,-2 0,0 -2,-5 -3,-9 0,-2 -2,-5 -3,-7 0,-1 -1,-2 -1,-2 0,0 -1,1 -1,1 -1,4 1,13 3,18l0 1c2,5 1,20 1,21 0,1 -1,2 -1,2 -1,0 -2,1 -2,0l-2 0c-2,2 -4,8 -5,13 0,1 -1,1 -1,1 0,0 -6,6 -10,12 -4,6 -10,28 -12,37 -1,1 -2,2 -4,1 -1,0 -2,-1 -1,-3 0,-3 8,-31 13,-38 4,-5 8,-10 10,-12 1,-3 3,-13 8,-16 1,0 1,0 2,0 0,-5 0,-14 -1,-17l0 -1c-2,-6 -4,-15 -3,-20 1,-2 2,-6 6,-6 1,-1 3,0 4,3 0,1 1,2 1,3 2,2 3,5 4,8 0,1 1,3 2,5 3,-4 8,-8 12,-8l0 0c3,0 5,1 6,3 1,0 2,0 2,0 1,0 3,1 5,3 2,2 2,6 2,7 2,2 5,5 6,10 1,4 -1,8 -4,11 -1,1 -3,2 -5,2 -1,0 -1,0 -2,-1 -2,4 -3,5 -3,6 0,0 -1,1 -1,2 3,2 6,5 5,10 -1,5 -3,8 -5,9 0,8 -5,57 -22,72 0,1 -1,1 -1,1z"/>
   <path class="fil0" d="M130 384c-1,0 -1,0 -1,0 -23,-6 -34,-34 -34,-35 -1,-1 0,-3 1,-3 2,-1 3,0 4,1 0,0 10,27 30,32 1,0 2,1 2,3 0,1 -1,2 -2,2z"/>
   <path class="fil0" d="M14 382c-2,0 -3,-1 -3,-2 -1,-6 -17,-133 -1,-182 17,-51 114,-31 119,-30 1,1 2,2 2,3 -1,2 -2,3 -3,2 -1,0 -98,-20 -113,26 -16,48 1,179 1,180 0,1 -1,3 -2,3 0,0 0,0 0,0z"/>
   <path class="fil0" d="M102 387c0,0 0,0 0,0l-100 -5c-1,-1 -2,-2 -2,-3 0,-2 1,-3 3,-3l99 6 105 -14c2,0 3,0 3,2 0,1 -1,3 -2,3l-105 14c0,0 0,0 -1,0z"/>
   <path class="fil0" d="M310 360c-2,0 -3,-1 -3,-2 0,-2 1,-3 2,-3l38 -5c2,0 3,1 3,3 0,1 -1,2 -2,3l-38 4c0,0 0,0 0,0z"/>
   <path class="fil0" d="M140 173c-1,0 -1,0 -1,-1 -1,0 -1,-1 -1,-2 0,0 4,-8 11,-8 6,1 8,5 9,5 0,1 0,2 -1,3 -1,0 -2,0 -3,-1 0,0 -2,-3 -6,-3 -3,0 -6,4 -7,6 0,0 -1,1 -1,1z"/>
   <path class="fil0" d="M183 165c0,0 -1,0 -1,0 -1,-1 -1,-2 -1,-3 1,0 6,-8 12,-8 6,0 8,5 8,5 1,1 1,2 0,3 -1,0 -3,0 -3,-1 0,0 -1,-3 -5,-3 -4,0 -7,5 -8,6 -1,1 -1,1 -2,1z"/>
   <path class="fil0" d="M173 209c0,0 0,0 0,0 -3,-1 -8,-3 -10,-6 -1,-2 -1,-4 0,-5 1,-3 2,-9 2,-12 0,-1 1,-1 2,-1 1,0 2,1 2,2 0,0 -1,8 -3,12 0,0 0,1 0,2 2,2 5,4 7,4 2,0 8,-4 8,-6 0,-1 -1,-2 -1,-2 0,-1 0,-2 1,-3 0,0 2,0 2,0 0,1 1,2 2,4 0,1 0,3 -1,4 -3,3 -7,7 -11,7z"/>
   <path class="fil0" d="M54 384c-1,0 -2,-1 -2,-1 -13,-46 -13,-94 -12,-133 0,-11 0,-22 0,-32 0,-13 -3,-21 -9,-24 -7,-4 -15,0 -15,0 -1,0 -2,0 -3,-1 0,-1 0,-2 1,-3 1,0 10,-5 19,0 7,5 11,14 11,28 0,10 0,21 0,32 -1,39 -1,87 12,131 0,1 0,3 -1,3 -1,0 -1,0 -1,0z"/>
   <path class="fil0" d="M42 225c-1,0 -2,-1 -2,-2 0,-1 1,-2 2,-2l92 -1c1,0 2,1 2,2 0,1 -1,2 -2,2l-92 1c0,0 0,0 0,0z"/>
   <path class="fil0" d="M194 345c-1,0 -2,0 -2,-1l-6 -65c0,-1 0,-2 1,-2 2,0 2,0 3,1l6 65c0,1 -1,2 -2,2 0,0 0,0 0,0z"/>
   <path class="fil0" d="M136 304c-1,0 -2,-1 -2,-2 -2,-15 -8,-25 -8,-25 -1,-1 -1,-2 0,-3 1,0 2,0 3,1 0,0 7,10 9,27 0,1 0,2 -2,2 0,0 0,0 0,0z"/>
   <path class="fil0" d="M148 265c-27,0 -39,-16 -39,-17 -1,0 -1,-2 0,-2 1,-1 2,-1 3,0 0,0 12,16 40,15 1,0 2,0 2,2 0,1 -1,1 -2,2 -1,0 -3,0 -4,0z"/>
   <path class="fil0" d="M192 265c-1,0 -2,0 -2,-1 -1,-1 0,-2 1,-3 19,-6 37,-25 37,-25 0,-1 2,-1 2,-1 1,1 1,2 1,3 -1,1 -18,20 -39,27 0,0 0,0 0,0z"/>
   <path class="fil0" d="M178 249c0,0 0,0 0,-1 -1,0 -16,-1 -24,-6 -1,0 -1,-2 0,-3 0,0 1,-1 2,0 7,4 20,6 22,6 32,-5 36,-26 36,-26 0,-1 1,-2 2,-2 1,0 2,1 2,2 0,1 -4,25 -40,29 0,0 0,1 0,1z"/>
   <path class="fil0" d="M149 242c-1,0 -1,0 -1,0 -12,-6 -16,-19 -16,-19 0,-1 0,-2 1,-3 1,0 2,0 3,1 0,1 3,12 14,18 1,0 1,2 0,2 0,1 -1,1 -1,1z"/>
   <path class="fil0" d="M241 366c0,0 -1,0 -1,-1 -8,-14 -21,-17 -21,-17 -1,0 -2,-1 -2,-2 0,-1 1,-1 2,-1 1,0 16,3 24,18 0,1 0,2 -1,3 0,0 0,0 -1,0z"/>
   <path class="fil0" d="M249 369c0,0 0,0 0,0 -1,0 -2,-1 -2,-2 3,-23 -12,-25 -13,-25 -1,0 -2,-1 -2,-3 0,-1 1,-1 2,-1 1,0 20,3 17,29 0,1 -1,2 -2,2z"/>
   <path class="fil0" d="M195 372c-1,0 -2,0 -2,-1 0,-1 -3,-15 5,-20 1,-1 2,0 2,0 1,1 1,2 0,3 -5,3 -4,13 -4,16 1,1 0,2 -1,2 0,0 0,0 0,0z"/>
   <path class="fil0" d="M204 370c-1,0 -2,0 -2,-1 0,-1 -1,-11 6,-15 1,-1 2,-1 2,0 1,1 1,2 0,3 -5,3 -4,11 -4,11 0,1 -1,2 -2,2 0,0 0,0 0,0z"/>
   <path class="fil0" d="M219 370c-1,0 -2,-1 -2,-2 0,0 -2,-10 5,-14 1,-1 2,-1 2,0 1,1 1,2 0,3 -5,3 -3,10 -3,10 0,1 0,2 -1,3 -1,0 -1,0 -1,0z"/>
   <path class="fil0" d="M227 351c0,0 -1,0 -1,0 -1,-1 -1,-2 -1,-3 1,-1 1,-1 18,-5 1,0 3,1 3,2 0,1 -1,2 -2,2 -6,1 -15,3 -16,4 0,0 -1,0 -1,0z"/>
   <path class="fil0" d="M236 359c0,0 -1,0 -1,-1 -1,-1 0,-2 1,-3l12 -2c1,-1 2,0 2,1 1,1 0,2 -1,2l-12 3c0,0 0,0 -1,0z"/>
   <path class="fil0" d="M179 309c0,0 -1,0 -1,0l-36 -12c-1,0 -2,-1 -2,-2 1,-1 2,-2 3,-1l36 11c1,0 2,2 2,3 -1,0 -1,1 -2,1z"/>
   <path class="fil0" d="M179 291c-1,0 -1,0 -1,0l-26 -8c-1,0 -2,-2 -2,-3 1,-1 2,-1 3,-1l26 9c1,0 2,1 1,2 0,1 -1,1 -1,1z"/>
   <path class="fil0" d="M148 299c0,0 0,0 0,0 -2,-1 -2,-1 -2,-3l0 0c0,0 0,0 1,0 0,-2 1,-4 2,-7l2 -7c0,-1 1,-2 2,-2 1,1 2,2 1,3 0,0 -4,14 -4,14l0 0c0,1 -1,2 -2,2z"/>
   <path class="fil0" d="M155 302c0,0 0,-1 -1,-1 -1,0 -1,-1 -1,-2l4 -16c1,-1 2,-2 3,-2 1,1 1,2 1,3l-4 16c0,1 -1,2 -2,2z"/>
   <path class="fil0" d="M163 304c0,0 0,0 0,0 -1,-1 -2,-2 -2,-3 1,0 4,-10 5,-15 1,-1 2,-2 3,-2 1,1 1,2 1,3 -1,3 -5,15 -5,15 0,1 -1,2 -2,2z"/>
   <path class="fil0" d="M172 306c-1,0 -1,0 -1,0 -1,0 -2,-1 -1,-2 0,0 0,0 0,0 0,-1 5,-16 5,-16 0,-1 1,-1 2,-1 1,0 1,1 1,2l-2 8c-1,4 -2,6 -3,7 0,0 0,1 0,1l0 0c0,1 -1,1 -1,1z"/>
   <path class="fil0" d="M218 203c-1,0 -2,-1 -2,-2 0,-1 1,-2 2,-2 6,0 9,-5 10,-7 1,-4 1,-8 0,-9 -3,-4 -8,-1 -8,-1 -1,1 -2,1 -3,0 0,-1 0,-2 1,-3 2,-1 8,-3 13,1 2,3 3,8 0,14 -2,5 -7,9 -13,9 0,0 0,0 0,0z"/>
   <path class="fil0" d="M126 212c-5,0 -7,-2 -8,-4 -4,-7 -3,-20 3,-24 2,-1 6,-2 10,6 1,0 1,2 0,2 -1,1 -2,1 -3,0 -1,-2 -3,-5 -5,-4 -3,2 -5,13 -2,18 1,1 3,5 10,1 1,-1 2,0 3,1 0,1 0,2 -1,2 -3,2 -5,2 -7,2z"/>
   <path class="fil0" d="M231 150c-2,0 -4,3 -4,5 0,3 2,5 4,5 3,0 5,-2 5,-5 0,-2 -2,-5 -5,-5zm0 15c-5,0 -9,-4 -9,-10 0,-5 4,-10 9,-10 6,0 10,5 10,10 0,6 -4,10 -10,10z"/>
   <path class="fil0" d="M236 120c-5,0 -9,2 -11,5 -1,3 -1,6 1,8 4,5 9,6 15,3 5,-2 5,-7 5,-7 0,-1 0,-2 1,-2 0,-1 1,-1 2,-1 12,5 26,7 41,7 45,0 86,-22 87,-22 0,0 0,0 1,0 2,0 4,0 6,0 32,0 59,-13 71,-34 8,-14 7,-29 -1,-43 -10,-15 -28,-23 -54,-23 -19,0 -36,4 -37,4 0,1 -1,1 -2,0 0,0 -12,-9 -31,-10 -18,0 -21,8 -21,9 -1,1 -2,1 -3,1 -1,0 -2,0 -3,0 -34,0 -84,24 -86,56 -1,34 21,43 21,44 2,0 2,1 2,3 0,1 -1,2 -3,2 0,0 -1,0 -1,0zm-1 23c-5,0 -10,-3 -13,-7 -3,-4 -3,-9 -1,-13 2,-4 5,-6 9,-8 -8,-5 -19,-18 -18,-44 2,-36 56,-61 91,-61 0,0 1,0 2,0 2,-3 8,-10 25,-10 17,0 30,8 33,10 4,-1 20,-5 37,-5 28,0 48,10 58,27 10,15 10,32 1,48 -13,23 -45,38 -81,36 -5,3 -45,22 -88,22 -14,0 -28,-2 -40,-6 0,3 -2,7 -7,9 -3,1 -6,2 -8,2z"/>
   <path class="fil0" d="M175 243c-11,0 -18,-5 -20,-14 -1,-4 0,-8 2,-11 3,-4 8,-7 16,-8 1,0 2,1 2,2 1,2 0,3 -2,3 -6,1 -10,3 -12,6 -1,2 -2,4 -1,7 1,5 4,12 20,9 5,0 8,-2 10,-5 3,-4 3,-11 1,-15 -1,-5 -9,-3 -9,-3 -2,1 -3,0 -3,-2 -1,-1 0,-2 2,-3 4,-1 13,-1 15,6 2,6 2,14 -2,20 -2,4 -7,7 -13,8 -2,0 -4,0 -6,0z"/>
   <path class="fil0" d="M309 155l1 153 158 -10 4 -143 -163 0zm-2 158c-1,0 -1,0 -2,0 0,-1 -1,-2 -1,-2l0 -159c0,0 0,-1 1,-1 0,-1 1,-1 2,-1l167 0c1,0 2,0 2,1 1,0 1,1 1,1l-4 148c0,2 -1,3 -2,3l-164 10c0,0 0,0 0,0z"/>
   <path class="fil0" d="M386 373c-15,0 -28,-2 -35,-7 -6,-4 -7,-10 -6,-13 0,-3 3,-11 32,-13l1 -34c0,-2 1,-3 3,-3 1,0 2,2 2,3l-1 36c0,2 -1,3 -3,3 -26,2 -29,8 -29,8 0,0 0,1 0,1 0,1 -2,7 11,11 28,7 84,-3 87,-10 -3,-7 -21,-12 -32,-14 -2,0 -2,-1 -2,-2l0 -35c0,-2 1,-3 2,-3 1,0 3,1 3,3l0 33c7,1 30,6 34,17 0,1 0,4 -3,6 -8,7 -38,13 -64,13z"/>
   <path class="fil0" d="M328 167l0 123 122 -8 3 -115 -125 0zm-1 127c-1,0 -1,0 -2,0 0,-1 0,-1 0,-2l-1 -127c0,0 1,-1 1,-1 0,-1 1,-1 1,-1l129 0c0,0 1,0 1,1 0,0 1,1 1,1l-3 119c0,1 -1,2 -2,2l-125 8c0,0 0,0 0,0z"/>
   <path class="fil0" d="M341 179l0 99 97 -7 2 -92 -99 0zm-2 103c-1,0 -1,0 -1,-1 -1,0 -1,0 -1,-1l0 -103c0,0 0,-1 0,-1 1,0 1,0 2,0l103 0c1,0 1,0 2,0 0,0 0,1 0,1l-2 96c0,1 -1,2 -2,2l-101 7c0,0 0,0 0,0z"/>
   <path class="fil0" d="M307 313c0,0 -1,-1 -1,-1 -1,-1 -1,-2 0,-3l19 -18c1,-1 2,-1 3,0 1,1 1,2 0,3l-20 18c0,0 0,1 -1,1z"/>
   <path class="fil0" d="M471 302c-1,0 -1,0 -1,0l-19 -17c-1,0 -1,-2 0,-2 0,-1 2,-1 2,-1l19 17c1,0 1,2 0,2 0,1 -1,1 -1,1z"/>
   <path class="fil0" d="M455 167c-1,0 -1,0 -2,-1 0,-1 0,-2 1,-2l19 -13c1,-1 2,-1 3,0 0,1 0,2 -1,3l-19 13c-1,0 -1,0 -1,0z"/>
   <path class="fil0" d="M327 167c0,0 0,0 -1,0l-20 -13c-1,-1 -1,-2 -1,-3 1,-1 2,-1 3,0l20 13c1,0 1,1 1,2 -1,1 -1,1 -2,1z"/>
   <path class="fil0" d="M401 356c-1,0 -1,0 -2,0 -27,0 -34,-10 -35,-11 0,-1 0,-2 1,-3 1,-1 3,-1 4,0 0,1 6,9 30,9 25,0 37,-8 38,-8 1,-1 2,-1 3,0 1,1 1,3 0,4 -1,0 -13,9 -39,9z"/>
   <path class="fil0" d="M127 422l47 4 21 -7c-6,-23 -22,-31 -36,-31 -9,0 -19,4 -25,11 -5,6 -8,14 -7,23zm48 9c-1,0 -1,0 -1,0l-50 -4c-1,-1 -2,-1 -2,-3 -1,-11 1,-21 8,-29 7,-8 18,-13 29,-13 16,0 36,10 42,38 0,1 -1,3 -2,3l-24 8c0,0 0,0 0,0z"/>
   <path class="fil0" d="M382 73c1,1 7,6 19,6l1 0c12,0 19,-5 22,-7l0 -41c-8,-5 -14,-7 -21,-7 -7,0 -14,2 -21,7l0 42zm20 10l0 0 -1 0c-16,-1 -22,-8 -22,-8 -1,-1 -1,-1 -1,-1l0 -45c0,0 1,-1 1,-1 9,-5 16,-8 24,-8 8,0 15,3 24,8 0,0 0,1 0,2l0 43c0,1 0,1 0,2 -1,0 -9,8 -25,8z"/>
   <path class="fil0" d="M307 76c-13,0 -23,9 -23,20 0,11 10,19 23,19 13,0 24,-8 24,-19 0,-11 -11,-20 -24,-20zm0 43c-15,0 -27,-10 -27,-23 0,-13 12,-23 27,-23 15,0 27,10 27,23 0,13 -12,23 -27,23z"/>
   <path class="fil0" d="M233 63l0 30 31 -4 -31 -26zm-2 34c-1,0 -1,0 -1,0 -1,-1 -1,-1 -1,-2l0 -36c0,-1 0,-2 1,-2 1,0 2,0 2,0l38 32c0,0 1,1 0,2 0,0 0,1 -1,1l-38 5c0,0 0,0 0,0z"/>
   <path class="fil0" d="M274 52c0,0 -1,-1 -1,-1l-7 -19c0,-1 0,-1 1,-2 0,0 1,0 1,1l6 15 5 -17c0,0 0,-1 1,-1l25 0c0,0 1,1 1,2 0,0 -1,1 -1,1l-24 0 -6 20c0,0 0,1 -1,1 0,0 0,0 0,0z"/>
   <path class="fil0" d="M404 35c-14,0 -24,-4 -24,-4 -1,-1 -1,-1 -1,-2 0,-1 1,-1 2,-1 0,0 22,10 44,0 1,0 1,0 2,1 0,1 0,1 -1,2 -8,3 -15,4 -22,4z"/>
   <path class="fil0" d="M380 75c0,0 -1,0 -1,-1 0,0 0,-1 0,-1 1,-1 21,-14 47,-1 1,1 1,1 1,2 -1,1 -1,1 -2,0 -25,-12 -44,1 -44,1 0,0 -1,0 -1,0z"/>
   <path class="fil0" d="M402 69c-1,0 -1,0 -1,-1 -1,0 -1,-1 -1,-34 0,-1 1,-1 2,-1 0,0 0,0 0,0 0,0 1,0 1,1 0,12 -1,31 0,33 0,0 0,0 0,1 0,0 -1,1 -1,1z"/>
   <path class="fil0" d="M332 101l-25 0c0,0 -1,-1 -1,-1l0 -25c0,-1 1,-2 1,-2 1,0 2,1 2,2l0 23 23 0c1,0 1,1 1,2 0,0 0,1 -1,1z"/>
   <path class="fil0" d="M238 84c-1,0 -1,0 -1,-1l-1 -19c0,-1 1,-1 2,-1 0,0 0,0 0,0 0,0 1,0 1,1l0 19c0,0 0,1 -1,1 0,0 0,0 0,0z"/>
   <path class="fil0" d="M320 101c-1,0 -2,-1 -2,-1 0,-5 -1,-8 -4,-11 -3,-2 -7,-2 -7,-2 0,0 -1,-1 -1,-2 0,0 0,-1 1,-1 0,0 5,0 9,4 3,2 5,6 5,12 0,0 -1,1 -1,1 0,0 0,0 0,0z"/>
   <path class="fil0" d="M171 421c0,0 0,0 0,0l-47 -4c-1,0 -2,-1 -2,-2 1,-1 1,-2 2,-2l47 4 25 -6c1,0 2,1 2,2 0,1 0,2 -1,2l-26 6c0,0 0,0 0,0z"/>
   <path class="fil0" d="M171 421c-1,0 -2,-1 -2,-2 -1,-7 -5,-13 -10,-17 -11,-7 -26,-3 -26,-3 -2,0 -3,0 -3,-2 0,-1 1,-2 2,-2 0,0 17,-4 29,4 6,4 10,11 12,20 0,1 -1,2 -2,2 0,0 0,0 0,0z"/>
   <path class="fil0" d="M177 419c0,0 -1,0 -1,-1 -4,-7 -4,-13 -2,-16 1,-2 4,-3 6,-2 5,1 9,6 12,14 0,1 -1,2 -2,2 -1,1 -2,0 -2,-1 -2,-7 -6,-11 -9,-11 -1,-1 -2,0 -2,0 -1,2 -1,6 2,13 1,1 0,2 -1,2 0,0 0,0 -1,0z"/>
   <path class="fil0" d="M178 404c0,0 -1,-1 -1,-2 -7,-16 -27,-14 -28,-14 -1,0 -2,0 -2,-1 0,-1 1,-2 2,-2 0,0 23,-3 31,16 1,1 0,2 -1,2 0,1 0,1 -1,1z"/>
   <path class="fil0" d="M342 30c0,0 0,0 -1,0l-6 -3c-1,-1 -1,-1 -1,-2 1,-1 2,-1 2,-1l7 4c0,0 0,1 0,1 0,1 -1,1 -1,1z"/>
   <path class="fil0" d="M337 31c0,0 0,0 0,0 -1,0 -1,-1 -1,-1l4 -6c0,-1 1,-1 1,-1 1,0 1,1 1,2l-3 6c-1,0 -1,0 -2,0z"/>
   <path class="fil0" d="M353 30c0,0 0,0 0,0l-6 -1c-1,0 -2,0 -2,-1 0,-1 1,-1 2,-1l6 0c1,0 1,1 1,1 0,1 0,2 -1,2z"/>
   <path class="fil0" d="M360 33l0 0c0,0 0,0 -1,0l-3 -6c0,0 0,-1 1,-1 0,-1 1,-1 2,0l1 3 3 -5c1,0 1,0 1,0l8 0c1,0 2,0 2,1 0,1 -1,1 -2,1l-7 0 -3 7c-1,0 -1,0 -2,0z"/>
   <path class="fil0" d="M337 63l0 0c-1,0 -1,0 -1,-1l-3 -5c-1,0 -1,-1 0,-2 1,0 1,0 2,1l2 3 3 -5c0,0 0,0 1,0l16 0c1,0 2,0 2,1 0,1 -1,1 -2,1l0 0 -16 0 -3 6c0,1 -1,1 -1,1z"/>
   <path class="fil0" d="M342 116c0,0 0,0 -1,-1l-3 -5c0,0 0,-1 1,-1 0,-1 1,-1 1,0l2 3 3 -5c0,-1 1,-1 1,-1l29 -5c1,0 1,0 1,1 0,1 0,1 -1,2l-28 4 -3 7c-1,1 -1,1 -1,1 -1,0 -1,0 -1,0z"/>
   <path class="fil0" d="M275 130c0,0 -1,-1 -1,-1l-3 -5c0,-1 0,-2 0,-2 1,0 2,0 2,0l2 4 3 -5c0,-1 1,-1 1,-1l8 0c1,0 1,1 1,1 0,1 0,2 -1,2l-7 0 -4 6c0,0 0,1 -1,1z"/>
   <path class="fil0" d="M318 70c-4,0 -9,0 -17,-1 -1,0 -1,0 -1,-1 0,-1 0,-1 1,-1 0,0 0,0 0,0 10,0 22,0 23,0 1,0 1,0 1,0 1,0 1,0 1,1 0,1 0,1 0,1 0,0 -1,1 -8,1z"/>
   <path class="fil0" d="M347 65c-2,0 -4,-3 -4,-4 0,-1 0,-1 1,-2 0,0 1,1 1,1 0,0 1,2 2,2 1,0 1,0 1,0 1,-1 2,-2 4,-2 3,-1 11,-1 11,-1 1,0 2,1 2,2 -1,0 -1,1 -2,1 0,0 0,0 -1,0 -2,0 -7,0 -10,0 -1,0 -2,1 -2,1 0,1 -1,2 -3,2 0,0 0,0 0,0z"/>
   <path class="fil0" d="M375 93c-4,0 -4,-5 -4,-7l0 0c-1,-2 -2,-3 -2,-3 -1,0 -1,-1 -1,-1 0,-1 1,-1 2,-1 0,0 3,2 3,5l0 0c0,3 1,5 2,5l0 0c0,-1 1,-2 1,-2 0,-3 1,-7 7,-7 0,0 0,0 0,0 1,0 1,0 1,1 0,1 0,1 -1,1 0,0 0,0 0,0 -3,0 -4,2 -5,5 0,2 -1,4 -3,4 0,0 0,0 0,0z"/>
   <path class="fil0" d="M350 90c0,0 -1,0 -1,0 -1,0 -1,-1 -1,-2 -1,0 -1,-1 -2,-2 0,0 0,0 0,0 0,0 0,0 0,1 -1,1 -2,3 -5,3 -1,0 -2,0 -3,-1 -2,-2 -1,-7 -1,-9 0,0 1,-1 2,-1 0,0 1,1 1,2 -1,2 -1,6 0,7 0,0 1,0 1,0 1,0 2,-2 3,-3 0,-1 1,-2 2,-2 0,0 0,0 0,0 2,0 2,1 2,1 1,2 2,3 2,3 0,0 0,1 0,1 0,0 0,0 0,0 1,0 1,-1 2,-1 0,-1 1,-2 3,-2 1,0 2,0 2,1 1,1 1,1 0,2 0,0 -1,0 -2,0 0,-1 0,-1 0,-1l0 0c-1,0 -1,1 -2,1 0,1 -1,2 -2,2 0,0 -1,0 -1,0z"/>
   <path class="fil0" d="M354 116c0,0 0,0 -1,0 -1,-1 -2,-4 -2,-5 0,-1 1,-2 1,-2 1,0 2,1 2,1 0,2 0,3 0,3 1,0 1,-1 1,-1 1,-1 2,-2 3,-2 0,0 1,0 1,0 1,1 1,1 1,1 1,1 1,1 2,1 1,0 2,-1 3,-2 2,-1 4,-2 6,-1 0,0 1,1 0,2 0,0 -1,1 -1,0 -1,0 -2,1 -4,2 -1,0 -2,1 -4,1 -2,1 -3,0 -4,-1 0,0 0,0 0,-1 0,1 0,1 0,1 -1,1 -2,2 -3,3 0,0 0,0 -1,0z"/>
   <path class="fil0" d="M307 91c0,0 0,0 -1,0l-11 -13c0,-1 0,-2 0,-2 1,-1 2,-1 2,0l11 13c1,1 1,1 0,2 0,0 0,0 -1,0z"/>
   <path class="fil0" d="M174 228l10 0c0,-3 -1,-6 -2,-6l0 0c-2,0 -6,3 -8,6zm12 4l-15 0c-1,0 -1,0 -2,0 0,-1 0,-1 0,-2 1,-5 8,-12 13,-12 1,0 1,0 1,0 5,2 5,10 4,12 0,1 0,2 -1,2z"/>
   <path class="fil0" d="M286 47c-1,0 -1,0 -1,0 -1,-1 -1,-2 0,-2 2,-1 8,-5 10,-3 1,1 2,1 2,2 0,0 1,1 4,0 2,0 4,-1 5,-1 2,-1 4,-2 7,-1 3,2 8,1 10,0 2,-1 3,-2 4,-1 1,0 2,1 2,2 0,0 0,1 -1,1 0,1 -1,0 -1,0 0,-1 -1,-1 -1,-1 0,0 0,0 -2,1 -1,1 -8,3 -12,1 -2,-1 -3,-1 -5,0 -1,1 -3,1 -5,2 -5,0 -6,0 -7,-2 0,0 -1,-1 -1,-1 -1,-1 -4,1 -8,3 0,0 0,0 0,0z"/>
   <path class="fil0" d="M307 63c-1,0 -1,0 -2,-1 0,0 0,-1 -2,-1 -2,-1 -2,-1 -3,-1 0,1 -2,2 -4,2 -3,1 -4,1 -5,-1 -1,0 -1,-1 -2,-1 0,-1 0,-1 -1,-1 0,1 -1,1 -1,2 0,0 -1,1 -2,0 0,0 -1,-1 0,-1 0,-1 1,-3 3,-3 1,0 2,0 3,1 1,1 1,1 2,2 0,0 0,0 0,0 0,0 1,0 3,0 2,-1 2,-1 3,-2 1,-1 2,-1 5,0 2,1 3,2 3,3 0,0 0,0 0,0 0,0 1,0 2,-1 2,0 3,-1 4,-1 2,-1 3,-1 5,-1 1,0 1,1 1,2 0,0 -1,1 -1,1 -2,-1 -2,0 -4,0 -1,1 -2,1 -4,2 -1,0 -2,0 -3,0z"/>
   <path class="fil0" d="M260 62c0,0 0,0 0,0 -2,-1 -2,-1 -2,-3 0,0 0,0 -1,-1 0,0 0,0 0,0 -1,0 -2,1 -3,1 -2,1 -3,1 -4,0 -1,-1 -1,-2 -1,-3 0,0 0,0 0,-1 0,0 0,-1 0,-1 1,-1 2,-1 2,0 0,0 0,1 1,2 0,0 0,1 0,1 0,0 0,0 1,0 1,0 2,-1 2,-1 2,-1 3,-1 4,0 1,1 1,3 1,3 0,0 0,0 1,0 0,0 1,1 1,2 0,0 -1,1 -2,1z"/>
   <path class="fil0" d="M244 95c0,0 -1,-1 -1,-1 -1,-11 -12,-11 -12,-11l0 0c-1,0 -1,0 -1,-1 0,-1 0,-1 1,-1 0,0 13,0 15,12 0,1 -1,2 -2,2 0,0 0,0 0,0z"/>
   <path class="fil1" d="M129 186c0,0 5,-11 5,-20 -1,-10 4,-24 30,-26 27,-3 39,8 42,19 3,11 6,16 8,17 3,1 3,1 3,1 0,0 -4,-26 -14,-36 -11,-9 -31,-10 -43,-8 -13,2 -39,4 -31,53z"/>
   <path class="fil1" d="M152 173c2,0 4,3 4,6 0,4 -1,6 -3,6 -2,0 -4,-2 -4,-6 0,-3 1,-6 3,-6z"/>
   <path class="fil1" d="M191 171c2,0 3,3 4,6 0,4 -1,6 -3,6 -2,0 -4,-2 -4,-6 -1,-3 1,-6 3,-6z"/>
  </g>
 </g>
</svg>
