<?xml version="1.0" encoding="UTF-8"?>
<!DOCTYPE svg PUBLIC "-//W3C//DTD SVG 1.1//EN" "http://www.w3.org/Graphics/SVG/1.1/DTD/svg11.dtd">
<!-- Creator: CorelDRAW X7 -->
<svg xmlns="http://www.w3.org/2000/svg" xml:space="preserve" width="101.571mm" height="59.6872mm" version="1.1" style="shape-rendering:geometricPrecision; text-rendering:geometricPrecision; image-rendering:optimizeQuality; fill-rule:evenodd; clip-rule:evenodd"
viewBox="0 0 423 249"
 xmlns:xlink="http://www.w3.org/1999/xlink">
 <defs>
  <style type="text/css">
   <![CDATA[
    .fil1 {fill:black}
    .fil0 {fill:black;fill-rule:nonzero}
   ]]>
  </style>
 </defs>
 <g id="Layer_x0020_1">
  <metadata id="CorelCorpID_0Corel-Layer"/>
  <g id="_970278928">
   <path class="fil0" d="M29 237c0,0 -1,0 -1,0 -1,0 -2,-1 -1,-2l10 -96c0,-1 1,-2 2,-2 1,0 2,1 2,2l-10 96c0,1 -1,2 -2,2z"/>
   <path class="fil0" d="M246 239c0,0 0,-1 0,-1 -2,0 -2,-1 -1,-2 0,0 3,-7 0,-12 -2,-4 -2,-7 -4,-18 0,-5 -1,-11 -2,-19 -3,-19 -10,-32 -16,-42 -2,-3 -4,-6 -5,-8 -2,-4 2,-10 8,-17l2 -3c10,-13 24,-32 15,-50 -13,-28 -63,-31 -64,-31 -1,0 -1,-1 -2,-1 0,-1 0,-1 0,-2l0 -1 -5 -2 -2 2c-1,1 -2,1 -2,1 -3,-1 -9,-2 -11,-2 -1,0 -1,0 -2,-1 -10,-15 -30,-17 -45,-14 -12,3 -21,9 -22,15 0,0 -1,1 -1,1 -8,4 -13,9 -13,9 0,1 -1,1 -2,1 0,0 -1,-1 -1,-1l-1 -1 -3 1 0 3c0,1 -1,2 -1,2 -1,0 -62,25 -62,53 0,27 59,49 60,49 1,0 1,1 1,2 0,0 0,1 0,1 -17,22 -16,83 -16,83 0,1 -1,2 -2,2 -1,0 -2,-1 -2,-2 0,-2 -2,-59 15,-83 -12,-5 -60,-25 -60,-52 0,-28 53,-52 63,-56l0 -3c0,-1 0,-1 1,-2l5 -3c1,-1 2,0 3,1l1 1c2,-2 6,-5 11,-8 2,-7 12,-14 25,-17 16,-3 38,-1 49,15 2,0 7,1 9,2l2 -2c1,-1 2,-1 2,-1l10 2c0,0 1,1 1,1 0,1 0,1 0,2l0 1c11,1 52,6 65,33 10,20 -5,40 -16,55l-2 2c-3,4 -8,11 -7,13 1,2 3,5 5,8 5,10 13,24 16,44 1,8 2,14 2,18 2,11 2,14 4,18 3,6 -1,14 -1,14 0,1 -1,2 -2,2z"/>
   <path class="fil0" d="M43 57c-1,0 -1,0 -1,0 -1,0 -2,-1 -2,-2 0,-1 1,-12 11,-24 8,-11 26,-25 63,-29 67,-8 83,7 89,35 0,1 -1,2 -2,2 -1,0 -2,-1 -3,-2 -4,-21 -13,-39 -84,-31 -67,8 -69,49 -69,49 0,1 -1,2 -2,2z"/>
   <path class="fil0" d="M233 163c-1,0 -2,-1 -2,-2l-7 -38c0,-1 1,-2 2,-2 1,0 2,0 2,1l7 38c1,1 0,2 -1,3 0,0 -1,0 -1,0z"/>
   <path class="fil0" d="M361 166l-127 0c-1,0 -2,-1 -2,-3 0,-1 1,-2 2,-2l125 0 0 -128 -160 0c-1,0 -2,-1 -2,-2 0,-1 1,-2 2,-2l162 0c1,0 2,1 2,2l0 132c0,2 -1,3 -2,3z"/>
   <path class="fil0" d="M421 219l-176 0c-1,0 -2,-1 -2,-2 0,-2 1,-3 2,-3l174 0 0 -25 -178 0c-1,0 -2,-1 -2,-2 0,-1 1,-2 2,-2l180 0c1,0 2,1 2,2l0 30c0,1 -1,2 -2,2z"/>
   <path class="fil0" d="M25 244l220 0 0 -7 -219 0 -1 7zm222 5l-224 0c-1,0 -1,-1 -2,-1 0,0 0,-1 0,-2l1 -11c0,-1 1,-2 2,-2l223 0c1,0 2,1 2,2l0 12c0,1 -1,2 -2,2z"/>
   <path class="fil0" d="M301 189c-1,0 -2,0 -2,-1l-2 -7 -58 0c-1,0 -2,-1 -2,-3 0,-1 1,-2 2,-2l59 0c1,0 2,1 2,2l3 8c0,1 0,3 -1,3 -1,0 -1,0 -1,0z"/>
   <path class="fil0" d="M249 181c0,0 0,0 0,0 -2,-1 -2,-2 -2,-3l1 -15c0,-1 1,-2 2,-2 1,0 2,1 2,3l-1 15c0,1 -1,2 -2,2z"/>
   <path class="fil0" d="M276 181c0,0 0,0 0,0 -1,-1 -2,-1 -2,-3l1 -15c0,-1 1,-2 2,-2 1,0 2,1 2,3l-1 15c0,1 -1,2 -2,2z"/>
   <path class="fil0" d="M230 154c0,0 -1,0 -1,0 0,-1 0,-2 1,-2 0,-1 1,-1 116,-1l0 -105 -124 0c-1,0 -2,-1 -2,-2 0,-1 1,-1 2,-1l126 0c1,0 1,0 1,1l0 109c0,0 0,1 0,1 -1,0 -1,0 -1,0l0 0c-32,0 -114,0 -117,0 0,0 0,0 -1,0z"/>
   <path class="fil0" d="M421 211l-177 0c-1,0 -2,-1 -2,-1 0,-1 1,-2 2,-2l177 0c1,0 2,1 2,2 0,0 -1,1 -2,1z"/>
   <path class="fil0" d="M92 237c0,0 -1,0 -1,0 -1,-1 -1,-1 -1,-2l14 -36c0,0 1,-1 1,-1l92 -18c0,-1 1,0 1,0 1,2 28,35 29,55 0,1 -1,2 -1,2 -1,0 -2,-1 -2,-2 -1,-17 -24,-47 -28,-52l-89 18 -14 35c0,0 -1,1 -1,1z"/>
   <path class="fil0" d="M129 123c-15,0 -24,-7 -25,-8 -12,-7 -19,-22 -21,-47 0,-1 0,-2 0,-3 -1,-18 1,-35 1,-35 0,-1 1,-1 2,-1 1,0 2,1 1,2 0,0 -2,16 -1,34 0,1 0,2 0,3 1,16 6,37 20,44 0,0 0,0 0,0 0,0 9,8 23,8 14,0 18,-10 18,-10 0,-1 1,-1 1,-1 1,0 12,-4 14,-26 3,-23 -5,-50 -8,-55 0,-1 0,-2 1,-2 1,-1 2,0 2,0 3,5 11,32 9,57 -3,22 -13,28 -16,29 -2,2 -7,11 -21,11 0,0 0,0 0,0z"/>
   <path class="fil0" d="M56 93c-8,0 -8,-1 -9,-2 0,-1 -1,-3 25,-31 1,0 2,0 2,0l1 1 3 -2 0 -1c0,-1 0,-2 1,-2l4 -3c1,-1 2,-1 2,0 1,1 1,2 0,2l-4 3 1 1c0,1 0,1 -1,2l-5 3c0,1 -1,1 -2,0l-1 0c-9,10 -19,21 -22,25 5,1 22,0 37,-1 1,0 2,0 2,1 0,1 -1,2 -2,2 -16,1 -26,2 -32,2z"/>
   <path class="fil0" d="M162 93c0,0 -1,0 -1,-1 0,-1 0,-2 1,-2 14,-1 38,-12 38,-16 1,-3 -11,-11 -23,-18l0 2c0,0 0,1 -1,1 0,0 -1,0 -1,0l-9 -2c0,-1 -1,-2 -1,-2l1 -1 -4 -1c-1,0 -1,-1 -1,-2 0,-1 1,-1 2,-1l5 1c0,0 1,0 1,1 0,0 0,1 0,1l0 1 5 2 1 -2c0,-1 0,-1 1,-1 0,0 1,0 1,0 6,3 27,14 26,21 -1,8 -30,18 -40,19 0,0 0,0 -1,0z"/>
   <path class="fil0" d="M73 63c0,0 -1,0 -1,-1l-9 -17c0,-1 0,-2 1,-2 1,-1 2,-1 2,0l9 18c0,1 0,2 -1,2 0,0 0,0 -1,0z"/>
   <path class="fil0" d="M80 59c-1,0 -2,-1 -2,-1l-7 -18c0,0 0,-1 1,-2 1,0 2,0 2,1l7 18c0,0 0,1 -1,2 0,0 0,0 0,0z"/>
   <path class="fil0" d="M167 54c0,0 0,0 0,0 -1,0 -1,-1 -1,-1l1 -23c0,-1 1,-1 2,-1 1,0 1,1 1,2l-1 22c0,1 -1,1 -2,1z"/>
   <path class="fil0" d="M176 56c0,0 0,0 0,0 -1,0 -2,-1 -1,-1l3 -22c0,-1 1,-2 2,-2 0,1 1,1 1,2l-3 22c-1,1 -1,1 -2,1z"/>
   <path class="fil0" d="M326 189c0,0 0,0 0,0 -1,-1 -1,-1 -1,-2 2,-12 11,-16 19,-16l0 0c9,0 20,6 22,16 0,1 0,1 -1,2 -1,0 -2,-1 -2,-2 -1,-8 -11,-13 -19,-13l0 0c-9,0 -15,5 -16,13 0,1 -1,2 -2,2z"/>
   <path class="fil0" d="M363 184c0,0 0,0 0,0l-35 -2c0,0 -1,-1 -1,-1 0,-1 1,-2 2,-2l34 1c1,0 1,1 1,2 0,1 -1,2 -1,2z"/>
   <path class="fil0" d="M353 183c0,0 -1,0 -1,-1l-4 -8c0,-1 0,-2 1,-2 1,-1 2,0 2,1l4 8c0,1 0,2 -1,2 0,0 0,0 -1,0z"/>
   <path class="fil0" d="M132 146c-9,0 -17,-2 -25,-5 -19,-9 -29,-28 -28,-51 0,-1 0,-2 1,-2 1,0 2,1 2,2 -1,30 16,43 26,48 19,8 42,6 56,-6 12,-10 15,-25 9,-43 0,-1 0,-1 1,-2 1,0 2,1 2,1 6,19 3,35 -10,46 -9,8 -21,12 -34,12z"/>
   <path class="fil0" d="M132 146c-1,0 -1,0 -1,0 -8,-5 -26,-31 -27,-32 -1,0 -1,-1 0,-2 1,0 2,0 2,1 1,0 19,25 27,30 0,1 1,2 0,2 0,1 -1,1 -1,1z"/>
   <path class="fil0" d="M132 146c0,0 0,0 -1,-1 0,0 0,-1 0,-2 17,-13 22,-36 22,-37 0,0 1,-1 2,-1 1,0 1,1 1,2 0,1 -5,25 -23,39 0,0 0,0 -1,0z"/>
   <path class="fil0" d="M92 54c0,0 0,0 0,0 -1,0 -1,-1 -1,-2 0,-1 2,-12 15,-15 1,0 2,1 2,2 0,1 0,1 -1,2 -11,2 -13,11 -13,11 0,1 -1,2 -2,2z"/>
   <path class="fil0" d="M147 46c-1,0 -1,-1 -1,-1 -3,-8 -13,-7 -14,-7 0,0 -1,0 -1,-1 0,-1 0,-2 1,-2 1,0 13,-1 17,9 0,0 -1,1 -1,2 -1,0 -1,0 -1,0z"/>
   <path class="fil0" d="M101 71c-6,0 -9,-4 -9,-4 0,-1 0,-2 1,-2 0,-1 1,-1 2,0 0,0 2,4 7,3 5,0 5,-4 5,-4 0,-1 1,-2 2,-2 1,0 1,1 1,2 0,2 -1,6 -7,7 -1,0 -2,0 -2,0z"/>
   <path class="fil0" d="M140 65c0,0 0,0 0,0 -6,-1 -9,-6 -9,-6 0,-1 0,-1 1,-2 0,0 1,0 2,1 0,0 2,3 6,3 3,1 5,-2 5,-2 0,-1 1,-1 2,-1 1,1 1,1 1,2 -1,0 -3,5 -8,5z"/>
   <path class="fil0" d="M123 85c-1,0 -4,-1 -7,-3 -4,-3 -2,-7 -1,-9 1,-1 1,-5 1,-7 -1,0 0,-1 1,-1 1,0 2,0 2,1 0,1 0,6 -1,9 -2,2 -2,3 0,4 3,3 6,3 6,2 1,0 6,-4 6,-6 0,-1 -1,-2 -2,-2 0,-1 0,-2 0,-3 1,0 2,0 3,0 0,1 2,3 3,5 0,2 -8,9 -9,9 0,0 -1,1 -2,1z"/>
   <path class="fil0" d="M82 87c-3,0 -6,-1 -8,-5 -3,-5 -3,-14 1,-17 2,-1 3,-1 5,-1 3,0 5,3 6,4 0,1 0,2 -1,3 -1,0 -2,0 -3,-1 0,0 -2,-3 -5,-1 -1,0 -2,7 1,11 1,3 4,4 7,2 2,0 3,1 3,2 1,1 0,2 -1,2 -2,1 -3,1 -5,1z"/>
   <path class="fil0" d="M170 80c-2,0 -3,0 -5,-1 -2,0 -2,-2 -2,-3 1,-1 2,-1 3,-1 5,2 6,0 7,-1 2,-4 0,-12 -2,-13 -1,0 -2,0 -3,0 -1,0 -2,2 -2,2 0,1 -1,1 -2,1 -1,-1 -2,-2 -1,-3 0,-1 1,-3 4,-4 2,-1 4,-1 6,1 4,2 6,12 4,18 -1,1 -3,4 -7,4z"/>
   <path class="fil0" d="M112 120c0,0 -1,0 -1,0 0,-1 -9,-5 -8,-18 1,-10 2,-13 2,-13 1,-1 1,-1 2,-2l37 -5c1,0 1,0 2,1 0,1 9,19 4,29 -1,1 -2,2 -3,1 -1,0 -1,-1 -1,-2 3,-7 -1,-19 -3,-25l-34 5c0,2 -1,5 -2,12 -1,9 6,13 6,13 1,0 1,2 1,3 -1,0 -1,1 -2,1z"/>
   <path class="fil0" d="M125 97c-12,0 -19,-6 -19,-6 0,-1 0,-2 0,-3 1,0 2,0 2,0 0,1 7,6 17,6 11,0 18,-11 18,-11 0,0 1,-1 2,0 1,0 1,1 0,2 0,1 -8,12 -20,12 0,0 0,0 0,0z"/>
   <path class="fil1" d="M84 66c0,0 3,-4 3,-9 0,-5 2,-25 6,-28 4,-3 42,-13 53,-3 10,10 14,27 15,28 1,2 2,2 2,2 0,0 0,-36 -25,-41 -26,-5 -51,8 -52,15 -1,8 -2,36 -2,36z"/>
   <polygon class="fil1" points="236,53 263,53 263,59 236,59 "/>
   <path class="fil0" d="M246 71l27 0 0 -6 -27 0 0 6zm27 0l-27 0c0,0 0,0 0,0l0 -6c0,0 0,0 0,0l27 0c0,0 0,0 0,0l0 6c0,0 0,0 0,0z"/>
   <path class="fil0" d="M277 71l42 0 0 -6 -42 0 0 6zm42 0l-42 0c0,0 0,0 0,0l0 -6c0,0 0,0 0,0l42 0c0,0 0,0 0,0l0 6c0,0 0,0 0,0z"/>
   <polygon class="fil1" points="246,65 273,65 273,71 246,71 "/>
   <polygon class="fil1" points="277,65 319,65 319,71 277,71 "/>
   <polygon class="fil1" points="246,76 273,76 273,83 246,83 "/>
   <polygon class="fil1" points="277,76 294,76 294,83 277,83 "/>
   <polygon class="fil1" points="246,88 266,88 266,94 246,94 "/>
   <polygon class="fil1" points="269,88 281,88 281,94 269,94 "/>
   <polygon class="fil1" points="287,88 330,88 330,94 287,94 "/>
   <polygon class="fil1" points="241,98 258,98 258,105 241,105 "/>
   <polygon class="fil1" points="234,109 266,109 266,115 234,115 "/>
   <polygon class="fil1" points="227,119 253,119 253,126 227,126 "/>
   <polygon class="fil1" points="258,119 292,119 292,126 258,126 "/>
   <polygon class="fil1" points="228,131 262,131 262,137 228,137 "/>
   <path class="fil0" d="M244 150c-1,0 -1,0 -1,0 -1,-1 0,-2 0,-2l4 -4 -4 -3c0,-1 0,-1 0,-2 0,0 1,0 2,0l5 5 -6 6c0,0 0,0 0,0z"/>
   <path class="fil0" d="M232 150c0,0 0,0 0,0 -1,-1 -1,-1 0,-2l7 -10c1,0 1,0 2,0 0,1 0,1 0,2l-8 9c0,1 0,1 -1,1z"/>
   <path class="fil0" d="M266 61c0,0 0,0 0,0 -1,0 -1,-1 0,-1l4 -4 -4 -4c0,0 0,-1 0,-1 0,-1 1,-1 1,0l6 5 -6 5c0,0 0,0 -1,0z"/>
  </g>
 </g>
</svg>
