<?xml version="1.0" encoding="UTF-8"?>
<!DOCTYPE svg PUBLIC "-//W3C//DTD SVG 1.1//EN" "http://www.w3.org/Graphics/SVG/1.1/DTD/svg11.dtd">
<!-- Creator: CorelDRAW X7 -->
<svg xmlns="http://www.w3.org/2000/svg" xml:space="preserve" width="103.832mm" height="56.6415mm" version="1.1" style="shape-rendering:geometricPrecision; text-rendering:geometricPrecision; image-rendering:optimizeQuality; fill-rule:evenodd; clip-rule:evenodd"
viewBox="0 0 519 283"
 xmlns:xlink="http://www.w3.org/1999/xlink">
 <defs>
  <style type="text/css">
   <![CDATA[
    .fil1 {fill:black}
    .fil0 {fill:black;fill-rule:nonzero}
   ]]>
  </style>
 </defs>
 <g id="Layer_x0020_1">
  <metadata id="CorelCorpID_0Corel-Layer"/>
  <g id="_1042368176">
   <path class="fil0" d="M101 260c-2,0 -3,-1 -3,-3l0 -98c0,-1 1,-2 3,-2l41 0c2,0 3,1 3,2l0 97c0,1 -1,2 -3,2 -1,0 -2,-1 -2,-2l0 -94 -37 0 0 95c0,2 -1,3 -2,3z"/>
   <path class="fil0" d="M76 275c6,1 26,3 37,3 12,0 38,-6 46,-7 -3,-11 -15,-11 -16,-11l-42 0c-18,1 -24,5 -25,7l0 8zm37 8c-14,0 -39,-3 -40,-3 -1,0 -2,-2 -2,-3l0 -11c0,0 0,-1 0,-1 1,-1 5,-9 30,-10l42 0 0 0c7,0 20,3 21,17 0,1 0,3 -2,3 -1,0 -34,8 -49,8z"/>
   <path class="fil0" d="M101 214l-29 0c-1,0 -1,0 -2,-1l-15 -15c-1,-1 -1,-1 -1,-2l0 -142c0,-1 0,-1 0,-2l14 -24c0,0 1,-1 2,-1l137 -27c1,0 2,0 2,1 1,0 1,1 1,2l-1 207c0,1 0,1 0,2 -1,0 -2,1 -2,1l-65 -1c-1,0 -2,-1 -2,-3 0,-1 1,-2 2,-2l62 1 1 -202 -133 26 -13 22 0 141 14 14 28 0c1,0 2,1 2,3 0,1 -1,2 -2,2z"/>
   <path class="fil0" d="M247 266l0 7 65 -2 0 -8c-1,-2 -7,-26 -33,-24 -26,1 -32,24 -32,27zm-3 12c0,0 -1,0 -1,-1 -1,0 -1,-1 -1,-2l0 -10c0,0 0,0 0,0 0,0 6,-30 37,-31 31,-2 38,28 38,29 0,0 0,0 0,0l0 10c0,1 -1,3 -3,3l-70 2c0,0 0,0 0,0z"/>
   <path class="fil0" d="M362 267c0,0 0,0 0,0 -5,0 -7,-1 -9,-3 -2,1 -5,1 -9,-1 -2,-2 -3,-4 -4,-6 -2,1 -5,2 -8,2 -1,0 -4,-1 -4,-7 -1,-8 5,-27 25,-30 19,-4 29,-3 33,-2l18 -13c1,-2 9,-11 20,-11 6,0 12,0 16,0l-17 -19c-1,-1 -1,-2 0,-3 1,-1 3,-1 4,0l21 23c1,0 1,1 1,2 -1,1 -2,2 -3,2 0,0 -12,0 -22,0 -9,0 -16,9 -16,9 0,0 -1,1 -1,1l-19 14c-1,0 -2,0 -3,0 0,0 -9,-3 -31,2 -13,2 -18,11 -20,16 -2,6 -2,10 -1,11 4,0 7,-3 7,-3 1,0 2,0 3,0 1,0 1,1 1,2 0,1 0,4 3,5 3,2 7,1 7,1 1,0 2,1 3,2 0,0 1,1 5,1 4,0 13,-6 17,-10 1,0 1,-1 2,-1l15 -1c0,0 0,0 0,0l25 2c37,-5 62,-18 59,-63 -3,-47 -40,-57 -41,-57 0,0 -1,0 -1,0 -12,-15 -32,-16 -33,-16 -1,0 -2,-1 -2,-3l0 -12c0,-1 1,-2 2,-3 5,-1 10,-8 11,-14 1,-4 1,-7 0,-7 -3,-3 -9,2 -9,2 -1,0 -2,0 -3,0 -1,0 -1,-1 -1,-2 0,0 0,-17 -8,-36 -12,-27 -36,-36 -74,-27 -12,3 -21,10 -27,19 -12,21 -4,51 -4,51 0,1 0,2 -1,2 -1,1 -2,1 -3,1 -1,0 -5,-1 -7,0 -2,1 -2,3 -3,6 -1,10 6,18 6,18 0,0 1,1 0,2 0,1 0,1 -1,2 -9,5 -8,21 -8,21 0,1 0,1 -1,2 0,0 -53,54 -52,83 2,27 28,31 29,32 1,0 2,1 2,2 0,2 -2,3 -3,3 0,-1 -31,-5 -33,-37 -1,-29 46,-79 53,-86 0,-4 0,-17 8,-23 -2,-4 -5,-11 -5,-20 1,-4 2,-7 5,-9 2,-1 6,-2 8,-1 -2,-10 -5,-33 6,-51 6,-11 16,-18 30,-22 40,-10 67,0 79,30 6,15 8,27 9,33 3,-2 8,-2 11,1 3,2 3,7 2,12 -2,7 -6,15 -13,18l0 8c6,1 22,4 33,17 6,2 41,14 44,60 3,53 -29,64 -63,69 -1,0 -1,0 -1,0l-25 -2 -14 1c-3,3 -13,11 -20,11z"/>
   <path class="fil0" d="M303 247c-1,0 -2,-1 -2,-2 0,-2 1,-3 2,-3 0,0 20,-4 43,-42l1 -11c-2,-8 -5,-17 -6,-19 -1,0 -1,-1 -1,-1 0,-1 0,-2 0,-2 1,-1 3,-4 3,-5 0,0 -1,0 -1,0 0,-1 -2,-1 -3,-2 -6,-2 -16,-5 -23,-20 -3,-6 -5,-11 -6,-14 -3,-7 -4,-10 -6,-10 -1,0 -1,0 -2,1 0,0 0,1 0,2 0,1 0,2 -1,2 -1,1 -2,1 -3,0 0,0 -3,-2 -6,0 -2,1 -1,4 -1,4 0,1 -1,3 -2,3 0,0 -5,2 -5,5 0,5 4,24 20,38 2,2 5,5 3,10 -2,3 -5,7 -6,8l-1 2c0,1 -1,2 -2,2 -1,1 -31,5 -39,35 0,1 -1,2 -3,1 -1,0 -2,-1 -1,-3 7,-28 33,-36 41,-37l0 -1c0,-1 0,-2 0,-2 1,0 4,-4 6,-7 1,-2 0,-3 0,-3 -1,0 -1,-1 -1,-1 -18,-16 -22,-37 -22,-42 0,-5 4,-8 7,-9 -1,-3 0,-6 4,-8 3,-1 6,-1 8,-1 0,0 0,-1 1,-2 1,-1 2,-2 5,-2 5,0 7,5 10,13 2,4 4,8 7,14 5,13 14,16 19,17 3,1 4,2 5,3 2,1 2,2 3,4 0,2 -2,5 -3,6 3,5 6,15 7,20 0,0 0,0 0,1l-1 12c0,0 0,0 0,1 -25,41 -46,45 -47,45 0,0 0,0 -1,0z"/>
   <path class="fil0" d="M130 259c-1,0 -2,-1 -2,-2l0 -98c0,-1 1,-2 2,-2 1,0 2,1 2,2l0 98c0,1 -1,2 -2,2z"/>
   <path class="fil0" d="M108 273c-20,0 -35,-4 -35,-4 -1,-1 -2,-2 -2,-3 1,-1 2,-1 3,-1 0,0 18,6 41,5 24,-2 45,-5 45,-5 1,-1 2,0 2,1 0,1 -1,2 -2,2 0,0 -20,4 -44,5 -3,0 -5,0 -8,0z"/>
   <path class="fil0" d="M177 39c0,0 -1,-1 -1,-1 -1,-1 -1,-2 0,-2l30 -35c1,-1 2,-1 3,0 1,1 1,2 0,3l-31 34c0,0 0,1 -1,1z"/>
   <path class="fil0" d="M56 197c0,0 -1,0 -1,-1 0,0 -1,-1 -1,-1l0 -139c0,-1 1,-2 2,-2l121 -19c0,0 1,0 1,0 1,1 1,1 1,2l0 153c0,1 -1,2 -2,2l-35 0c-1,0 -2,-1 -2,-2 0,-1 1,-2 2,-2l33 0 0 -149 -117 19 0 135 43 -4c1,-1 2,0 2,1 0,1 -1,2 -2,2l-44 5c-1,0 -1,0 -1,0z"/>
   <path class="fil0" d="M207 212c-1,0 -1,0 -1,0l-30 -21c-1,0 -1,-1 0,-2 0,-1 1,-1 2,-1l30 21c1,0 1,1 0,2 0,1 -1,1 -1,1z"/>
   <path class="fil0" d="M314 267l-70 0c-1,0 -2,-1 -2,-2 0,-1 1,-2 2,-2l70 0c1,0 2,1 2,2 0,1 -1,2 -2,2z"/>
   <path class="fil0" d="M255 267c0,0 0,0 -1,0 0,0 -1,-1 -1,-2 11,-29 27,-31 28,-31 1,0 2,1 2,2 0,1 -1,2 -2,2 0,0 -14,2 -24,28 0,1 -1,1 -2,1z"/>
   <path class="fil0" d="M311 256l-33 0c0,0 0,0 -1,-1l-7 -5c-1,0 -1,0 -1,-1 0,0 0,-1 0,-1 0,-1 10,-15 27,-11 1,0 2,1 1,2 0,1 -1,2 -2,2 -11,-3 -19,4 -22,7l6 4 32 0c1,0 1,1 1,2 0,1 0,2 -1,2z"/>
   <path class="fil0" d="M393 255c0,0 0,0 0,0 -1,-1 -2,-2 -2,-3 4,-22 -6,-27 -6,-28 -1,0 -1,-1 -1,-2 1,-1 2,-1 3,-1 1,0 12,7 8,32 0,1 -1,2 -2,2z"/>
   <path class="fil0" d="M421 256c0,0 0,0 0,0 -1,0 -2,-1 -2,-2 9,-33 -13,-45 -13,-45 -1,0 -1,-1 -1,-2 0,-1 2,-2 3,-1 0,0 24,13 15,49 0,1 -1,1 -2,1z"/>
   <path class="fil0" d="M342 256c-1,0 -1,0 -1,0 -1,-1 -2,-2 -1,-3 0,0 5,-17 24,-19 1,0 2,1 2,2 0,1 -1,2 -2,2 -16,1 -21,16 -21,16 0,1 -1,2 -1,2z"/>
   <path class="fil0" d="M354 264c0,0 0,0 0,0 -1,-1 -2,-2 -1,-3 0,0 7,-18 21,-23 1,0 2,1 2,2 1,1 0,2 -1,2 -12,4 -19,21 -19,21 0,0 -1,1 -2,1z"/>
   <path class="fil0" d="M377 259c-1,0 -1,0 -1,0 -1,0 -1,-2 -1,-2 1,-2 7,-9 10,-12 1,-1 2,-1 3,0 0,0 0,1 0,2 -5,5 -9,10 -10,11 0,1 -1,1 -1,1z"/>
   <path class="fil0" d="M312 179c-3,0 -5,-1 -8,-1 -1,0 -1,-1 -1,-2 0,-1 1,-2 2,-2 19,3 36,-8 37,-8 1,0 2,0 2,1 1,1 1,2 0,2 -1,1 -15,10 -32,10z"/>
   <path class="fil0" d="M333 201c-18,0 -31,-6 -35,-9 -1,-1 -2,-2 -2,-2 0,-2 1,-2 2,-2 1,-1 1,0 2,1 2,1 21,12 49,6 1,0 2,1 2,2 0,1 0,2 -1,2 -6,1 -12,2 -17,2z"/>
   <path class="fil0" d="M304 51c-1,0 -2,-1 -2,-2 0,0 0,-4 4,-7 2,-3 7,-4 12,-4 1,0 2,1 2,2 0,1 -1,1 -2,1 -4,0 -8,1 -10,3 -2,3 -2,5 -2,5 0,1 -1,2 -2,2 0,0 0,0 0,0z"/>
   <path class="fil0" d="M364 47c-6,0 -11,-3 -12,-3 -1,0 -1,-1 -1,-2 1,-1 2,-2 3,-1 0,0 8,3 14,2 5,-2 7,-3 7,-3 0,-1 1,-1 2,-1 1,1 2,2 1,3 0,0 -2,2 -9,4 -1,1 -3,1 -5,1z"/>
   <path class="fil0" d="M344 111c-1,0 -3,0 -5,-1 -3,-2 -7,-5 -8,-9 0,-2 1,-3 2,-5 3,-3 3,-11 2,-14 0,-1 1,-2 2,-2 1,0 2,0 2,1 0,2 2,12 -3,17 -1,2 -1,3 -1,3 0,1 2,3 6,6 3,1 6,0 9,-2l0 0c3,-2 6,-5 5,-8 -1,-1 0,-2 1,-2 1,-1 2,-1 2,0 3,5 -2,11 -6,13l0 0c-2,2 -5,3 -8,3z"/>
   <path class="fil0" d="M358 155c-1,0 -3,-1 -5,-1 -2,-1 -5,-1 -8,0 -7,0 -15,1 -22,-8 -3,-3 -4,-8 -3,-12 3,-9 13,-16 23,-20 1,0 2,1 3,2 0,1 0,3 -2,3 -8,3 -17,10 -19,16 -1,3 0,6 2,8 6,6 11,6 17,6 4,-1 7,-1 10,0 1,0 3,1 4,1 0,0 0,0 0,0 1,-2 4,-4 12,-6 7,-2 11,-8 12,-11 3,-7 1,-15 -1,-19 -3,-4 -17,-2 -27,2 -1,0 -2,-1 -3,-2 0,-1 0,-3 2,-3 4,-2 26,-9 32,0 4,6 4,16 2,23 -2,5 -6,12 -15,15 -8,2 -10,4 -11,4 -1,1 -2,2 -3,2z"/>
   <path class="fil0" d="M307 158c-1,0 -1,0 -2,0 -2,-3 -18,-25 -19,-34 0,-1 1,-2 2,-2 1,0 2,1 2,2 0,7 13,25 18,31 1,1 1,2 0,3 0,0 -1,0 -1,0z"/>
   <path class="fil0" d="M314 150c0,0 -1,0 -1,-1 0,0 -1,-1 -1,-2 -3,-5 -12,-20 -14,-29 -1,-1 0,-2 1,-2 1,0 2,0 2,1 3,8 11,23 14,29 1,0 1,1 1,1 1,1 0,2 -1,3 0,0 0,0 -1,0z"/>
   <path class="fil0" d="M309 197c0,0 0,0 -1,0 -1,-1 -1,-2 0,-3 0,0 6,-9 7,-18 0,-1 1,-1 2,-1 1,0 1,1 1,2 0,9 -7,19 -7,19 0,1 -1,1 -2,1z"/>
   <path class="fil0" d="M323 200c-1,0 -1,0 -1,0 -1,-1 -1,-2 -1,-3 0,0 9,-12 7,-23 0,-1 1,-2 2,-2 1,-1 2,0 2,1 2,13 -7,26 -8,26 0,1 -1,1 -1,1z"/>
   <path class="fil0" d="M394 244c-1,0 -2,0 -2,-1 0,-1 1,-2 2,-2 1,0 21,-4 30,-2 1,0 1,1 1,2 0,1 -1,2 -2,1 -8,-1 -28,2 -29,2 0,0 0,0 0,0z"/>
   <path class="fil0" d="M392 232c-1,0 -1,0 -2,0 0,-1 0,-3 1,-3 1,0 15,-9 29,-9 1,0 2,1 2,2 0,1 -1,2 -2,2 -13,0 -27,8 -27,8 0,0 -1,0 -1,0z"/>
   <path class="fil0" d="M252 159c0,0 0,0 0,0 -1,0 -2,-2 -2,-3 1,-16 5,-98 9,-106 5,-8 26,-9 28,-10 1,0 3,1 3,3 0,1 -1,2 -3,2 -7,1 -21,3 -23,8 -3,5 -7,66 -9,103 0,2 -1,3 -3,3z"/>
   <path class="fil0" d="M486 244c0,0 0,0 0,0 -1,0 -2,-1 -2,-3 10,-76 12,-180 0,-200 -11,-16 -69,-10 -90,-6 -2,0 -3,-1 -3,-2 -1,-2 0,-3 2,-3 3,-1 81,-14 95,9 14,22 10,133 1,203 0,1 -1,2 -3,2z"/>
   <path class="fil0" d="M516 244l-55 0c-1,0 -2,-1 -2,-2 0,-1 1,-3 2,-3l55 0c2,0 3,2 3,3 0,1 -1,2 -3,2z"/>
   <path class="fil0" d="M472 157c-1,0 -1,-1 -2,-2 -4,-46 2,-122 2,-123 0,-1 1,-2 2,-2 1,0 2,1 2,2 0,1 -7,77 -2,123 0,1 0,2 -2,2 0,0 0,0 0,0z"/>
   <path class="fil0" d="M431 107c-8,0 -17,-1 -26,-2 -1,0 -1,-1 -1,-2 0,-1 1,-2 2,-2 28,5 64,-1 64,-1 1,0 2,1 3,2 0,1 -1,2 -2,2 0,0 -19,3 -40,3z"/>
   <path class="fil0" d="M274 100c0,0 0,0 0,0l-18 -1c-1,0 -2,-1 -2,-2 0,-1 1,-2 2,-2l18 2c1,0 2,1 2,2 0,1 -1,1 -2,1z"/>
   <path class="fil0" d="M288 157c0,0 0,0 -1,0 -14,-10 -18,-20 -18,-20 -1,-1 0,-2 1,-3 1,0 2,0 2,1 0,0 4,9 17,18 1,1 2,2 1,3 0,1 -1,1 -2,1z"/>
   <path class="fil0" d="M377 156c-1,0 -2,0 -2,-1 0,-1 0,-2 1,-2 0,0 8,-4 17,-11 8,-7 10,-29 10,-29 0,-1 1,-2 2,-2 1,0 2,1 2,2 0,1 -3,24 -12,32 -3,3 -6,5 -9,7 13,-3 38,-8 53,-23 0,-1 2,-1 2,0 1,0 1,2 0,2 -22,23 -62,25 -64,25 0,0 0,0 0,0z"/>
   <path class="fil0" d="M227 246l-85 0c-1,0 -2,-1 -2,-3 0,-1 1,-2 2,-2l85 0c1,0 2,1 2,2 0,2 -1,3 -2,3z"/>
   <path class="fil0" d="M101 246l-99 0c-1,0 -2,-1 -2,-2 0,-2 1,-3 2,-3l99 0c1,0 2,1 2,3 0,1 -1,2 -2,2z"/>
   <path class="fil0" d="M377 132c0,0 -1,0 -1,0 -1,0 -1,-1 -1,-2 0,-2 0,-7 -3,-8 -2,-1 -9,2 -13,4 -1,0 -2,0 -2,-1 -1,-1 -1,-2 0,-2 2,-1 12,-7 17,-4 5,3 5,11 4,12 0,1 0,1 -1,1z"/>
   <path class="fil1" d="M373 60c4,0 7,4 7,9 1,5 -2,9 -6,9 -4,0 -7,-4 -7,-9 -1,-5 2,-9 6,-9z"/>
   <path class="fil1" d="M314 66c4,0 7,4 7,9 0,5 -3,9 -6,9 -4,0 -7,-4 -8,-9 0,-5 3,-9 7,-9z"/>
   <path class="fil1" d="M288 88c0,0 6,-11 6,-19 0,-9 2,-34 8,-37 5,-3 49,-17 70,-9 20,8 25,37 27,39 3,2 5,4 5,4 0,0 -7,-32 -17,-42 -11,-11 -29,-18 -55,-15 -26,3 -54,19 -44,79z"/>
   <path class="fil0" d="M406 103c-2,0 -3,-1 -3,-2l0 -25c0,-1 1,-2 2,-2 2,0 3,1 3,2l0 25c0,1 -1,2 -2,2 0,0 0,0 0,0z"/>
   <path class="fil0" d="M288 116c-5,0 -9,-3 -10,-3 0,0 -1,-1 0,-2 0,-1 1,-1 2,-1 0,0 4,2 8,2 1,0 2,0 2,-1 0,-2 -2,-16 -4,-26 0,-1 0,-2 1,-2 1,0 2,0 3,1 1,5 4,24 4,27 -1,4 -4,5 -6,5 0,0 0,0 0,0z"/>
   <path class="fil0" d="M295 119c0,0 0,0 -1,0 0,0 -2,-2 -4,-6 0,-1 1,-2 2,-3 1,0 2,1 2,2 1,3 2,4 2,4 1,1 1,2 1,3 0,0 -1,0 -2,0z"/>
   <path class="fil0" d="M346 164c0,0 -1,0 -1,0 -1,0 -2,-1 -2,-2 0,-1 1,-2 2,-1 7,0 25,-6 31,-8 1,-1 2,0 3,1 0,1 -1,2 -1,2 -1,1 -22,8 -32,8z"/>
   <path class="fil0" d="M332 246l0 0c-8,0 -24,0 -24,0 -2,0 -3,-2 -3,-3 0,-1 1,-2 3,-2 1,0 23,0 24,0 1,0 2,1 2,2 0,1 -1,3 -2,3z"/>
  </g>
 </g>
</svg>
