<?xml version="1.0" encoding="UTF-8"?>
<!DOCTYPE svg PUBLIC "-//W3C//DTD SVG 1.1//EN" "http://www.w3.org/Graphics/SVG/1.1/DTD/svg11.dtd">
<!-- Creator: CorelDRAW X7 -->
<svg xmlns="http://www.w3.org/2000/svg" xml:space="preserve" width="118.051mm" height="62.0626mm" version="1.1" style="shape-rendering:geometricPrecision; text-rendering:geometricPrecision; image-rendering:optimizeQuality; fill-rule:evenodd; clip-rule:evenodd"
viewBox="0 0 648 341"
 xmlns:xlink="http://www.w3.org/1999/xlink">
 <defs>
  <style type="text/css">
   <![CDATA[
    .fil0 {fill:black}
    .fil1 {fill:black;fill-rule:nonzero}
   ]]>
  </style>
 </defs>
 <g id="Layer_x0020_1">
  <metadata id="CorelCorpID_0Corel-Layer"/>
  <g id="_970289936">
   <path class="fil0" d="M158 92c0,0 11,-34 13,-45 2,-12 10,-31 59,-33 50,-2 56,26 59,32 2,7 6,27 16,27 0,0 -7,-63 -38,-65 -31,-2 -75,-12 -95,12 -20,25 -14,72 -14,72z"/>
   <path class="fil1" d="M392 322l-389 0c-2,0 -3,-2 -3,-3 0,-2 1,-3 3,-3l389 0c2,0 3,1 3,3 0,1 -1,3 -3,3z"/>
   <path class="fil1" d="M394 324l56 7c0,-13 -3,-23 -10,-30 -4,-5 -11,-8 -17,-8 -11,0 -24,8 -29,31zm59 12c0,0 0,0 0,0l-62 -7c-1,0 -2,0 -2,-1 -1,-1 -1,-1 -1,-2 5,-28 22,-38 35,-38 8,0 15,3 21,9 8,9 12,22 12,37 0,1 -1,1 -1,2 -1,0 -1,0 -2,0z"/>
   <path class="fil1" d="M495 323l-43 0c-1,0 -3,-1 -3,-3 0,-1 2,-3 3,-3l43 0c1,0 2,2 2,3 0,2 -1,3 -2,3z"/>
   <path class="fil1" d="M645 323l-53 0c-1,0 -2,-1 -2,-2 0,-2 1,-3 2,-3l53 0c2,0 3,1 3,3 0,1 -1,2 -3,2z"/>
   <path class="fil1" d="M498 330c13,3 29,5 46,5 22,0 41,-3 48,-4 -2,-14 -13,-20 -15,-21l-51 0c-16,0 -25,9 -28,11l0 9zm46 11c-19,0 -35,-2 -49,-6 -1,0 -2,-1 -2,-3l0 -12c0,-1 0,-1 1,-2 0,0 11,-13 32,-14l51 0c1,0 1,0 2,0 0,1 18,9 19,29 0,2 -1,3 -3,3 0,0 -23,5 -51,5z"/>
   <path class="fil1" d="M524 310c-2,0 -3,-1 -3,-3l0 -98c0,-1 1,-2 3,-2l52 0c1,0 3,1 3,2l0 98c0,2 -2,3 -3,3 -2,0 -3,-1 -3,-3l0 -95 -46 0 0 95c0,2 -2,3 -3,3z"/>
   <path class="fil1" d="M524 261l-101 0c-2,0 -3,-1 -3,-3l0 -244c0,-1 0,-2 1,-2 0,-1 1,-1 2,-1l205 20c1,0 2,1 2,2l13 27c0,0 0,0 0,1l0 195c0,2 -1,3 -3,3l-64 2c-2,0 -3,-1 -3,-3 0,-1 1,-3 3,-3l62 -2 0 -192 -12 -25 -200 -19 0 238 98 0c1,0 3,2 3,3 0,2 -2,3 -3,3z"/>
   <path class="fil1" d="M36 322c-1,0 -2,-1 -3,-3 0,-5 -22,-134 19,-180 -1,-9 -5,-62 25,-75 0,0 1,0 1,0 0,0 48,-10 84,-8 2,0 3,1 3,3 0,1 -2,3 -3,3 -35,-2 -79,6 -83,7 -28,13 -22,70 -21,71 0,1 -1,1 -1,2 -41,43 -18,175 -18,176 0,2 -1,3 -2,3 0,0 -1,1 -1,1z"/>
   <path class="fil1" d="M101 180c1,0 3,0 3,3 0,0 0,1 0,4 -1,13 -1,19 0,22 3,-4 9,-15 13,-23 9,-17 10,-19 13,-19 1,0 2,1 3,3 0,2 0,5 0,7 2,-4 6,-10 9,-16 8,-15 17,-34 24,-42 3,-4 6,-7 8,-10 1,-1 1,-1 2,-2 -11,4 -41,14 -54,25 -15,11 -20,19 -21,22l0 0c2,0 5,-2 6,-3 2,0 3,-1 3,-1 1,0 3,1 3,2 1,1 0,3 0,3 -1,2 -3,3 -5,6 -5,5 -12,13 -13,18 -1,4 -2,7 -2,9 3,-3 5,-5 5,-6 1,-1 2,-2 3,-2zm2 36c0,0 0,-1 0,-1 -5,0 -6,-8 -5,-24 0,0 -1,1 -1,1 -2,2 -3,3 -5,3 -1,0 -2,0 -3,-1 -1,-1 -3,-4 0,-16 2,-6 8,-13 13,-19 -1,0 -2,0 -3,0 -2,-1 -3,-2 -4,-4 -1,-7 17,-23 23,-27 17,-14 58,-27 60,-27 1,-1 2,-1 3,-1 2,0 3,2 3,2 1,2 0,4 -5,10 -3,3 -6,7 -9,11 -6,7 -16,26 -23,40 -8,15 -11,21 -13,22 -1,1 -2,1 -3,1l0 0c-1,0 -1,0 -2,-1 -2,-1 -2,-4 -2,-7 -1,3 -3,7 -5,11 -11,21 -15,27 -19,27z"/>
   <path class="fil1" d="M331 192c2,0 3,2 4,4 1,2 2,5 3,10 1,2 2,4 2,6 1,-8 0,-24 -1,-30 -1,-3 -1,-6 1,-8 1,-2 4,-2 6,-1 -2,-2 -4,-4 -6,-6 -3,-4 -6,-7 -5,-10 0,-2 -4,-6 -6,-8 -4,-5 -6,-7 -5,-9 1,-1 2,-2 3,-2 0,0 1,0 1,0 1,0 4,0 5,0 -5,-5 -39,-27 -52,-32 4,4 21,26 33,55 2,5 3,10 5,14 4,10 7,18 9,23 0,-1 0,-1 0,-1 0,-2 0,-5 3,-5zm10 30c-4,0 -5,-5 -8,-15 0,-1 -1,-2 -1,-3 -1,2 -2,2 -3,2 -4,0 -6,-4 -15,-29 -2,-4 -4,-9 -6,-14 -11,-30 -31,-53 -31,-54 -2,-2 -4,-5 -3,-7 1,-1 2,-2 4,-2 9,0 58,31 60,35 2,3 1,4 1,5 -1,3 -4,3 -7,4 0,0 1,1 1,2 5,5 9,10 8,13 0,1 2,3 3,4 4,5 9,10 9,15 0,2 0,3 0,4 -1,2 -3,2 -3,2l0 0c-3,0 -4,-2 -6,-4 0,0 0,-1 0,-1 0,1 0,1 0,2 1,6 4,29 1,38 -1,2 -3,3 -4,3z"/>
   <path class="fil1" d="M93 322c-1,0 -1,-1 -2,-1 -1,-1 -30,-26 -28,-65 1,-40 35,-62 36,-63 1,-1 3,0 4,1 1,1 0,3 -1,4 0,0 -32,21 -34,58 -1,37 26,60 27,61 1,1 1,2 0,4 -1,0 -1,1 -2,1z"/>
   <path class="fil1" d="M369 322c-1,0 -2,-1 -3,-2l-4 -14c0,-1 1,-3 2,-3 2,0 3,0 4,2l4 13c0,1 -1,3 -2,3 -1,0 -1,1 -1,1z"/>
   <path class="fil1" d="M342 312c-17,0 -25,-7 -25,-8 -1,-1 -2,-2 -1,-3 2,-2 3,-2 4,-1 1,1 13,11 44,3 21,-6 27,-22 29,-34 5,-34 -17,-78 -47,-96 -1,-1 -2,-2 -1,-4 1,-1 2,-1 4,-1 32,19 54,65 49,101 -2,21 -14,34 -32,39 -10,3 -17,4 -24,4z"/>
   <path class="fil1" d="M303 117c-1,0 -1,0 -1,0 -1,0 -2,-2 -2,-3 1,-7 2,-14 2,-21 2,-46 -17,-74 -24,-79 -7,-4 -64,-18 -96,2 -31,18 -19,93 -19,93 0,2 -1,3 -2,3 -2,1 -3,0 -4,-2 0,-3 -12,-79 22,-99 35,-21 95,-6 102,-1 8,5 28,34 27,83 -1,7 -2,15 -3,22 0,1 -1,2 -2,2z"/>
   <path class="fil1" d="M145 118c-1,0 -2,0 -3,-1 -7,-11 -5,-24 1,-31 5,-4 10,-6 15,-3 2,0 2,2 1,3 0,2 -2,2 -3,2 -4,-2 -7,1 -8,2 -5,5 -7,15 -1,24 1,1 0,3 -1,4 0,0 -1,0 -1,0z"/>
   <path class="fil1" d="M315 125c-1,0 -1,-1 -2,-1 -1,-1 -1,-3 0,-4 4,-6 10,-19 8,-26 0,-1 -1,-2 -2,-2 -8,-3 -12,2 -12,3 -1,1 -3,1 -4,0 -1,0 -1,-2 -1,-3 2,-3 9,-8 18,-6 3,1 5,4 6,7 3,9 -4,24 -9,31 -1,0 -1,1 -2,1z"/>
   <path class="fil1" d="M235 194c-3,0 -6,0 -8,-1 -25,-1 -43,-9 -54,-23 -16,-18 -13,-41 -13,-42 0,-1 1,-2 3,-2 1,0 3,1 2,3 0,0 -2,21 12,38 11,12 27,19 50,21 22,1 40,-3 52,-14 17,-15 18,-36 18,-36 0,-2 1,-3 3,-3 1,0 2,1 2,3 0,1 -1,23 -19,40 -12,10 -28,16 -48,16z"/>
   <path class="fil1" d="M142 310c2,1 5,2 11,1 5,0 10,-10 12,-15 1,-1 2,-2 4,-1 3,1 6,1 9,1l0 0c18,0 25,-16 25,-16 0,-1 2,-2 3,-1 1,0 2,1 2,2 0,2 0,5 1,6 0,0 1,0 1,0 0,0 0,0 0,0 1,0 2,-2 4,-7 3,-9 4,-18 3,-20 -1,-2 -8,-4 -12,-5 0,0 -1,0 -2,-1 0,-1 0,-1 0,-2 0,0 1,-6 -3,-12 -3,-5 -9,-8 -17,-10 -3,0 -6,0 -8,0 -19,0 -25,15 -25,15 0,0 -1,0 -1,1l-18 17c-9,20 8,43 11,47zm9 7c-7,0 -11,-2 -11,-2 -1,0 -1,-1 -1,-1 -1,-1 -25,-29 -12,-54 0,0 0,0 0,0l18 -18c1,-3 10,-18 30,-18 3,0 6,0 9,1 10,2 17,6 21,12 3,5 4,10 4,13 4,1 11,3 13,7 3,5 -1,23 -5,30 -2,4 -4,5 -6,6 -3,0 -4,-1 -6,-2 0,-1 -1,-2 -1,-2 -4,5 -12,13 -26,13l0 0c-2,0 -6,-1 -9,-1 -2,4 -8,15 -16,16 -1,0 -1,0 -2,0z"/>
   <path class="fil1" d="M104 274c-1,0 -1,0 -2,-1 -1,-1 -1,-2 0,-3 0,-1 12,-15 28,-11 1,0 2,2 2,3 -1,2 -2,3 -4,2 -12,-3 -22,9 -22,9 -1,1 -1,1 -2,1z"/>
   <path class="fil1" d="M255 285c3,0 6,1 8,4 0,0 0,0 1,1 3,3 11,14 20,14 6,0 11,-3 15,-10 1,-1 2,-2 3,-2 0,0 1,1 2,2 2,4 8,5 11,6 1,0 1,0 2,1 6,-7 30,-34 21,-52l-22 -10c-1,0 -1,0 -1,-1 0,0 -10,-12 -26,-12 -4,0 -9,0 -13,2 -24,8 -21,24 -21,25 0,1 0,2 -1,2 0,1 -4,5 -6,10 -2,2 0,16 2,22 2,-2 4,-2 5,-2zm29 24c-11,0 -21,-11 -24,-15 -1,-1 -1,-1 -1,-1 -1,-2 -3,-3 -4,-3 -1,0 -2,1 -3,2 -1,1 -2,2 -2,2 -1,0 -3,-1 -4,-3 -3,-5 -6,-24 -3,-29 2,-4 5,-8 7,-9 -1,-6 0,-22 24,-30 5,-2 10,-3 15,-3 17,0 27,12 30,15l22 10c1,0 1,0 2,1 13,23 -22,58 -24,60 0,1 -2,1 -3,0 0,0 -1,0 -2,0 -3,-1 -9,-3 -13,-6 -5,6 -10,9 -17,9z"/>
   <path class="fil1" d="M351 251c-6,0 -11,-1 -12,-1 -1,-1 -2,-2 -1,-4 0,-1 2,-2 3,-2 0,1 16,5 23,-4 1,-1 3,-1 4,0 1,1 1,3 0,4 -5,6 -12,7 -17,7z"/>
   <path class="fil1" d="M182 60c-1,0 -2,0 -4,0 -1,0 -2,-1 -2,-2 1,-1 2,-2 3,-2 5,1 10,0 12,-3 5,-5 3,-14 3,-14 0,-1 1,-2 2,-2 1,0 2,0 2,1 0,1 2,11 -4,18 -3,3 -7,4 -12,4z"/>
   <path class="fil1" d="M266 54c-2,0 -3,-1 -4,-1 -7,-3 -8,-12 -8,-12 0,-2 1,-3 2,-3 1,0 2,1 2,2 0,0 1,7 5,9 3,1 5,1 9,-1 1,-1 2,-1 2,0 1,1 1,3 0,3 -3,2 -6,3 -8,3z"/>
   <path class="fil1" d="M286 98c0,0 0,0 0,0 -1,0 -2,-1 -2,-2 0,0 0,-10 -7,-13 -5,-2 -14,4 -17,6 -1,1 -2,1 -3,0 -1,-1 -1,-2 0,-3 0,0 13,-11 22,-7 10,4 9,17 9,17 0,2 -1,2 -2,2z"/>
   <path class="fil1" d="M175 101c0,0 0,0 0,0 -2,0 -2,-1 -2,-2 1,-8 4,-13 9,-16 8,-4 18,1 19,1 1,0 1,1 1,2 -1,2 -2,2 -3,1 0,0 -9,-4 -15,0 -4,2 -6,6 -7,12 0,1 -1,2 -2,2z"/>
   <path class="fil1" d="M228 128c-5,0 -12,-3 -16,-7 -4,-5 -1,-9 2,-12 0,-1 1,-2 2,-3 3,-4 3,-14 3,-17 0,-1 0,-2 2,-3 1,0 2,1 2,2 0,2 1,15 -3,20 -1,2 -2,3 -3,4 -3,3 -4,4 -2,6 4,4 11,7 15,6 5,-2 12,-7 13,-9 0,-2 -2,-4 -2,-4 0,-1 0,-3 1,-3 1,-1 3,0 3,1 0,0 2,3 2,6 0,4 -11,11 -15,13 -1,0 -3,0 -4,0z"/>
   <path class="fil1" d="M212 184c-3,0 -6,-1 -9,-2 -5,-2 -9,-6 -11,-12 -2,-8 -1,-16 4,-23 6,-8 16,-12 30,-12 0,0 0,0 0,0 1,0 3,1 3,3 0,1 -2,2 -3,2 -12,1 -21,4 -26,11 -3,5 -4,11 -2,18 1,4 3,7 7,8 7,3 16,0 20,-2 4,-2 7,-1 12,-1 3,0 8,1 14,0 4,-1 6,-3 8,-7 4,-9 3,-21 -1,-26 -4,-6 -16,-4 -21,-3 -1,1 -3,0 -3,-2 0,-1 0,-3 2,-3 1,0 20,-5 27,5 5,7 5,22 1,31 -2,6 -7,9 -12,10 -7,1 -12,1 -16,0 -4,0 -6,0 -9,1 -2,2 -8,4 -15,4z"/>
   <path class="fil1" d="M217 149c0,1 0,1 0,1 -3,1 -11,11 -11,16 0,1 1,1 1,2 1,0 2,0 3,0 2,0 4,-1 7,-3 1,-1 3,-3 5,-4 2,-1 4,-2 6,-2 4,0 7,1 10,3 2,1 5,2 8,2 3,0 4,-3 4,-5 1,-4 -1,-10 -4,-11 -2,-1 -4,-1 -9,-1 -8,0 -18,2 -20,2zm-7 24c-2,0 -4,-1 -5,-2 -2,-1 -3,-2 -3,-5 0,-7 9,-18 13,-20l0 0c3,-2 16,-3 22,-3 5,0 8,0 10,1 6,2 8,10 7,16 -1,5 -4,8 -8,8 -4,0 -7,-1 -10,-3 -3,-1 -5,-2 -8,-2 -1,0 -2,1 -4,1 -2,2 -3,3 -5,4 -3,2 -6,5 -9,5z"/>
   <path class="fil1" d="M192 220c-1,0 -1,0 -1,0 -38,-10 -45,-63 -45,-66 0,-1 1,-2 2,-2 1,0 2,1 2,2 0,0 7,52 42,62 0,0 3,0 5,-4 4,-7 1,-20 -3,-28 0,-1 0,-2 1,-3 1,0 2,0 3,1 4,9 7,24 3,32 -2,5 -6,6 -9,6z"/>
   <path class="fil1" d="M262 229c-4,0 -7,-2 -9,-3 -15,-7 -8,-30 -5,-37 0,-1 1,-2 2,-1 2,0 2,1 2,2 -2,5 -9,27 2,32 6,3 12,5 23,-5 12,-10 26,-56 28,-65 0,-1 1,-2 3,-1 1,0 1,1 1,2 0,1 -15,55 -29,67 -7,7 -13,9 -18,9z"/>
   <path class="fil1" d="M168 299c0,0 -1,0 -1,0 -37,-15 -22,-56 -22,-56 1,-1 2,-2 3,-1 1,0 1,1 1,2 0,2 -13,38 20,51 1,1 1,2 1,3 -1,1 -1,1 -2,1z"/>
   <path class="fil1" d="M301 297c0,0 -1,0 -1,-1 -1,-1 -1,-2 0,-3 29,-17 16,-54 15,-56 0,-1 0,-2 1,-2 1,-1 3,0 3,1 0,0 15,42 -17,61 0,0 0,0 -1,0z"/>
   <path class="fil1" d="M206 284c0,0 0,0 -1,0 -1,0 -1,-1 -1,-2 4,-16 -1,-29 -1,-29 0,-1 0,-2 1,-3 1,0 3,0 3,1 0,1 6,15 1,32 0,1 -1,1 -2,1z"/>
   <path class="fil1" d="M232 227c-21,0 -35,-9 -36,-10 -1,0 -1,-1 0,-2 0,-1 2,-2 3,-1 0,0 22,15 52,6 1,0 2,0 2,2 1,1 0,2 -1,2 -7,2 -14,3 -20,3z"/>
   <path class="fil1" d="M261 293c-1,0 -2,-1 -2,-1 -8,-14 -9,-37 -8,-38 0,-2 0,-3 2,-3l0 0c1,0 2,1 2,3 0,0 0,23 8,36 0,1 0,2 -1,2 0,1 -1,1 -1,1z"/>
   <path class="fil1" d="M640 234c0,0 0,0 0,0l-64 -4c-1,0 -2,-1 -2,-2 0,-1 1,-2 2,-2l62 3 0 -164 -183 -20 0 182 69 0c1,0 2,1 2,2 0,1 -1,2 -2,2l-71 0c-1,0 -2,-1 -2,-2l0 -186c0,0 0,-1 0,-1 1,-1 1,-1 2,-1l187 20c1,1 2,1 2,3l0 168c0,0 0,1 0,1 -1,0 -1,1 -2,1z"/>
   <path class="fil1" d="M539 309c-1,0 -2,-1 -2,-2l0 -98c0,-1 1,-2 2,-2 1,0 2,1 2,2l0 98c0,1 -1,2 -2,2z"/>
   <path class="fil1" d="M423 260c-1,0 -1,0 -2,0 0,-1 0,-2 0,-3l30 -30c1,-1 2,-1 3,0 1,1 1,2 0,3l-30 30c0,0 -1,0 -1,0z"/>
   <path class="fil1" d="M453 45c-1,0 -1,0 -2,0l-30 -30c0,-1 -1,-2 0,-3 1,0 2,0 3,0l30 30c1,1 1,2 0,3 0,0 -1,0 -1,0z"/>
   <path class="fil1" d="M130 296c-1,0 -1,0 -2,-1 0,0 -1,-1 0,-2 0,-1 10,-18 16,-23 1,-1 2,-1 3,0 0,1 0,2 0,3 -5,5 -16,22 -16,22 0,0 -1,1 -1,1z"/>
   <path class="fil1" d="M139 313c-1,0 -1,0 -1,0 -1,-1 -2,-2 -1,-3 0,-1 10,-18 16,-23 1,-1 2,-1 3,0 1,1 1,2 0,3 -6,5 -16,22 -16,22 0,1 -1,1 -1,1z"/>
   <path class="fil1" d="M329 294c-1,0 -2,0 -2,-1 -2,-4 -10,-10 -12,-12 -1,-1 -1,-2 -1,-3 1,-1 2,-1 3,0 1,1 11,8 14,14 0,1 0,2 -1,2 -1,0 -1,0 -1,0z"/>
   <path class="fil1" d="M335 283c-1,0 -2,0 -2,-1 -1,-4 -9,-10 -14,-14 -1,-1 -1,-2 -1,-3 1,-1 2,-1 3,0 2,1 14,10 16,16 0,1 0,2 -2,2 0,0 0,0 0,0z"/>
   <path class="fil1" d="M340 271c0,0 -1,0 -1,-1 -6,-9 -19,-15 -20,-15 -1,-1 -1,-2 -1,-3 1,-1 2,-2 3,-1 1,0 15,7 21,17 1,1 1,2 0,3 -1,0 -1,0 -2,0z"/>
   <path class="fil1" d="M207 263c-1,0 -2,0 -2,-1 -1,-4 -8,-8 -10,-10 -1,0 -2,-1 -1,-2 0,-1 2,-2 3,-1 1,0 10,5 12,12 0,1 0,2 -2,2 0,0 0,0 0,0z"/>
   <path class="fil1" d="M203 285c-1,0 -2,-1 -2,-2 0,-4 -10,-8 -13,-9 -1,0 -2,-1 -1,-2 0,-1 1,-2 2,-2 2,1 15,4 16,13 1,1 0,2 -1,2 0,0 -1,0 -1,0z"/>
   <path class="fil1" d="M253 258c-1,0 -1,0 -2,0 -1,-1 -1,-2 0,-3 9,-10 25,-10 26,-10 1,0 2,0 2,2 0,1 -1,2 -2,2 0,0 -15,0 -23,9 0,0 -1,0 -1,0z"/>
   <path class="fil1" d="M254 273c0,0 -1,0 -1,0 -1,-1 -1,-2 0,-3 8,-10 23,-13 24,-13 1,0 2,0 2,1 1,2 0,3 -1,3 0,0 -14,3 -22,12 -1,0 -1,0 -2,0z"/>
   <path class="fil1" d="M260 291c-1,0 -1,0 -1,0 -1,-1 -2,-2 -1,-3 5,-13 20,-18 20,-18 1,-1 3,0 3,1 0,1 0,2 -1,2 -1,0 -14,5 -18,16 -1,1 -1,2 -2,2z"/>
   <path class="fil1" d="M453 327c0,0 0,0 -1,0l-58 -13c-1,0 -1,-1 -1,-2 0,-1 1,-2 2,-2l58 13c1,0 2,1 2,3 0,0 -1,1 -2,1z"/>
   <path class="fil1" d="M440 324c-1,0 -2,0 -2,-2 -1,-22 -24,-28 -24,-28 -1,0 -2,-1 -1,-2 0,-2 1,-2 2,-2 0,0 26,6 27,32 0,1 0,2 -2,2 0,0 0,0 0,0z"/>
   <path class="fil1" d="M351 122c-1,0 -2,1 -3,1 -1,1 -1,3 -1,5 0,3 2,6 4,9 3,5 8,7 10,7 1,0 2,0 2,-1 1,-1 2,-2 2,-5 0,-3 -2,-6 -4,-9 -3,-4 -8,-7 -10,-7zm10 27c-5,0 -11,-3 -15,-9 -2,-3 -4,-8 -4,-11 -1,-5 0,-8 3,-10 2,-1 4,-2 6,-2 5,0 10,3 14,9 3,4 5,8 5,12 1,4 -1,8 -3,10 -2,1 -4,1 -6,1z"/>
   <path class="fil1" d="M363 157c0,0 0,0 0,0 -1,0 -1,0 -1,1 1,1 1,2 2,4 1,2 3,3 4,3 0,0 0,0 0,0 0,-1 1,-1 1,-2 -1,-1 -1,-2 -2,-4 -1,-1 -3,-2 -4,-2zm5 13c-3,0 -6,-2 -8,-5 -2,-2 -3,-4 -3,-7 0,-2 1,-4 2,-6 1,0 3,-1 4,-1 3,0 6,2 8,5 2,2 3,5 3,7 0,2 -1,5 -2,6 -1,1 -3,1 -4,1z"/>
   <path class="fil1" d="M377 145c0,1 1,2 3,5 4,4 9,7 12,7 0,0 -1,-2 -3,-4 -4,-5 -9,-8 -12,-8zm15 18c-5,0 -12,-5 -16,-10 -4,-4 -5,-8 -4,-11 1,-1 2,-2 4,-3 5,0 13,5 17,10 4,4 5,8 4,11 -1,2 -2,3 -4,3 0,0 -1,0 -1,0z"/>
   <path class="fil1" d="M135 200c-2,0 -5,2 -6,7 -2,5 -1,9 -1,9l1 0c1,0 4,-2 6,-7 0,-2 1,-5 1,-7 -1,-2 -1,-2 -1,-2l0 0zm-6 22c-1,0 -2,0 -3,-1 -4,-1 -5,-8 -3,-16 3,-7 7,-11 12,-11 0,0 1,0 2,1 2,0 4,3 4,6 0,3 0,7 -1,10 -3,6 -7,11 -11,11z"/>
   <path class="fil1" d="M99 117c-1,0 -4,3 -6,8 -1,2 -1,5 -1,7 0,1 1,2 1,2l0 0c1,0 4,-2 6,-7 2,-6 1,-9 0,-10l0 0zm-6 23c-1,0 -1,-1 -2,-1 -2,-1 -4,-3 -4,-7 -1,-3 0,-6 1,-9 2,-7 7,-11 11,-11 1,0 2,0 2,0 5,2 6,9 3,17 -2,6 -7,11 -11,11z"/>
   <path class="fil1" d="M83 155c0,1 -1,1 -2,3 0,1 0,3 0,3 0,0 1,-1 2,-3 0,-1 0,-2 0,-3zm-3 12c0,0 -1,0 -1,0 -4,-1 -5,-6 -3,-11 2,-4 5,-7 8,-7 0,0 1,0 1,0 4,2 5,6 3,11 -2,5 -5,7 -8,7z"/>
   <path class="fil1" d="M55 142c-1,0 -2,0 -2,-1 -1,-1 0,-2 1,-3 1,0 22,-7 35,-7 0,0 0,0 0,0 2,0 3,1 2,2 0,1 0,2 -2,2 0,0 0,0 0,0 -13,0 -33,7 -34,7 0,0 0,0 0,0z"/>
   <path class="fil1" d="M100 134c-1,0 -2,-1 -2,-2 -1,-1 0,-2 1,-2 1,0 13,-2 19,-1 1,1 2,2 2,3 -1,1 -2,2 -3,1 -4,-1 -14,0 -17,1 0,0 0,0 0,0z"/>
  </g>
 </g>
</svg>
