<?xml version="1.0" encoding="UTF-8"?>
<!DOCTYPE svg PUBLIC "-//W3C//DTD SVG 1.1//EN" "http://www.w3.org/Graphics/SVG/1.1/DTD/svg11.dtd">
<!-- Creator: CorelDRAW X7 -->
<svg xmlns="http://www.w3.org/2000/svg" xml:space="preserve" width="129.505mm" height="67.4939mm" version="1.1" style="shape-rendering:geometricPrecision; text-rendering:geometricPrecision; image-rendering:optimizeQuality; fill-rule:evenodd; clip-rule:evenodd"
viewBox="0 0 1086 566"
 xmlns:xlink="http://www.w3.org/1999/xlink">
 <defs>
  <style type="text/css">
   <![CDATA[
    .fil1 {fill:black}
    .fil0 {fill:black;fill-rule:nonzero}
   ]]>
  </style>
 </defs>
 <g id="Layer_x0020_1">
  <metadata id="CorelCorpID_0Corel-Layer"/>
  <g id="_1042370064">
   <path class="fil0" d="M60 450l395 0 -12 -337 -394 0 11 337zm399 9c0,0 0,0 0,0l-403 0c-2,0 -4,-2 -4,-4l-12 -346c0,-1 0,-3 1,-3 1,-1 2,-2 3,-2l403 0c2,0 4,2 4,4l12 346c0,0 0,0 0,1 0,2 -2,4 -4,4z"/>
   <path class="fil0" d="M100 391l307 0 -9 -219 -307 0 9 219zm311 7c0,0 0,0 0,0l-314 0c-2,0 -3,-2 -3,-3l-10 -226c0,-1 1,-2 1,-3 1,0 2,-1 2,-1l314 0c2,0 4,2 4,3l9 226c0,0 0,0 0,1 0,1 -1,3 -3,3z"/>
   <path class="fil0" d="M923 230c-2,0 -4,-1 -4,-4 -1,-81 -19,-135 -57,-169 -43,-40 -114,-54 -229,-47 -72,5 -126,30 -156,73 -23,33 -25,64 -25,65 0,2 -2,4 -4,4 -2,0 -4,-2 -4,-5 0,-1 1,-34 25,-68 22,-32 69,-71 163,-77 118,-8 191,7 236,49 39,36 58,92 59,175 1,3 -1,4 -4,4 0,0 0,0 0,0z"/>
   <path class="fil0" d="M230 552c-29,0 -68,-3 -73,-17 -2,-5 -1,-10 2,-15 8,-14 35,-21 45,-24l0 -41c0,-3 2,-5 4,-5 3,0 5,2 5,5l0 45c0,2 -2,3 -4,4 -10,2 -37,9 -43,21 -2,2 -2,5 -1,7 2,7 30,13 78,11 53,-1 89,-10 91,-16 1,-2 0,-3 -1,-5 -6,-8 -28,-13 -40,-14 -2,0 -4,-2 -4,-4l0 -49c0,-3 2,-5 4,-5 2,0 4,2 4,5l0 45c10,1 35,5 43,17 2,4 3,8 2,12 -4,17 -68,21 -88,22 -5,1 -14,1 -24,1z"/>
   <path class="fil0" d="M231 566c-16,0 -31,-1 -42,-3 -15,-4 -25,-9 -29,-18 -5,-8 -3,-16 -3,-17 1,-1 3,-2 4,-2 2,1 3,3 2,4 0,1 -1,6 2,12 4,7 13,12 26,15 38,8 125,-1 136,-12 10,-11 8,-22 8,-22 -1,-2 0,-3 2,-4 2,0 4,1 4,2 0,1 3,15 -10,29 -10,10 -59,16 -100,16z"/>
   <path class="fil0" d="M851 340l0 103c0,26 21,47 47,47l8 0c30,0 54,-25 54,-55 0,-2 0,-7 0,-15 1,-22 1,-72 0,-80 -4,-5 -25,-10 -54,-10 -25,0 -46,4 -55,10zm55 158l-8 0c-30,0 -55,-25 -55,-55l0 -105c0,-1 0,-2 1,-3 14,-13 51,-14 62,-14 25,0 56,4 62,15 1,2 1,2 1,84 0,8 0,13 0,15 0,35 -28,63 -63,63z"/>
   <path class="fil0" d="M912 345c-3,0 -6,0 -9,1 -28,1 -42,9 -42,12 0,2 10,7 32,7 3,0 6,0 9,0 28,-2 42,-10 42,-13 0,-2 -10,-7 -32,-7zm-19 26c-18,0 -38,-3 -38,-13 0,-11 24,-17 47,-19 3,0 7,0 10,0 18,0 38,4 38,13 0,11 -24,17 -47,19 -3,0 -7,0 -10,0z"/>
   <path class="fil0" d="M978 442c-8,0 -14,-5 -17,-8 -1,-2 -1,-4 1,-6 2,-1 4,-1 6,1 1,1 7,8 18,3 6,-4 12,-25 12,-47 0,-13 -3,-23 -8,-26 -14,-7 -21,3 -22,4 -1,2 -4,3 -6,1 -1,-1 -2,-4 -1,-5 4,-7 16,-16 33,-7 10,5 12,21 12,33 1,21 -6,48 -16,54 -4,2 -8,3 -12,3z"/>
   <path class="fil0" d="M922 234c-25,0 -40,7 -40,11 0,4 15,11 40,11 25,0 40,-7 40,-11 0,-4 -15,-11 -40,-11zm0 30c-24,0 -49,-7 -49,-19 0,-13 25,-19 49,-19 24,0 48,6 48,19 0,12 -24,19 -48,19z"/>
   <path class="fil0" d="M909 245c1,1 6,2 13,2 7,0 11,-1 13,-2 -2,-1 -6,-3 -13,-3 -7,0 -12,2 -13,3zm13 9c-10,0 -20,-3 -20,-9 0,-6 10,-9 20,-9 10,0 20,3 20,9 0,6 -10,9 -20,9z"/>
   <path class="fil0" d="M896 278c-28,0 -43,8 -43,12 0,4 15,12 43,12 28,0 43,-8 43,-12 0,-4 -15,-12 -43,-12zm0 32c-26,0 -51,-7 -51,-20 0,-13 25,-20 51,-20 25,0 51,7 51,20 0,13 -26,20 -51,20z"/>
   <path class="fil0" d="M882 290c1,1 6,3 14,3 8,0 13,-2 14,-3 -1,-1 -6,-3 -14,-3 -8,0 -13,2 -14,3zm14 9c-10,0 -21,-3 -21,-9 0,-6 11,-9 21,-9 10,0 21,3 21,9 0,6 -11,9 -21,9z"/>
   <path class="fil0" d="M738 384c22,0 50,6 69,30 9,-5 34,-23 22,-68 -14,-55 -72,-120 -151,-134 -2,0 -3,-2 -3,-4 0,0 -2,-60 -43,-81 -28,-14 -77,-9 -109,3 -18,8 -31,17 -34,28 -12,33 -7,88 -7,88 0,1 0,3 -1,4 -1,0 -2,1 -4,1 0,0 -8,-1 -12,4 -3,3 -3,7 -2,13 5,21 23,21 24,20 2,0 4,2 4,4 0,1 6,66 43,75 17,5 27,4 37,3 12,0 23,-1 44,8 10,-6 32,-11 48,5 8,-3 33,-8 44,5 5,-1 17,-4 31,-4zm-325 116c-2,0 -4,0 -6,-1 -11,-1 -17,-6 -20,-9 -3,1 -8,2 -13,1 -5,-2 -10,-6 -13,-9 -3,1 -6,2 -10,1 -3,-2 -6,-4 -8,-8 -5,-11 4,-20 10,-24 2,-1 5,-1 6,1 1,2 1,5 -1,6 -1,0 -11,7 -7,13 0,2 1,3 3,4 2,0 5,-1 6,-1 2,-1 4,-1 6,1 1,2 6,6 10,7 6,2 10,-1 10,-1 1,-1 2,-1 4,0 1,0 2,1 2,2 0,0 4,7 16,8 12,2 18,-3 18,-3 1,-1 3,-2 5,-1 0,0 6,3 14,3 6,-1 10,-8 11,-11 1,-2 3,-3 5,-3 1,0 99,20 161,3 0,0 1,0 1,0 12,2 44,7 56,2l2 -5c1,-1 2,-2 3,-2 2,-1 37,-8 62,1 7,3 13,5 18,7 10,5 14,6 18,4 1,0 2,-1 3,-2 0,-2 0,-4 -1,-4 -1,-2 0,-4 2,-6 1,-1 6,-4 7,-9 1,-1 2,-2 4,-2 1,-1 11,-2 13,-12 2,-12 -7,-28 -8,-29 -32,-44 -95,-25 -95,-25 -2,0 -4,0 -5,-2 -8,-14 -38,-4 -39,-4 -1,1 -3,1 -4,-1 -17,-18 -42,-4 -42,-4 -1,1 -3,1 -4,0 -20,-9 -30,-8 -41,-7 -10,1 -22,1 -40,-4 -38,-9 -47,-63 -49,-78 -9,-1 -24,-7 -28,-27 -2,-9 -1,-16 4,-21 4,-4 10,-6 14,-6 -1,-14 -3,-58 8,-88 6,-16 24,-27 39,-33 33,-13 85,-18 116,-2 40,20 46,71 47,85 82,15 139,81 154,139 13,49 -15,71 -25,77 3,7 8,20 6,31 -2,12 -11,17 -18,19 -2,3 -5,7 -7,8 0,2 0,5 0,7 -1,2 -3,6 -8,8 -7,4 -14,1 -24,-4 -5,-2 -11,-5 -18,-7 -20,-7 -47,-3 -55,-1l-2 4c0,1 -1,2 -2,2 -15,8 -53,1 -61,-1 -58,15 -143,1 -161,-2 -2,5 -7,13 -16,13 -8,1 -14,-1 -17,-2 -3,1 -8,4 -16,4z"/>
   <path class="fil0" d="M684 324c0,0 -1,0 -1,0 -2,-1 -4,-3 -3,-5 11,-48 -5,-109 -5,-110 -1,-2 1,-4 3,-5 2,0 4,1 5,3 1,3 17,64 5,114 0,1 -2,3 -4,3z"/>
   <path class="fil0" d="M650 383c0,0 -1,0 -1,0 -2,-1 -4,-3 -3,-5 16,-58 43,-66 62,-71 9,-3 16,-5 19,-11 11,-20 32,-27 33,-28 2,-1 5,1 6,3 0,2 -1,4 -3,5 0,0 -20,7 -29,24 -5,9 -14,12 -23,15 -19,5 -42,12 -57,65 -1,2 -2,3 -4,3z"/>
   <path class="fil0" d="M570 370c-15,0 -27,-4 -31,-20 -3,-11 -2,-22 4,-30 6,-10 17,-16 33,-18 2,0 4,1 4,4 1,2 -1,4 -3,4 -13,2 -23,7 -27,14 -5,6 -6,15 -3,24 3,13 16,17 43,12 17,-3 31,-12 38,-22 3,-7 4,-13 2,-20 -6,-19 -26,-13 -27,-13 -2,0 -4,-1 -5,-3 0,-2 1,-5 3,-5 10,-3 30,-2 37,19 3,9 2,18 -3,26 -8,12 -24,22 -43,26 -8,1 -15,2 -22,2z"/>
   <path class="fil0" d="M693 281c-2,0 -4,0 -6,0 -2,-1 -3,-3 -3,-5 1,-3 3,-4 5,-4 6,2 11,0 14,-5 7,-11 6,-28 3,-32 -4,-5 -17,0 -20,2 -2,1 -4,1 -5,-1 -2,-2 -1,-5 1,-6 8,-5 23,-10 30,-1 6,8 6,30 -2,42 -4,7 -10,10 -17,10z"/>
   <path class="fil0" d="M487 297c-2,0 -4,-2 -4,-4l-9 -46c-1,-2 1,-4 3,-4 2,-1 4,1 5,3l9 46c0,2 -1,4 -3,5 -1,0 -1,0 -1,0z"/>
   <path class="fil0" d="M87 172c-1,0 -2,-1 -2,-2l-43 -60c-1,-1 -1,-3 0,-4 2,-1 4,-1 5,1l43 60c1,1 1,3 -1,4 0,1 -1,1 -2,1z"/>
   <path class="fil0" d="M401 172c0,0 -1,0 -1,-1 -2,-1 -2,-3 -1,-4l45 -60c1,-2 3,-2 5,-1 1,1 1,3 0,4l-45 61c-1,0 -2,1 -3,1z"/>
   <path class="fil0" d="M459 458c-1,0 -2,-1 -3,-1l-48 -60c-1,-2 -1,-4 1,-5 1,-1 3,-1 4,1l48 60c1,1 1,3 0,4 -1,1 -1,1 -2,1z"/>
   <path class="fil0" d="M56 458c0,0 -1,0 -2,-1 -1,-1 -1,-3 0,-4l40 -60c1,-2 3,-2 4,-1 2,1 2,3 1,4l-40 60c-1,1 -2,2 -3,2z"/>
   <path class="fil0" d="M208 503c-1,0 -3,-2 -3,-3 0,-2 2,-3 3,-3l54 -1 0 -41c0,-2 1,-4 3,-4 2,0 3,2 3,4l0 44c0,2 -1,3 -3,3l-57 1c0,0 0,0 0,0z"/>
   <path class="fil0" d="M293 507c0,0 -1,0 -1,0 0,-1 -11,-5 -27,-5 -2,0 -3,-1 -3,-3 0,-2 1,-3 3,-3 17,0 29,4 29,5 2,0 3,2 2,4 0,1 -2,2 -3,2z"/>
   <path class="fil0" d="M872 279c-1,0 -3,-1 -3,-3 0,-1 -6,-99 -8,-148 -2,-50 14,-63 15,-63 1,-1 3,-1 4,0 1,2 1,4 0,5 -1,0 -14,12 -13,58 2,48 8,147 8,148 1,2 -1,3 -3,3 0,0 0,0 0,0z"/>
   <path class="fil0" d="M685 481c-1,0 -3,-1 -3,-3 -3,-68 20,-87 21,-88 2,-1 4,-1 5,1 1,1 1,3 -1,4 0,1 -22,19 -19,83 1,2 -1,3 -3,3 0,0 0,0 0,0z"/>
   <path class="fil0" d="M623 486c-2,0 -3,-1 -3,-3 -4,-87 40,-98 41,-99 2,0 4,1 4,3 1,1 0,3 -2,4 -1,0 -41,11 -37,92 0,2 -1,3 -3,3 0,0 0,0 0,0z"/>
   <path class="fil0" d="M698 406c-1,0 -1,0 -1,0 0,0 -36,-8 -52,-3 -2,1 -4,0 -4,-2 -1,-2 0,-4 2,-4 18,-5 54,3 55,3 2,0 3,2 3,4 -1,1 -2,2 -3,2z"/>
   <path class="fil0" d="M688 433c0,0 -1,0 -1,-1 0,0 -26,-11 -58,-1 -1,1 -3,0 -4,-2 0,-1 1,-3 2,-4 34,-11 61,1 63,2 1,0 2,2 1,4 0,1 -1,2 -3,2z"/>
   <path class="fil0" d="M623 456c-1,0 -2,-1 -3,-2 0,-2 1,-3 2,-4 28,-9 63,-6 64,-6 2,1 3,2 3,4 0,2 -2,3 -4,3 0,0 -34,-4 -61,5 0,0 0,0 -1,0z"/>
   <path class="fil0" d="M622 473c-1,0 -2,-1 -3,-2 0,-1 1,-3 2,-4 18,-6 62,-4 64,-4 2,0 3,1 3,3 0,2 -1,3 -3,3 -1,0 -45,-2 -61,4 -1,0 -1,0 -2,0z"/>
   <path class="fil0" d="M789 482c-2,0 -3,0 -3,-1 -8,-14 -34,-25 -34,-25 -2,-1 -3,-2 -2,-4 1,-2 3,-2 4,-2 1,1 29,12 37,28 1,1 1,3 -1,4 0,0 -1,0 -1,0z"/>
   <path class="fil0" d="M799 470c-1,0 -3,-2 -3,-3 -6,-43 -29,-41 -30,-41 -2,0 -3,-1 -3,-3 0,-2 1,-3 3,-3 1,-1 29,-3 36,46 1,2 -1,3 -2,4 0,0 -1,0 -1,0z"/>
   <path class="fil0" d="M465 484c0,0 0,0 0,0 -56,-10 -75,-26 -75,-27 -2,-1 -2,-3 -1,-4 2,-2 4,-2 5,-1 0,0 18,17 72,26 1,0 3,2 2,4 0,1 -1,2 -3,2z"/>
   <path class="fil0" d="M362 481c0,0 -1,-1 -2,-1 -1,-1 -1,-3 0,-4 0,-1 15,-23 31,-24 2,-1 4,1 4,2 0,2 -1,4 -3,4 -11,1 -23,16 -27,21 -1,1 -2,2 -3,2z"/>
   <path class="fil0" d="M390 486c-1,0 -2,0 -2,-1 -2,-1 -2,-3 0,-4 0,-1 13,-15 26,-15 1,0 3,1 3,3 0,1 -1,3 -3,3 -8,0 -19,9 -22,13 0,1 -1,1 -2,1z"/>
   <path class="fil0" d="M429 494c-1,0 -1,0 -2,0 -1,-1 -2,-3 -1,-5 0,0 7,-13 20,-14 2,0 3,2 3,3 0,2 -1,3 -3,4 -9,0 -15,10 -15,10 0,1 -1,2 -2,2z"/>
   <path class="fil0" d="M582 293c-5,0 -10,-1 -18,-5 -3,-2 -6,-4 -7,-7 -1,-4 1,-9 4,-15 6,-9 5,-23 5,-23 0,-2 1,-3 3,-4 1,0 3,2 3,3 0,1 1,16 -5,27 -3,4 -5,8 -4,10 0,1 2,2 4,3 10,5 18,6 21,3l2 -1c4,-3 12,-10 11,-13 0,-2 -3,-7 -4,-8 -1,-1 0,-3 1,-4 1,-2 3,-1 4,0 1,1 5,7 6,12 0,5 -5,10 -14,17l-2 2c-2,2 -6,3 -10,3z"/>
   <path class="fil0" d="M503 201c0,0 0,-1 -1,-1 -1,0 -2,-2 -2,-4 1,0 8,-20 35,-16 2,0 3,1 3,3 0,2 -2,3 -4,3 -21,-3 -27,12 -28,13 0,1 -1,2 -3,2z"/>
   <path class="fil0" d="M602 190c-2,0 -3,-1 -3,-2 0,-2 1,-4 3,-4l33 -4c2,0 3,1 3,3 1,2 -1,3 -2,3l-34 4c0,0 0,0 0,0z"/>
   <path class="fil0" d="M586 335c-9,0 -17,3 -20,7 -2,2 -2,5 -1,8 1,2 4,3 9,3 5,0 11,-1 17,-2 6,-2 9,-6 10,-9 0,-2 -1,-4 -3,-5 -2,-1 -6,-2 -12,-2zm-12 25c-10,0 -14,-4 -15,-8 -2,-6 0,-11 1,-14 7,-8 22,-9 26,-9 7,0 12,1 15,3 6,3 6,8 6,11 -1,5 -6,11 -14,14 -7,2 -13,3 -19,3z"/>
   <path class="fil0" d="M505 258c-1,0 -3,-1 -3,-3 0,-1 1,-3 3,-3l34 -3c1,0 3,1 3,3 0,1 -1,3 -3,3l-33 3c-1,0 -1,0 -1,0z"/>
   <path class="fil0" d="M616 247c-2,0 -3,-1 -3,-3 0,-2 1,-3 3,-3l34 -4c2,0 3,1 4,3 0,2 -2,3 -3,3l-35 4c0,0 0,0 0,0z"/>
   <path class="fil1" d="M517 254c0,0 -2,14 5,15 8,1 8,-17 8,-17 0,1 -13,2 -13,2z"/>
   <path class="fil1" d="M628 243c0,0 -1,11 6,12 6,0 7,-12 7,-13 -1,-2 -13,1 -13,1z"/>
   <path class="fil1" d="M485 285c0,0 4,-42 3,-53 0,-11 5,-68 15,-77 10,-9 42,-17 74,-19 32,-2 55,2 67,20 13,17 26,61 37,61 12,1 -22,-71 -30,-81 -8,-10 -50,-30 -97,-19 -48,12 -73,22 -77,82 -3,61 8,86 8,86z"/>
   <path class="fil0" d="M1082 434l-89 0c-3,0 -4,-2 -4,-4 0,-3 1,-4 4,-4l89 0c2,0 4,1 4,4 0,2 -2,4 -4,4z"/>
   <path class="fil0" d="M847 435l-36 0c-2,0 -4,-2 -4,-4 0,-3 2,-4 4,-4l36 0c2,0 4,1 4,4 0,2 -2,4 -4,4z"/>
   <path class="fil0" d="M55 427l-51 0c-2,0 -4,-1 -4,-4 0,-2 2,-4 4,-4l51 0c2,0 4,2 4,4 0,3 -2,4 -4,4z"/>
   <path class="fil0" d="M971 430c-2,0 -4,0 -7,-1 -2,0 -3,-2 -2,-3 0,-2 2,-3 3,-3 9,2 14,0 18,-6 8,-12 3,-38 0,-42 -1,-1 -9,2 -16,8 -2,1 -4,1 -5,-1 -1,-1 -1,-3 1,-4 4,-3 18,-13 25,-7 4,4 9,33 1,48 -3,6 -8,11 -18,11z"/>
   <path class="fil1" d="M938 412c0,0 -4,-30 2,-32 7,-3 13,20 12,36 -1,16 -12,15 -14,-4zm-1 28c3,0 6,3 6,6 0,3 -3,6 -6,6 -4,0 -6,-3 -6,-6 0,-3 2,-6 6,-6z"/>
  </g>
 </g>
</svg>
