<?xml version="1.0" encoding="UTF-8"?>
<!DOCTYPE svg PUBLIC "-//W3C//DTD SVG 1.1//EN" "http://www.w3.org/Graphics/SVG/1.1/DTD/svg11.dtd">
<!-- Creator: CorelDRAW X7 -->
<svg xmlns="http://www.w3.org/2000/svg" xml:space="preserve" width="78.4026mm" height="89.3988mm" version="1.1" style="shape-rendering:geometricPrecision; text-rendering:geometricPrecision; image-rendering:optimizeQuality; fill-rule:evenodd; clip-rule:evenodd"
viewBox="0 0 335 382"
 xmlns:xlink="http://www.w3.org/1999/xlink">
 <defs>
  <style type="text/css">
   <![CDATA[
    .fil1 {fill:black}
    .fil0 {fill:black;fill-rule:nonzero}
   ]]>
  </style>
 </defs>
 <g id="Layer_x0020_1">
  <metadata id="CorelCorpID_0Corel-Layer"/>
  <g id="_1042380016">
   <path class="fil0" d="M10 240c-1,0 -2,-1 -2,-2l-8 -173c0,0 0,0 0,0 0,-1 2,-31 12,-44 1,0 1,0 1,-1 1,0 30,-16 88,-19 62,-4 75,10 76,19 1,2 0,3 -1,3 -1,0 -3,-1 -3,-2 -1,-5 -9,-20 -72,-16 -53,3 -82,17 -86,19 -8,12 -11,39 -11,41l8 173c1,1 0,2 -2,2 0,0 0,0 0,0z"/>
   <path class="fil0" d="M65 247c-1,0 -2,-1 -2,-1 -1,-2 -20,-33 -3,-65 0,-7 4,-72 17,-95 12,-21 29,-21 35,-21 2,-5 10,-21 35,-28 3,-4 14,-21 44,-17 29,4 38,15 40,18 3,1 15,4 21,14 4,6 5,14 4,22 6,3 23,13 26,51 5,43 8,87 8,87 0,2 -1,3 -2,3 -1,0 -2,-1 -2,-2 0,-1 -4,-45 -8,-88 -4,-41 -25,-47 -25,-47 -1,-1 -2,-2 -2,-3 2,-8 1,-15 -2,-20 -7,-10 -20,-13 -20,-13 0,0 -1,-1 -1,-1 0,0 -7,-12 -38,-17 -30,-4 -39,15 -39,16 -1,1 -1,1 -2,1 -28,7 -33,26 -33,27 0,1 -1,2 -3,2 0,0 -20,-4 -32,18 -13,23 -17,93 -17,93 0,1 0,1 0,1 -16,31 2,61 2,62 1,1 1,2 0,2 -1,1 -1,1 -1,1z"/>
   <path class="fil0" d="M232 332l0 0 -57 0c0,0 -1,0 -1,0l-12 -13c-1,0 -1,-1 -1,-1l0 -92c0,-2 1,-2 2,-3l161 -14c1,0 1,1 2,1 0,1 0,1 0,2l-10 103c0,0 0,1 0,1l-9 12c-1,0 -1,0 -2,0l-39 1c-1,0 -2,-1 -2,-2 0,-1 1,-2 2,-2l38 -1 8 -10 10 -100 -157 14 0 89 11 11 56 0c1,0 2,1 2,2 0,1 -1,2 -2,2z"/>
   <path class="fil0" d="M233 359c2,0 3,0 5,0 12,0 21,-2 24,-3l3 -45 -29 0 -3 48zm5 5c-2,0 -5,-1 -7,-1 -1,0 -2,-1 -2,-2l3 -52c0,-1 1,-2 2,-2l33 0c0,0 1,0 1,0 1,1 1,1 1,2l-3 48c0,1 -1,2 -2,2 0,0 -10,5 -26,5z"/>
   <path class="fil0" d="M231 363c-1,0 -1,0 -1,-1l-8 -8c-1,0 -1,0 -1,-1l2 -23c0,-1 1,-1 1,-1 1,0 2,0 2,1l-1 23 7 7c1,1 1,2 0,2 0,1 -1,1 -1,1z"/>
   <path class="fil0" d="M242 382c-4,0 -7,0 -11,-1 -19,-1 -30,-7 -31,-16 0,-6 1,-11 5,-15 6,-8 17,-8 18,-8 1,-1 2,0 2,1 0,2 -1,3 -2,3 0,0 -10,1 -15,7 -3,3 -4,7 -3,12 0,6 10,11 27,12 26,2 55,-4 56,-9 2,-4 1,-8 -1,-11 -4,-5 -12,-8 -23,-9 -1,0 -2,-1 -2,-2 0,-1 1,-2 2,-2 13,0 22,4 26,10 3,4 4,9 3,15 -3,8 -29,13 -51,13z"/>
   <path class="fil0" d="M87 312c-1,0 -1,-1 -2,-1l-18 -30c0,0 -1,-1 -1,-1l1 -25c0,-1 1,-2 2,-2l41 -1c1,0 2,1 2,2 0,1 -1,2 -2,2l-39 1 0 22 17 28 75 -2c1,0 2,1 2,2 0,1 -1,2 -2,2l-76 3c0,0 0,0 0,0z"/>
   <path class="fil0" d="M33 247c-1,0 -2,0 -2,-1 0,-2 -5,-155 -6,-189 0,-19 -4,-26 -7,-28 -3,-3 -6,-2 -6,-2 -1,0 -1,0 -2,-1 0,-1 1,-2 2,-2 0,0 4,-1 8,2 5,5 8,15 9,31 0,34 5,187 5,189 0,1 0,1 -1,1 0,0 0,0 0,0z"/>
   <path class="fil0" d="M117 246c0,0 0,0 -1,0l-6 -4c0,0 0,0 -1,-1l0 -3c-3,-3 -19,-15 -31,-26 -14,-13 -18,-31 -18,-32 0,-1 1,-2 2,-2 0,0 1,0 1,1 0,0 4,19 17,31 14,12 31,25 31,26 1,0 1,0 1,1l1 3 3 2c3,-4 10,-17 25,-20l-12 -10 -5 0c0,0 0,-1 -1,-1 0,0 -18,-15 -24,-33 0,-1 0,-1 1,-2 1,0 2,0 2,1 6,16 20,29 23,31l5 0c0,0 0,1 1,1l15 13c0,0 0,1 0,1 0,1 -1,1 -1,2 -19,2 -26,20 -26,20 -1,0 -1,1 -1,1 -1,0 -1,0 -1,0z"/>
   <path class="fil0" d="M305 328c0,0 0,0 0,0 -1,0 -2,-1 -2,-2l6 -93 -126 9c0,0 -1,0 -1,0l-20 -15c-1,-1 -1,-2 0,-2 0,-1 1,-1 2,-1l19 15 127 -9c1,0 1,0 1,0 1,1 1,1 1,2l-6 94c0,1 0,2 -1,2z"/>
   <path class="fil0" d="M175 332c0,0 0,0 0,0 -1,0 -1,-1 -1,-2l7 -90c0,-1 1,-1 2,-1 1,0 1,0 1,1l-7 90c0,1 -1,2 -2,2z"/>
   <path class="fil0" d="M241 375c-17,0 -31,-2 -38,-6 -1,0 -2,-1 -1,-2 0,-1 1,-1 2,-1 3,2 17,8 51,5 26,-1 32,-16 32,-16 1,-1 2,-1 2,-1 1,0 2,1 1,2 0,1 -6,17 -35,19 -5,0 -10,0 -14,0z"/>
   <path class="fil0" d="M183 146c-1,0 -1,0 -2,0 -11,0 -27,-3 -37,-17 -20,-27 3,-88 4,-90 0,-1 1,-1 2,-1 1,0 1,1 1,2 0,1 -23,62 -4,87 9,13 24,16 34,16 16,0 32,-5 35,-9 6,-8 17,-66 12,-94 0,-1 0,-2 1,-2 1,0 2,1 2,1 5,28 -5,87 -13,97 -4,5 -19,10 -35,10z"/>
   <path class="fil0" d="M140 116c-1,0 -1,0 -1,0 -30,-14 -27,-48 -27,-49 0,0 1,-1 2,-1 1,0 2,1 1,2 0,1 -3,32 25,45 1,1 1,2 1,3 0,0 -1,0 -1,0z"/>
   <path class="fil0" d="M222 123c0,0 -1,0 -1,-1 0,-1 0,-2 1,-2 26,-6 30,-44 30,-45 0,0 1,-1 1,-1 1,0 2,1 2,2 0,1 -4,40 -32,47 0,0 -1,0 -1,0z"/>
   <path class="fil0" d="M212 223c-1,0 -2,-1 -2,-2 0,0 0,-12 5,-19 5,-6 20,-36 20,-43 -1,-8 -1,-14 -1,-14 0,-1 1,-2 2,-2l0 0c1,0 2,1 2,2l1 35 0 12c0,1 0,1 -1,1 -1,1 -2,0 -2,-1l0 -12 -1 -10c-4,13 -14,30 -18,35 -4,5 -4,16 -4,16 0,1 0,2 -1,2 0,0 0,0 0,0z"/>
   <path class="fil0" d="M138 99c0,0 0,0 0,0 -6,0 -11,-4 -14,-11 -2,-5 -2,-11 1,-15 5,-5 13,0 16,3 0,0 0,1 0,2 -1,1 -2,1 -2,0 0,0 -7,-6 -11,-2 -2,2 -3,6 -1,11 1,2 4,9 11,9 1,0 1,1 1,2 0,1 0,1 -1,1z"/>
   <path class="fil0" d="M231 107c-2,0 -4,-1 -5,-2 -1,0 -2,-1 -1,-2 0,-1 1,-1 2,-1 6,3 10,-1 12,-4 3,-5 4,-12 1,-14 -1,-1 -3,-2 -4,-1 -3,0 -6,3 -6,3 0,1 -1,1 -2,0 -1,0 -1,-1 0,-2 0,0 3,-4 7,-5 3,0 5,1 7,3 5,3 3,12 0,18 -3,4 -7,7 -11,7z"/>
   <path class="fil0" d="M110 238c0,0 -1,0 -1,-1 0,-1 0,-20 15,-28 0,-1 1,-1 2,0 0,1 0,2 -1,2 -13,8 -13,26 -13,26 0,1 -1,1 -1,1l-1 0z"/>
   <path class="fil0" d="M223 222c0,0 0,0 0,0 -1,0 -1,-1 -1,-2 0,-1 5,-30 24,-31 10,-1 18,2 24,7 5,5 8,12 8,20 0,1 -1,1 -1,1 -1,0 -2,0 -2,-1 0,-7 -3,-13 -7,-18 -6,-4 -13,-7 -22,-6 -16,1 -21,28 -21,29 0,0 -1,1 -2,1z"/>
   <path class="fil0" d="M264 218c-1,0 -2,0 -2,-1 0,0 -3,-12 -11,-17 -5,-3 -11,-3 -17,-1 -1,0 -2,-1 -2,-1 0,-1 0,-2 1,-2 7,-3 14,-2 19,1 10,6 13,19 13,20 0,0 0,1 -1,1 0,0 0,0 0,0z"/>
   <path class="fil0" d="M91 292c0,0 -1,0 -1,0l-22 -36c-1,-1 0,-2 0,-2 1,-1 2,-1 3,0l21 35 71 -1c1,-1 2,0 2,1 0,1 -1,2 -2,2l-72 1c0,0 0,0 0,0z"/>
   <path class="fil0" d="M87 311c0,0 0,0 0,0 -1,0 -2,-1 -2,-2l5 -19c0,0 1,-1 1,-1 1,0 2,1 2,2l-4 19c-1,1 -1,1 -2,1z"/>
   <path class="fil0" d="M172 76c-1,0 -2,0 -2,-1 -5,-9 -15,-6 -16,-5 -1,0 -1,-1 -2,-2 0,0 0,-1 1,-2 5,-1 15,-1 20,8 0,1 0,2 -1,2 0,0 0,0 0,0z"/>
   <path class="fil0" d="M197 83c-1,0 -1,0 -1,0 -1,-1 -1,-2 -1,-3 1,0 8,-11 26,-7 1,0 2,1 1,2 0,1 -1,1 -2,1 -15,-3 -22,6 -22,6 0,1 -1,1 -1,1z"/>
   <path class="fil0" d="M185 104c-1,0 -2,0 -3,-1 -1,0 -1,-1 -1,-1 -3,-2 -6,-4 -7,-8 0,-1 0,-2 1,-3 1,-1 2,-1 2,0 1,0 1,1 1,2 -1,0 -1,1 -1,1 1,2 4,4 6,6 0,0 0,0 1,0 1,2 3,1 7,-1l1 -1c2,0 3,-1 3,-1 0,-2 -2,-4 -3,-4 -4,-4 -3,-11 -3,-12 0,0 1,-1 2,-1 1,1 2,1 1,2 0,0 -1,6 2,8 2,2 4,4 4,7 0,2 -2,3 -4,4l-1 1c-3,1 -5,2 -8,2z"/>
   <path class="fil0" d="M131 273c0,0 -1,0 -1,0 0,0 -1,0 -2,-2 -1,-3 -6,-8 -8,-10 -4,-1 -10,-5 -8,-11 2,-7 9,-8 11,-8 1,-3 4,-8 8,-9 4,-1 7,1 9,1 3,-4 7,-8 11,-9 5,-1 9,0 13,4 1,0 1,1 0,2 -1,1 -2,1 -2,0 -3,-3 -6,-4 -10,-3 -4,1 -8,4 -10,9 0,1 0,1 -1,1 0,0 0,0 -1,0 0,0 -4,-3 -8,-2 -3,1 -5,6 -6,8 0,0 -1,1 -1,1 -1,0 -8,0 -10,6 -2,5 6,7 6,7 0,0 1,1 1,1 0,0 7,6 9,11 1,-1 4,-4 6,-8 0,0 1,-1 2,0 1,0 1,1 1,2 -3,4 -7,9 -9,9z"/>
   <path class="fil0" d="M157 260c-3,0 -5,-3 -7,-5 -3,-4 -5,-6 -8,-5 0,0 -1,0 -2,-1 0,-1 0,-2 1,-2 5,-3 8,2 11,6 2,2 4,4 5,4 0,0 1,0 1,-1 1,-2 0,-8 -2,-12 -3,-5 -6,-6 -7,-6 0,0 -1,-1 -1,-2 1,-1 1,-1 2,-1 0,0 5,1 9,7 2,5 4,12 2,16 -1,1 -2,2 -3,2 -1,0 -1,0 -1,0z"/>
   <path class="fil0" d="M145 270c-2,0 -4,-2 -7,-5 -3,-3 -6,-6 -10,-8 -1,0 -2,-1 -1,-2 0,-1 1,-1 2,-1 4,2 8,6 11,9 2,2 4,4 5,4 0,0 0,0 0,-1 1,-2 2,-6 1,-9 -1,-2 -1,-3 -2,-4 -3,-5 -8,-4 -9,-4 -1,0 -1,0 -2,-1 0,-1 1,-2 2,-2 0,0 8,-1 12,5 0,2 1,3 2,5 1,3 1,9 -1,12 -1,1 -2,2 -3,2 0,0 0,0 0,0z"/>
   <path class="fil1" d="M141 70c0,0 7,-7 8,-13 2,-6 15,-25 40,-22 25,3 36,10 37,20 0,10 4,22 4,22 0,0 1,-31 0,-37 -2,-5 -21,-15 -45,-18 -24,-4 -37,8 -44,48zm69 15c2,0 3,3 3,6 -1,4 -2,7 -5,7 -2,0 -3,-3 -3,-7 1,-3 3,-6 5,-6zm-45 -7c2,0 4,3 3,7 0,3 -2,6 -4,6 -2,0 -3,-3 -3,-6 0,-4 2,-7 4,-7z"/>
   <polygon class="fil1" points="318,57 330,55 319,84 335,83 298,132 313,93 296,93 "/>
   <polygon class="fil1" points="310,146 316,145 313,164 323,163 304,194 310,169 299,169 "/>
   <polygon class="fil1" points="114,173 119,167 131,184 139,175 150,215 134,191 125,200 "/>
   <polygon class="fil1" points="71,165 77,160 86,179 95,172 97,213 87,187 76,193 "/>
   <path class="fil0" d="M146 231c0,0 -1,0 -1,-1l-5 -6c0,0 0,-1 0,-2 1,0 2,0 3,0l4 6c1,1 1,2 0,3 0,0 -1,0 -1,0z"/>
   <path class="fil0" d="M134 277l2 5 12 -2 -3 -4 -11 1zm1 8c-1,0 -1,0 -1,-1l-4 -8c0,0 0,-1 0,-1 0,-1 1,-1 1,-1l15 -1c1,0 1,0 2,0l4 8c1,0 1,1 0,1 0,1 0,1 -1,1l-16 2c0,0 0,0 0,0z"/>
   <path class="fil0" d="M105 265l2 5 12 -1 -2 -5 -12 1zm1 9c0,0 -1,-1 -1,-1l-4 -8c0,-1 0,-1 0,-2 1,0 1,-1 2,-1l14 -1c1,0 1,0 2,1l4 7c1,1 1,1 0,2 0,0 0,1 -1,1l-16 2c0,0 0,0 0,0z"/>
   <path class="fil0" d="M112 277l3 5 12 -1 -3 -5 -12 1zm2 8c-1,0 -2,0 -2,-1l-3 -8c-1,0 -1,-1 0,-1 0,-1 0,-1 1,-1l15 -1c0,0 1,0 1,1l5 7c0,0 0,1 0,1 0,1 -1,1 -1,1l-16 2c0,0 0,0 0,0z"/>
   <path class="fil0" d="M153 274l2 5 6 -1 0 -4 -8 0zm1 9c0,0 -1,-1 -1,-1l-4 -9c0,0 0,-1 1,-1 0,-1 0,-1 1,-1l12 -1c0,0 1,0 1,1 0,0 1,0 1,1l0 8c0,1 -1,1 -2,1l-8 2c0,0 -1,0 -1,0z"/>
   <path class="fil0" d="M150 264l2 4 9 -1 0 -4 0 -1 -11 1c0,0 0,0 0,0 0,0 0,1 0,1zm1 7c-1,0 -2,0 -2,-1l-2 -5c-1,-1 -1,-1 0,-2 0,0 0,0 0,-1 0,0 0,0 0,-1 0,-1 1,-1 1,-1l14 -1c0,0 1,0 1,0l1 2c1,1 1,1 1,1l0 6c0,1 -1,2 -2,2l-12 1c0,0 0,0 0,0z"/>
   <path class="fil0" d="M189 140c-4,0 -9,-1 -15,-4 -7,-3 -12,-7 -14,-12 -2,-4 -1,-9 2,-15 3,-6 12,-5 16,-3 1,1 2,2 2,3 -1,1 -2,2 -3,1 0,0 -9,-3 -12,1 -2,5 -2,8 -1,12 2,3 6,7 12,9 17,7 21,2 25,-5 1,-2 1,-4 0,-6 -2,-4 -7,-8 -12,-9 -1,0 -2,-1 -2,-2 1,-2 2,-2 3,-2 7,2 13,6 15,12 2,3 1,6 0,9 -4,6 -8,11 -16,11z"/>
   <path class="fil0" d="M174 115c-2,4 -2,8 -1,10 2,3 5,3 8,3 1,0 2,0 3,0 4,0 5,-6 6,-8l-16 -5zm7 16c-6,0 -9,-2 -11,-4 -2,-4 -2,-9 1,-14 1,-1 1,-2 2,-1l19 5c1,0 1,1 1,2 0,0 0,11 -9,12 -1,0 -2,0 -3,0z"/>
  </g>
 </g>
</svg>
