<?xml version="1.0" encoding="UTF-8"?>
<!DOCTYPE svg PUBLIC "-//W3C//DTD SVG 1.1//EN" "http://www.w3.org/Graphics/SVG/1.1/DTD/svg11.dtd">
<!-- Creator: CorelDRAW X7 -->
<svg xmlns="http://www.w3.org/2000/svg" xml:space="preserve" width="100.157mm" height="76.4262mm" version="1.1" style="shape-rendering:geometricPrecision; text-rendering:geometricPrecision; image-rendering:optimizeQuality; fill-rule:evenodd; clip-rule:evenodd"
viewBox="0 0 402 307"
 xmlns:xlink="http://www.w3.org/1999/xlink">
 <defs>
  <style type="text/css">
   <![CDATA[
    .fil1 {fill:black}
    .fil0 {fill:black;fill-rule:nonzero}
   ]]>
  </style>
 </defs>
 <g id="Layer_x0020_1">
  <metadata id="CorelCorpID_0Corel-Layer"/>
  <g id="_970329264">
   <path class="fil0" d="M32 246c-1,0 -2,0 -2,-1l-18 -80c-3,-4 -21,-32 -6,-53 0,0 1,-1 1,-1l96 -43c1,0 2,0 2,1 1,1 0,2 -1,3l-95 43c-14,19 6,48 6,48 0,0 0,0 0,1l19 80c0,1 0,2 -1,2 -1,0 -1,0 -1,0z"/>
   <path class="fil0" d="M81 307c0,0 -1,0 -1,0 -3,-1 -5,-4 -5,-6 -2,1 -6,2 -9,1 -3,-1 -5,-3 -5,-5 -3,0 -8,0 -11,-4 -2,-5 2,-9 5,-12 -2,-1 -4,-2 -4,-4 0,-2 0,-5 30,-10 1,-5 2,-12 2,-13 0,-1 -1,-1 -1,-1 -1,-1 -4,-2 -4,-7l0 -1c0,-6 0,-13 -4,-21 -2,-5 -3,-14 -5,-23 -1,-8 -2,-17 -4,-23 -3,-8 3,-20 7,-30 2,-4 5,-9 4,-10 -1,-7 -2,-48 25,-69 -2,-6 -2,-14 2,-17 2,-2 5,-2 8,-1 -3,-17 -1,-29 5,-38 7,-8 18,-12 34,-13 24,-1 36,2 44,17 6,12 8,29 8,36 2,-1 5,-1 8,1 2,1 2,4 2,7 0,4 -2,10 -5,12 -5,4 -8,4 -9,4 -1,0 -2,-2 -1,-3 0,-1 1,-1 2,-1 0,0 2,0 6,-3 2,-1 3,-5 3,-9 0,-2 0,-4 -1,-4 -2,-2 -6,0 -6,0 -1,1 -1,1 -2,0 0,0 -1,-1 -1,-1 0,-1 -1,-24 -7,-37 -7,-12 -16,-16 -41,-15 -15,1 -25,5 -30,12 -7,8 -8,20 -4,38 0,1 0,1 -1,2 -1,0 -1,0 -2,0 -2,-1 -6,-3 -8,-1 -2,1 -2,8 0,14 1,1 0,2 0,2 -30,22 -25,66 -25,66 1,3 -1,6 -4,13 -4,9 -10,20 -7,27 2,6 3,15 4,24 2,8 3,17 5,21 4,9 4,17 4,23l0 1c0,2 1,3 2,4 1,0 2,1 2,2 1,0 2,2 -1,17 0,1 -1,2 -2,2 -11,2 -23,4 -27,6 1,1 3,1 5,1 1,0 1,1 2,2 0,1 -1,2 -1,2 -4,2 -9,7 -8,9 2,3 8,1 8,1 0,0 1,0 2,1 0,0 0,1 0,1 0,1 1,4 3,4 3,1 8,-1 9,-2 1,-1 2,-1 2,0 1,0 1,1 1,2 0,0 -1,4 2,5 2,0 10,-7 16,-11 9,-7 14,-12 18,-12 3,0 6,2 9,3 3,2 7,3 9,2 2,0 2,-1 2,-1 0,-2 -2,-5 -4,-6 -3,-3 -15,-10 -15,-10 -1,-1 -1,-1 -1,-2 3,-10 8,-38 7,-45 0,-3 -1,-5 -1,-6 -2,-4 -3,-8 0,-16 3,-6 1,-11 0,-16 0,-3 -1,-6 -1,-8l3 -20 4 1 -3 19c0,2 1,4 1,7 1,5 3,12 0,19 -3,6 -2,9 -1,12 1,2 2,4 2,7 1,9 -5,38 -6,45 3,2 10,8 13,10 3,1 6,5 6,9 0,2 -2,4 -4,5 -4,1 -8,0 -13,-2 -2,-1 -5,-3 -7,-3 -2,0 -10,7 -16,11 -9,8 -15,12 -18,12z"/>
   <path class="fil0" d="M239 287c-5,0 -12,-5 -22,-12 -4,-3 -9,-6 -11,-7 0,0 -1,1 -1,1 -4,4 -11,9 -19,9 -7,0 -9,-3 -9,-4 -1,-3 0,-6 3,-7 3,-2 16,-11 20,-14l-1 -9c-2,-2 -5,-4 -5,-10 0,-2 1,-6 2,-10 1,-6 3,-14 2,-18 -1,-2 -2,-4 -3,-7 -4,-11 -12,-31 -9,-41 0,-1 1,-2 2,-1 1,0 2,1 2,2 -3,9 5,28 9,39 1,3 2,5 3,7 1,5 -1,13 -2,20 -1,4 -2,7 -2,9 0,5 4,7 4,7 0,0 1,1 1,1l1 12c0,1 -1,1 -1,2 -1,0 -17,12 -21,14 -1,1 -2,2 -2,2 1,1 3,2 6,2 6,0 12,-5 16,-8 1,0 2,-1 3,-1 2,-2 5,0 15,7 6,4 16,12 19,11 1,-1 1,-1 2,-2 0,-1 -1,-2 -2,-3 -1,-1 -1,-2 -1,-3 1,-1 2,-1 3,-1 0,0 5,3 11,1 2,0 3,0 3,-1 1,-2 0,-4 0,-5 0,0 0,-1 0,-2 1,0 1,-1 2,0 3,0 7,0 8,-1 1,-3 -2,-5 -2,-5 -1,0 -1,-1 -1,-2 0,0 0,-1 1,-1 1,-1 2,-3 3,-3 -4,-2 -20,-4 -34,-5 -1,0 -2,-1 -2,-2 0,0 0,-2 -1,-6 0,-2 0,-6 1,-12 1,-5 2,-12 2,-14 -2,-4 -1,-11 0,-19 0,-2 0,-4 1,-6 0,-5 -1,-7 -1,-9 -1,-3 -1,-5 -1,-9 1,-8 -1,-26 -4,-32 -3,-6 -3,-16 -4,-31 0,-4 0,-8 0,-13 -1,-18 -18,-23 -18,-23 -1,0 -1,-2 -1,-3 0,-1 1,-1 2,-1 1,0 20,6 21,27 0,5 0,9 0,13 1,13 1,24 3,29 4,7 6,25 5,34 0,4 0,6 1,8 0,2 1,5 1,10 -1,2 -1,5 -1,7 -1,7 -2,13 -1,16 1,3 1,9 -1,17 -1,4 -1,9 -1,10 0,2 1,4 1,5 34,3 35,6 36,7 1,2 -1,5 -3,6 2,2 3,5 2,8 -2,4 -6,4 -10,4 1,1 0,3 0,5 -1,1 -3,3 -6,3 -3,1 -6,1 -9,0 1,1 1,2 1,3 -1,1 -2,3 -5,4 0,1 -1,1 -1,1z"/>
   <path class="fil0" d="M154 118c-4,0 -9,0 -12,-1 -14,-4 -16,-18 -14,-28 2,-10 21,-9 24,-9 1,0 2,1 2,2 0,1 -1,2 -2,2 -5,0 -19,1 -20,6 -2,8 0,20 11,23 12,3 34,0 36,-7 2,-5 4,-15 0,-20 -4,-4 -10,-5 -20,-3 -1,0 -2,-1 -2,-2 -1,-1 0,-2 1,-2 11,-2 19,-1 24,4 7,8 2,23 1,25 -2,7 -17,10 -29,10z"/>
   <path class="fil0" d="M82 10c-3,0 -5,0 -7,2 -2,3 -1,7 -1,7 0,1 -1,2 -2,2 -4,1 -6,3 -7,5 -1,5 4,12 6,14 3,3 5,4 7,4 5,0 7,-6 7,-6 0,-1 0,-1 1,-1 0,-1 1,-1 2,0 1,0 4,1 7,1 3,0 6,-1 8,-1 1,-1 1,-2 1,-3 0,-2 -2,-4 -2,-4l-13 -8c-1,0 -1,-1 -1,-2 0,-1 0,-1 1,-2 2,0 3,-2 2,-4 0,-3 -3,-4 -8,-4 -1,0 -1,0 -1,0zm-4 38c-3,0 -6,-2 -10,-6 0,0 -9,-9 -6,-17 0,-3 3,-6 8,-7 0,-2 0,-6 2,-9 3,-2 6,-4 10,-4 0,0 0,0 1,1 10,0 12,6 12,7 1,3 0,5 -2,7l11 7c0,0 0,0 0,0 1,0 4,3 4,7 0,2 -1,5 -3,7 0,0 0,0 -1,0 0,0 -4,1 -9,1 -3,0 -5,0 -7,-1 -2,3 -4,7 -10,7z"/>
   <path class="fil0" d="M206 28c2,1 10,3 17,4 1,0 2,1 2,2 0,1 1,5 2,5 1,0 1,0 1,-1 1,0 2,0 2,-1 0,0 0,-1 0,-1 -1,-1 -1,-2 0,-3 0,0 1,-1 2,0 0,0 2,1 5,1 2,0 4,-1 7,-2 1,-1 2,-2 2,-2 0,-1 -2,-2 -4,-3 -1,0 -1,0 -1,-1 0,-1 0,-1 0,-2 0,0 4,-4 1,-6 -1,-2 -4,-3 -5,-3 -1,0 -1,0 -1,0 -1,1 -2,0 -2,0 -1,-1 -1,-1 -1,-2 0,-1 0,-3 -2,-5 -2,-3 -5,-3 -8,-2 -3,1 -4,2 -5,4 -1,3 1,6 1,7 1,0 0,1 0,2 -5,4 -11,7 -13,8 0,0 0,1 0,1zm21 15c-4,0 -5,-4 -6,-7 -11,-2 -17,-4 -18,-5 -2,-1 -1,-5 -1,-6 0,-1 1,-1 1,-1 0,0 7,-3 12,-7 -1,-2 -2,-6 -1,-9 2,-3 4,-5 7,-6 6,-1 10,0 13,3 2,2 3,4 3,6 3,0 6,2 8,4 3,3 2,7 1,10 1,1 3,2 4,5 0,2 -2,4 -4,5 -3,2 -6,3 -9,3 -1,0 -2,0 -3,0 0,0 0,0 0,0 -1,2 -2,3 -5,4 0,0 -1,1 -2,1z"/>
   <path class="fil0" d="M243 215c-5,0 -10,-1 -10,-1 -1,0 -2,-1 -2,-2 0,-1 1,-2 2,-2 4,1 15,2 19,0 2,-1 4,-5 5,-10 1,-4 0,-7 0,-7 -2,-2 -13,-3 -22,-4 -2,0 -2,-1 -2,-2 0,-1 1,-2 2,-2 3,0 20,1 24,5 3,3 2,9 2,11 -1,5 -3,11 -7,13 -3,1 -8,1 -11,1z"/>
   <path class="fil0" d="M312 206c-1,0 -1,0 -1,0l-46 -3c-1,0 -1,0 -2,-1 0,0 0,-1 0,-1l18 -117c1,-1 2,-1 3,-1l117 15c0,0 1,0 1,1 0,0 0,1 0,1l-29 104c0,1 -1,2 -2,2l-32 0c-1,0 -2,-1 -2,-2 0,-1 1,-2 2,-2l31 0 28 -100 -113 -15 -18 112 45 3c1,1 2,1 2,3 -1,1 -1,1 -2,1z"/>
   <path class="fil0" d="M309 225l7 8 15 -2 9 -45 -22 -1 -9 40zm7 12c-1,0 -1,0 -2,-1l-8 -9c-1,0 -1,-1 -1,-2l10 -43c0,-1 1,-2 2,-1l25 1c1,0 1,0 2,1 0,0 0,1 0,1l-10 49c0,1 0,2 -1,2l-17 2c0,0 0,0 0,0z"/>
   <path class="fil0" d="M312 251c-14,0 -28,-3 -32,-15 -1,-5 0,-9 2,-12 7,-9 26,-9 27,-9 1,0 2,1 2,2 0,1 -1,2 -2,2 0,0 0,0 0,0 -2,0 -18,0 -23,7 -2,2 -3,5 -2,9 5,16 37,11 49,10 1,0 2,0 3,0 5,-1 9,-5 10,-10 1,-6 -4,-11 -12,-13 -1,-1 -1,-2 -1,-3 1,-1 2,-2 3,-1 10,3 15,10 14,17 -1,7 -7,13 -14,14 -1,0 -1,0 -2,0 -5,0 -13,2 -22,2z"/>
   <path class="fil0" d="M340 196c0,0 0,0 0,0l-15 -1c-1,0 -1,0 -1,-1l-8 -11c-1,0 -1,-1 0,-2 1,0 2,0 2,1l8 10 14 1c1,0 2,0 2,1 0,1 -1,2 -2,2z"/>
   <path class="fil0" d="M316 237c0,0 -1,0 -1,0 0,-1 -1,-1 -1,-2l9 -42c0,-1 1,-1 2,-1 1,0 1,1 1,2l-9 41c0,1 -1,2 -1,2z"/>
   <path class="fil0" d="M364 195l-24 0c-1,0 -1,0 -1,-1 0,-1 0,-2 1,-2l22 0 22 -80 -88 -10 -16 90 34 0c1,0 2,1 2,1 0,1 -1,2 -2,2l-35 0c-1,0 -1,0 -1,-1 -1,0 -1,0 -1,-1l17 -93c0,0 1,-1 1,-1l91 10c1,0 1,0 1,0 0,1 1,1 0,2l-22 83c0,1 -1,1 -1,1z"/>
   <path class="fil0" d="M295 102c0,0 -1,0 -1,0l-12 -16c0,-1 0,-2 0,-2 1,-1 2,-1 3,0l11 16c1,0 1,1 0,2 0,0 -1,0 -1,0z"/>
   <path class="fil0" d="M386 112c0,0 -1,0 -1,-1 -1,-1 -1,-1 0,-2l14 -10c1,-1 2,-1 2,0 1,1 1,2 0,2l-14 10c0,1 -1,1 -1,1z"/>
   <path class="fil0" d="M371 205c0,0 -1,0 -1,0l-8 -10c0,-1 0,-2 1,-3 0,0 1,0 2,1l7 10c1,1 1,2 0,2 0,0 -1,0 -1,0z"/>
   <path class="fil0" d="M265 203c-1,0 -1,-1 -2,-1 0,-1 0,-2 1,-2l14 -8c1,0 2,0 2,1 0,0 0,1 -1,2l-13 7c-1,1 -1,1 -1,1z"/>
   <path class="fil0" d="M200 243c-1,0 -1,0 -1,-1 -1,-1 0,-2 1,-2 0,0 23,0 30,-3 1,0 2,0 2,1 1,1 0,2 -1,2 -8,3 -30,3 -31,3 0,0 0,0 0,0z"/>
   <path class="fil0" d="M202 256c-1,0 -2,-1 -2,-2 0,-1 1,-1 2,-1 0,0 19,-1 29,-7 1,0 2,0 3,1 0,1 0,2 -1,2 -11,6 -30,7 -31,7 0,0 0,0 0,0z"/>
   <path class="fil0" d="M208 255l-1 -3 0 2 -1 0c0,0 -1,-12 -1,-12l3 -1 1 7c0,7 0,7 -1,7z"/>
   <path class="fil0" d="M217 254c0,0 -1,-1 -1,-1l-2 -12c0,-1 1,-1 1,-2 1,0 2,1 2,2l2 11c0,1 -1,2 -1,2 -1,0 -1,0 -1,0z"/>
   <path class="fil0" d="M225 252c0,0 -1,-1 -1,-1l-2 -11c0,-1 1,-1 1,-1 1,-1 2,0 2,1l2 10c0,1 -1,2 -1,2 0,0 -1,0 -1,0z"/>
   <path class="fil0" d="M122 215c0,0 0,0 -1,0 0,-1 0,-2 0,-2 3,-2 9,-8 11,-12 0,-1 1,-2 1,-3 1,-2 2,-4 5,-4 0,-1 2,-1 5,-1 6,0 17,0 25,-2 3,0 6,-1 8,-2 5,-1 7,-1 8,0 0,1 0,1 1,2 0,4 2,14 14,13 1,0 2,0 2,1 0,1 0,2 -1,2 -15,1 -18,-11 -18,-15 0,0 0,-1 0,-1 -1,0 -3,1 -6,1 -2,1 -4,1 -8,2 -7,2 -19,2 -25,2 -3,0 -4,0 -5,1 -1,0 -1,0 -2,2 0,1 -1,2 -1,3 -2,6 -11,13 -12,13 0,0 0,0 -1,0z"/>
   <path class="fil0" d="M136 113c-1,0 -1,0 -1,0 -27,-10 -23,-57 -23,-59 0,-1 1,-1 2,-1 1,0 1,1 1,1 0,1 -4,47 21,56 1,0 1,1 1,2 0,1 -1,1 -1,1z"/>
   <path class="fil0" d="M181 108c0,0 -1,0 -1,0 0,-1 0,-2 0,-2 19,-16 18,-50 18,-50 0,-1 1,-2 2,-2 0,0 0,0 0,0 0,0 1,1 1,1 0,2 1,37 -19,53 0,0 0,0 -1,0z"/>
   <path class="fil0" d="M145 58c-1,0 -1,0 -1,-1 -9,-12 -19,-8 -19,-8 -1,0 -2,0 -2,-1 -1,-1 0,-2 1,-2 0,0 12,-5 22,10 1,0 0,1 0,2 -1,0 -1,0 -1,0z"/>
   <path class="fil0" d="M169 52c-1,0 -1,0 -1,0 -1,0 -1,-1 -1,-2 1,0 4,-5 9,-5 3,-1 6,0 9,3 1,0 1,1 0,2 0,0 -1,0 -2,0 -2,-2 -4,-3 -7,-2 -4,0 -6,4 -6,4 0,0 -1,0 -1,0z"/>
   <path class="fil0" d="M150 57l0 0c-1,0 -1,0 -1,-1l0 -12c0,-1 0,-1 1,-1l0 0c1,0 2,0 2,1l0 12c0,1 -1,1 -2,1z"/>
   <path class="fil0" d="M156 59c-1,0 -1,-1 -2,-1l-1 -9c-1,-1 0,-2 1,-2 0,0 1,0 1,1l2 9c1,1 0,2 -1,2 0,0 0,0 0,0z"/>
   <path class="fil0" d="M159 55c0,0 0,0 0,0 0,0 -1,0 -1,-1l-2 -5c0,-1 0,-2 1,-2 1,0 2,0 2,1l1 3 2 -2c1,-1 1,-1 2,0 1,0 1,1 0,2l-3 4c-1,0 -1,0 -2,0z"/>
   <path class="fil0" d="M168 36c0,0 -1,0 -1,0 0,-1 0,-2 1,-2 6,-5 9,-12 9,-12 0,-1 1,-1 2,-1 0,1 1,1 1,2 -1,1 -3,8 -11,13 0,0 0,0 -1,0z"/>
   <path class="fil0" d="M187 40c-1,0 -2,0 -2,-1 -3,-8 -2,-13 -2,-14 0,0 1,-1 2,-1 0,0 1,1 1,2 0,0 -1,5 2,12 0,1 0,2 -1,2 0,0 0,0 0,0z"/>
   <path class="fil0" d="M184 42c0,0 -1,0 -1,0 -2,-3 -3,-6 -4,-8l-7 6c0,0 -1,0 -2,-1 0,0 0,-1 0,-2l9 -6c0,-1 1,-1 1,0 1,0 1,0 1,1 0,0 2,5 5,8 0,1 0,2 -1,2 0,0 0,0 -1,0z"/>
   <path class="fil0" d="M153 78c-2,0 -4,-1 -6,-2 -3,-2 -4,-4 -4,-5 0,-2 0,-4 2,-5 2,-2 2,-4 2,-4 1,-1 1,-2 2,-2 1,1 1,2 1,2 0,0 -1,4 -3,6 -1,1 -1,2 -1,2 0,1 1,2 2,3 4,3 6,2 8,1 3,-1 6,-3 6,-4 0,-1 0,-2 0,-2 -1,-1 -1,-2 0,-2 1,-1 2,0 2,0 0,0 1,2 1,4 0,2 -6,6 -8,7 -1,1 -2,1 -4,1z"/>
   <path class="fil0" d="M114 77c0,0 0,0 0,0 -2,-1 -11,-3 -12,-8 -1,-1 0,-1 1,-2 1,0 1,1 2,2 0,2 6,4 10,5 0,0 1,1 1,2 0,0 -1,1 -2,1z"/>
   <path class="fil0" d="M154 147c-4,0 -41,-13 -51,-31 -10,-19 3,-43 4,-44 0,0 1,-1 2,0 0,0 1,1 0,2 0,0 -13,23 -3,40 9,16 41,28 47,29 0,-2 -1,-8 -7,-26l0 -1c-1,-1 0,-1 1,-2 0,0 1,1 2,1l0 1c8,25 7,28 6,30 0,0 0,0 -1,1 0,0 0,0 0,0z"/>
   <path class="fil0" d="M156 143c-1,0 -2,0 -3,-1 -1,-2 -1,-4 2,-9 4,-6 9,-14 11,-18 1,-1 1,-2 1,-2 1,-1 2,-1 2,0 1,0 1,1 1,2 0,0 -1,0 -1,2 -3,3 -8,11 -12,18 -2,4 -2,5 -1,5 0,0 0,0 0,0 0,0 2,0 5,-2 15,-7 45,-34 46,-43 1,-9 -6,-13 -10,-15 -1,-1 -1,-2 -1,-2 0,-1 1,-1 2,-1 0,0 0,0 0,0 4,2 14,7 12,18 -1,13 -39,44 -52,48 -1,0 -1,0 -2,0z"/>
   <path class="fil0" d="M45 247c-1,0 -1,-1 -1,-1l-18 -84c0,0 0,0 0,0 0,-1 2,-43 -19,-47 0,-1 -1,-1 -1,-2 0,-1 1,-2 2,-1 23,4 21,46 21,50l18 83c0,1 -1,2 -2,2 0,0 0,0 0,0z"/>
   <path class="fil0" d="M13 165c-1,0 -2,-1 -2,-2 0,0 1,-1 2,-1l14 -2 50 -20c1,0 2,0 2,1 0,1 0,2 -1,2l-50 20c0,0 0,0 -1,0l-14 2c0,0 0,0 0,0z"/>
   <path class="fil0" d="M85 256c-1,0 -2,-1 -2,-2 0,-1 1,-1 2,-1l35 -2c1,0 2,1 2,2 0,1 -1,1 -2,1l-35 2c0,0 0,0 0,0z"/>
   <path class="fil0" d="M101 273c-7,0 -18,-2 -19,-3 0,0 -1,-1 -1,-1 1,-1 1,-2 2,-1 0,0 12,2 18,2 6,0 15,-5 16,-5 0,-1 1,0 2,0 0,1 0,2 -1,2 0,1 -10,6 -17,6 0,0 0,0 0,0z"/>
   <path class="fil0" d="M93 273l0 0c-1,0 -1,-1 -1,-2l0 -17c0,-1 0,-2 1,-2l0 0c1,0 2,1 2,2l0 17c0,1 -1,2 -2,2z"/>
   <path class="fil0" d="M103 273c-1,0 -2,-1 -2,-1l0 -19c0,0 1,-1 1,-1l0 0c1,0 2,1 2,1l0 19c0,0 -1,1 -1,1l0 0z"/>
   <path class="fil0" d="M111 270c0,0 -1,0 -1,-1l0 -16c0,-1 0,-1 1,-1l0 0c1,0 2,0 2,1l0 16c0,1 -1,1 -2,1l0 0z"/>
   <path class="fil0" d="M59 283c0,0 -1,-1 -1,-1 -1,-1 0,-2 1,-2l13 -5c1,0 2,0 2,1 0,1 0,2 -1,2l-13 4c0,1 -1,1 -1,1z"/>
   <path class="fil0" d="M62 297c-1,0 -1,-1 -2,-2 0,0 1,-1 1,-1 0,0 1,-1 1,-1 3,-3 9,-9 15,-11 1,0 2,0 2,1 0,1 0,2 -1,2 -5,2 -11,7 -14,10 -1,1 -1,1 -2,2 0,0 0,0 0,0z"/>
   <path class="fil0" d="M77 300c0,0 0,0 0,0 -1,-1 -2,-1 -1,-2 0,0 2,-7 7,-10 1,-1 2,0 2,0 1,1 1,2 0,2 -5,3 -6,9 -6,9 -1,0 -1,1 -2,1z"/>
   <path class="fil0" d="M243 279c0,0 -1,0 -1,0 -5,-1 -14,-9 -14,-10 -1,0 -1,-1 0,-2 0,0 1,0 2,0 0,0 8,8 13,9 1,1 1,1 1,2 0,1 -1,1 -1,1z"/>
   <path class="fil0" d="M259 270c-6,0 -20,-5 -20,-5 -1,-1 -2,-1 -1,-2 0,-1 1,-1 2,-1 0,0 13,5 19,5 0,0 0,0 0,0 1,0 1,1 1,2 0,1 0,1 -1,1l0 0z"/>
   <path class="fil0" d="M263 261c-6,0 -17,-3 -18,-3 -1,-1 -1,-1 -1,-2 0,-1 1,-1 2,-1 0,0 13,3 18,2 1,0 2,1 2,2 0,1 -1,1 -2,1 0,1 0,1 -1,1z"/>
   <path class="fil0" d="M314 260c-1,0 -2,0 -3,0 -11,-1 -19,-4 -24,-10 -7,-7 -6,-15 -6,-16 0,-1 0,-1 1,-1 1,0 2,1 2,1 0,0 -1,8 5,14 5,5 12,8 22,9 17,0 30,-4 35,-12 2,-3 2,-7 1,-11 -1,-1 0,-2 0,-2 1,0 2,0 2,1 3,4 2,9 -1,14 -5,8 -17,13 -34,13z"/>
   <path class="fil0" d="M80 248c0,0 0,0 0,0l-48 -2c-1,0 -2,-1 -2,-2 0,-1 1,-2 2,-2l48 2c1,0 2,1 2,2 0,1 -1,2 -2,2z"/>
   <path class="fil0" d="M122 246c-1,0 -2,-1 -2,-2 0,-1 1,-2 2,-2l75 -5c1,0 2,0 2,2 0,1 0,2 -2,2l-75 5c0,0 0,0 0,0z"/>
   <path class="fil0" d="M232 236c-1,0 -2,-1 -2,-2 -1,-1 0,-2 1,-2 1,0 31,-4 53,-9 1,0 2,0 2,1 0,1 0,2 -1,3 -22,5 -53,9 -53,9 0,0 0,0 0,0z"/>
   <path class="fil0" d="M137 97c0,9 5,12 8,11 3,-1 7,-1 18,-2l2 0c3,0 6,-1 7,-4 2,-3 1,-8 -1,-11 -1,-3 -4,-4 -8,-4 -3,0 -7,0 -13,2 -12,2 -13,7 -13,8zm7 14c-4,0 -10,-4 -10,-14 0,0 0,0 0,0 0,-1 0,-8 15,-11 6,-2 10,-2 14,-2 5,0 9,1 11,5 2,4 3,10 1,15 -2,2 -5,5 -10,5l-1 0c-11,1 -16,1 -18,2 -1,0 -2,0 -2,0z"/>
   <path class="fil0" d="M244 215c0,0 0,0 0,0 -1,-1 -2,-1 -2,-2 1,-4 1,-9 0,-10 -1,-1 -5,-1 -8,-1 -1,0 -2,-1 -2,-2 0,-1 1,-1 2,-1l0 0c10,0 11,2 11,2 1,2 0,9 0,12 0,1 0,2 -1,2z"/>
   <path class="fil0" d="M139 102c-2,0 -4,-1 -5,-2 0,0 0,-1 0,-2 1,-1 2,-1 2,0 1,1 3,2 3,1 1,0 1,-1 1,-1 0,-1 0,-3 1,-3 1,0 2,0 2,0 1,0 1,0 2,0 1,-1 3,-2 5,0 2,2 2,4 2,4 0,1 0,2 -1,2 -1,0 -2,0 -2,-1 0,0 0,-1 -2,-3 0,0 -1,0 -1,0 -1,1 -2,2 -3,1 0,1 -1,3 -2,4 0,0 -1,0 -2,0z"/>
   <path class="fil0" d="M172 99l0 0c-1,0 -3,-1 -4,-3 0,1 -2,2 -4,3 -3,0 -4,-3 -5,-5 0,0 0,-1 1,-1 1,-1 2,0 2,1 0,0 1,2 2,2 1,-1 1,-1 2,-2 1,-1 1,-1 2,-1 2,0 2,1 2,1 1,1 2,2 2,2l0 0c1,0 1,-1 1,-1 1,-1 2,-1 2,0 1,0 1,1 1,2 -1,1 -3,2 -4,2z"/>
   <path class="fil0" d="M73 41c-2,0 -5,-1 -7,-3 -1,0 -1,-1 -1,-2 1,0 2,-1 2,0 3,2 6,2 9,1 6,-2 10,-12 10,-12 0,-1 1,-1 2,-1 0,0 1,1 1,2 -1,0 -4,11 -12,14 -1,0 -3,1 -4,1z"/>
   <path class="fil1" d="M174 54c2,0 3,2 3,4 0,3 -1,5 -3,5 -1,0 -3,-2 -3,-5 0,-2 2,-4 3,-4z"/>
   <path class="fil1" d="M132 54c2,0 3,2 3,4 0,2 -1,4 -3,4 -2,0 -3,-2 -3,-4 0,-2 1,-4 3,-4z"/>
   <path class="fil1" d="M113 52c0,0 6,-16 7,-24 1,-8 7,-16 30,-17 23,-1 35,3 39,19 4,16 7,23 10,24 4,0 -4,-38 -13,-45 -8,-6 -33,-8 -49,-4 -16,4 -22,11 -24,19 -1,9 0,25 0,28z"/>
  </g>
 </g>
</svg>
