<?xml version="1.0" encoding="UTF-8"?>
<!DOCTYPE svg PUBLIC "-//W3C//DTD SVG 1.1//EN" "http://www.w3.org/Graphics/SVG/1.1/DTD/svg11.dtd">
<!-- Creator: CorelDRAW X7 -->
<svg xmlns="http://www.w3.org/2000/svg" xml:space="preserve" width="93.1413mm" height="87.2147mm" version="1.1" style="shape-rendering:geometricPrecision; text-rendering:geometricPrecision; image-rendering:optimizeQuality; fill-rule:evenodd; clip-rule:evenodd"
viewBox="0 0 356 334"
 xmlns:xlink="http://www.w3.org/1999/xlink">
 <defs>
  <style type="text/css">
   <![CDATA[
    .fil1 {fill:black}
    .fil0 {fill:black;fill-rule:nonzero}
   ]]>
  </style>
 </defs>
 <g id="Layer_x0020_1">
  <metadata id="CorelCorpID_0Corel-Layer"/>
  <g id="_1042409264">
   <path class="fil0" d="M12 213l109 33 0 -122 -117 -44 8 133zm111 37c-1,0 -1,0 -1,0l-113 -34c0,0 -1,-1 -1,-2l-8 -137c0,-1 0,-1 1,-2 0,0 1,0 2,0l121 46c1,0 1,1 1,2l-1 125c0,1 0,1 0,2 -1,0 -1,0 -1,0z"/>
   <path class="fil0" d="M22 203l87 26 1 -97 -94 -36 6 107zm89 30c-1,0 -1,0 -1,-1l-90 -27c0,0 -1,-1 -1,-1l-6 -110c0,0 0,-1 0,-1 1,0 1,0 2,0l97 36c0,0 1,1 1,2l-1 100c0,1 0,1 -1,1 0,0 0,1 0,1z"/>
   <path class="fil0" d="M76 258c0,0 0,0 0,0l-24 -4c-1,0 -2,-1 -2,-2l-2 -26c0,-1 1,-2 2,-2 1,0 2,1 2,2l2 24 20 4 0 -20c0,-1 1,-2 2,-2l0 0c1,0 2,1 2,2l0 22c0,0 0,1 0,1 -1,1 -1,1 -2,1z"/>
   <path class="fil0" d="M69 279c-13,0 -26,-3 -35,-7 -9,-5 -12,-11 -10,-18 4,-13 20,-14 28,-13 1,0 1,1 1,2 0,1 -1,2 -2,2 0,0 -19,-3 -23,10 -2,6 3,11 8,13 18,10 54,10 64,-3 2,-3 2,-6 1,-9 -3,-5 -11,-9 -16,-9 -1,0 -1,0 -1,0 -1,0 -2,-1 -2,-2 0,-1 1,-2 2,-2 7,0 17,4 20,12 2,4 2,8 -1,12 -6,8 -20,12 -34,12z"/>
   <path class="fil0" d="M248 334c-2,0 -3,-1 -4,-1 -2,0 -9,0 -11,-1 -1,-1 -2,-2 -2,-3 -2,0 -3,0 -4,-1 -1,-2 -2,-3 -2,-4 -1,-1 -3,-4 -3,-6 -1,-3 2,-4 7,-5 2,-1 6,-2 8,-3 1,-1 1,-2 2,-3 -1,0 -1,0 -1,1 -3,2 -6,5 -10,2 -2,0 -3,-2 -1,-6 2,-5 11,-13 24,-10l4 -4 -2 -1c-1,0 -2,-1 -2,-2 1,-1 6,-27 12,-39 6,-11 17,-56 17,-56 0,-1 2,-2 3,-2 1,0 1,1 1,2 0,2 -11,46 -17,58 -5,9 -10,30 -12,36l3 1c1,0 1,1 2,1 0,1 0,2 -1,2l-6 7c0,1 -1,1 -2,1 -8,-2 -15,1 -19,5 -2,2 -2,4 -2,4 1,1 3,-1 6,-2 1,-2 2,-3 4,-3 1,0 2,1 3,2 1,2 -1,5 -3,8 -3,3 -7,4 -10,5 -2,0 -3,1 -4,1 0,1 2,3 3,3 0,1 1,2 0,2 0,1 0,2 0,2 1,0 2,0 3,0 0,0 1,0 1,1 1,0 1,1 1,1 0,0 0,1 1,1 1,1 6,1 10,1 1,0 1,0 1,1 1,0 2,0 4,-1 4,0 12,-7 14,-12 2,-5 -1,-10 -1,-11 0,0 0,-1 1,-2 1,0 2,0 2,0l2 1 6 -7c1,-1 2,-1 3,-1l1 1c22,-28 50,-86 38,-127 -4,-17 -15,-30 -32,-37 -1,0 -1,0 -1,-1 -1,0 -1,-1 0,-1 0,0 12,-29 12,-46 0,-17 -7,-27 -22,-30 -2,0 -4,-1 -5,-1 -14,-3 -27,-5 -35,5 -9,13 -17,53 -17,54 0,1 -1,1 -2,1 0,0 0,0 0,0 -3,0 -6,4 -7,5 -1,0 -1,0 -2,0 -4,1 -14,15 -32,53 -7,17 -15,46 -15,47 0,0 0,0 0,0 0,0 -14,22 -17,28 -2,5 1,7 1,7 0,1 1,1 0,2l-2 9c0,0 0,1 -1,1 0,0 -10,8 -10,19 -1,8 0,10 0,11 0,0 1,0 2,0 1,-1 2,0 2,1 1,1 2,2 2,2 1,0 2,-2 2,-2 0,-1 1,-2 2,-2 0,0 0,0 0,0 1,0 2,1 2,2 0,0 1,0 1,0 1,-1 1,-6 1,-9 0,-5 0,-7 1,-9 2,-2 6,-5 10,-5 2,1 4,2 5,4 1,2 1,5 1,7 0,2 0,4 0,5 0,0 1,0 1,0 1,0 1,0 1,-1 2,-3 -1,-15 -4,-18 0,0 0,-1 0,-1l3 -6c0,-1 1,-2 2,-2 0,0 2,1 4,-2 1,-2 3,-5 4,-7 2,-3 4,-6 5,-8 0,0 0,-1 0,-2 0,-4 -1,-11 5,-16l0 0c6,-7 15,-16 18,-25 2,-3 0,-7 -2,-12 -2,-4 -4,-9 -1,-14 1,-1 2,-2 3,-1 1,1 1,2 1,3 -2,3 -1,7 1,11 2,4 4,10 2,15 -4,9 -13,19 -19,25l0 0c-5,5 -5,10 -5,13 0,2 1,3 0,4 0,2 -2,6 -5,9 -1,2 -3,5 -4,6 -2,4 -4,5 -6,5l-2 4c3,5 6,16 4,21 -1,2 -3,3 -4,3 -2,0 -3,0 -4,-1 -2,-2 -2,-5 -2,-8 0,-2 0,-4 -1,-6 0,-1 -1,-1 -1,-1 -2,0 -6,2 -7,4 0,0 0,4 0,6 0,6 0,12 -3,13 -2,0 -3,0 -4,0 -1,1 -2,2 -4,2 -3,0 -5,-2 -5,-3 -2,0 -3,0 -4,-1 -2,-2 -3,-5 -2,-14 0,-11 9,-20 12,-22l1 -7c-1,-2 -2,-5 0,-11 3,-6 15,-25 16,-28 1,-3 9,-30 16,-47 15,-34 27,-52 34,-54 1,-1 5,-5 9,-5 1,-8 8,-42 17,-54 9,-13 24,-10 39,-7 1,1 3,1 5,1 16,4 25,15 25,34 0,15 -9,39 -12,46 17,7 28,20 33,38 12,43 -18,104 -40,132 0,1 -1,1 -2,1l-2 -2 -6 8c0,1 -1,1 -2,1 1,2 1,5 0,8 -3,6 -12,14 -17,15 -2,0 -2,1 -3,1z"/>
   <path class="fil0" d="M168 183c0,0 0,0 0,0 -1,0 -2,-1 -2,-2 1,-3 5,-63 11,-84 7,-22 16,-32 29,-34 12,-1 22,0 22,1 1,0 2,1 2,2 0,1 -1,1 -2,1 0,0 -10,-1 -22,0 -11,1 -19,11 -25,31 -6,20 -11,82 -11,83 0,1 -1,2 -2,2z"/>
   <path class="fil0" d="M318 291c0,0 -1,0 -1,0 -1,-1 -1,-2 -1,-3 9,-42 19,-145 16,-176 -3,-29 -37,-37 -37,-37 -1,0 -2,-1 -1,-2 0,-1 1,-2 2,-1 0,0 36,8 40,39 3,31 -7,136 -16,178 -1,1 -1,2 -2,2z"/>
   <path class="fil0" d="M238 69c-1,0 -1,0 -1,-1 -1,0 -1,-1 0,-2 0,0 5,-4 14,-1 1,0 1,1 1,2 0,1 -1,1 -2,1 -7,-3 -11,0 -11,0 0,1 -1,1 -1,1z"/>
   <path class="fil0" d="M285 79c-1,0 -1,0 -1,-1 -2,-4 -8,-3 -8,-3 -1,0 -1,-1 -1,-2 0,-1 0,-1 1,-1 0,0 8,-1 10,5 1,1 0,2 -1,2 0,0 0,0 0,0z"/>
   <path class="fil0" d="M237 103c-1,0 -3,0 -4,-1 -4,-1 -7,-4 -7,-7 -2,-8 5,-13 9,-15 0,0 1,0 1,1 1,1 0,2 0,2 -1,0 -9,3 -8,11 1,3 4,5 6,6 4,1 8,0 10,-2 1,-1 2,-5 1,-8 -1,-1 -2,-4 -5,-4 -2,0 -4,2 -4,4 -1,1 -1,3 1,3 1,1 2,1 3,0 0,0 0,-1 0,-1 0,0 0,0 -1,0 -1,0 -1,-1 -1,-2 0,-1 1,-1 2,-1 2,1 3,2 3,3 0,1 0,2 -1,3 -2,1 -4,2 -6,1 -3,-1 -4,-4 -3,-7 1,-3 3,-6 8,-6 2,1 5,3 6,6 1,4 2,9 -1,11 -2,2 -5,3 -9,3z"/>
   <path class="fil0" d="M274 93c-2,0 -3,0 -4,2 -2,3 -2,5 -2,7 1,3 3,5 5,6 1,1 3,0 4,-1 3,-1 5,-5 5,-7 0,-1 -1,-2 -3,-3 -1,0 -3,0 -4,1 -2,1 -2,2 -2,3 0,1 1,2 1,2 1,0 1,1 2,0 0,0 1,-1 1,-1 0,0 0,0 0,0 -1,0 -1,0 -1,0 -1,1 -1,1 -2,0 -1,0 -1,-1 0,-2 0,-1 2,-1 3,-1 1,0 2,0 2,1 1,1 1,3 0,4 -2,2 -4,3 -6,2 -1,-1 -2,-2 -3,-4 0,-3 1,-5 3,-7 2,-1 3,-1 5,-1 0,0 0,0 0,0 0,0 -2,-1 -4,-1zm1 18c-1,0 -2,0 -3,-1 -3,-1 -6,-4 -6,-7 -1,-3 -1,-6 1,-9 4,-5 10,-4 12,-2 1,0 1,1 1,1 0,1 -1,1 -1,1 0,0 1,1 2,1 2,1 3,3 3,5 1,3 -2,8 -5,10 -2,1 -3,1 -4,1z"/>
   <path class="fil0" d="M256 151c-8,0 -20,-2 -29,-9 -15,-12 -14,-28 -14,-28 0,-1 1,-2 2,-2 1,0 1,1 1,2 0,0 -1,15 12,26 14,11 34,8 39,7 4,-1 13,-10 16,-15 0,-1 1,-1 1,-1 1,0 1,1 1,2 -2,6 -12,15 -18,17 -1,0 -6,1 -11,1z"/>
   <path class="fil0" d="M231 164c-5,0 -14,-2 -22,-11 -12,-14 -6,-34 -6,-35 0,0 1,-1 2,-1 0,1 1,1 1,2 0,0 -6,19 5,32 9,9 18,10 21,10 0,0 0,0 0,0 -3,-4 -11,-14 -9,-23 0,-1 1,-1 2,-1 1,0 1,1 1,1 -2,8 6,17 8,21 1,1 2,1 2,2 0,1 0,1 -1,2 -1,0 -2,1 -4,1z"/>
   <path class="fil0" d="M253 168c-9,0 -15,-2 -17,-4 -1,0 -2,-1 -2,-2 1,-2 3,-2 6,-2 2,0 4,0 7,-1 5,0 14,-8 17,-11 1,-1 2,-1 2,0 1,1 1,1 0,2 0,0 -12,11 -19,12 -2,1 -5,1 -6,1 -1,0 -1,0 -2,0 4,1 13,3 27,1 8,-1 22,-7 27,-15 1,-4 2,-7 0,-10 0,-1 1,-2 1,-2 1,-1 2,0 2,1 2,4 1,8 -1,12 -6,10 -21,15 -29,17 -5,1 -9,1 -13,1z"/>
   <path class="fil0" d="M261 260c0,0 0,0 -1,0 -5,-4 -7,-12 -7,-25l0 -1c0,-3 -4,-10 -19,-13 -15,-3 -31,0 -34,1 -1,1 -2,3 -2,4 -2,4 -5,9 -8,12 -6,6 -12,5 -13,5 0,0 -1,-1 -1,-1 0,-1 1,-2 2,-2 0,0 5,1 10,-4 3,-3 5,-8 7,-11 2,-4 3,-5 4,-6 0,0 18,-4 36,-1 16,4 21,12 21,16l0 1c0,15 3,20 6,23 1,0 1,1 0,2 0,0 0,0 -1,0z"/>
   <path class="fil0" d="M14 96c0,0 -1,-1 -1,-1l-11 -17c-1,-1 -1,-1 0,-2 1,0 2,0 2,1l11 16c1,1 1,2 0,2 0,0 -1,1 -1,1z"/>
   <path class="fil0" d="M111 132c0,0 -1,0 -1,-1 0,0 0,-1 0,-2l13 -7c0,0 1,0 2,1 0,0 0,1 -1,2l-12 7c0,0 -1,0 -1,0z"/>
   <path class="fil0" d="M123 250c-1,0 -1,-1 -2,-1l-12 -17c0,-1 0,-2 1,-2 0,-1 1,0 2,0l12 17c0,1 0,2 -1,2 0,1 0,1 0,1z"/>
   <path class="fil0" d="M10 216c0,0 -1,-1 -1,-1 -1,0 -1,-1 0,-2l11 -10c0,-1 1,-1 2,0 0,0 0,1 0,2l-11 10c0,0 -1,1 -1,1z"/>
   <path class="fil0" d="M76 271c-6,0 -12,0 -19,-2 -28,-6 -30,-18 -30,-19 -1,-1 0,-1 1,-1 1,-1 1,0 1,1 0,0 3,11 29,16 30,6 44,-4 44,-4 1,0 2,0 2,0 0,1 0,2 0,2 -4,3 -13,7 -28,7z"/>
   <path class="fil0" d="M76 257c0,0 0,0 -1,0 0,-1 0,-2 1,-2l6 -6 0 -13c-1,0 0,-1 1,-1 1,0 1,0 1,1l1 14c0,0 0,1 0,1l-8 6c0,0 0,0 -1,0z"/>
   <path class="fil0" d="M251 117c-1,0 -2,0 -3,-1 -2,-1 -6,-5 -6,-8 1,-1 1,-2 2,-3 2,-1 4,-4 5,-5 1,0 2,-1 2,0 1,0 1,1 0,2 0,0 -3,4 -6,6 0,1 3,5 5,6 0,0 2,0 5,-1 2,0 3,-1 3,-2 0,0 1,-1 1,-1 1,0 2,1 2,2 0,1 -1,2 -4,3 -1,1 -4,2 -6,2z"/>
   <path class="fil0" d="M238 133c0,0 3,1 4,1 2,0 4,0 6,0 0,0 2,1 2,1 1,0 2,0 2,-3 1,-1 0,-2 0,-3 -2,-1 -5,-2 -9,-2 -2,0 -4,1 -4,2 -1,2 -2,4 -1,4zm12 5c-1,0 -2,-1 -3,-1 -1,0 -3,0 -5,-1 -3,0 -6,0 -7,-1 -1,-2 0,-5 1,-7 2,-3 4,-4 7,-4 6,0 9,1 11,4 1,1 1,3 1,5 0,4 -3,5 -5,5z"/>
   <path class="fil0" d="M143 241c0,0 0,0 0,0l-21 -7c-1,-1 -1,-2 -1,-3 0,-1 1,-1 2,-1l21 7c1,0 2,1 1,2 0,1 -1,2 -2,2z"/>
   <path class="fil0" d="M257 273c0,0 0,0 0,0l-81 -22c-1,-1 -1,-2 -1,-3 0,-1 1,-1 2,-1l81 22c1,1 1,2 1,3 0,1 -1,1 -2,1z"/>
   <path class="fil0" d="M321 292c0,0 0,0 0,0l-29 -10c-1,-1 -1,-2 -1,-3 0,-1 1,-1 2,-1l29 10c1,0 1,2 1,3 0,0 -1,1 -2,1z"/>
   <path class="fil0" d="M249 20c0,0 1,0 1,0l1 1 -1 -2c0,-1 1,-1 1,-2l2 -1 -1 0 0 0c-1,0 -2,-1 -2,-2l0 0 -1 1c0,0 -1,1 -2,1l0 0 -2 0 2 1c0,1 1,2 0,2l0 1 0 0c1,0 1,0 2,0zm5 8c-1,0 -1,0 -2,0l-4 -4 -4 4c-1,0 -2,0 -2,0 -1,-1 -1,-2 -1,-2l2 -7 -4 -4c0,0 0,-1 0,-2 0,-1 1,-1 2,-1l0 0 5 0 2 -6c1,-1 2,-2 2,-2 1,0 2,1 2,2l1 6 5 0 0 0c1,0 2,0 2,1 0,1 0,2 -1,2l-5 4 1 7c1,1 0,2 -1,2 0,0 0,0 0,0z"/>
   <path class="fil0" d="M301 44c1,0 1,1 2,1l0 1 0 -1c1,-1 1,-1 2,-2l2 0 -1 -1c-1,0 -1,-1 -1,-2l0 -1 -1 1c0,0 -1,1 -2,0l-1 -1 0 2c1,1 0,2 0,2l-1 1 1 0c0,0 0,0 0,0zm2 11c-1,0 -1,-1 -2,-1l-1 -6 -6 1c-1,0 -2,0 -2,-1 0,-1 0,-1 0,-2l5 -5 -2 -5c0,-1 0,-2 1,-2 1,-1 1,-1 2,-1l5 3 4 -4c1,-1 2,-1 3,-1 0,1 1,2 1,2l-2 7 4 2c1,1 1,2 1,2 0,1 0,2 -1,2l-6 1 -2 6c0,1 -1,2 -2,2l0 0z"/>
   <path class="fil0" d="M330 73c0,0 1,0 1,1l1 1 -1 -2c0,-1 1,-2 1,-2l2 -2 -1 0 0 0c-1,0 -2,0 -2,-1l0 -1 -1 1c0,1 -1,1 -2,1l0 0 -2 0 2 2c0,0 1,1 0,2l0 1 0 0c1,-1 1,-1 2,-1zm5 9c-1,0 -1,0 -2,-1l-4 -3 -4 3c-1,1 -2,1 -3,0 0,0 -1,-1 0,-2l2 -6 -4 -4c0,-1 0,-1 0,-2 0,-1 1,-1 2,-1l0 0 5 0 3 -7c0,-1 1,-1 2,-1 0,0 1,1 1,2l1 6 5 0 0 0c1,0 2,0 2,1 0,1 0,2 -1,2l-5 4 1 7c1,0 0,1 -1,2 0,0 0,0 0,0z"/>
   <path class="fil0" d="M206 37l2 1c1,0 1,1 1,1l0 2 0 -1c1,-1 2,-1 3,0l1 0 -1 -1c-1,-1 0,-2 0,-2l1 -2 -1 0c-1,1 -2,0 -2,-1l-1 0 0 1c0,0 -1,1 -1,1l-2 1zm1 12c-1,0 -1,0 -1,0 -1,0 -1,-1 -1,-2l0 -7 -5 -2c-1,-1 -1,-2 -1,-2 0,-1 0,-2 1,-2l5 -1 1 -7c0,0 0,-1 1,-1 1,-1 2,0 2,1l3 5 5 -1c1,0 2,0 2,1 1,1 1,2 0,2l-3 5 3 6c0,1 0,2 0,2 -1,1 -2,1 -3,1l-5 -3 -3 4c0,1 -1,1 -1,1z"/>
   <path class="fil0" d="M252 36c-2,0 -3,1 -3,2 0,2 1,3 3,3 1,0 2,-1 2,-3 0,-1 -1,-2 -2,-2zm0 9c-4,0 -7,-3 -7,-7 0,-3 3,-6 7,-6 3,0 6,3 6,6 0,4 -3,7 -6,7z"/>
   <path class="fil0" d="M278 23c-1,0 -2,1 -2,3 0,1 1,2 2,2 1,0 2,-1 2,-2 0,-2 -1,-3 -2,-3zm0 9c-4,0 -6,-3 -6,-6 0,-4 2,-7 6,-7 3,0 6,3 6,7 0,3 -3,6 -6,6z"/>
   <path class="fil0" d="M178 4c-3,0 -6,3 -6,7 0,3 3,6 6,6 4,0 6,-3 6,-6 0,-4 -2,-7 -6,-7zm0 17c-5,0 -10,-5 -10,-10 0,-6 5,-11 10,-11 6,0 10,5 10,11 0,5 -4,10 -10,10z"/>
   <path class="fil0" d="M165 17c0,0 0,0 -1,0 -1,0 -1,-1 -2,-1 -1,-4 5,-7 7,-8 1,-1 2,0 2,0 1,1 0,2 0,2 -3,2 -5,4 -6,5 3,0 17,-5 20,-8 1,-1 1,-1 2,0 1,0 1,1 0,2 -3,3 -16,8 -22,8z"/>
   <path class="fil0" d="M335 91c0,0 0,0 0,0 2,2 5,3 8,3 5,0 8,-3 9,-8 -3,3 -8,5 -14,5l0 0c-1,0 -2,0 -3,0zm8 7l0 0c-4,0 -8,-2 -10,-4 -2,-2 -3,-4 -2,-6 0,0 0,-1 0,-1 1,0 1,-1 2,0 2,0 3,0 5,0 9,0 15,-7 15,-7 0,-1 1,-1 2,-1 1,0 1,1 1,2 0,12 -7,17 -13,17z"/>
   <path class="fil0" d="M232 17c0,0 0,0 0,0 -20,-8 -39,-5 -39,-5 -1,0 -2,0 -2,-1 0,-1 0,-2 1,-2 1,0 20,-3 41,5 1,0 1,1 1,2 -1,1 -1,1 -2,1z"/>
   <path class="fil0" d="M270 23c-1,0 -1,0 -1,0 -2,-1 -7,-2 -9,-2 0,0 -1,-1 -1,-2 0,0 1,-1 2,-1 0,0 6,1 9,2 1,1 1,2 1,2 0,1 -1,1 -1,1z"/>
   <path class="fil0" d="M293 33c0,0 0,0 -1,-1 -1,-1 -3,-2 -7,-3l0 0c-1,0 -1,-1 -1,-2 1,-1 1,-1 2,-1l0 0c4,1 7,3 8,4 1,1 1,2 0,2 0,1 0,1 -1,1z"/>
   <path class="fil0" d="M343 64c-1,0 -2,-1 -2,-2 0,-17 -23,-19 -24,-19 0,0 -1,0 -1,-1 0,-1 1,-2 2,-2 0,0 26,3 26,22 0,1 0,2 -1,2z"/>
   <path class="fil0" d="M317 75c-2,0 -12,-1 -19,-5 0,0 0,-1 0,-2 0,-1 1,-1 2,-1 7,5 18,5 18,5 1,0 2,0 2,1 0,1 -1,2 -2,2 0,0 0,0 -1,0z"/>
   <path class="fil0" d="M219 58c0,0 0,0 0,0 -1,0 -27,0 -34,-8 -2,-2 -2,-4 -1,-6 2,-4 12,-6 13,-6 1,0 2,0 2,1 0,1 -1,2 -1,2 -4,0 -11,2 -11,5 -1,0 -1,1 0,2 5,6 25,7 32,7 1,0 2,1 2,2 0,1 -1,1 -2,1z"/>
   <path class="fil0" d="M222 40c-1,0 -1,-1 -1,-1 -1,-1 0,-2 1,-2 0,0 9,-4 20,-1 0,0 1,1 1,2 -1,0 -1,1 -2,1 -9,-3 -18,0 -18,0 -1,1 -1,1 -1,1z"/>
   <path class="fil0" d="M247 143c0,0 -1,0 -2,0 -7,-1 -13,-1 -16,-5 -2,-2 -2,-5 -2,-9 1,-4 3,-7 6,-9 3,-2 7,-3 12,-2 1,0 2,1 1,3 0,1 -1,1 -2,1 -4,-1 -7,-1 -9,1 -2,1 -3,3 -4,7 0,2 0,4 1,6 2,2 7,3 13,3 6,0 11,-1 13,-3 2,-2 2,-4 2,-7 0,-3 -1,-5 -2,-5 -1,-1 -3,-1 -3,-1 -1,1 -2,0 -2,-1 -1,-1 0,-2 1,-2 0,0 3,-1 6,0 2,2 4,5 4,9 0,4 -1,7 -3,10 -3,2 -8,4 -14,4z"/>
   <path class="fil0" d="M290 129c-1,0 -3,0 -4,-1 -1,-1 -1,-2 -1,-3 1,-1 2,-1 3,-1 1,1 3,1 5,0 4,-1 7,-7 8,-11 0,0 0,0 -1,0 -1,-1 -5,-2 -7,-1 -1,0 -2,-1 -2,-2 -1,-1 0,-2 1,-2 2,0 8,-1 11,2 1,1 2,3 1,4 0,4 -4,11 -10,14 -1,1 -2,1 -4,1z"/>
   <path class="fil0" d="M216 106c0,0 0,0 0,0 -5,0 -8,-3 -10,-8 -1,-5 0,-12 4,-15 4,-4 10,-1 12,1 1,1 1,2 0,3 0,1 -2,1 -2,0 -1,0 -5,-4 -8,-1 -2,2 -3,7 -2,11 1,3 3,5 6,6 2,0 2,1 2,2 0,1 -1,1 -2,1z"/>
   <path class="fil1" d="M221 86c0,0 7,-6 10,-12 3,-7 8,-21 31,-15 24,6 30,16 29,26 0,9 -1,20 2,22 2,1 4,-16 4,-16 0,0 2,-16 -6,-26 -8,-10 -28,-15 -38,-14 -10,0 -19,2 -24,13 -6,12 -8,22 -8,22z"/>
   <path class="fil0" d="M164 267c-1,0 -1,0 -2,-1 -3,-6 -6,-9 -10,-10 -6,-2 -11,2 -11,2 0,0 -1,0 -2,-1 0,0 0,-1 1,-2 0,0 6,-4 12,-2 5,1 10,5 13,12 0,0 0,1 -1,2 0,0 0,0 0,0z"/>
   <path class="fil0" d="M160 273c0,0 -1,0 -1,-1 -7,-9 -20,-5 -20,-5 -1,0 -2,-1 -2,-1 0,-1 0,-2 1,-2 1,0 15,-4 23,6 1,1 0,2 0,2 0,1 -1,1 -1,1z"/>
   <path class="fil0" d="M146 266c-1,0 -2,-1 -2,-1 0,-5 3,-11 4,-12 1,0 1,0 2,0 0,0 0,1 0,1 0,1 0,1 0,2 -1,1 -3,5 -3,8 0,1 -1,2 -1,2 0,0 0,0 0,0z"/>
   <path class="fil0" d="M154 268c-1,0 -2,-1 -2,-2 0,-5 3,-10 3,-10 1,-1 2,-1 2,-1 1,1 1,2 1,2 0,1 -3,5 -3,9 0,1 0,2 -1,2 0,0 0,0 0,0z"/>
   <path class="fil0" d="M132 300c-1,0 -2,-1 -2,-1 -1,-12 2,-21 2,-21 1,-1 2,-2 2,-1 1,0 1,1 1,2 0,0 -4,9 -2,19 0,1 0,2 -1,2 0,0 0,0 0,0z"/>
   <path class="fil0" d="M139 301c0,0 -1,0 -1,-1 -4,-9 0,-20 0,-21 0,-1 1,-1 1,-1 1,0 2,1 1,2 0,0 -3,11 1,19 0,1 -1,2 -1,2 0,0 -1,0 -1,0z"/>
   <path class="fil0" d="M231 325c-1,0 -3,0 -4,-1 -1,0 -1,-1 -1,-2 0,0 1,-1 2,0 7,2 14,-5 14,-6 1,0 2,0 2,0 1,1 1,2 0,2 0,1 -6,7 -13,7z"/>
   <path class="fil0" d="M234 329c-1,0 -1,0 -2,0 -1,0 -1,-1 -1,-2 0,0 1,-1 2,-1 5,1 11,-4 11,-4 1,0 2,0 2,1 1,0 1,1 0,2 0,0 -6,4 -12,4z"/>
   <path class="fil0" d="M243 332c-1,0 -1,0 -2,-1 0,-1 1,-1 2,-2 5,0 8,-6 8,-6 0,-1 1,-1 2,0 1,0 1,1 0,2 0,0 -4,7 -10,7 0,0 0,0 0,0z"/>
   <path class="fil0" d="M265 308c0,0 0,0 -1,-1 -2,-3 -10,-8 -13,-10 0,0 -1,-1 0,-2 0,0 1,0 2,0 1,1 11,7 14,11 0,0 0,1 -1,2 0,0 0,0 -1,0z"/>
   <path class="fil0" d="M276 300c-1,0 -1,0 -2,-1 -2,-4 -13,-8 -17,-9 0,0 -1,-1 -1,-2 1,0 1,-1 2,-1 1,1 15,5 19,11 0,1 0,1 -1,2 0,0 0,0 0,0z"/>
   <path class="fil0" d="M256 300c-1,0 -1,0 -1,-1 -1,0 -1,-1 0,-2l8 -7c0,-1 1,-1 2,0 0,1 0,2 0,2l-8 8c0,0 -1,0 -1,0z"/>
   <path class="fil0" d="M261 303c-1,0 -1,0 -1,0 -1,-1 -1,-1 0,-2l8 -8c1,-1 1,-1 2,-1 1,1 1,2 0,2l-8 9c0,0 -1,0 -1,0z"/>
  </g>
 </g>
</svg>
