<?xml version="1.0" encoding="UTF-8"?>
<!DOCTYPE svg PUBLIC "-//W3C//DTD SVG 1.1//EN" "http://www.w3.org/Graphics/SVG/1.1/DTD/svg11.dtd">
<!-- Creator: CorelDRAW X7 -->
<svg xmlns="http://www.w3.org/2000/svg" xml:space="preserve" width="73.8158mm" height="109.765mm" version="1.1" style="shape-rendering:geometricPrecision; text-rendering:geometricPrecision; image-rendering:optimizeQuality; fill-rule:evenodd; clip-rule:evenodd"
viewBox="0 0 304 451"
 xmlns:xlink="http://www.w3.org/1999/xlink">
 <defs>
  <style type="text/css">
   <![CDATA[
    .fil1 {fill:black}
    .fil0 {fill:black;fill-rule:nonzero}
   ]]>
  </style>
 </defs>
 <g id="Layer_x0020_1">
  <metadata id="CorelCorpID_0Corel-Layer"/>
  <g id="_1042360656">
   <path class="fil0" d="M32 446c-1,0 -2,-1 -2,-2l-4 -186 -24 0c-1,0 -1,0 -1,0 -1,-1 -1,-1 -1,-2l5 -254c0,-1 1,-2 2,-2l173 3c1,0 2,1 2,2l0 25c0,1 -1,2 -2,2 -2,0 -2,-1 -2,-2l0 -23 -169 -3 -5 250 24 0c1,0 2,1 2,2l4 188c0,1 -1,2 -2,2l0 0z"/>
   <path class="fil0" d="M28 258c-1,0 -2,0 -2,-2 0,-1 1,-2 2,-2l135 -2 0 0c1,0 2,0 2,2 0,1 -1,2 -2,2l-135 2 0 0z"/>
   <path class="fil0" d="M32 446c-1,0 -2,-1 -2,-2 0,-2 1,-2 2,-2l16 -1 -2 -185c0,-1 1,-2 2,-2l0 0c1,0 2,1 2,2l3 187c0,1 -1,1 -1,2 0,0 -1,0 -1,0l-19 1 0 0z"/>
   <path class="fil0" d="M105 428l-12 0c-1,0 -2,-1 -2,-2l-7 -171c0,-1 1,-2 2,-2 1,0 2,1 2,2l7 169 8 0 -2 -169c0,-1 1,-2 2,-2 1,0 2,1 2,2l2 171c0,1 0,1 0,2 -1,0 -1,0 -2,0z"/>
   <path class="fil0" d="M152 430l-13 0c-1,0 -2,-1 -2,-2l-6 -173c0,-1 1,-2 2,-2 1,0 2,1 2,2l6 171 9 0 -2 -172c0,-1 1,-2 2,-2l0 0c1,0 2,1 2,2l2 174c0,0 0,1 -1,1 0,1 0,1 -1,1z"/>
   <path class="fil0" d="M270 238c0,1 1,2 1,4 0,-4 0,-10 0,-13 0,-4 -1,-13 2,-17 0,-9 -2,-27 -5,-37 0,6 1,13 2,19 0,5 0,12 -1,17 0,5 0,9 0,11 2,4 2,12 1,16zm-125 209c3,0 6,0 10,0 18,0 40,-4 47,-5l-2 -28c0,-1 0,-1 1,-2 0,0 1,-1 1,0 0,0 1,0 2,-2 1,-1 1,-3 1,-5 0,-3 1,-8 2,-12 3,-6 1,-12 -1,-17 -1,-4 0,-10 2,-18 1,-8 3,-18 3,-26 -2,-15 0,-38 1,-43 1,-1 2,-4 4,-4 3,0 5,4 5,12 0,5 1,11 2,17 1,4 1,8 2,12 0,4 0,13 0,23 0,11 0,23 1,27 1,6 0,11 -1,14 0,1 0,11 0,19 0,3 2,3 4,3l0 0c1,0 2,1 2,2 0,1 1,8 -1,12 -1,2 0,10 0,15 5,1 11,2 18,2 11,0 21,-2 26,-2 -1,-3 -1,-6 -1,-9 0,-2 -4,-10 -7,-15 0,0 0,-1 0,-1l-1 -10c0,-1 0,-2 1,-2l0 0c0,0 1,-1 2,-2 0,0 0,-2 0,-4 -1,-6 -1,-14 2,-23 4,-12 1,-96 0,-100 -1,-4 -2,-18 -2,-25 0,-6 -2,-11 -2,-11 -1,-1 -1,-2 0,-3 1,-1 1,-8 -1,-13 -1,-2 0,-7 0,-12 1,-5 1,-12 0,-17 -1,-10 -1,-27 -1,-28 0,-1 1,-1 1,-2 1,0 2,0 3,1 8,8 9,43 9,47 0,1 0,2 -1,2 -1,1 -1,8 0,14 0,1 0,1 -1,1 0,3 0,11 1,15 0,1 1,2 2,5 1,2 1,3 1,5 0,1 0,2 0,2 1,0 2,-1 2,-2 1,-1 1,-2 2,-2 1,0 2,1 2,2 0,1 1,2 1,2 1,-1 2,-3 2,-5 0,-1 1,-1 2,-1 0,-1 1,0 2,0 0,1 0,1 1,1 0,0 1,0 1,-1 1,0 2,0 2,0 1,0 3,-1 3,-4 1,-3 -3,-13 -5,-18 -1,-1 -1,-1 0,-2 2,-3 1,-11 1,-13 0,0 0,-1 0,-1 7,-25 3,-59 -12,-84 -7,-12 -19,-28 -39,-32 -1,0 -2,-1 -2,-2 0,-8 -9,-11 -9,-11 -1,0 -2,-1 -1,-2 0,-1 8,-41 -8,-50 -5,-4 -12,-6 -20,-6 -11,0 -20,4 -23,6 -4,4 -6,25 -6,38 0,12 2,20 3,20 0,0 0,1 -1,2 0,0 0,0 -1,1 -7,1 -11,11 -11,11 0,1 0,1 -1,1 -13,7 -19,25 -23,35 -2,5 -2,7 -4,8 0,0 0,0 -1,0l0 0c-2,0 -5,-3 -13,-16 -2,-2 -3,-3 -3,-4 -1,-1 -3,-1 -3,-1 0,0 -1,0 -1,0 0,0 -1,-1 -2,-2 0,0 -1,-1 -2,-4 -2,-1 -5,-2 -5,-2 0,0 -1,0 -1,-1 0,0 0,-1 0,-1 0,-3 1,-6 1,-7 -1,-2 -9,-10 -12,-10 0,0 -1,0 -1,0 -3,1 -3,6 -3,6 0,1 0,2 -1,2 -4,2 -13,8 -12,12 1,5 10,12 13,14 1,0 1,1 1,2 0,1 0,3 1,4 0,1 4,3 6,5 1,0 1,1 1,2l-1 5c2,5 15,35 30,35l1 0c17,-1 24,-19 24,-19 0,-1 1,-2 2,-2 1,0 2,1 2,2 0,11 1,26 1,28 0,0 0,0 1,1 1,2 3,6 1,12 -1,3 0,3 1,5 1,1 2,3 2,7 0,5 0,5 2,7 1,0 1,1 2,2 3,4 3,7 0,16 -1,2 -2,5 -3,9 -5,15 -1,33 1,43 1,2 1,3 1,5 1,5 0,16 -2,28 0,5 -1,11 -1,16 -1,10 1,20 3,27 1,3 2,6 3,8 1,7 -1,18 -1,24 0,1 -1,3 -1,3 1,1 2,1 2,1 1,0 2,0 2,1 0,0 0,1 0,1 -2,15 -15,19 -22,22 -1,1 -2,1 -3,1 -3,2 -3,9 -2,13zm10 4c-5,0 -9,0 -12,-1 -1,0 -2,0 -2,-1 0,-2 -3,-15 5,-19 1,0 1,0 2,-1 7,-2 17,-6 20,-16 -2,-1 -4,-2 -4,-4 0,-1 0,-2 1,-4 0,-6 2,-17 0,-23 0,-2 -1,-5 -1,-8 -3,-8 -5,-17 -4,-28 0,-5 1,-11 1,-17 2,-10 3,-22 2,-27 0,-1 0,-2 -1,-4 -2,-10 -6,-29 -1,-45 1,-4 2,-7 3,-9 3,-10 3,-10 1,-12 -1,-1 -1,-2 -2,-2 -2,-2 -3,-4 -3,-10 0,-3 -1,-4 -1,-5 -2,-2 -3,-4 -2,-8 2,-5 0,-7 -1,-9 0,-1 -1,-2 -1,-3 0,-1 -1,-12 -1,-20 -4,6 -12,15 -24,15l-1 0c-19,0 -33,-36 -34,-38 0,0 0,0 0,-1l1 -4c-2,-2 -6,-4 -7,-6 -1,-2 -1,-4 -1,-5 -3,-2 -13,-9 -14,-16 -1,-7 9,-14 13,-16 0,-4 2,-8 7,-9 0,0 0,0 1,0 6,0 15,10 16,12 0,2 0,5 -1,8 2,0 3,1 5,3 1,1 2,3 2,4 2,0 4,0 6,2 0,1 2,3 3,5 2,3 7,10 10,13 0,-1 1,-3 1,-4 4,-11 11,-30 25,-37 1,-3 5,-10 11,-13 -1,-3 -2,-9 -2,-19 0,-5 1,-35 7,-41 4,-3 15,-7 26,-7 8,0 16,2 23,6 16,10 11,45 9,53 4,2 9,6 10,12 16,4 30,16 41,34 15,26 20,61 12,87 0,2 1,9 -1,14 1,4 6,14 6,19 -1,5 -5,8 -8,8 0,0 0,0 0,0 -1,1 -2,1 -3,1 -1,0 -1,0 -2,0 0,2 -2,4 -4,5 -2,0 -3,-1 -4,-2 -1,1 -3,3 -5,2 -3,0 -3,-4 -3,-6 0,-1 -1,-3 -1,-4 -1,-2 -2,-3 -2,-4 0,2 0,3 0,4 0,7 1,21 2,24 1,4 4,88 0,103 -3,8 -3,15 -2,21 0,3 0,5 -1,7 -1,1 -2,1 -2,2l1 8c2,3 8,13 8,17 0,4 0,10 0,10 0,1 -1,2 -2,2 -1,0 -14,3 -28,3 -8,0 -15,-1 -20,-3 -1,0 -2,-1 -2,-1 0,-3 -1,-14 0,-18 1,-2 1,-6 1,-9 -3,-1 -6,-2 -6,-6 0,-6 -1,-19 0,-22 1,-2 2,-6 1,-12 -1,-3 -1,-15 -1,-27 0,-9 0,-19 0,-23 -1,-4 -1,-8 -2,-12 -1,-6 -2,-12 -2,-17 0,-3 -1,-5 -1,-6 -1,7 -3,27 -1,41 0,8 -1,18 -3,27 -1,6 -3,13 -2,15 2,6 4,13 1,21 -1,3 -2,7 -2,10 0,4 0,6 -2,8 -1,1 -2,2 -3,2l2 29c0,1 -1,2 -2,2 0,0 -28,5 -49,5z"/>
   <path class="fil0" d="M171 74c-2,0 -5,-2 -7,-4 -3,-3 -3,-9 -1,-12 1,-2 2,-4 4,-4 4,-1 7,1 8,1 1,1 1,2 0,3 0,1 -1,1 -2,1 -1,-1 -3,-2 -5,-1 0,0 -1,1 -1,1 -2,3 -1,6 0,9 1,1 3,2 6,1 1,0 2,1 2,2 0,1 0,2 -2,2 0,1 -1,1 -2,1z"/>
   <path class="fil0" d="M236 79c-1,0 -1,-1 -2,-1 -1,0 -2,-1 -2,-2 1,-1 2,-2 3,-2 3,1 5,-2 6,-3 2,-4 2,-8 1,-9 -2,-2 -4,0 -5,0 0,1 -2,1 -3,0 0,-1 0,-2 1,-3 2,-2 7,-3 10,1 3,3 2,9 -1,13 -2,4 -5,6 -8,6z"/>
   <path class="fil0" d="M204 104c-1,0 -1,0 -1,0 -18,0 -28,-13 -29,-14 0,0 0,-1 1,-2 0,0 1,0 2,1 0,0 9,12 26,12l1 0c17,0 26,-12 28,-20 0,-1 1,-1 2,-1 1,0 1,1 1,2 -2,8 -13,22 -31,22z"/>
   <path class="fil0" d="M188 116c-1,0 -3,0 -5,0 -15,-2 -21,-12 -21,-13 0,-1 0,-2 1,-2 0,0 1,0 2,1 0,0 5,9 18,11 8,1 12,-1 14,-2 2,-2 2,-3 2,-4 0,-1 -2,-2 -4,-3 -1,0 -3,-1 -4,-2 -1,-1 -1,-2 -1,-2 1,-1 2,-1 2,-1 1,1 3,2 4,2 3,2 6,3 6,6 0,2 0,4 -3,6 -2,2 -6,3 -11,3z"/>
   <path class="fil0" d="M220 115c-3,0 -5,-1 -6,-2 -1,-1 -2,-2 -1,-4 0,-2 2,-4 5,-7 2,-2 5,-6 5,-7 0,-1 1,-1 1,-1 1,0 2,1 2,1 0,3 -3,6 -6,9 -2,2 -4,5 -4,6 0,0 0,1 0,1 2,1 6,1 12,-1 9,-4 15,-16 15,-17 0,0 1,-1 2,0 0,0 1,1 0,2 0,0 -5,14 -16,18 -3,1 -7,2 -9,2z"/>
   <path class="fil0" d="M208 110c-4,0 -8,-1 -8,-1 -1,-1 -1,-1 -1,-2 0,-1 1,-2 2,-1 0,0 7,2 14,0 1,-1 2,0 2,1 0,0 0,1 -1,1 -3,1 -5,2 -8,2z"/>
   <path class="fil0" d="M155 170c0,0 0,0 0,0 -1,-1 -1,-2 -1,-2 3,-6 4,-11 2,-14 -1,-2 -3,-3 -3,-3 -1,0 -2,-1 -1,-2 0,-1 1,-1 2,-1 0,0 3,1 5,5 2,4 1,9 -2,16 0,1 -1,1 -2,1z"/>
   <path class="fil0" d="M266 169c-1,0 -1,-1 -1,-2 -2,-8 1,-19 2,-20 0,-1 1,-1 1,-1 1,0 2,1 2,2 -1,0 -4,11 -2,19 0,1 -1,1 -2,2 0,0 0,0 0,0z"/>
   <path class="fil0" d="M296 214c-1,0 -4,0 -21,-1 -1,0 -1,0 -1,-1 0,-1 0,-2 1,-2 8,1 20,1 21,1 1,0 2,1 2,2 0,0 -1,1 -1,1 0,0 -1,0 -1,0z"/>
   <path class="fil0" d="M296 230c0,0 0,0 0,0l-23 -2c-1,0 -1,-1 -1,-2 0,-1 0,-1 1,-1l23 2c1,0 1,0 1,1 0,1 0,2 -1,2z"/>
   <path class="fil0" d="M166 244c0,0 -1,-1 -1,-2 0,-1 0,-1 1,-2l101 -4c1,0 2,1 2,2 0,1 -1,1 -1,1l-102 5c0,0 0,0 0,0z"/>
   <path class="fil0" d="M163 253c-1,0 -1,0 -1,-1 0,-1 0,-2 1,-2 4,0 89,-5 108,-1 0,0 1,1 1,2 0,0 -1,1 -2,1 -19,-4 -106,1 -107,1 0,0 0,0 0,0z"/>
   <path class="fil0" d="M202 415c0,0 0,0 0,0l-32 -2c-1,0 -1,-1 -1,-2 0,-1 1,-2 1,-1l32 2c1,0 2,1 1,2 0,1 0,1 -1,1z"/>
   <path class="fil0" d="M172 441c-11,0 -15,-3 -17,-4 -2,-1 -8,1 -12,2 0,0 -1,0 -2,-1 0,-1 0,-2 1,-2 2,-1 11,-4 15,-1 2,2 10,3 21,2 12,-1 25,-3 25,-3 1,0 2,1 2,2 0,1 -1,1 -1,2 -1,0 -14,2 -26,2 -2,1 -4,1 -6,1z"/>
   <path class="fil0" d="M271 434c-2,0 -4,0 -6,-1 -6,-1 -14,-1 -25,0 -10,1 -12,0 -13,0 -1,0 -1,-1 -1,-2 0,-1 1,-1 2,-1 0,0 3,1 12,0 11,-1 19,-1 25,0 6,1 11,0 11,0 1,0 2,0 2,1 0,1 0,2 -1,2 0,0 -3,1 -6,1z"/>
   <path class="fil0" d="M166 430c-2,0 -4,-1 -7,-2 -1,-1 -1,-2 0,-3 0,0 1,-1 2,0 3,2 5,2 8,1 9,-2 16,-14 16,-14 0,-1 1,-1 2,-1 1,0 1,1 0,2 0,1 -7,13 -17,16 -1,1 -2,1 -4,1z"/>
   <path class="fil0" d="M183 440c0,0 0,0 0,0 -1,0 -2,-1 -2,-2 0,0 1,-7 7,-11 4,-3 9,-4 15,-3 1,1 1,1 1,2 0,1 -1,2 -2,1 -5,-1 -9,0 -12,2 -5,4 -5,10 -5,10 -1,0 -1,1 -2,1z"/>
   <path class="fil0" d="M268 434c0,0 -1,-1 -1,-2 0,0 -1,-12 -12,-11 -11,0 -12,10 -12,11 0,0 -1,1 -2,1 -1,0 -1,-1 -1,-2 0,0 1,-13 15,-13 11,-1 14,9 15,14 0,1 -1,2 -1,2 0,0 -1,0 -1,0z"/>
   <path class="fil0" d="M229 416c0,0 -1,-1 -1,-2 -1,0 0,-1 1,-1l10 -4c1,-2 3,-5 9,-5 8,-1 11,0 13,1 0,0 1,1 1,2l4 -2c1,0 2,0 2,1 1,1 0,2 -1,2l-5 2c-1,0 -1,0 -2,0 0,0 0,-1 0,-1 0,-1 -1,-1 -1,-2 -1,-1 -8,0 -11,0 -5,0 -6,4 -6,4 0,0 -1,1 -1,1l-11 4c-1,0 -1,0 -1,0z"/>
   <path class="fil0" d="M245 425c0,0 -1,-1 -1,-1l-5 -13c0,-1 0,-1 1,-2 1,0 1,0 2,1l5 13c0,0 0,1 -1,2 0,0 0,0 -1,0z"/>
   <path class="fil0" d="M260 422c0,0 0,0 0,0 -1,0 -1,-1 -1,-2l1 -11c0,-1 0,-2 1,-2 1,0 2,1 2,2l-1 11c0,1 -1,2 -2,2z"/>
   <path class="fil0" d="M279 228c0,0 0,0 0,0 -1,0 -2,-1 -1,-2l2 -14c1,-1 1,-2 2,-1 1,0 2,1 1,1l-2 15c0,1 -1,1 -2,1z"/>
   <path class="fil0" d="M285 229c-1,0 -1,0 -1,0 -1,-1 -1,-1 -1,-2l4 -15c0,-1 1,-1 2,-1 0,0 1,1 1,2l-4 14c0,1 -1,2 -1,2z"/>
   <path class="fil0" d="M291 229c0,0 0,0 -1,0 0,0 -1,-1 -1,-2 0,0 0,0 0,0 0,-1 2,-9 3,-15 0,0 1,-1 2,-1 1,0 1,1 1,2l-1 7c-1,4 -2,6 -2,7 0,0 0,0 0,0l0 0c0,2 -1,2 -1,2z"/>
   <path class="fil0" d="M90 136c0,0 -1,0 -1,0 -1,-1 -1,-2 0,-2 0,-1 9,-12 18,-19 0,-1 1,0 2,0 0,1 0,2 0,2 -9,7 -18,18 -18,19 0,0 0,0 -1,0z"/>
   <path class="fil0" d="M98 147c0,0 0,0 -1,0 0,0 -1,-1 0,-2 0,-1 10,-17 20,-23 1,0 2,0 2,1 0,1 0,2 -1,2 -9,6 -18,21 -19,21 0,1 0,1 -1,1z"/>
   <path class="fil0" d="M102 141c0,0 -1,0 -1,0l-9 -10c0,0 0,-1 0,-2 1,0 2,0 3,0l8 10c1,0 1,1 0,2 0,0 -1,0 -1,0z"/>
   <path class="fil0" d="M106 136c0,0 -1,0 -1,0l-8 -10c0,-1 0,-2 0,-2 1,-1 2,-1 2,0l8 10c1,0 1,1 0,2 0,0 -1,0 -1,0z"/>
   <path class="fil0" d="M112 130c-1,0 -1,0 -2,0l-8 -9c0,-1 0,-2 0,-2 1,-1 2,-1 2,0l9 8c0,1 0,2 0,3 -1,0 -1,0 -1,0z"/>
   <path class="fil0" d="M83 129c-1,0 -2,0 -2,0 -1,0 -1,-1 -1,-2 0,-1 1,-1 2,-1 0,0 3,1 5,-1 0,0 0,0 0,0 0,0 -1,-1 -2,-2 -1,-2 -3,-3 -3,-5 0,-1 1,-2 2,-2 1,0 1,1 1,2 0,0 2,2 2,3 2,1 3,3 3,5 0,0 0,1 -1,2 -2,1 -4,1 -6,1z"/>
   <path class="fil0" d="M87 125c0,0 -1,-1 -1,-1 0,-1 0,-2 1,-2 1,-1 3,-2 3,-3 0,0 -1,-1 -2,-2 -1,-1 -2,-3 -2,-4 0,-1 1,-2 1,-2 1,0 2,1 2,1 0,1 1,2 2,3 1,2 2,3 2,5 0,2 -4,4 -5,5 0,0 0,0 -1,0z"/>
   <path class="fil0" d="M91 120c0,0 -1,0 -1,0 -1,-1 0,-2 1,-3 1,0 2,-1 2,-2 1,0 0,-1 0,-1 -1,-1 -2,-2 -3,-4 0,-1 1,-2 2,-2 1,0 2,1 2,1 0,1 0,2 1,3 1,0 2,2 2,3 -1,3 -4,5 -5,5 0,0 -1,0 -1,0z"/>
   <path class="fil0" d="M95 116c0,0 -1,0 -1,-1 -1,0 -1,-1 0,-2 0,0 2,-2 1,-4 -1,-2 -4,-3 -6,-3 -1,0 -2,-1 -1,-2 0,-1 1,-1 1,-1 1,0 7,1 9,5 2,3 -2,7 -2,7 0,1 -1,1 -1,1z"/>
   <path class="fil0" d="M282 257c0,0 0,0 0,0 -1,0 -1,-1 -1,-2 0,-3 -2,-6 -2,-6 0,0 0,-1 1,-2 0,0 1,0 2,1 0,0 3,4 2,8 0,1 -1,1 -2,1z"/>
   <path class="fil0" d="M295 254c0,0 0,0 0,0 -1,-1 -1,-2 -1,-3 2,-3 1,-5 1,-5 0,-1 0,-2 1,-2 1,0 1,0 2,1 0,0 1,4 -1,8 -1,0 -1,1 -2,1z"/>
   <path class="fil0" d="M198 86c0,1 1,2 1,2 1,1 3,2 5,1 2,0 3,-1 4,-1 0,-1 0,-2 0,-2l-10 0zm4 7c-3,0 -4,-2 -5,-3 -2,-1 -2,-3 -2,-6 0,-1 1,-1 1,-1l14 0c0,0 1,0 1,1 0,0 1,3 -1,5 -1,2 -3,3 -5,3 -1,1 -2,1 -3,1z"/>
   <path class="fil0" d="M202 77c-2,0 -4,-1 -6,-3 -1,-1 -2,-2 -2,-3 0,-2 1,-3 2,-5 2,-1 2,-5 2,-6 0,-1 1,-2 2,-2 0,0 1,1 1,2 0,1 0,6 -2,9 -1,0 -2,1 -2,1 0,0 0,1 2,2 2,3 3,2 4,2 1,-1 4,-3 5,-3 0,-1 0,-2 -1,-3 0,-1 1,-2 1,-2 1,0 2,0 2,1 0,1 1,3 1,4 0,2 -7,6 -7,6 0,0 -1,0 -2,0z"/>
   <path class="fil0" d="M183 48c0,0 0,0 0,0 -1,-1 -1,-2 -1,-2 0,-1 2,-7 6,-7 4,1 6,4 6,4 0,1 0,2 -1,2 0,0 -1,0 -2,-1 0,0 -1,-1 -3,-2 -1,0 -3,3 -3,5 0,0 -1,1 -2,1z"/>
   <path class="fil0" d="M217 44c0,0 -1,0 -1,0 -1,0 -1,-1 -1,-2 1,0 3,-4 5,-4 3,0 5,3 5,3 1,1 1,2 0,2 -1,1 -2,0 -2,0 -1,-1 -2,-2 -2,-2l0 0c-1,0 -2,1 -3,3 0,0 -1,0 -1,0z"/>
   <path class="fil0" d="M44 120c-13,0 -24,12 -24,27 0,14 11,26 24,26 14,0 25,-12 25,-26 0,-15 -11,-27 -25,-27zm0 56c-15,0 -27,-13 -27,-29 0,-17 12,-30 27,-30 16,0 28,13 28,30 0,16 -12,29 -28,29z"/>
   <path class="fil0" d="M112 93l-84 0c-1,0 -1,-1 -1,-2l0 -52c0,-1 0,-1 1,-1 1,0 2,0 2,1l0 51 82 0c1,0 1,0 1,1 0,1 0,2 -1,2z"/>
   <path class="fil0" d="M36 83c0,0 0,0 -1,0 0,-1 0,-2 0,-2 4,-5 21,-27 29,-23 3,1 4,3 6,4 2,2 2,3 6,2 2,-2 4,-5 7,-8 2,-4 5,-8 8,-9 1,0 2,0 4,1 5,4 7,3 15,-3 1,-1 2,0 2,0 1,1 1,2 0,2 -8,7 -12,9 -19,4 -1,-1 -1,-1 -2,-1 -2,1 -4,4 -6,7 -2,4 -5,8 -8,9 -5,3 -7,1 -9,-1 -2,-2 -3,-3 -6,-4 -4,-2 -17,12 -24,21 -1,1 -1,1 -2,1z"/>
   <path class="fil0" d="M112 56c0,0 0,0 0,0 -1,0 -1,0 -1,-1 0,-4 0,-8 0,-9 -1,0 -4,-2 -7,-3 -1,0 -2,-1 -1,-2 0,0 1,-1 2,-1 3,2 8,3 9,4 0,1 1,2 0,11 0,1 -1,1 -2,1z"/>
   <path class="fil0" d="M108 20l-34 0c0,0 -1,-1 -1,-1 0,0 -1,-1 -1,-1l1 -14c0,-1 0,-2 1,-2 1,0 2,1 2,2l0 12 31 0 0 -12c0,-1 1,-2 2,-2 0,0 0,0 0,0 0,0 1,1 1,2l0 14c0,1 -1,2 -2,2z"/>
   <path class="fil0" d="M34 232c0,0 -1,0 -1,-1 0,0 0,0 0,-1l0 -40c0,-1 0,-2 1,-2 1,0 2,1 2,2l0 39c53,-1 53,0 54,0 0,1 0,1 0,1 0,1 0,2 -1,2 0,0 -1,0 -1,0 -3,0 -33,0 -54,0 0,0 0,0 0,0z"/>
   <path class="fil0" d="M99 238l-65 0c-1,0 -2,0 -2,-1 0,-1 1,-2 2,-2l65 0c0,0 1,1 1,2 0,1 -1,1 -1,1z"/>
   <path class="fil0" d="M46 231c0,0 -1,0 -1,-1l-1 -30 -10 0c0,0 -1,-1 -1,-1 0,-1 1,-1 1,-1l11 0c1,0 1,0 1,1l1 31c0,1 0,1 -1,1 0,0 0,0 0,0z"/>
   <path class="fil0" d="M59 231c-1,0 -1,0 -1,-1l0 -22 -13 0 0 0c0,0 -1,0 -1,-1 0,0 1,-1 1,-1l14 0 0 0c0,0 0,0 0,0 1,0 1,1 1,1l0 23c0,1 -1,1 -1,1z"/>
   <path class="fil0" d="M70 231c-1,0 -1,0 -1,-1l0 -15 -10 0c-1,0 -1,-1 -1,-1 0,-1 0,-1 1,-1l11 0c0,0 1,0 1,1l0 16c0,1 -1,1 -1,1l0 0z"/>
   <path class="fil0" d="M81 231c-1,0 -1,0 -1,-1l0 -4 -10 0c-1,0 -1,0 -1,-1 0,0 0,-1 1,-1l11 0c0,0 1,1 1,1l0 5c0,1 -1,1 -1,1z"/>
   <path class="fil0" d="M41 149c0,0 0,0 0,0 0,0 -1,0 -1,-1l-6 -27c0,-1 0,-1 1,-1 0,0 1,0 1,0l6 26 18 -22c0,0 1,0 1,0 1,1 1,1 1,2l-20 23c0,0 0,0 -1,0z"/>
   <path class="fil0" d="M44 82c-1,0 -1,0 -1,-1l0 -33c0,-1 0,-1 1,-1 1,0 1,0 1,1l0 33c0,1 0,1 -1,1z"/>
   <path class="fil0" d="M56 82c-1,0 -1,-1 -1,-1l0 -34c0,0 0,-1 1,-1 0,0 1,1 1,1l0 34c0,0 -1,1 -1,1z"/>
   <path class="fil0" d="M76 83c0,0 -1,-1 -1,-1l0 -34c0,0 1,-1 1,-1 1,0 1,1 1,1l0 34c0,0 0,1 -1,1z"/>
   <path class="fil0" d="M88 70c-1,0 -1,0 -1,-1l0 -33c0,-1 0,-1 1,-1 0,0 1,0 1,1l0 33c0,1 -1,1 -1,1z"/>
   <path class="fil0" d="M130 44c-2,0 -4,-2 -4,-2 -1,0 -1,-1 0,-2 0,0 1,0 1,1 0,0 2,2 4,1 1,0 2,-1 2,-1 2,-2 4,-3 7,-1 1,1 2,0 4,0 1,-1 3,-2 4,0 2,1 5,0 6,0 2,-1 3,0 4,1 1,0 1,1 0,1 0,1 0,1 -1,0 -1,0 -2,0 -2,0 -2,0 -6,1 -8,-1 0,0 -1,0 -2,0 -2,1 -4,2 -6,1 -2,-2 -3,-1 -4,0 -1,1 -2,1 -3,2 -1,0 -1,0 -2,0z"/>
   <path class="fil0" d="M132 53c-2,0 -4,-1 -5,-2 0,0 -1,-1 0,-1 0,-1 1,-1 1,-1 1,1 3,2 4,2 1,-1 1,-1 1,-1 2,-1 3,-2 5,0 1,0 3,-1 5,-2 1,-1 3,-2 4,-1 1,1 2,2 3,1 1,0 1,0 1,0 2,0 5,-1 7,0 1,1 1,1 1,2 -1,0 -1,0 -2,0 -1,-1 -4,0 -5,0 -1,0 -1,0 -1,0 -2,1 -4,0 -5,-1 -1,0 -2,1 -2,1 -2,1 -5,3 -7,1 -1,0 -1,0 -2,1 -1,0 -1,0 -2,1 0,0 -1,0 -1,0z"/>
   <path class="fil0" d="M146 59c0,0 -1,0 -2,-1 0,0 0,0 0,0 -1,-1 -1,-1 -3,0 0,0 -1,0 -1,0 -4,1 -6,-2 -6,-2 0,0 0,-1 0,-1 1,-1 2,0 2,0 0,0 1,1 3,1 1,0 1,0 2,0 2,-1 3,-1 4,0 1,0 1,1 1,1 0,0 0,0 0,0 0,0 1,0 2,0l0 -1c2,-2 4,-3 6,-1l0 1c1,0 1,1 1,1 0,0 0,0 1,0 0,-1 1,0 1,0 0,1 0,1 0,1 -2,2 -3,1 -4,-1l-1 0c0,-1 0,-1 -2,1l-1 0c-1,1 -2,1 -3,1z"/>
   <path class="fil0" d="M130 63c0,0 -1,0 -1,0 0,0 0,-1 0,-1 0,0 3,-4 7,-1 2,1 5,-1 5,-1 1,0 2,0 2,0 0,1 0,2 -1,2 0,0 -4,2 -7,0 -2,-1 -4,1 -4,1 -1,0 -1,0 -1,0z"/>
   <path class="fil0" d="M136 206c-1,0 -2,-1 -3,-2 -1,-1 -1,-1 -1,-1 -1,0 -3,2 -3,2 -1,1 -1,1 -2,0 0,0 0,-1 0,-1 1,-1 3,-3 5,-3 1,0 2,1 2,1 1,2 2,2 3,1 1,0 1,0 2,0 1,-1 3,-2 5,0 0,0 0,1 0,1 -1,1 -1,1 -2,0 -1,-1 -1,0 -2,0 -1,1 -1,1 -2,1 -1,1 -1,1 -2,1z"/>
   <path class="fil0" d="M128 212c0,0 0,0 0,0 -1,-1 -1,-1 0,-2 0,0 3,-3 7,-1 1,1 3,1 5,1 2,0 4,-1 6,0 0,1 0,1 0,2 -1,0 -1,0 -2,0 0,-1 -2,0 -4,0 -2,0 -4,0 -6,-1 -3,-1 -5,1 -5,1 0,0 0,0 -1,0z"/>
   <path class="fil0" d="M140 221c-2,0 -4,-1 -6,-2l0 -1c-3,-1 -5,1 -5,1 -1,1 -2,1 -2,0 0,0 0,-1 0,-1 0,0 4,-4 8,-1l0 0c3,2 4,2 6,1 1,0 1,0 2,0 1,-1 2,-1 4,-1 1,1 1,1 1,2 -1,0 -1,0 -2,0 -1,0 -1,0 -2,1 -1,0 -1,0 -2,0 -1,1 -2,1 -2,1z"/>
   <path class="fil0" d="M131 226c0,0 -1,0 -1,0 0,0 0,-1 0,-1 1,0 4,-3 6,-1 2,1 3,0 6,0 2,-1 4,-2 5,-1 1,0 1,1 1,1 -1,1 -1,1 -2,1 -1,-1 -1,-1 -4,0 -2,2 -4,2 -6,0 -2,0 -4,1 -4,1 0,0 -1,0 -1,0z"/>
   <path class="fil0" d="M123 207c0,0 -1,0 -1,-1l0 -5c0,0 1,-1 1,-1 1,0 1,1 1,1l0 5c0,1 0,1 -1,1z"/>
   <path class="fil0" d="M123 215c0,0 -1,-1 -1,-1l0 -4c0,0 1,-1 1,-1 1,0 2,1 2,1l0 4c0,0 -1,1 -2,1z"/>
   <path class="fil0" d="M124 221c-1,0 -1,-1 -1,-1l0 -3c0,0 0,-1 1,-1 1,0 1,1 1,1l0 3c0,0 0,1 -1,1z"/>
   <path class="fil0" d="M124 229c-1,0 -1,0 -1,-1l0 -3c0,-1 0,-1 1,-1 1,0 1,0 1,1l0 3c0,1 0,1 -1,1z"/>
   <path class="fil1" d="M186 54c2,0 3,2 3,4 0,3 -1,5 -3,5 -1,0 -2,-2 -2,-5 0,-2 1,-4 2,-4z"/>
   <path class="fil1" d="M218 55c1,0 2,2 2,4 0,2 -1,4 -2,4 -2,0 -3,-2 -3,-4 0,-2 1,-4 3,-4z"/>
   <path class="fil0" d="M202 99c-5,0 -9,-1 -11,-3 -3,-2 -4,-5 -4,-8 -1,-3 0,-5 1,-7 3,-3 7,-3 11,-3 1,0 2,1 2,2 0,1 0,2 -2,2 -4,0 -6,0 -8,2 0,1 -1,2 0,4 0,2 1,3 2,5 3,2 7,3 11,2 4,0 7,-2 8,-5 2,-1 2,-4 2,-6 -1,-3 -7,-2 -7,-2 -1,0 -2,-1 -2,-2 0,-1 0,-2 2,-3 3,0 9,1 11,6 0,4 0,7 -2,10 -3,3 -6,5 -11,6 -1,0 -2,0 -3,0z"/>
   <path class="fil1" d="M174 51c0,0 0,0 0,0 1,-2 7,-12 8,-16 1,-4 24,-6 33,-5 8,1 14,10 15,16 1,6 2,12 5,13 3,1 0,-18 -2,-22 -1,-3 -9,-10 -14,-11 -5,-1 -19,-4 -28,-2 -10,3 -16,9 -17,27z"/>
  </g>
 </g>
</svg>
