<?xml version="1.0" encoding="UTF-8"?>
<!DOCTYPE svg PUBLIC "-//W3C//DTD SVG 1.1//EN" "http://www.w3.org/Graphics/SVG/1.1/DTD/svg11.dtd">
<!-- Creator: CorelDRAW X7 -->
<svg xmlns="http://www.w3.org/2000/svg" xml:space="preserve" width="99.8418mm" height="97.3816mm" version="1.1" style="shape-rendering:geometricPrecision; text-rendering:geometricPrecision; image-rendering:optimizeQuality; fill-rule:evenodd; clip-rule:evenodd"
viewBox="0 0 639 624"
 xmlns:xlink="http://www.w3.org/1999/xlink">
 <defs>
  <style type="text/css">
   <![CDATA[
    .fil1 {fill:black}
    .fil0 {fill:black;fill-rule:nonzero}
   ]]>
  </style>
 </defs>
 <g id="Layer_x0020_1">
  <metadata id="CorelCorpID_0Corel-Layer"/>
  <g id="_1042354512">
   <path class="fil0" d="M167 258c-2,0 -5,-1 -21,-18 -4,4 -16,11 -37,9 -10,-1 -17,-5 -21,-11 -3,-5 -3,-11 -3,-15 -11,0 -39,-1 -61,-19 -14,-13 -22,-31 -24,-54 -2,-41 11,-76 38,-102 29,-27 73,-43 127,-47 54,-4 126,5 165,41 20,18 30,42 31,70 0,41 -41,105 -80,110 -2,0 -4,-1 -4,-3 0,-1 1,-3 3,-3 36,-5 75,-67 74,-104 0,-26 -10,-48 -28,-65 -38,-35 -108,-44 -160,-40 -105,8 -164,61 -159,142 1,22 8,38 22,50 24,20 60,17 60,17 1,0 2,0 3,1 1,1 1,2 1,3 -1,0 -3,9 0,15 3,4 8,7 16,8 26,2 34,-9 35,-9 0,-1 1,-2 2,-2 1,0 2,0 3,1 5,5 10,11 14,15 0,-2 -1,-4 -1,-5 -3,-12 -4,-16 -2,-18 2,-2 5,-1 10,0 10,1 26,4 34,-3 2,-1 4,-1 5,0 1,2 1,4 -1,5 -10,9 -28,6 -39,4 -1,0 -2,0 -4,-1 1,3 2,8 3,11 3,11 3,14 2,16 -1,1 -2,1 -3,1 0,0 0,0 0,0z"/>
   <path class="fil0" d="M184 493c-1,0 -2,-1 -3,-2 -2,-9 -3,-21 -2,-32 -3,6 -5,12 -8,14 -9,8 -38,21 -56,5 -13,-12 -15,-28 -15,-36 -2,0 -4,-1 -6,-2 -1,-1 -2,-2 -2,-3 0,-3 1,-6 4,-10 -4,2 -8,5 -12,5 -2,0 -4,-1 -6,-2 -3,-4 1,-10 10,-20 -6,3 -10,5 -14,4 -2,-1 -3,-2 -4,-4 -5,-10 11,-18 21,-24 2,-2 4,-3 5,-3 2,-2 1,-6 1,-7 -5,-8 -15,-24 -7,-30 1,-1 3,-1 4,-1 8,1 17,16 21,21 1,0 4,1 6,2 5,-11 21,-41 47,-52 0,-7 4,-25 30,-32 0,-10 -1,-46 3,-59 5,-16 13,-25 40,-25 20,0 33,4 42,14 14,15 12,42 10,68 4,2 14,6 18,16 9,0 38,2 52,23 1,1 0,3 -1,4 -2,1 -4,1 -5,-1 -13,-21 -48,-20 -48,-20 -2,0 -3,-1 -3,-2 -4,-11 -17,-15 -18,-15 -1,0 -2,-2 -2,-3l0 -1c2,-26 5,-51 -8,-65 -7,-8 -19,-12 -37,-12 -26,0 -30,9 -34,21 -4,14 -2,59 -2,59 0,2 -1,3 -3,3 -30,7 -28,29 -28,29 0,1 0,3 -2,3 -29,11 -47,53 -47,53 0,1 -1,2 -2,2 -1,0 -2,0 -3,-1 -2,-2 -6,-3 -8,-3 -1,0 -1,-1 -2,-2 -6,-10 -14,-19 -17,-19 0,0 0,0 0,0 -1,2 3,12 10,21 0,1 0,1 0,1 1,4 2,11 -3,15 -2,1 -4,2 -6,3 -6,3 -20,12 -18,16 0,1 0,1 0,1 3,1 11,-5 15,-8 6,-3 9,-5 11,-3 1,0 1,1 2,2 0,3 -2,5 -9,13 -3,4 -10,11 -11,14 2,0 6,-3 10,-7l2 -1c4,-5 8,-9 12,-6 1,1 1,1 1,2 1,3 0,5 -4,10 -2,3 -6,9 -7,11 2,1 3,0 3,0 1,-1 2,-1 4,-1 1,1 2,2 2,3 -1,1 -3,23 12,36 15,13 40,2 47,-4 5,-5 12,-25 15,-33 1,-5 2,-6 5,-6 1,0 2,2 2,3 0,1 0,1 0,4 -1,9 -5,37 0,52 0,1 -1,3 -2,4 -1,0 -1,0 -2,0z"/>
   <path class="fil0" d="M317 333l9 139 158 -38 -5 -122 -162 21zm6 146c-1,0 -2,0 -2,-1 -1,0 -2,-1 -2,-2l-8 -146c-1,-1 1,-3 2,-3l169 -22c1,0 2,0 2,1 1,1 1,1 1,2l5 129c1,1 -1,3 -2,3l-165 39c0,0 0,0 0,0z"/>
   <path class="fil0" d="M338 348l7 104 127 -28 -4 -92 -130 16zm5 109c-1,0 -2,0 -2,0 0,-1 -1,-1 -1,-2l-7 -109c0,-1 1,-3 2,-3l135 -16c1,0 1,0 2,1 0,0 1,1 1,1l4 97c0,1 -1,2 -2,2l-132 29c0,0 0,0 0,0z"/>
   <path class="fil0" d="M281 498c-10,0 -14,-3 -16,-5 -1,0 -3,0 -4,0 -4,-1 -5,-5 -6,-7 0,-1 -1,-1 -1,-2 -2,-1 -3,-4 -3,-6 0,-1 -1,-2 -1,-2 -1,-1 -2,-3 -3,-11 -1,-2 -2,-9 1,-15 3,-7 11,-9 15,-9 8,-8 23,-7 31,-7 2,0 4,1 4,1 2,-1 4,-4 4,-5 1,-1 1,-3 16,-9 2,-1 4,0 4,1 1,2 0,4 -1,5 -5,2 -11,4 -13,5 -1,3 -4,8 -9,9 -1,0 -2,0 -5,0 -7,-1 -21,-2 -27,5 -1,1 -2,1 -2,1 -3,1 -10,2 -11,5 -3,5 -1,11 -1,11 0,0 0,1 0,1 1,3 1,7 2,8 1,1 2,3 2,5 0,0 0,1 0,2 2,1 3,3 4,4 0,1 1,3 2,3 1,1 2,1 2,1 1,0 2,0 2,0 1,0 2,1 2,1 0,1 4,4 16,3 19,-1 51,-10 58,-20 1,-2 3,-2 5,-1 1,1 1,3 0,4 -9,15 -46,23 -62,24 -2,0 -3,0 -5,0z"/>
   <path class="fil0" d="M171 321c-2,0 -3,-1 -3,-3 0,-3 -8,-79 34,-85 2,0 3,1 4,3 0,1 -1,3 -3,3 -36,5 -29,78 -29,79 0,2 -1,3 -3,3 0,0 0,0 0,0z"/>
   <path class="fil0" d="M403 322c0,0 0,0 0,0 -2,0 -3,-2 -3,-4 0,0 3,-46 -20,-68 -24,-23 -92,-19 -92,-19 -2,0 -4,-1 -4,-3 0,-2 2,-3 3,-3 3,0 71,-4 97,20 26,24 22,72 22,74 0,2 -1,3 -3,3z"/>
   <path class="fil0" d="M208 528l36 21 18 -10c-3,-20 -18,-29 -32,-29 -9,0 -17,4 -21,11l-1 7zm36 28c0,0 -1,0 -1,0l-40 -23c-2,-1 -2,-2 -2,-4l2 -10c0,0 0,-1 0,-1 5,-9 15,-14 27,-14 16,0 36,11 39,36 0,1 -1,3 -2,3l-21 13c-1,0 -1,0 -2,0z"/>
   <path class="fil0" d="M410 500c0,0 -1,-1 -2,-1l-7 -7c0,-1 0,-1 0,-2l-2 -33c0,-2 2,-3 3,-3 2,0 4,1 4,3l1 31 4 5 16 -4 0 -39c0,-1 1,-3 3,-3l0 0c2,0 3,2 3,3l1 41c0,1 -1,3 -3,3l-20 6c0,0 0,0 -1,0z"/>
   <path class="fil0" d="M400 523c-9,0 -16,-2 -20,-10 -2,-5 -2,-9 0,-14 5,-11 22,-15 23,-15 2,-1 3,0 4,2 0,2 -1,3 -3,4 -4,1 -15,5 -18,12 -2,3 -1,5 0,9 6,14 40,0 41,0 21,-8 27,-16 25,-20 -2,-6 -12,-9 -20,-6 -2,0 -4,-1 -5,-2 0,-2 1,-4 2,-4 12,-4 26,1 29,9 2,6 1,18 -29,29 -1,0 -16,6 -29,6z"/>
   <path class="fil0" d="M113 449c0,0 0,0 -1,0 -1,0 -2,0 -3,-1 -1,-3 0,-8 2,-14 -3,4 -7,6 -10,6 -1,-1 -2,-2 -2,-3 0,-1 2,-2 3,-2 2,0 7,-7 9,-9 2,-3 3,-5 5,-5l0 0c1,0 2,1 2,1 1,2 1,3 -1,9 -1,3 -4,11 -4,13 4,-1 14,-16 19,-31 4,-11 -2,-18 -6,-23l-1 -1c-5,-5 -5,-15 -5,-16 0,-1 1,-2 2,-3 2,0 3,1 3,3 0,2 1,10 4,13l0 1c5,5 13,14 8,28 -4,10 -16,34 -24,34z"/>
   <path class="fil0" d="M357 321c-1,0 -2,0 -2,-2 -5,-41 2,-60 9,-69 7,-8 14,-8 14,-8 1,0 2,1 3,2 0,1 -1,2 -3,3 0,0 -5,0 -10,7 -7,8 -13,25 -8,65 0,1 -1,2 -2,2 -1,0 -1,0 -1,0z"/>
   <path class="fil0" d="M244 284c-3,0 -10,-3 -13,-6 -3,-4 0,-7 2,-9 0,0 1,-1 1,-2 2,-2 2,-7 2,-10 0,-2 1,-3 2,-3 1,0 3,1 3,2 0,1 0,10 -3,14 -1,1 -1,2 -2,3 0,0 -1,1 -1,1 0,0 0,0 0,1 2,2 8,4 9,4 2,0 6,-4 7,-5 0,-1 0,-2 -1,-2 0,-2 0,-3 1,-4 1,-1 3,0 3,1 1,0 2,3 2,5 0,3 -9,9 -11,10 0,0 0,0 -1,0z"/>
   <path class="fil0" d="M214 245c0,0 -1,-1 -1,-1 -1,-1 -2,-2 -1,-3 3,-4 10,-10 20,-5 2,0 2,1 2,3 -1,1 -2,2 -3,1 -10,-4 -15,3 -15,3 0,1 -1,2 -2,2z"/>
   <path class="fil0" d="M262 242c-1,0 -1,0 -1,0 -2,-1 -2,-2 -1,-3 0,-1 3,-5 7,-6 3,-1 6,0 9,2 1,1 1,2 0,3 -1,1 -2,2 -3,1 -2,-2 -3,-2 -5,-2 -2,1 -4,3 -4,4 -1,1 -1,1 -2,1z"/>
   <path class="fil0" d="M217 338c-1,0 -2,0 -4,0 -18,-1 -42,-17 -43,-18 -1,-1 -2,-2 -1,-3 1,-1 2,-2 3,-1 1,0 25,16 42,17 7,1 12,0 14,-3 1,-1 1,-2 1,-3 -1,-1 -4,-3 -7,-4 -11,-5 -24,-11 -24,-19 0,-6 1,-10 3,-12 1,-1 3,-1 3,-1 1,0 2,1 2,3 0,1 -1,2 -2,2 0,0 -1,2 -1,8 0,5 13,11 20,14 8,4 11,5 11,7 1,3 0,6 -2,9 -3,3 -8,4 -15,4z"/>
   <path class="fil0" d="M247 324c-1,0 -2,0 -2,0l-1 0c-33,-1 -44,-30 -45,-38 0,-3 3,-3 3,-3 1,0 3,1 3,2 0,1 0,1 -1,2 0,2 3,10 10,18 7,9 18,13 30,14l1 0c25,0 40,-11 42,-35 0,-1 1,-2 2,-2 2,0 3,1 3,2 -2,18 -11,40 -45,40z"/>
   <path class="fil0" d="M259 335c-1,0 -2,-1 -2,-1 -1,0 -2,-1 -2,-2 -1,-4 4,-11 7,-14 1,-2 2,-2 3,-1 1,1 1,2 0,4 -2,3 -5,7 -5,9 4,-1 18,-7 27,-10 5,-2 9,-4 12,-5 10,-4 8,-13 7,-14 0,-1 1,-2 2,-3 1,0 3,1 3,2 1,5 1,15 -10,19 -3,1 -8,3 -12,5 -18,7 -26,11 -30,11z"/>
   <path class="fil0" d="M323 478c-1,0 -2,0 -2,0 -1,-1 -1,-3 0,-4l20 -21c1,-1 2,-1 3,0 1,1 1,3 0,4l-20 21c0,0 -1,0 -1,0z"/>
   <path class="fil0" d="M335 348c0,0 -1,0 -1,0l-22 -16c-1,-1 -1,-2 0,-3 1,-1 2,-2 3,-1l22 16c1,1 1,2 0,3 0,1 -1,1 -2,1z"/>
   <path class="fil0" d="M470 332c0,0 -1,0 -1,0 -1,-1 -2,-3 -1,-4l12 -21c1,-1 2,-1 3,-1 2,1 2,3 1,4l-12 21c0,0 -1,1 -2,1z"/>
   <path class="fil0" d="M487 439c0,0 -1,0 -1,0l-13 -13c-1,0 -1,-2 -1,-3 1,-1 3,-1 4,0l13 12c1,1 1,3 0,4 0,0 -1,0 -2,0z"/>
   <path class="fil0" d="M313 492c0,0 0,0 0,0 -1,0 -2,-1 -2,-3 1,-32 -14,-50 -14,-50 -1,-1 -1,-2 0,-3 1,-1 3,-1 4,0 0,1 16,19 15,54 0,1 -2,2 -3,2z"/>
   <path class="fil0" d="M250 464c-1,0 -1,0 -2,0 -1,-1 -1,-2 0,-4 0,0 7,-10 16,-17 1,-1 3,0 4,1 0,1 0,2 -1,3 -9,6 -15,16 -15,16 -1,1 -2,1 -2,1z"/>
   <path class="fil0" d="M251 474c0,0 -1,0 -1,-1 -1,0 -1,-2 -1,-3 9,-13 27,-20 28,-21 1,0 2,0 3,2 0,1 0,2 -1,3 -1,0 -17,7 -26,19 0,0 -1,1 -2,1z"/>
   <path class="fil0" d="M256 484c0,0 -1,0 -1,0 -1,-1 -2,-3 -1,-4 8,-10 22,-12 22,-13 1,0 3,1 3,2 0,2 -1,3 -2,3 0,0 -12,3 -19,11 0,1 -1,1 -2,1z"/>
   <path class="fil0" d="M263 492c-1,0 -1,0 -1,0 -2,-1 -2,-2 -2,-3 5,-9 18,-10 18,-10 2,0 3,1 3,2 0,2 -1,3 -2,3 -3,0 -12,2 -14,7 -1,1 -1,1 -2,1z"/>
   <path class="fil0" d="M411 499c-1,0 -2,-1 -2,-3l-1 -40c0,-2 1,-3 2,-3 1,0 2,1 3,3l1 40c0,1 -1,3 -2,3 0,0 0,0 -1,0z"/>
   <path class="fil0" d="M252 528c-1,0 -3,1 -4,2 0,0 1,3 2,6l6 -3c-1,-1 -2,-3 -2,-4 0,0 -1,-1 -2,-1zm-3 13c-1,0 -2,0 -2,-1 -2,-2 -6,-11 -2,-14 2,-1 5,-2 7,-2 3,0 5,1 6,2 1,3 3,7 3,8 1,0 1,1 0,2 0,0 0,1 -1,1l-10 4c-1,0 -1,0 -1,0z"/>
   <path class="fil0" d="M242 544c0,0 0,0 -1,-1l-37 -21c-1,-1 -1,-2 0,-4 0,-1 2,-1 3,0l36 21 5 -2c1,-1 3,0 3,1 1,1 0,3 -1,3l-7 2c0,1 0,1 -1,1z"/>
   <path class="fil0" d="M248 529c0,0 -1,0 -2,-1 -10,-18 -31,-15 -31,-14 -2,0 -3,-1 -3,-2 0,-2 1,-3 2,-3 0,0 25,-4 37,17 0,1 0,2 -1,3 -1,0 -1,0 -2,0z"/>
   <path class="fil0" d="M134 440c0,0 -1,0 -1,-1 -4,-2 -7,-5 -8,-5 -1,-1 -1,-2 0,-3 0,-1 2,-2 3,-1 0,0 0,0 5,4 6,-11 8,-32 2,-45 -3,-5 -7,-7 -12,-7 -1,0 -2,-1 -2,-3 0,-1 1,-2 2,-2 0,0 0,0 0,0 7,0 13,4 16,10 8,15 4,41 -3,52 0,0 -1,1 -2,1 0,0 0,0 0,0z"/>
   <path class="fil0" d="M160 442c-1,0 -2,-2 -2,-3 0,0 -1,-29 -18,-34 -1,-1 -2,-2 -1,-4 0,-1 1,-1 3,-1 20,7 20,38 20,39 0,1 -1,3 -2,3l0 0z"/>
   <path class="fil0" d="M291 287c-1,0 -3,-1 -3,-3 -1,-1 0,-3 2,-4 6,-1 9,-8 9,-10 1,-4 1,-7 1,-8 -2,-1 -6,1 -7,2 -2,1 -4,1 -5,-1 -1,-1 0,-3 1,-4 1,-1 8,-6 14,-2 3,2 4,6 3,11 -1,7 -6,16 -14,18 0,1 -1,1 -1,1z"/>
   <path class="fil0" d="M197 280c-5,0 -9,-2 -11,-7 -3,-7 -1,-17 4,-21 2,-1 7,-4 14,3 1,2 1,4 -1,5 -1,1 -3,1 -4,0 -1,-2 -4,-4 -5,-3 -3,2 -4,9 -2,14 2,3 4,4 8,2 2,0 4,1 4,2 1,2 0,4 -2,4 -2,1 -3,1 -5,1z"/>
   <path class="fil0" d="M109 512c-2,0 -3,0 -5,-1 -3,-1 -6,-3 -7,-6 -6,-11 14,-29 18,-32 1,-1 3,-1 4,0 2,2 1,4 0,5 -8,7 -19,20 -17,24 1,2 2,3 4,3 6,2 16,-2 26,-8 4,-2 7,-5 11,-8 9,-7 21,-16 38,-20 2,0 4,1 4,3 1,2 -1,3 -2,4 -17,3 -27,11 -37,18 -3,3 -7,6 -10,8 -8,5 -18,10 -27,10z"/>
   <path class="fil0" d="M143 602c-1,0 -2,0 -2,-1l-82 -64c-1,-1 -1,-2 -1,-3 0,-2 1,-2 2,-3l191 -62c1,-1 3,0 4,2 0,2 -1,3 -2,4l-185 60 77 61c1,1 1,3 0,5 -1,0 -1,1 -2,1z"/>
   <path class="fil0" d="M636 494c0,0 -1,0 -1,0l-150 -74c-2,-1 -2,-2 -1,-4 0,-2 2,-2 4,-2l150 74c1,1 2,2 1,4 -1,1 -2,2 -3,2z"/>
   <path class="fil0" d="M137 624c0,0 -1,-1 -1,-1l-75 -61c0,0 -1,-1 -1,-2l0 -25c0,-1 1,-2 3,-2 1,0 2,1 2,2l0 24 74 60c1,1 1,3 0,4 0,0 -1,1 -2,1l0 0z"/>
   <path class="fil1" d="M219 250c2,0 4,3 4,7 0,4 -2,7 -4,7 -2,0 -4,-3 -4,-7 0,-4 2,-7 4,-7z"/>
   <path class="fil1" d="M267 250c2,0 4,3 4,6 0,4 -2,7 -4,7 -2,0 -4,-3 -4,-7 0,-3 2,-6 4,-6z"/>
   <path class="fil0" d="M238 317c-8,0 -15,-2 -17,-12 -1,-5 0,-9 3,-13 3,-4 9,-7 15,-8 2,0 4,1 4,3 0,2 -1,3 -3,4 -5,0 -9,2 -11,5 -1,2 -2,5 -1,8 1,6 4,8 19,6 13,-2 14,-9 14,-15 -1,-6 -11,-7 -11,-7 -2,0 -3,-1 -3,-3 0,-2 2,-3 3,-3 6,0 16,3 17,12 1,13 -5,20 -19,22 -3,1 -7,1 -10,1z"/>
   <path class="fil0" d="M237 298c1,2 2,7 7,7 1,0 2,0 2,0 3,-1 5,-2 6,-4 1,-2 1,-4 0,-6l-15 3zm7 12c-9,0 -12,-9 -12,-14 0,-1 1,-3 2,-3l20 -3c1,0 2,0 2,1 0,1 3,7 0,13 -2,3 -4,5 -8,6 -2,0 -3,0 -4,0z"/>
   <path class="fil0" d="M254 303c0,0 0,0 -1,0 -1,-2 -4,-1 -6,-1 -2,1 -4,1 -5,0 0,0 -3,0 -6,0 -1,0 -2,0 -2,-1 0,-1 0,-2 1,-2 5,-1 8,-1 9,0 1,0 2,0 2,0 3,0 6,-1 9,1 1,1 1,2 1,2 -1,1 -1,1 -2,1z"/>
   <path class="fil1" d="M201 251c0,0 4,-2 6,-11 2,-9 11,-28 35,-28 25,1 37,11 40,22 3,11 8,20 8,20 0,0 5,-35 -19,-45 -23,-10 -52,-7 -61,4 -9,12 -9,38 -9,38z"/>
  </g>
 </g>
</svg>
