<?xml version="1.0" encoding="UTF-8"?>
<!DOCTYPE svg PUBLIC "-//W3C//DTD SVG 1.1//EN" "http://www.w3.org/Graphics/SVG/1.1/DTD/svg11.dtd">
<!-- Creator: CorelDRAW X7 -->
<svg xmlns="http://www.w3.org/2000/svg" xml:space="preserve" width="93.7887mm" height="55.3541mm" version="1.1" style="shape-rendering:geometricPrecision; text-rendering:geometricPrecision; image-rendering:optimizeQuality; fill-rule:evenodd; clip-rule:evenodd"
viewBox="0 0 366 216"
 xmlns:xlink="http://www.w3.org/1999/xlink">
 <defs>
  <style type="text/css">
   <![CDATA[
    .fil1 {fill:black}
    .fil0 {fill:black;fill-rule:nonzero}
   ]]>
  </style>
 </defs>
 <g id="Layer_x0020_1">
  <metadata id="CorelCorpID_0Corel-Layer"/>
  <g id="_1042390352">
   <path class="fil0" d="M117 180c-1,0 -1,0 -1,0l-45 -3c-1,0 -1,-1 -1,-2 0,-1 1,-2 2,-2l43 3 10 -108 -110 -6 -11 105 34 3c1,0 2,1 1,2 0,1 -1,2 -2,2l-35 -3c-1,0 -1,0 -2,-1 0,0 0,0 0,-1l11 -110c0,-1 1,-1 2,-1l114 6c1,0 1,0 2,0 0,1 0,1 0,2l-11 112c0,1 0,2 -1,2z"/>
   <path class="fil0" d="M39 193l21 0 5 -57 -22 -1 -4 58zm23 4c0,0 0,0 0,0l-25 -1c0,0 -1,0 -1,0 0,-1 -1,-1 -1,-2l4 -61c0,-1 0,-1 1,-2 0,0 1,0 1,0l26 2c1,0 1,0 2,0 0,1 0,1 0,2l-5 60c0,1 -1,2 -2,2z"/>
   <path class="fil0" d="M57 208c-17,0 -37,-1 -42,-4 -2,-2 -2,-3 -2,-4 1,-5 14,-7 24,-9 1,0 2,1 2,2 0,1 0,2 -1,2 -10,1 -19,4 -21,5 0,0 0,0 0,0 7,5 54,5 65,3 4,0 6,-2 6,-3 0,-1 -3,-4 -18,-7 -1,0 -2,-1 -2,-2 0,-1 1,-2 2,-2 15,3 22,6 22,11 0,3 -4,6 -10,7 -3,1 -14,1 -25,1z"/>
   <path class="fil0" d="M68 198c0,0 0,0 0,0l-7 -2c0,0 -1,-1 -1,-2 1,0 1,-1 2,-1l5 2 6 -57 -6 -2c-1,0 -1,-1 -1,-2 0,-1 1,-1 2,-1l7 3c0,0 1,0 1,1l-6 60c0,0 0,1 -1,1 0,0 0,0 -1,0z"/>
   <path class="fil0" d="M98 160c0,0 0,0 0,0l-26 -2c-1,0 -1,0 -1,-1 0,-1 1,-2 1,-1l25 1 6 -71 -80 -5 -8 68 25 3c1,0 1,1 1,2 0,0 0,1 -1,1l-27 -3c-1,0 -1,-1 -1,-2l8 -70c0,-1 1,-2 1,-2l84 5c0,0 1,1 1,1 0,0 0,1 0,1l-6 74c-1,1 -1,1 -2,1z"/>
   <path class="fil0" d="M105 86c-1,0 -1,0 -1,0 -1,-1 -1,-2 0,-2l22 -19c1,-1 2,-1 2,0 1,0 1,1 0,2l-22 19c-1,0 -1,0 -1,0z"/>
   <path class="fil0" d="M117 179c-1,0 -1,0 -2,0l-18 -19c-1,-1 -1,-2 0,-2 1,-1 2,-1 2,0l19 19c0,0 0,1 0,2 -1,0 -1,0 -1,0z"/>
   <path class="fil0" d="M21 81c0,0 -1,0 -1,-1l-8 -20c-1,-1 0,-1 0,-2 1,0 2,0 2,1l9 20c0,1 0,2 -1,2 0,0 0,0 -1,0z"/>
   <path class="fil0" d="M2 171c0,0 -1,0 -1,-1 0,0 -1,-1 0,-2l11 -19c0,0 1,0 2,0 1,0 1,1 0,2l-11 19c0,0 -1,1 -1,1z"/>
   <path class="fil0" d="M71 216c-18,0 -42,-2 -49,-4 -11,-3 -8,-11 -8,-11 0,-1 1,-2 1,-1 1,0 2,1 1,1 0,1 -1,6 7,8 10,3 56,6 66,3 3,-1 3,-2 4,-3 0,-3 -5,-10 -6,-11 -1,-1 -1,-2 0,-2 0,-1 1,-1 2,0 1,0 8,8 6,14 0,2 -2,4 -5,4 -4,1 -11,2 -19,2z"/>
   <path class="fil0" d="M364 191c0,0 0,0 0,0l-295 -4c-1,0 -1,-1 -1,-2 0,-1 0,-2 1,-2l295 4c1,0 2,1 2,2 0,1 -1,2 -2,2z"/>
   <path class="fil0" d="M255 190c0,0 -1,0 -1,-1 -1,0 -1,-1 -1,-2 1,-3 8,-16 11,-18 1,-1 1,-1 2,-3 0,-3 2,-8 9,-18 10,-16 13,-44 10,-58 -2,-12 -11,-20 -11,-20 -1,0 -1,0 -1,-1 -1,-4 -7,-10 -9,-12 -1,-1 -1,-1 -1,-2 1,-1 2,-1 2,-1 2,0 3,-1 4,-2 2,-2 3,-6 3,-9 0,-1 -1,-1 -1,-2 -1,0 -3,0 -3,1 -1,0 -2,0 -2,-1 -1,0 -1,-1 -1,-1 -1,-22 -7,-36 -34,-36 0,0 0,0 0,0 -8,0 -14,2 -18,7 -9,10 -8,27 -8,27 0,1 -1,1 -1,2 -1,0 -2,0 -2,-1 -1,0 -2,-1 -2,0 -2,0 -3,2 -3,4 0,5 7,8 7,8 1,0 1,1 1,2l0 11c0,1 0,1 0,2 -1,0 -3,3 -4,6 0,0 -1,1 -2,1 -1,0 -1,-1 -1,-2 -1,-4 -3,-10 -5,-11 0,0 0,0 -1,0 0,0 0,0 0,1 -2,2 0,8 1,11 0,1 0,1 -1,2 0,1 -1,1 -2,0 -1,-1 -5,1 -5,1 -1,1 -2,1 -2,1 -1,-1 -3,0 -4,1 0,0 0,0 -1,0 -13,2 -47,24 -46,47 1,23 23,29 23,29 0,1 1,1 1,2 0,0 0,1 0,1 -10,15 -15,31 -15,31 0,1 -1,1 -2,1 -1,0 -2,-1 -2,-2 1,-1 5,-15 14,-30 -6,-2 -22,-11 -23,-31 -1,-26 34,-49 49,-51 1,-1 4,-2 6,-2 1,-1 3,-2 5,-2 -1,-3 -1,-8 0,-11 1,-1 2,-2 3,-3 1,0 3,0 4,1 3,1 4,5 5,8 1,-1 1,-1 1,-2l0 -9c-2,-1 -8,-5 -8,-11 0,-4 2,-7 5,-8 1,0 2,0 3,0 0,-6 1,-18 9,-27 5,-5 12,-8 21,-8 0,0 0,0 0,0 31,0 37,18 38,37 1,0 3,0 4,1 1,1 2,2 3,5 0,4 -1,9 -4,12 -1,0 -2,1 -3,2 3,2 6,7 7,11 3,1 11,9 13,22 3,14 0,43 -11,60 -7,10 -8,15 -9,17 0,2 -1,4 -3,5 -2,1 -6,10 -9,17 -1,0 -1,1 -2,1z"/>
   <path class="fil0" d="M265 58c0,0 0,-1 0,-1 -1,0 -2,-1 -2,-2l2 -15c0,-2 1,-2 2,-2 1,0 2,1 2,2l-2 16c0,1 -1,2 -2,2z"/>
   <path class="fil0" d="M203 56c-1,0 -2,-1 -2,-2l0 -16c0,-1 1,-2 2,-2 1,0 2,1 2,2l0 16c0,1 -1,2 -2,2 0,0 0,0 0,0z"/>
   <path class="fil0" d="M309 190c-1,0 -1,0 -1,0 -1,0 -2,-1 -1,-2 0,-3 19,-82 21,-90 1,-2 1,-8 1,-13 1,-11 1,-22 4,-27 5,-7 6,-17 3,-24 -2,-6 -12,-8 -32,-11 -22,-3 -39,0 -40,0 -1,0 -2,-1 -2,-2 0,-1 1,-2 2,-2 1,0 18,-3 40,0 24,4 32,6 36,14 3,8 2,19 -3,27 -3,4 -4,16 -4,25 0,6 0,11 -1,14 -2,8 -21,89 -22,90 0,1 -1,1 -1,1z"/>
   <path class="fil0" d="M232 83c-6,0 -10,-2 -12,-4 -4,-5 -5,-11 -4,-14 0,-4 2,-7 4,-9 3,-1 6,-1 9,0 1,1 2,2 1,3 0,1 -1,1 -2,1 -3,-1 -5,-1 -6,0 -2,1 -2,3 -3,5 0,3 1,8 4,11 3,3 7,4 12,3 9,-1 13,-8 14,-12 2,-5 2,-9 1,-9 -1,-2 -8,-1 -15,2 -1,0 -2,0 -3,-1 0,-1 0,-2 1,-3 4,-1 16,-5 20,-1 2,2 2,8 0,14 -3,7 -9,13 -17,14 -1,0 -3,0 -4,0z"/>
   <path class="fil0" d="M236 85c-2,0 -4,0 -6,0 -25,-4 -28,-20 -28,-21 -1,-1 0,-2 1,-2 1,0 2,0 2,1 0,1 4,15 26,18 17,2 28,-7 32,-26 1,-1 2,-2 3,-1 1,0 1,1 1,2 -4,19 -15,29 -31,29z"/>
   <path class="fil0" d="M225 25c-1,0 -1,0 -1,-1 -1,-1 -2,-3 -4,-3 -2,-1 -5,1 -6,2 -1,1 -2,1 -2,0 -1,0 -1,-1 0,-2 1,-1 5,-4 9,-3 3,1 5,5 5,5 1,1 0,2 0,2 -1,0 -1,0 -1,0z"/>
   <path class="fil0" d="M244 26c-1,0 -1,0 -1,0 -1,0 -1,-1 0,-2 0,-1 4,-5 7,-5 3,1 5,3 5,3 0,0 0,1 0,2 -1,0 -2,0 -2,0 0,0 -1,-1 -3,-2 -2,0 -4,2 -5,4 0,0 -1,0 -1,0z"/>
   <path class="fil0" d="M215 39c-4,0 -6,-3 -7,-4 0,-1 1,-2 1,-2 1,0 2,0 2,1 0,0 1,2 4,2 3,0 5,-4 5,-4 0,-1 1,-1 2,-1 1,1 1,1 1,2 -1,0 -3,6 -8,6 0,0 0,0 0,0z"/>
   <path class="fil0" d="M250 40c-1,0 -1,0 -1,0 -3,0 -7,-5 -7,-6 0,-1 0,-1 0,-2 1,0 2,0 2,1 2,2 4,4 5,4 0,0 1,0 1,0 2,0 4,-2 5,-3 0,0 1,0 2,0 0,1 0,2 0,2 -1,1 -4,4 -7,4z"/>
   <path class="fil0" d="M233 56c-2,0 -6,-2 -7,-3 -2,-2 -1,-4 2,-7 0,-1 1,-3 0,-5 0,-1 1,-2 2,-2 0,0 1,0 1,1 0,1 1,6 -1,8 -2,1 -2,3 -2,3 1,1 4,2 5,2 1,0 4,-3 5,-4 0,-1 1,-1 2,-1 0,0 1,0 1,1 0,2 -6,6 -8,7 0,0 0,0 0,0z"/>
   <path class="fil0" d="M233 67c0,0 -1,0 -1,0 -10,0 -14,-6 -14,-6 0,-1 0,-2 0,-2 1,-1 2,-1 2,0 1,0 4,5 12,5 9,1 19,-8 19,-8 0,-1 1,-1 2,0 0,0 0,1 0,2 -1,0 -11,9 -20,9z"/>
   <path class="fil0" d="M285 190c-1,0 -1,-1 -1,-2 -1,-44 22,-107 24,-113 -4,-12 -3,-23 2,-32 8,-13 23,-16 23,-16 1,0 2,0 2,1 0,1 0,2 -1,2 0,0 -14,3 -21,15 -5,8 -6,18 -2,30 0,0 0,1 0,1 0,1 -25,67 -24,112 0,1 -1,2 -2,2l0 0z"/>
   <path class="fil0" d="M331 78c0,0 0,0 0,0l-21 -1c0,0 0,0 -1,0l-35 -7c0,0 -1,-1 -1,-2 0,0 1,-1 2,-1l35 7 22 1c0,0 1,1 1,2 0,1 -1,1 -2,1z"/>
   <path class="fil0" d="M232 102c-1,0 -3,0 -3,-1 -1,0 -1,-1 -1,-3 1,-4 9,-15 15,-16 0,0 1,0 1,1 0,1 0,2 -1,2 -2,0 -6,3 -9,8 -2,3 -3,5 -3,6 3,1 17,-3 29,-11 13,-9 15,-18 15,-18 0,-1 0,-2 1,-2 1,1 2,1 1,2 0,1 -2,11 -15,20 -10,8 -24,12 -30,12z"/>
   <path class="fil0" d="M229 101c-2,0 -8,-4 -8,-6 0,-1 0,-2 2,-3 1,0 2,-1 3,-2 0,0 0,-1 0,-2 0,-1 -3,-1 -5,-1 -2,0 -4,-1 -5,-1 -3,-1 -7,-9 -8,-12 0,-1 0,-1 1,-2 0,0 1,0 2,1 2,4 5,10 7,10 0,1 2,1 3,1 3,0 7,1 8,3 0,2 0,3 0,5 -1,1 -3,3 -5,3 1,1 4,3 5,3 0,0 1,1 1,1 0,1 0,2 -1,2 0,0 0,0 0,0z"/>
   <path class="fil0" d="M210 88c-1,0 -2,0 -3,0 -2,-1 -6,-10 -9,-18 0,0 0,-1 1,-1 1,-1 1,0 2,0 2,7 6,15 7,16 1,0 8,0 9,-1 1,0 1,0 2,0 0,0 1,1 1,2 0,0 -1,1 -1,1 -1,0 -6,1 -9,1z"/>
   <path class="fil0" d="M194 147c-1,0 -1,0 -2,-1 0,0 0,-1 1,-2 10,-7 10,-25 10,-26 0,0 0,0 0,0 0,-2 1,-5 1,-6 0,0 -1,-2 -2,-3 0,-1 0,-2 0,-2l10 -10c0,0 0,0 0,0l10 -4c1,0 1,0 2,1 0,1 0,2 -1,2l-10 3 -8 9c1,1 2,3 2,4 0,0 0,3 -1,6 0,2 0,21 -12,29 0,0 0,0 0,0z"/>
   <path class="fil0" d="M201 166c-5,0 -10,-1 -14,-2 -28,-9 -19,-47 -18,-50 0,-1 0,-4 1,-8 1,-4 5,-5 8,-6 -1,-3 -4,-8 -6,-12 -2,-6 3,-13 3,-13 1,-1 2,-1 2,0 1,0 1,1 1,2 0,0 -5,5 -3,10 2,5 7,13 7,13 0,1 0,1 0,2 -1,0 -1,0 -2,1 -1,0 -6,1 -7,3 -1,5 -1,8 -1,8 0,0 0,0 0,0 0,1 -10,39 16,47 4,1 9,2 13,2 27,0 61,-19 71,-29 12,-12 10,-35 5,-48 -1,-1 0,-2 1,-2 0,0 1,0 1,1 6,14 9,38 -5,51 -11,10 -45,30 -73,30z"/>
   <path class="fil0" d="M195 112c-2,0 -5,0 -7,-1 -9,-3 -12,-9 -12,-9 0,-1 1,-2 1,-2 1,0 2,0 2,1 0,0 2,5 10,7 7,3 14,0 14,0 1,-1 2,0 2,0 1,1 0,2 -1,2 0,0 -4,2 -9,2z"/>
   <path class="fil0" d="M190 122c-2,0 -4,0 -6,-1 -7,-2 -14,-8 -15,-8 0,-1 0,-2 0,-2 1,-1 2,-1 2,0 0,0 7,6 14,7 7,2 19,-1 19,-1 1,0 2,0 2,1 0,1 0,2 -1,2 -1,0 -8,2 -15,2z"/>
   <path class="fil0" d="M212 120c1,0 3,1 4,2 3,3 5,6 6,9 1,1 2,2 2,3 1,-1 2,-4 3,-6 0,-1 1,-1 1,-1 0,0 1,0 1,0 0,0 1,1 3,0 1,0 3,-2 6,-5 0,0 1,0 1,0 0,0 1,0 2,0 0,0 0,0 1,0 0,0 0,-2 0,-4 1,-3 -1,-6 -2,-8 -1,0 -2,-1 -4,-1 -3,0 -7,3 -7,3 0,0 -1,0 -1,0 -8,-1 -14,5 -16,8zm12 17c-2,0 -3,-2 -4,-5 -2,-2 -4,-5 -6,-7 -2,-2 -3,-2 -5,-2l0 0c-1,0 -1,-1 -1,-1 -1,-1 -1,-1 0,-2 0,0 8,-12 20,-11 1,-1 4,-3 8,-3 2,0 4,1 6,2 4,3 4,10 3,14 -1,2 -2,3 -3,3 -1,0 -2,0 -3,0 -2,2 -5,5 -7,5 -1,0 -2,0 -3,0 0,3 -2,6 -5,7 0,0 0,0 0,0z"/>
   <path class="fil0" d="M228 130c0,0 -1,-1 -1,-2 -1,-7 -8,-9 -8,-9 -1,0 -1,-1 -1,-2 0,-1 1,-1 2,-1 0,0 9,3 10,12 0,1 -1,2 -1,2 0,0 0,0 -1,0z"/>
   <path class="fil0" d="M239 125c0,0 0,0 0,0 -1,0 -2,-1 -2,-2 0,-6 -5,-9 -5,-9 0,0 -1,-1 0,-2 0,-1 1,-1 2,0 0,0 6,3 6,11 0,1 -1,2 -1,2z"/>
   <path class="fil0" d="M241 111c-1,0 -1,0 -1,-1 -1,0 -1,-1 0,-2 6,-6 11,-8 17,-8 7,1 10,6 10,6 1,1 1,2 0,2 -1,1 -2,1 -2,0 0,0 -3,-5 -9,-5 -4,0 -9,2 -14,7 -1,1 -1,1 -1,1z"/>
   <path class="fil0" d="M205 123c0,0 0,0 0,0 -1,0 -1,0 -1,-1 0,-1 1,-2 1,-2 1,1 2,0 3,0 1,-1 2,0 2,1 1,0 0,1 -1,2 0,0 -2,0 -4,0z"/>
   <path class="fil0" d="M158 126c-3,0 -5,0 -8,-1 -1,0 -1,-1 -1,-2 0,0 1,-1 2,-1 8,2 17,0 17,0 1,-1 2,0 2,1 0,0 0,1 -1,2 0,0 -5,1 -11,1z"/>
   <path class="fil0" d="M161 126c-1,0 -1,0 -1,0 0,0 -1,-1 -1,-2 0,-2 0,-6 -2,-7 -2,-1 -7,1 -9,2 0,0 -1,0 -2,-1 0,-1 0,-1 1,-2 1,0 7,-4 12,-1 2,1 3,5 3,10 0,0 -1,1 -1,1z"/>
   <path class="fil0" d="M163 157c-5,0 -9,0 -9,0 -1,0 -1,-1 -1,-2 0,-1 1,-1 2,-1 0,0 10,2 20,-1 1,0 1,0 2,1 0,1 -1,1 -1,2 -5,1 -10,1 -13,1z"/>
   <path class="fil0" d="M154 188c0,0 -1,0 -1,0 0,-1 -1,-2 0,-2l11 -25c0,-1 0,-1 1,-1 0,0 18,2 27,2 0,0 1,1 1,1 0,1 -1,2 -1,2 -1,0 -1,0 -1,0 -7,0 -21,-2 -25,-2l-11 24c0,0 -1,1 -1,1z"/>
   <path class="fil0" d="M220 189c0,0 -1,-1 -1,-1 0,-1 -6,-11 -7,-25 0,-1 1,-1 2,-1 0,0 1,0 1,1 1,13 6,23 6,24 1,0 0,1 0,2 0,0 -1,0 -1,0z"/>
   <path class="fil0" d="M175 117c0,0 0,0 0,0 0,0 -1,-1 -1,-2 0,-3 5,-10 5,-10 1,-1 2,-1 2,-1 1,1 1,2 1,2 -2,3 -5,7 -5,10 0,0 -1,1 -2,1z"/>
   <path class="fil0" d="M181 120c0,0 0,0 0,0 -1,0 -1,-1 -1,-2l5 -10c0,0 1,-1 2,0 0,0 1,1 0,2l-4 9c-1,1 -1,1 -2,1z"/>
   <path class="fil0" d="M190 122c0,0 -1,0 -1,0 -1,-1 -1,-2 0,-2l6 -10c0,-1 1,-1 2,-1 1,1 1,2 0,2l-6 10c0,1 -1,1 -1,1z"/>
   <path class="fil0" d="M236 128c-1,0 -2,0 -2,-1 -3,-10 -7,-10 -7,-10 -1,0 -2,-1 -2,-2 0,-1 1,-1 2,-1 1,0 6,0 10,12 0,1 0,2 -1,2 0,0 0,0 0,0z"/>
   <path class="fil1" d="M203 42c0,0 5,-12 5,-18 1,-6 9,-14 15,-15 6,0 23,-3 29,3 6,7 7,9 9,17 2,7 3,9 6,9 3,0 -4,-20 -4,-20 0,0 -6,-16 -30,-16 -24,0 -31,20 -30,40z"/>
  </g>
 </g>
</svg>
