<?xml version="1.0" encoding="UTF-8"?>
<!DOCTYPE svg PUBLIC "-//W3C//DTD SVG 1.1//EN" "http://www.w3.org/Graphics/SVG/1.1/DTD/svg11.dtd">
<!-- Creator: CorelDRAW X7 -->
<svg xmlns="http://www.w3.org/2000/svg" xml:space="preserve" width="93.9022mm" height="64.3359mm" version="1.1" style="shape-rendering:geometricPrecision; text-rendering:geometricPrecision; image-rendering:optimizeQuality; fill-rule:evenodd; clip-rule:evenodd"
viewBox="0 0 354 243"
 xmlns:xlink="http://www.w3.org/1999/xlink">
 <defs>
  <style type="text/css">
   <![CDATA[
    .fil1 {fill:black}
    .fil0 {fill:black;fill-rule:nonzero}
   ]]>
  </style>
 </defs>
 <g id="Layer_x0020_1">
  <metadata id="CorelCorpID_0Corel-Layer"/>
  <g id="_1042386672">
   <path class="fil0" d="M345 243l-326 0c-1,0 -2,-1 -2,-2 0,-1 1,-2 2,-2l326 0c1,0 2,1 2,2 0,1 -1,2 -2,2z"/>
   <path class="fil0" d="M253 243c-1,0 -1,0 -1,0 -1,-1 -2,-2 -1,-3l2 -6c1,-1 1,-1 2,-1l41 -6c0,-1 0,-1 0,-1l29 1c0,0 0,0 1,0l19 7c0,0 1,1 1,1l1 5c0,1 -1,2 -2,3 -1,0 -2,-1 -2,-2l-1 -4 -17 -7 -28 0 -41 6 -2 6c0,0 -1,1 -1,1z"/>
   <path class="fil0" d="M325 230c-1,0 -2,-1 -2,-2l0 -53 -16 -3 -6 2 -3 54c0,2 -1,2 -2,2 -1,0 -2,-1 -2,-2l3 -55c0,-1 1,-2 2,-2l7 -3c1,0 1,0 1,0l18 4c1,0 2,1 2,2l0 54c0,1 -1,2 -2,2z"/>
   <path class="fil0" d="M352 218c0,0 0,0 0,0l-27 -3c-1,0 -2,-1 -2,-2 0,-1 1,-2 2,-2l25 3 1 -96 -88 -35 -12 0 0 124 46 3c1,0 2,1 2,2 0,1 -1,2 -2,2l-48 -3c-1,0 -1,-1 -1,-2l0 -127c0,-2 1,-2 2,-2l14 0c0,0 0,0 0,0l89 35c1,1 1,1 1,2l0 99c0,1 0,1 -1,1 0,1 0,1 -1,1z"/>
   <path class="fil0" d="M19 243c-1,0 -2,-1 -2,-2l-10 -72c0,0 -2,-12 2,-24 -2,-2 -8,-6 -9,-15l0 -1c0,-6 -1,-13 5,-20 5,-6 16,-9 32,-10 1,0 2,1 2,2 0,1 -1,2 -2,2 -15,1 -25,4 -29,9 -5,5 -4,11 -4,17l0 1c1,9 8,12 9,12 0,1 1,2 1,3 -5,11 -3,24 -3,24l10 72c0,1 -1,2 -2,2 0,0 0,0 0,0z"/>
   <path class="fil0" d="M215 243c-1,0 -1,-1 -2,-1 -5,-12 -16,-18 -16,-18 -1,0 -1,0 -1,-1 0,0 0,-1 0,-1 0,-1 5,-11 10,-23 3,-10 0,-15 -2,-19 0,0 0,-1 0,-1 -1,-1 -1,-1 -1,-2 -2,-3 -3,-5 2,-14 4,-6 5,-12 5,-20 0,-4 0,-7 1,-12 1,-7 3,-14 5,-20 3,-8 5,-15 4,-22 -2,-12 0,-16 2,-19 0,-1 0,-1 1,-2 0,-1 0,-1 -1,-2 0,-2 -1,-4 -1,-7 0,-5 -2,-9 -2,-9 0,0 0,-1 0,-1 0,-1 0,-1 1,-1 3,-2 2,-4 2,-7 -1,-1 -1,-2 -1,-3 0,-1 2,-3 5,-6 1,-1 4,-3 4,-5 0,0 -3,2 -6,4 -1,0 -1,0 -2,0 -1,-1 -1,-1 -1,-2 1,-4 2,-8 1,-10 -1,2 -4,5 -6,8 -1,1 -1,1 -2,1 -1,0 -2,-1 -2,-2 0,-3 0,-7 0,-10 -1,3 -3,6 -5,10 0,0 -1,1 -1,1 0,0 0,0 0,0 -1,0 -2,-1 -2,-2 0,0 -3,-7 -4,-10 -1,0 -1,1 -1,2 1,6 -2,15 -3,16 0,0 0,1 -1,1 0,0 -1,0 -2,0 -3,-3 -6,-5 -8,-6 1,4 6,8 8,10 0,0 0,1 0,1 0,7 5,11 5,11 0,1 1,2 0,3 0,0 -1,1 -3,3 0,1 0,3 0,4 0,1 0,1 -1,2 0,0 -2,2 -5,3 0,0 0,0 -1,1 0,2 0,6 1,8 2,5 1,24 -2,39 -4,17 -19,36 -20,37 0,0 0,0 -1,0 0,0 -1,0 -1,0l-5 -4c-1,-1 -1,-2 0,-2 0,0 2,-6 4,-23 2,-17 0,-28 -5,-37 -5,-9 -19,-11 -33,-12 -17,0 -25,5 -29,18 -4,16 -2,43 -2,43 0,1 0,1 -1,2l-4 2c-1,1 -2,1 -3,0 -2,-3 -6,-7 -7,-8 -1,-1 -1,-3 -2,-11 0,-5 0,-12 -1,-15 -3,-7 -2,-22 -2,-24 0,-2 -1,-3 -4,-5 -1,-1 -3,-3 -4,-4 -4,-5 -4,-13 -4,-15l-2 -8c0,0 0,-1 0,-1 6,-10 10,-20 9,-22 0,0 0,0 -1,0 -2,1 -5,7 -7,10 0,1 -1,2 -2,2 0,-1 -5,-2 -9,-10 -2,-4 -3,-7 -4,-11 0,-1 0,-3 -1,-4 -1,1 -1,6 0,11 0,1 -1,1 -2,2 0,0 -1,0 -2,-1 0,0 -1,-1 -1,-2 -1,-1 -2,-3 -3,-5 0,-1 0,-2 -1,-3 0,2 0,6 0,9 1,1 0,1 -1,2 -1,0 -2,-1 -2,-1 -1,-1 -1,-2 -2,-4 0,-2 -2,-5 -3,-7 0,3 0,9 1,14 0,1 0,2 -1,2 -1,0 -2,0 -2,-1 -2,-2 -5,-5 -6,-6 1,3 4,10 7,16 3,7 10,11 10,11 0,0 0,1 0,1l3 12c0,1 0,1 -1,2 0,0 -6,8 -2,15 1,3 2,5 3,7 2,2 3,4 2,6 0,1 -1,2 -1,4 -2,3 -4,6 -2,10 3,8 4,10 1,21 -3,9 -1,12 3,17 0,1 1,1 1,2 4,5 5,7 3,18 -1,8 1,9 4,11 1,1 2,2 4,4 3,3 4,9 4,16 1,5 2,11 4,14 5,7 5,12 6,21 1,3 1,5 1,6 1,2 1,3 1,6 0,1 -1,2 -2,2 -1,0 -2,-1 -2,-2 1,-3 0,-3 0,-5 -1,-1 -1,-3 -2,-7 0,-8 -1,-13 -5,-19 -3,-4 -4,-10 -4,-16 -1,-6 -2,-11 -4,-14 -1,-1 -2,-2 -3,-2 -5,-4 -7,-6 -6,-16 2,-10 1,-11 -2,-15 0,0 -1,-1 -1,-1 -4,-6 -7,-11 -4,-21 3,-10 2,-12 -1,-18 -2,-6 0,-11 2,-14 1,-1 1,-2 1,-3 1,-1 0,-1 -1,-3 -1,-2 -2,-4 -4,-7 -4,-8 1,-17 3,-19l-2 -10c-2,-2 -8,-6 -11,-12 -9,-19 -6,-21 -5,-22 2,-1 4,1 7,3 -1,-12 1,-13 2,-13 2,0 4,1 5,5 1,-4 2,-5 3,-5 0,0 1,0 1,0 2,1 3,3 5,7 0,-3 0,-5 1,-6 1,-1 2,-2 3,-2 3,0 4,4 5,9 1,3 2,6 3,9 2,4 4,6 6,7 1,-3 4,-9 8,-11 1,0 3,0 4,0 0,1 1,1 2,3 1,5 -7,20 -9,24l1 8c0,0 0,0 0,0 0,2 1,9 4,12 1,2 2,3 4,4 3,2 5,5 5,8 0,6 -1,18 1,23 1,3 2,10 2,16 0,3 0,7 1,8 1,2 4,5 6,7l2 -1c0,-5 -1,-28 3,-43 5,-19 20,-21 32,-20 15,0 30,2 36,13 6,10 7,22 6,40 -1,13 -3,19 -4,22l2 2c3,-5 14,-21 17,-34 4,-19 4,-33 3,-36 -2,-3 -2,-8 -1,-12 1,-1 2,-2 2,-2 2,-1 3,-2 4,-2 0,-2 0,-4 1,-6 1,-1 2,-2 2,-2 -2,-2 -4,-6 -4,-12 -2,-2 -8,-7 -9,-12 0,-3 1,-3 1,-4 2,-1 6,1 12,5 1,-3 2,-8 1,-11 0,-5 2,-7 4,-8 2,0 3,1 4,3 0,1 2,4 3,7 5,-10 6,-10 8,-9 1,0 2,0 2,10 5,-7 7,-6 8,-6 1,1 3,2 2,10 1,-1 3,-2 5,-1 1,0 2,0 3,1 2,3 -2,7 -6,10 -1,1 -3,3 -3,4 0,0 0,0 0,1 1,2 2,6 -2,10 1,2 2,5 2,9 0,3 0,4 1,5 0,2 1,3 0,5 0,1 -1,2 -1,3 -1,2 -3,6 -1,16 1,9 -1,16 -4,24 -2,6 -5,12 -5,19 -1,5 -1,9 -1,12 -1,9 -1,15 -5,22 -5,7 -4,9 -3,10 1,1 1,1 1,2 0,0 1,1 1,1 2,4 5,11 1,22 -3,10 -7,18 -9,22 4,2 12,8 17,18 0,1 0,2 -1,3 0,0 -1,0 -1,0z"/>
   <path class="fil0" d="M167 138c-4,0 -5,-1 -5,-2 0,-1 0,-2 1,-3 1,0 2,0 2,1 1,0 1,0 3,0 1,-1 5,-8 4,-13 0,-1 0,-1 0,-1 -3,-1 -4,0 -4,0 -1,1 -2,1 -3,1 -1,-1 -1,-2 -1,-3 1,-1 4,-3 9,-2 1,0 4,2 3,7 0,5 -4,14 -8,15 0,0 -1,0 -1,0z"/>
   <path class="fil0" d="M89 129c0,0 0,0 -1,0 -2,-1 -4,-3 -5,-7 -1,-4 -2,-12 1,-14 4,-3 9,0 10,2 1,1 1,2 0,3 -1,1 -2,1 -3,0 0,0 -2,-4 -4,-2 -1,1 -2,5 0,10 0,3 1,4 2,4 1,0 1,0 2,0 0,0 0,-1 0,-1 0,-1 1,-1 2,-1 1,0 2,1 2,2 0,0 -1,1 -2,3 -1,0 -2,1 -4,1z"/>
   <path class="fil0" d="M46 52c-6,0 -10,-1 -10,-1 -1,-1 -1,-1 -1,-2 1,-1 1,-1 2,-1 0,0 11,4 25,-2 1,0 2,0 2,1 0,1 0,1 -1,2 -6,3 -12,3 -17,3z"/>
   <path class="fil0" d="M51 66c-7,0 -13,-3 -13,-3 0,-1 -1,-2 0,-2 0,-1 1,-1 2,-1 0,0 12,7 24,-2 1,0 2,0 2,0 1,1 1,2 0,2 -5,4 -11,6 -15,6z"/>
   <path class="fil0" d="M104 103c0,0 0,-1 0,-1 -1,0 -1,-1 -1,-2 0,0 4,-5 9,-5 3,0 5,2 8,4 0,1 0,2 0,2 -1,1 -2,1 -2,0 -2,-2 -4,-3 -6,-3 -4,0 -6,4 -6,4 -1,0 -1,1 -2,1z"/>
   <path class="fil0" d="M143 104c0,0 0,0 0,0 -1,0 -2,-1 -2,-2 0,0 1,-2 3,-3 2,-1 5,-1 8,0 1,0 2,1 1,2 0,0 -1,1 -1,1 -4,-2 -6,-1 -7,-1 -1,1 -1,2 -1,2 0,1 -1,1 -1,1z"/>
   <path class="fil0" d="M104 113c0,0 -1,0 -1,0 -1,-1 -1,-1 -1,-2 1,0 2,-4 6,-4 0,0 0,0 0,0 3,0 4,2 5,4 0,1 -1,1 -2,1 0,1 -1,0 -1,-1 0,0 -1,-1 -2,-1 0,0 0,0 0,0 -2,0 -3,2 -3,2 0,1 -1,1 -1,1z"/>
   <path class="fil0" d="M152 117c0,0 -1,-1 -1,-1 0,0 0,-4 -3,-4 -2,-1 -4,2 -4,2 0,1 -1,1 -2,1 -1,-1 -1,-2 0,-2 0,0 3,-5 7,-4 4,1 5,6 5,6 0,1 -1,2 -2,2 0,0 0,0 0,0z"/>
   <path class="fil0" d="M126 135c-3,0 -6,-4 -7,-5 -3,-3 -1,-5 1,-6 0,-1 0,-1 1,-1 1,-1 1,-6 1,-8 0,-1 1,-2 2,-2 0,0 1,1 1,2 0,0 0,7 -2,10 -1,0 -1,0 -1,1 -2,1 -2,1 -1,2 2,3 4,4 6,4 1,-1 5,-3 6,-4 0,-1 0,-2 0,-2 0,-1 0,-2 1,-2 1,0 1,0 2,1 0,0 0,2 0,4 0,2 -7,5 -8,6 -1,0 -1,0 -2,0z"/>
   <path class="fil0" d="M130 167c-2,0 -5,0 -7,-1 -34,-4 -31,-33 -31,-33 0,-1 0,-1 1,-1 1,0 2,0 1,1 0,1 -2,26 29,30 31,5 37,-19 38,-20 0,-1 0,-1 1,-1 1,0 1,1 1,1 0,1 -5,24 -33,24z"/>
   <path class="fil0" d="M114 176c-1,0 -2,0 -2,0 -4,0 -15,-3 -22,-14 -8,-15 -3,-27 -2,-27 0,-1 1,-1 1,-1 1,1 2,1 1,2 0,1 -5,11 3,24 7,13 21,14 23,13 0,-1 -1,-2 -1,-3 -1,-2 -2,-5 -2,-7 0,-1 1,-1 2,-1 1,0 1,1 1,2 0,1 1,3 1,5 2,2 3,5 1,6 -1,1 -2,1 -4,1z"/>
   <path class="fil0" d="M135 181c-2,0 -3,0 -4,-1 -2,-2 0,-10 2,-15 0,-1 1,-1 1,-1 1,0 1,1 1,2 -1,5 -2,11 -2,12 3,1 17,-2 22,-9 4,-6 7,-15 9,-19 1,-3 1,-4 2,-4 0,0 1,0 1,0 1,1 1,2 0,2 0,0 0,0 0,0 0,1 0,2 0,2 -2,5 -5,14 -9,20 -5,7 -16,11 -22,11 -1,0 -1,0 -1,0z"/>
   <path class="fil0" d="M125 186c0,0 0,0 -1,0 -5,-1 -8,-10 -9,-11 0,-1 0,-2 1,-2 1,0 1,0 2,1 1,3 4,8 7,9 3,0 6,-5 6,-5 1,0 1,-1 2,0 1,0 1,1 1,2 -1,0 -4,6 -9,6z"/>
   <path class="fil0" d="M124 163c-5,0 -11,-2 -14,-5 -3,-3 -4,-8 -2,-13 1,-4 3,-8 6,-8 4,-2 11,-1 11,-1 1,0 2,1 2,2 -1,1 -2,2 -3,2 0,0 -5,-1 -9,0 -1,0 -3,2 -3,6 -1,3 -1,7 1,9 3,4 14,5 22,2 1,-1 3,-2 4,-4 1,-5 1,-10 0,-12 -1,-1 -5,-2 -8,-1 -1,0 -2,-1 -2,-2 0,-1 0,-2 1,-2 2,0 10,-1 12,4 1,3 2,9 0,14 -1,3 -3,5 -6,6 -3,2 -7,3 -12,3z"/>
   <path class="fil0" d="M120 144c-1,3 0,6 1,8 1,2 3,2 4,2 5,0 6,-7 7,-10l-12 0zm5 13c-3,0 -5,-1 -6,-3 -3,-3 -3,-8 -2,-12 0,0 1,-1 2,-1l14 0c1,0 1,0 1,1 1,0 1,0 1,1 0,0 -1,13 -9,14 -1,0 -1,0 -1,0z"/>
   <path class="fil0" d="M78 102c-1,0 -2,-1 -2,-2 0,-1 0,-2 1,-2l17 -2c1,0 2,1 2,2 0,1 -1,2 -2,2l-16 2c0,0 0,0 0,0z"/>
   <path class="fil0" d="M12 145c-1,0 -1,0 -2,-1 0,0 1,-1 2,-1 0,0 15,-4 27,-6 1,0 1,1 1,2 0,0 0,1 -1,1 -12,2 -27,5 -27,5 0,0 0,0 0,0z"/>
   <path class="fil0" d="M43 243c-1,0 -1,-1 -1,-2 0,0 -1,0 -1,-1 -5,-46 -11,-77 -14,-85 -4,-11 -15,-10 -15,-10 -1,0 -1,0 -1,0 -1,-1 -1,-1 0,-2 10,-15 0,-36 0,-36 0,-1 0,-2 1,-2 0,0 1,0 2,1 0,0 10,20 0,37 4,0 12,2 16,11 4,11 11,58 14,85 0,1 0,2 0,2 0,1 0,1 -1,2 0,0 0,0 0,0z"/>
   <path class="fil0" d="M199 53c-1,0 -2,0 -3,0 0,0 -1,-1 -1,-2 0,0 1,-1 1,-1 1,0 1,0 1,0 0,0 16,1 23,-2 1,0 2,0 2,1 0,0 0,1 -1,1 -6,3 -16,3 -22,3z"/>
   <path class="fil0" d="M209 66c-10,0 -16,-5 -17,-5 0,0 0,-1 0,-2 0,0 1,-1 2,0 0,0 12,9 29,1 0,0 1,0 2,1 0,1 0,1 -1,2 -6,2 -11,3 -15,3z"/>
   <path class="fil0" d="M6 68l2 7c2,-3 4,-4 7,-5l-2 -7 -7 5zm1 11c0,0 0,0 -1,0 0,0 0,-1 -1,-1l-1 -10c-1,-1 0,-1 0,-1l9 -8c1,0 1,0 2,0 0,0 0,1 1,1l2 10c0,1 0,2 -1,2 -4,1 -6,3 -9,6l0 1c0,0 -1,0 -1,0z"/>
   <path class="fil0" d="M77 8l0 7 13 -5 -1 -7 -12 5zm-1 10c0,0 0,0 -1,0 0,0 0,-1 0,-1l-1 -10c0,-1 1,-1 1,-1l15 -6c0,0 1,0 1,0 1,0 1,1 1,1l0 10c0,1 0,1 0,2l-15 5c-1,0 -1,0 -1,0z"/>
   <path class="fil0" d="M151 51c3,2 5,3 7,6l6 -4 -7 -5 -6 3zm7 9c-1,0 -1,0 -1,0 -3,-4 -5,-5 -9,-7l0 0c-1,-1 -1,-1 -1,-2 0,0 0,-1 1,-1l9 -5c0,0 1,0 1,1l10 6c0,1 0,1 0,2 0,0 0,0 0,1l-9 5c-1,0 -1,0 -1,0z"/>
   <path class="fil0" d="M101 35l4 6 8 -11 -5 -5 -7 10zm4 10c0,0 -1,-1 -1,-1l-6 -8c0,-1 0,-1 0,-2l9 -13c0,0 1,0 1,0 1,0 1,0 1,0l7 8c0,1 0,1 0,2l-10 13c0,0 0,1 -1,1l0 0z"/>
   <path class="fil0" d="M250 38l4 5 7 -10 -4 -6 -7 11zm4 9c-1,0 -1,0 -1,0l-6 -8c-1,-1 -1,-2 0,-2l9 -13c0,0 0,-1 1,-1 0,0 1,1 1,1l6 8c1,0 1,1 0,2l-9 13c0,0 -1,0 -1,0l0 0z"/>
   <path class="fil0" d="M243 65l1 6c2,-2 4,-3 8,-4l-2 -7 -7 5zm0 11c0,0 0,0 0,0 -1,0 -1,-1 -1,-1l-2 -10c0,-1 0,-1 1,-2l9 -7c0,0 1,0 1,0 1,0 1,0 1,1l3 10c0,1 0,2 -1,2 -4,1 -6,3 -9,6l-1 0c0,1 0,1 -1,1z"/>
   <path class="fil0" d="M154 9l7 11 6 -2 -7 -11 -6 2zm6 14c-1,0 -1,0 -1,-1l-9 -13c0,-1 0,-1 0,-1 0,-1 1,-1 1,-1l10 -3c0,0 1,0 1,1l9 13c0,1 0,1 0,1 0,1 -1,1 -1,1l-10 3c0,0 0,0 0,0z"/>
   <path class="fil0" d="M127 49l-1 6c3,-1 5,-2 7,-2l1 -6 -7 2zm-3 9c0,0 0,0 0,0 -1,0 -1,-1 -1,-1l1 -9c0,0 1,-1 1,-1l10 -3c1,0 1,0 1,0 1,0 1,1 1,1l-1 9c0,1 -1,2 -1,2 -4,0 -6,0 -9,2l-1 0c0,0 0,0 -1,0z"/>
   <path class="fil0" d="M298 200c0,0 0,0 0,0l-35 -2c-1,0 -2,-1 -2,-2l1 -114c0,-1 1,-2 2,-2 1,0 1,1 1,2l-1 113 34 2c1,0 1,1 1,2 0,0 0,1 -1,1z"/>
   <path class="fil0" d="M352 206c0,0 0,0 0,0l-27 -4c-1,-1 -2,-1 -1,-2 0,-1 0,-1 1,-1l27 4c1,0 2,1 2,2 0,0 -1,1 -2,1z"/>
   <path class="fil0" d="M250 211c-1,0 -1,-1 -1,-1 -1,0 -1,-1 0,-2l13 -13c0,0 1,0 2,0 0,1 0,2 0,2l-13 13c-1,0 -1,1 -1,1z"/>
   <path class="fil0" d="M305 230c0,0 0,0 0,0 -1,0 -2,-1 -2,-2l3 -58c0,-1 0,-1 1,-1 1,0 1,0 1,1l-2 58c0,1 0,2 -1,2z"/>
   <path class="fil1" d="M93 113c0,0 4,-5 5,-10 1,-5 6,-23 11,-23 5,-1 37,-5 45,6 7,11 8,24 9,25 1,2 3,4 3,4 0,0 2,-29 -8,-36 -10,-6 -38,-11 -51,-5 -14,6 -14,39 -14,39z"/>
   <path class="fil0" d="M96 243c0,0 0,0 0,0 -1,-1 -2,-2 -2,-3 0,0 4,-18 6,-23 1,-2 2,-3 6,-4 13,-3 55,-4 61,1 7,5 17,25 18,26 0,1 0,2 -1,3 -1,0 -2,0 -3,-1 -3,-6 -11,-22 -16,-25 -2,-2 -14,-3 -31,-3 -19,1 -29,3 -30,4 -3,6 -6,23 -6,23 0,1 -1,2 -2,2z"/>
  </g>
 </g>
</svg>
