<?xml version="1.0" encoding="UTF-8"?>
<!DOCTYPE svg PUBLIC "-//W3C//DTD SVG 1.1//EN" "http://www.w3.org/Graphics/SVG/1.1/DTD/svg11.dtd">
<!-- Creator: CorelDRAW X7 -->
<svg xmlns="http://www.w3.org/2000/svg" xml:space="preserve" width="103.978mm" height="46.6141mm" version="1.1" style="shape-rendering:geometricPrecision; text-rendering:geometricPrecision; image-rendering:optimizeQuality; fill-rule:evenodd; clip-rule:evenodd"
viewBox="0 0 579 260"
 xmlns:xlink="http://www.w3.org/1999/xlink">
 <defs>
  <style type="text/css">
   <![CDATA[
    .fil1 {fill:black}
    .fil0 {fill:black;fill-rule:nonzero}
   ]]>
  </style>
 </defs>
 <g id="Layer_x0020_1">
  <metadata id="CorelCorpID_0Corel-Layer"/>
  <g id="_1042374096">
   <path class="fil0" d="M3 260c-2,0 -3,-2 -3,-3 0,-2 1,-3 3,-3l563 -9 0 0c1,0 3,1 3,2 0,2 -2,3 -3,3l-563 10 0 0z"/>
   <path class="fil0" d="M50 259c-1,0 -3,-1 -3,-3l-12 -117c0,0 0,0 0,0 0,-39 62,-64 119,-66 46,-3 101,9 105,49 0,2 -1,3 -2,4 -2,0 -3,-1 -3,-3 -4,-37 -56,-47 -99,-45 -56,3 -114,26 -114,61l12 117c0,1 -1,3 -3,3 0,0 0,0 0,0z"/>
   <path class="fil0" d="M101 258c-1,0 -2,0 -3,-1 -2,-5 -26,-42 -29,-52 -3,-4 -23,-36 -16,-53 8,-19 61,-11 78,-7 0,-8 4,-24 26,-28 25,-4 40,-2 51,20 10,-6 44,-27 67,-11 2,-9 9,-26 35,-27 3,-3 16,-10 36,-3 14,6 27,45 30,79 2,16 4,53 -14,65 0,3 -3,8 -14,10 -15,2 -49,-2 -65,-9l-15 13c-1,2 -2,2 -4,0 -1,-1 -1,-2 1,-4l16 -15c1,-1 2,-1 3,0 13,7 49,11 64,9 9,-1 9,-5 9,-5 0,-1 0,-2 1,-3 11,-7 16,-29 13,-61 -4,-34 -16,-70 -27,-74 -19,-7 -31,2 -32,3 0,0 -1,0 -1,0 -30,1 -31,27 -31,28 0,1 -1,2 -2,2 -1,1 -2,0 -3,0 -23,-22 -67,10 -67,10 -1,0 -2,1 -2,0 -1,0 -2,-1 -2,-1 -10,-22 -20,-25 -46,-20 -24,4 -22,25 -22,25 0,1 0,2 -1,3 0,0 -1,1 -2,0 -14,-4 -69,-11 -75,3 -5,13 10,39 16,48 0,0 0,1 0,1 1,6 18,34 29,51 1,1 0,3 -1,4 0,0 -1,0 -1,0z"/>
   <path class="fil0" d="M375 197c-2,0 -3,-1 -3,-3 0,-1 1,-3 2,-3l181 -23c1,0 1,0 2,0l9 4 8 -160 -11 -6 -183 24 -7 122c0,2 -2,3 -3,3 -2,0 -3,-1 -3,-3l8 -124c0,-2 1,-3 2,-3l186 -25c1,0 1,0 2,0l13 8c1,1 1,2 1,3l-7 165c0,0 -1,1 -2,2 0,0 -1,0 -2,0l-13 -4 -180 23c0,0 0,0 0,0z"/>
   <path class="fil0" d="M402 253c-2,0 -3,-1 -3,-3l0 -13c0,-2 1,-3 3,-3l103 -4c1,0 1,0 2,1 1,0 1,1 1,2l0 15c0,2 -1,3 -3,3 -1,0 -2,-1 -2,-2l-1 -14 -97 4 0 11c0,2 -2,3 -3,3z"/>
   <path class="fil0" d="M444 238c0,0 0,0 0,0 -2,0 -3,-2 -3,-3l3 -50c0,-2 1,-3 3,-3 1,0 2,1 2,3l-2 50c0,2 -2,3 -3,3z"/>
   <path class="fil0" d="M473 237c0,0 0,0 0,0 -2,0 -3,-2 -3,-3l4 -53c0,-2 1,-3 2,-3 2,0 3,2 3,3l-3 53c0,2 -2,3 -3,3z"/>
   <path class="fil0" d="M392 44l-6 124 155 -18 6 -123 -155 17zm-8 129c-1,0 -1,0 -2,-1 0,0 0,-1 0,-1l6 -129c0,-1 1,-2 2,-2l159 -17c1,0 2,0 2,0 0,1 1,1 1,2l-7 127c0,1 -1,1 -2,2l-159 19c0,0 0,0 0,0z"/>
   <path class="fil0" d="M556 173c0,0 0,0 0,0 -2,0 -2,-1 -2,-2l7 -168c0,-1 1,-2 2,-2 2,0 2,1 2,2l-7 168c0,1 -1,2 -2,2z"/>
   <path class="fil0" d="M477 196c0,0 0,0 0,0 -1,0 -2,-1 -2,-2 0,-2 1,-3 2,-2 2,-1 49,-7 81,-11l10 -6c0,-1 2,-1 2,0 1,1 1,2 0,3l-11 7c0,0 0,0 0,0 -30,4 -80,11 -82,11z"/>
   <path class="fil0" d="M374 206c-1,0 -2,-1 -2,-2 0,-1 1,-2 2,-2l72 -7c1,0 2,1 2,2 0,1 -1,2 -2,2l-72 7c0,0 0,0 0,0z"/>
   <path class="fil0" d="M172 219c-20,0 -27,-6 -32,-16 -6,-11 -8,-52 -8,-54 0,-1 1,-2 2,-2 1,0 2,1 2,2 0,0 2,42 7,53 6,10 15,15 45,12 7,-1 12,-4 16,-9 8,-12 8,-33 0,-63 0,-1 1,-2 2,-2 1,-1 2,0 2,1 8,31 8,54 -1,66 -4,6 -10,10 -18,11 -7,0 -12,1 -17,1z"/>
   <path class="fil0" d="M132 188c-2,0 -3,-1 -4,-1 -5,-3 -6,-12 -6,-17 1,-3 2,-4 4,-4 4,-2 10,1 10,1 1,1 2,2 1,3 0,1 -2,1 -3,1 -1,-1 -5,-3 -7,-2 0,0 0,1 -1,2 0,4 1,10 4,12 1,1 3,1 6,-1 1,0 2,0 3,1 1,1 0,2 -1,3 -2,1 -4,2 -6,2z"/>
   <path class="fil0" d="M212 181c-1,0 -2,-1 -2,-2 0,-1 1,-2 2,-2 6,0 8,-4 8,-7 2,-5 0,-9 -1,-9 -2,-1 -5,2 -7,3 -1,1 -2,1 -3,0 -1,0 -1,-2 0,-2 1,-1 6,-7 12,-5 3,1 5,8 4,13 -2,7 -6,11 -13,11 0,0 0,0 0,0z"/>
   <path class="fil0" d="M165 256c-1,0 -1,0 -2,0 -1,-1 -1,-2 0,-3 1,-1 26,-33 39,-37 6,-2 13,-7 21,-12 9,-6 17,-11 22,-11 5,-1 9,-4 13,-7 3,-2 5,-4 7,-5 6,-2 6,-2 7,-1l-1 2 -1 1 1 -1 0 2c0,0 0,0 -4,1 -2,1 -4,3 -6,4 -4,3 -9,7 -16,8 -4,0 -12,5 -20,10 -8,5 -15,11 -22,13 -10,3 -30,27 -37,35 0,1 -1,1 -1,1z"/>
   <path class="fil0" d="M283 239c-1,0 -2,0 -2,-1 -21,-29 -7,-104 -6,-107 0,-1 1,-2 2,-1 1,0 2,1 2,2 0,1 -14,76 5,104 1,1 1,2 0,3 -1,0 -1,0 -1,0z"/>
   <path class="fil0" d="M350 249c0,0 0,0 0,0 -19,-2 -22,-13 -27,-36 -3,-10 -5,-22 -10,-37 -17,-51 -5,-74 -4,-75 0,-1 2,-2 3,-1 1,0 1,2 1,3 -1,0 -12,23 4,72 5,15 8,27 10,37 5,23 7,31 23,33 2,0 2,1 2,2 0,1 -1,2 -2,2z"/>
   <path class="fil0" d="M360 241c0,0 -1,0 -1,0 -22,-7 -32,-59 -39,-93 -1,-5 -2,-10 -3,-14 -7,-32 2,-38 3,-39 1,0 2,0 2,1 1,1 1,2 0,3 0,0 -7,6 -1,34 1,4 2,9 3,14 6,32 17,84 36,90 1,0 2,1 2,2 0,1 -1,2 -2,2z"/>
   <path class="fil0" d="M293 243c-1,0 -2,0 -2,-1 -1,-1 0,-2 1,-3 19,-5 24,-52 24,-52 0,-1 1,-2 2,-2 2,0 2,1 2,2 0,2 -5,50 -27,56 0,0 0,0 0,0z"/>
   <path class="fil0" d="M302 239c-1,0 -1,0 -2,0 -1,0 -2,-1 -2,-2 0,-2 1,-2 2,-2 6,0 11,-1 15,-5 7,-7 7,-21 7,-22 0,-1 1,-2 2,-2 1,0 2,1 2,2 0,1 0,16 -9,25 -4,4 -9,6 -15,6z"/>
   <path class="fil0" d="M320 248c-1,0 -1,0 -2,-1 0,-1 -3,-12 -3,-17 0,-1 1,-2 2,-2 1,0 2,1 2,3 0,3 2,12 3,15 1,1 0,2 -1,2 0,0 0,0 -1,0z"/>
   <path class="fil0" d="M126 202c-1,0 -1,0 -2,0 -2,-3 -6,-10 -9,-16 -7,-13 -6,-14 -5,-15 0,-1 2,-3 14,-2 2,1 2,2 2,3 0,1 -1,2 -2,2 -4,-1 -8,-1 -11,0 2,4 11,20 15,25 0,1 0,2 -1,3 0,0 0,0 -1,0z"/>
   <path class="fil0" d="M165 238c-4,0 -10,-1 -15,-3 -13,-5 -28,-18 -27,-29 0,-11 14,-16 15,-16 1,-1 2,0 2,1 1,1 0,2 -1,3 0,0 -12,4 -12,12 0,8 11,20 24,25 10,4 19,3 22,2 -2,-2 -4,-4 -6,-5 -7,-6 -12,-10 -13,-13 -1,-1 0,-2 1,-2 1,-1 2,0 3,1 1,2 7,7 11,10 7,5 8,7 9,8 0,1 0,2 -1,3 -2,1 -6,3 -12,3z"/>
   <path class="fil0" d="M214 214c0,0 -1,0 -1,-1 -1,0 -1,-2 0,-2 2,-4 3,-12 1,-15 0,-1 -1,-2 -3,-2 -1,0 -2,-1 -2,-2 0,-1 0,-2 2,-2 3,0 6,1 7,4 3,5 1,14 -2,19 0,1 -1,1 -2,1z"/>
   <path class="fil0" d="M187 231c0,0 -1,0 -1,0 -1,0 -3,-2 -3,-4 0,-1 0,-3 2,-4 3,-2 7,-8 8,-10 1,-1 2,-1 3,-1 1,1 1,2 1,3 0,1 -6,8 -9,11 -1,0 -1,1 -1,1 0,0 0,0 1,0 1,1 1,2 1,3 -1,1 -1,1 -2,1z"/>
   <path class="fil0" d="M217 199c0,0 0,0 -1,0 -1,0 -1,-1 -1,-3 0,0 5,-14 12,-22l-5 0c-1,-1 -2,-2 -2,-3 0,-1 1,-2 2,-2l10 1c1,0 1,1 2,1 0,1 0,2 -1,3 -8,6 -14,24 -14,24 0,1 -1,1 -2,1z"/>
   <path class="fil0" d="M101 226c0,0 0,0 -1,0 -1,-1 -23,-13 -33,-25 0,-1 0,-2 1,-3 1,-1 2,-1 3,0 9,12 31,24 31,24 1,1 2,2 1,3 0,1 -1,1 -2,1z"/>
   <path class="fil0" d="M61 150c0,0 0,0 0,0 -1,0 -2,-1 -2,-2 0,-28 -7,-38 -7,-38 -1,-1 0,-3 1,-3 0,-1 2,-1 2,0 1,1 9,12 8,41 0,1 -1,2 -2,2z"/>
   <path class="fil0" d="M66 258c-1,0 -2,-1 -2,-2l-3 -67c0,-1 1,-2 2,-2 1,0 2,1 2,2l3 67c0,1 0,2 -2,2 0,0 0,0 0,0z"/>
   <path class="fil0" d="M173 186c-2,0 -5,-1 -8,-3 -4,-3 -2,-7 -1,-9l0 -1c1,-1 0,-5 -1,-9 0,-1 0,-2 1,-2 2,-1 3,0 3,1 1,3 2,9 1,12l0 0c-2,3 -2,4 0,5 3,2 5,2 6,2 1,-1 4,-4 5,-5 0,-1 -1,-2 -1,-4 -1,-1 0,-2 1,-2 1,-1 2,0 3,1 0,1 2,4 1,5 0,3 -6,8 -7,9 -1,0 -2,0 -3,0z"/>
   <path class="fil0" d="M168 215c-2,0 -5,-1 -7,-2 -4,-3 -7,-8 -7,-14 0,-9 13,-13 14,-13 1,-1 3,0 3,2 1,1 0,3 -2,3 0,0 -9,3 -9,8 0,4 2,7 4,9 1,1 3,2 5,1 2,0 3,-1 4,-1 3,-1 6,-2 11,-1 2,0 3,0 4,-1 2,-1 2,-4 2,-8 0,-4 -2,-7 -5,-8 -1,-1 -3,-1 -4,0 -1,1 -3,1 -4,-1 -1,-1 -1,-3 1,-3 3,-2 6,-3 10,-1 4,2 7,7 8,12 0,6 -1,10 -4,13 -1,1 -4,3 -9,2 -4,-1 -5,0 -7,1 -1,0 -3,1 -5,2 -1,0 -2,0 -3,0z"/>
   <path class="fil0" d="M174 202c-5,0 -9,-5 -10,-6 0,-1 0,-2 1,-3 1,0 2,0 3,1 1,1 4,4 7,3 4,-1 7,-5 7,-5 0,-1 2,-2 3,-1 1,0 1,1 1,2 0,1 -4,7 -10,8 0,1 -1,1 -2,1z"/>
   <path class="fil0" d="M146 166c0,0 0,0 0,0 -1,0 -2,-1 -2,-3 1,0 2,-6 7,-7 3,-1 6,1 7,2 0,1 0,2 -1,3 -1,1 -2,1 -3,0 0,0 -1,-1 -3,-1 -1,0 -2,3 -3,4 0,1 -1,2 -2,2z"/>
   <path class="fil0" d="M142 148c0,0 0,0 -1,0 -1,-1 -1,-2 -1,-3 0,0 2,-4 7,-6 3,-1 7,0 10,2 1,1 2,2 1,3 0,1 -2,1 -3,1 -3,-2 -5,-3 -7,-2 -3,1 -4,4 -4,4 0,0 -1,1 -2,1z"/>
   <path class="fil0" d="M186 141c0,0 -1,0 -1,0 -1,-1 -1,-2 -1,-3 1,0 3,-4 7,-4l0 0c2,0 4,1 6,3 0,1 0,2 -1,3 0,1 -2,1 -3,0 -1,-2 -1,-2 -2,-2l0 0c-1,0 -3,2 -3,3 -1,0 -1,0 -2,0z"/>
   <path class="fil0" d="M317 126c-1,0 -2,0 -2,-2 0,-1 1,-2 2,-2l43 -5c1,0 2,1 2,2 0,1 0,2 -2,2l-43 5c0,0 0,0 0,0z"/>
   <path class="fil0" d="M320 141c-1,0 -2,-1 -2,-2 0,-1 1,-2 2,-2l46 -3c1,0 2,0 2,2 0,1 -1,2 -2,2l-46 3c0,0 0,0 0,0z"/>
   <path class="fil0" d="M324 163c-1,0 -1,-1 -2,-2 0,-1 1,-2 2,-2l46 -7c1,0 2,1 3,2 0,1 -1,2 -2,2l-46 7c0,0 0,0 -1,0z"/>
   <path class="fil0" d="M329 182c-1,0 -2,-1 -2,-2 -1,-1 0,-2 1,-2 16,-3 44,-7 46,-7 0,0 0,0 0,0 1,0 2,1 3,2 0,1 -1,2 -2,2l0 0c0,0 0,0 -1,0 0,0 -1,0 -1,0l-44 7c0,0 0,0 0,0z"/>
   <path class="fil0" d="M337 209c-1,0 -2,-1 -3,-2 0,-1 1,-2 2,-2l38 -5c1,-1 2,0 2,1 1,2 0,3 -1,3l-38 5c0,0 0,0 0,0z"/>
   <path class="fil0" d="M342 222c-1,0 -2,0 -2,-2 0,-1 1,-2 2,-2l30 -4c1,0 2,1 3,2 0,1 -1,2 -2,2l-30 4c-1,0 -1,0 -1,0z"/>
   <path class="fil0" d="M332 196c-1,0 -2,-1 -2,-2 0,-1 1,-2 2,-3l42 -5c1,0 2,1 3,2 0,1 -1,2 -2,2l-42 6c0,0 -1,0 -1,0z"/>
   <path class="fil0" d="M316 110c-1,0 -2,-1 -2,-2 0,-1 1,-2 2,-2l36 -3c1,-1 2,0 2,1 0,2 -1,3 -2,3l-35 3c0,0 0,0 -1,0z"/>
   <path class="fil0" d="M281 119c-1,0 -2,-1 -2,-2 0,-1 1,-2 2,-2l26 -2c1,0 2,1 2,2 0,1 -1,2 -2,2l-25 2c-1,0 -1,0 -1,0z"/>
   <path class="fil0" d="M277 132c-1,0 -2,0 -2,-2 0,-1 1,-2 2,-2l29 0c1,0 2,1 2,2 0,1 -1,2 -2,2l-29 0c0,0 0,0 0,0z"/>
   <path class="fil0" d="M275 145c-1,0 -2,-1 -2,-2 0,-1 1,-2 2,-2l32 0c1,0 2,1 2,2 0,1 -1,2 -2,2l-32 0c0,0 0,0 0,0z"/>
   <path class="fil0" d="M273 163c-1,0 -2,-1 -2,-2 0,-1 1,-2 2,-2l37 -3c1,0 2,1 2,2 0,2 -1,3 -2,3l-37 2c0,0 0,0 0,0z"/>
   <path class="fil0" d="M272 179c-1,0 -2,-1 -2,-2 0,-1 1,-2 2,-2l42 -4c1,0 2,1 2,2 0,1 -1,2 -2,2l-42 4c0,0 0,0 0,0z"/>
   <path class="fil0" d="M272 192c-1,0 -2,-1 -2,-2 0,-1 0,-2 2,-3l46 -3c1,0 2,1 2,2 0,1 -1,2 -2,2l-46 4c0,0 0,0 0,0z"/>
   <path class="fil0" d="M273 208c-1,0 -2,-1 -2,-2 0,-1 0,-2 1,-2l44 -6c1,0 2,1 2,2 0,1 -1,2 -2,3l-43 5c0,0 0,0 0,0z"/>
   <path class="fil0" d="M275 221c-1,0 -2,-1 -2,-2 0,-1 1,-2 2,-2l37 -4c1,0 2,1 2,2 0,1 0,2 -2,2l-37 4c0,0 0,0 0,0z"/>
   <path class="fil0" d="M522 251c-1,0 -1,0 -1,0 -1,0 -2,-2 -2,-3 0,-1 5,-27 22,-30 6,-1 11,0 15,4 8,6 12,17 13,25 0,2 -1,3 -3,3 -1,0 -3,-1 -3,-2 0,-7 -4,-17 -10,-22 -3,-2 -7,-3 -11,-3 -13,3 -18,25 -18,26 0,1 -1,2 -2,2z"/>
   <path class="fil0" d="M564 242c0,0 0,0 0,0l-40 -1c-1,0 -2,-1 -2,-2 0,-1 1,-2 2,-2l41 1c1,0 2,1 2,2 0,1 -1,2 -3,2z"/>
   <path class="fil0" d="M554 242c-1,0 -2,-1 -2,-1 -5,-15 -13,-18 -13,-18 -2,0 -2,-1 -2,-2 1,-1 2,-2 3,-2 0,0 11,4 16,20 0,1 -1,3 -2,3 0,0 0,0 0,0z"/>
   <path class="fil1" d="M135 159c0,0 3,-5 3,-13 1,-7 5,-18 28,-21 22,-3 29,3 32,10 3,6 7,18 9,20 1,3 1,4 2,3 1,0 -5,-25 -6,-27 -1,-1 -10,-16 -31,-13 -21,4 -43,6 -37,41z"/>
   <path class="fil1" d="M189 152c2,0 3,3 3,6 0,3 -1,6 -3,6 -2,0 -3,-3 -3,-6 0,-3 1,-6 3,-6z"/>
   <polygon class="fil1" points="390,42 550,25 549,42 389,59 "/>
   <polygon class="fil1" points="408,40 416,40 410,168 403,168 "/>
   <polygon class="fil1" points="393,62 393,66 404,65 404,61 "/>
   <path class="fil1" d="M393 71c0,2 0,3 0,4 3,0 7,-1 11,-1 0,-1 0,-3 0,-4 -4,1 -7,1 -11,1z"/>
   <path class="fil1" d="M393 80c0,2 -1,3 -1,4 4,0 8,-1 11,-1 0,-1 0,-3 0,-4 -3,1 -7,1 -10,1z"/>
   <path class="fil1" d="M392 89c0,2 0,3 0,4 4,0 7,-1 11,-1 0,-1 0,-3 0,-4 -4,1 -7,1 -11,1z"/>
   <path class="fil1" d="M392 98c0,2 0,3 0,4 3,0 7,-1 10,-1 0,-1 0,-3 0,-4 -3,1 -7,1 -10,1z"/>
   <path class="fil1" d="M391 107c0,2 0,3 0,4 4,0 7,-1 11,-1 0,-1 0,-3 0,-4 -4,1 -7,1 -11,1z"/>
   <path class="fil1" d="M391 116c0,2 0,3 0,4 3,0 7,-1 10,-1 0,-1 0,-3 0,-4 -3,1 -7,1 -10,1z"/>
   <path class="fil1" d="M390 125c0,2 0,3 0,4 4,0 7,-1 11,-1 0,-1 0,-3 0,-4 -4,1 -7,1 -11,1z"/>
   <path class="fil1" d="M390 134c0,2 0,3 0,4 3,0 7,-1 10,-1 0,-1 0,-3 1,-4 -4,1 -8,1 -11,1z"/>
   <path class="fil1" d="M389 143c0,2 0,3 0,4 4,0 7,-1 11,-1 0,-1 0,-3 0,-4 -3,1 -7,1 -11,1z"/>
   <path class="fil1" d="M389 152c0,2 0,3 0,4 3,0 7,-1 10,-1 1,-1 1,-3 1,-4 -4,1 -7,1 -11,1z"/>
   <polygon class="fil1" points="389,161 388,165 399,164 399,160 "/>
   <path class="fil0" d="M448 158c0,0 0,0 -1,0 0,-1 0,-2 0,-2l6 -5 -5 -5c-1,0 -1,-1 0,-2 0,-1 1,-1 2,0l7 7 -8 7c0,0 0,0 -1,0z"/>
   <path class="fil0" d="M432 159c-1,0 -1,0 -1,0 -1,-1 -1,-2 0,-2l10 -13c1,-1 1,-1 2,0 1,0 1,1 0,2l-10 13c0,0 -1,0 -1,0z"/>
   <path class="fil0" d="M425 160c-1,0 -1,0 -1,0l-8 -7 7 -7c1,-1 2,-1 2,0 1,1 1,2 0,2l-5 5 6 5c0,0 0,1 0,2 -1,0 -1,0 -1,0z"/>
   <path class="fil0" d="M451 72c-1,0 -1,0 -1,-1 -1,0 -1,-1 0,-2l6 -5 -6 -4c0,-1 0,-2 0,-2 1,-1 1,-1 2,-1l8 7 -8 7c-1,1 -1,1 -1,1z"/>
   <path class="fil0" d="M427 74c0,0 -1,0 -1,-1l-8 -7 8 -7c0,0 1,0 2,1 0,0 0,1 0,2l-6 4 6 5c1,1 1,2 0,2 0,1 0,1 -1,1z"/>
   <polygon class="fil1" points="431,64 447,62 447,68 431,70 "/>
   <polygon class="fil1" points="419,80 473,73 473,79 418,86 "/>
   <polygon class="fil1" points="478,73 495,71 495,76 477,79 "/>
   <polygon class="fil1" points="418,89 472,83 472,89 418,95 "/>
   <polygon class="fil1" points="477,82 502,79 502,85 477,88 "/>
   <polygon class="fil1" points="507,79 518,77 518,83 507,84 "/>
   <polygon class="fil1" points="418,99 442,96 442,102 418,105 "/>
   <polygon class="fil1" points="449,95 502,89 501,95 448,101 "/>
   <polygon class="fil1" points="507,88 528,86 528,92 507,94 "/>
   <polygon class="fil1" points="417,109 430,108 430,114 417,115 "/>
   <polygon class="fil1" points="433,107 461,104 461,110 433,113 "/>
   <polygon class="fil1" points="464,104 475,102 474,108 463,110 "/>
   <polygon class="fil1" points="417,119 447,115 446,121 417,125 "/>
   <polygon class="fil1" points="416,128 455,124 455,129 416,134 "/>
   <polygon class="fil1" points="416,138 503,128 502,133 416,144 "/>
  </g>
 </g>
</svg>
