<?xml version="1.0" encoding="UTF-8"?>
<!DOCTYPE svg PUBLIC "-//W3C//DTD SVG 1.1//EN" "http://www.w3.org/Graphics/SVG/1.1/DTD/svg11.dtd">
<!-- Creator: CorelDRAW X7 -->
<svg xmlns="http://www.w3.org/2000/svg" xml:space="preserve" width="105.048mm" height="57.6505mm" version="1.1" style="shape-rendering:geometricPrecision; text-rendering:geometricPrecision; image-rendering:optimizeQuality; fill-rule:evenodd; clip-rule:evenodd"
viewBox="0 0 510 280"
 xmlns:xlink="http://www.w3.org/1999/xlink">
 <defs>
  <style type="text/css">
   <![CDATA[
    .fil1 {fill:black}
    .fil0 {fill:black;fill-rule:nonzero}
   ]]>
  </style>
 </defs>
 <g id="Layer_x0020_1">
  <metadata id="CorelCorpID_0Corel-Layer"/>
  <g id="_970310320">
   <path class="fil0" d="M6 209l173 0 0 -169 -173 0 0 169zm176 5l-178 0c-1,0 -3,-1 -3,-2l0 -175c0,-1 2,-2 3,-2l178 0c1,0 2,1 2,2l0 175c0,1 -1,2 -2,2z"/>
   <path class="fil0" d="M33 183l119 0 0 -117 -119 0 0 117zm121 4l-123 0c-1,0 -1,-1 -1,-2l0 -121c0,-1 0,-1 1,-1l123 0c1,0 2,0 2,1l0 121c0,1 -1,2 -2,2z"/>
   <path class="fil0" d="M119 254l-53 0c-1,0 -2,-1 -2,-3l0 -39c0,-2 1,-3 2,-3 2,0 3,1 3,3l0 37 48 0 0 -37c0,-2 1,-3 2,-3 2,0 3,1 3,3l0 39c0,2 -1,3 -3,3z"/>
   <path class="fil0" d="M151 280l-116 0c-2,0 -3,-1 -3,-3l0 -12c0,-1 1,-2 2,-2l32 -14c1,-1 2,0 3,1 0,1 0,3 -2,3l-30 13 0 9 111 0 0 -8 -30 -15c-1,-1 -1,-2 -1,-3 1,-2 2,-2 4,-2l31 16c1,1 1,1 1,2l0 12c0,2 -1,3 -2,3z"/>
   <path class="fil0" d="M431 240c-1,0 -2,-1 -2,-3 -1,-18 -12,-57 -13,-58 0,0 0,0 0,0 0,-1 -9,-70 -44,-98 -34,-27 -61,-8 -63,-7 -1,1 -2,1 -3,0 -6,-8 -25,-30 -35,-31 -13,-1 -46,13 -58,27 -12,14 -1,41 -1,41 1,1 1,2 0,3 0,0 -11,8 -15,18 -3,8 -8,62 -10,90 0,1 -2,2 -3,2 -1,0 -2,-1 -2,-3 0,-3 7,-80 11,-91 3,-9 11,-16 14,-19 -2,-6 -10,-30 2,-44 14,-16 48,-31 62,-29 13,2 32,24 37,31 8,-4 36,-17 67,8 36,29 46,96 46,101 1,3 12,41 12,59 0,2 -1,3 -2,3l0 0z"/>
   <path class="fil0" d="M270 275c-8,0 -17,-2 -23,-6 -6,-4 -11,-10 -13,-15 -8,0 -21,-1 -24,-5 -1,-2 -1,-3 -2,-4 0,-1 0,-2 -3,-4 -2,0 -3,-1 -4,-1 -8,-3 -20,-8 -19,-19 0,-1 1,-2 2,-2 2,0 3,1 3,3 -1,7 6,10 15,13 2,1 3,1 4,2 6,2 7,4 7,7 0,0 1,1 1,2 1,2 12,3 22,3 1,0 2,1 3,2 1,5 5,10 10,14 9,5 20,7 33,4 25,-5 34,-23 34,-23 0,-1 1,-1 2,-1l6 1c0,0 0,0 0,0 13,4 34,-2 35,-2 0,0 1,0 2,0 0,1 1,2 1,2 0,2 0,4 0,5 3,-1 10,-5 20,-10 5,-3 10,-6 17,-10 22,-12 17,-52 17,-52 0,-2 1,-3 3,-3 1,0 2,1 2,2 0,2 5,43 -20,57 -6,4 -12,7 -17,10 -14,8 -19,11 -21,11 -1,0 -3,0 -4,-1 -1,-1 -2,-4 -2,-6 -7,2 -23,5 -34,2l-4 -1c-3,5 -13,19 -36,24 -4,1 -9,1 -13,1z"/>
   <path class="fil0" d="M281 172c-1,0 -1,0 -2,0 -8,-1 -15,-4 -17,-8 -1,0 -1,0 -1,-1 -3,-4 -7,-9 -5,-15 2,-6 8,-10 19,-13 1,-1 2,0 3,1 0,2 -1,3 -2,3 -9,3 -14,6 -15,10 -1,4 1,8 4,11 0,1 0,1 1,2 1,2 6,4 13,5 7,0 19,-1 30,-14 10,-12 11,-24 8,-32 -2,-5 -6,-9 -10,-10 -12,-2 -21,19 -21,19 0,1 -2,2 -3,1 -1,0 -2,-1 -1,-3 0,-1 10,-25 26,-22 6,2 11,7 14,14 4,11 0,25 -10,37 -8,9 -19,15 -31,15z"/>
   <path class="fil0" d="M442 241c0,0 0,0 0,0 -2,0 -2,-2 -2,-3 9,-32 9,-204 9,-221 -33,-21 -156,-9 -164,-6 -5,2 -10,19 -12,30 0,1 -1,2 -2,2 -2,0 -3,-1 -3,-3 1,-5 5,-30 15,-34 8,-3 137,-16 170,8 0,0 1,1 1,2 0,7 0,189 -9,223 -1,1 -2,2 -3,2z"/>
   <path class="fil0" d="M66 244l-64 0c-1,0 -2,-1 -2,-2 0,-1 1,-2 2,-2l64 0c2,0 3,1 3,2 0,1 -1,2 -3,2z"/>
   <path class="fil0" d="M119 244c-1,0 -2,-1 -2,-2 0,-2 1,-3 2,-3l86 -2c2,0 3,1 3,2 0,2 -1,3 -2,3l-87 2 0 0z"/>
   <path class="fil0" d="M507 245c0,0 0,0 0,0l-112 -7c-1,0 -2,-1 -2,-2 0,-2 1,-3 2,-3l112 7c2,0 3,1 3,2 -1,2 -2,3 -3,3z"/>
   <path class="fil0" d="M31 66c0,0 0,0 -1,0l-27 -27c-1,-1 -1,-2 0,-3 0,-1 1,-1 2,0l28 27c0,1 0,2 0,3 -1,0 -1,0 -2,0z"/>
   <path class="fil0" d="M154 66c0,0 -1,0 -1,0 -1,-1 -1,-2 0,-3l27 -27c1,-1 2,-1 3,0 1,1 1,2 0,3l-28 27c0,0 0,0 -1,0z"/>
   <path class="fil0" d="M182 214c-1,0 -1,-1 -2,-1l-27 -27c-1,-1 -1,-2 0,-2 1,-1 2,-1 2,-1l28 28c1,0 1,1 0,2 0,0 -1,1 -1,1z"/>
   <path class="fil0" d="M4 214c-1,0 -1,-1 -1,-1 -1,-1 -1,-2 0,-2l27 -28c1,0 2,0 3,1 0,0 0,1 0,2l-28 27c0,0 -1,1 -1,1z"/>
   <path class="fil0" d="M106 251c0,0 0,0 0,0 -1,0 -1,-1 -1,-2l1 -37c0,-1 1,-2 2,-2 1,0 2,1 2,2l-2 37c0,1 -1,2 -2,2z"/>
   <path class="fil0" d="M102 272c-7,0 -14,0 -23,0 -30,-1 -44,-5 -45,-5 -1,-1 -1,-2 -1,-3 0,-1 1,-1 2,-1 0,0 15,4 45,5 38,1 63,0 70,-4 1,-1 2,0 2,0 1,1 0,2 0,3 -6,3 -23,5 -50,5z"/>
   <path class="fil0" d="M239 104c-3,0 -7,-1 -10,-3 -6,-3 -9,2 -9,2 0,1 -1,1 -2,1 -1,-1 -1,-2 -1,-3 2,-2 7,-6 13,-3 7,4 11,3 15,1 1,-1 2,-1 2,0 1,1 0,2 -1,3 -2,1 -5,2 -7,2z"/>
   <path class="fil0" d="M262 95c-1,0 -2,-1 -2,-2 0,-1 1,-2 2,-2 1,0 8,0 10,-8 1,-2 1,-4 1,-5 1,-4 2,-7 4,-9 2,-1 3,-1 6,0 1,1 1,2 1,3 0,1 -1,1 -2,1 -2,-1 -3,-1 -3,-1 -1,1 -2,3 -2,6 0,2 -1,4 -2,6 -2,9 -9,11 -13,11 0,0 0,0 0,0z"/>
   <path class="fil0" d="M272 132c-3,0 -7,-1 -9,-3 -2,-1 -2,-3 -2,-5 1,-3 0,-9 -1,-11 0,-1 1,-2 2,-2 1,0 2,0 2,1 0,1 2,8 1,13 0,1 0,1 0,2 2,1 6,2 8,2 3,-1 6,-4 7,-7 1,-4 0,-5 -1,-6 -1,0 -1,-1 0,-2 1,-1 2,-1 3,0 1,1 3,3 2,9 -2,5 -6,9 -10,9 -1,0 -1,0 -2,0z"/>
   <path class="fil0" d="M275 179c-8,0 -15,-1 -18,-2 -9,-3 -39,-44 -48,-64 -1,-1 0,-2 0,-3 1,0 2,0 3,1 10,21 38,60 46,62 9,3 46,8 61,-22 16,-31 -12,-77 -13,-78 0,-1 0,-2 1,-2 1,-1 2,-1 2,0 2,2 30,49 14,82 -11,21 -32,26 -48,26z"/>
   <path class="fil0" d="M226 153c-1,0 -2,0 -2,0 -5,-1 -10,-6 -13,-14 -1,-3 -1,-7 1,-9 3,-3 8,-3 8,-3 1,0 2,1 2,2 0,1 -1,2 -2,2 -1,0 -4,0 -5,2 -1,1 -1,3 0,5 2,6 6,11 9,12 3,0 5,-1 7,-3 1,-1 2,-1 3,-1 1,1 1,2 0,3 -3,3 -6,4 -8,4z"/>
   <path class="fil0" d="M322 105c-1,0 -2,0 -2,-1 0,-1 0,-2 1,-2 4,-1 6,-3 7,-7 1,-6 -2,-14 -4,-16 -1,0 -2,0 -2,0 -2,1 -5,5 -6,7 0,1 -1,1 -2,1 -1,-1 -1,-2 -1,-3 0,0 3,-7 8,-8 1,-1 3,-1 4,0 5,3 8,12 7,20 -1,5 -5,9 -10,9 0,0 0,0 0,0z"/>
   <path class="fil0" d="M473 242c0,0 0,0 0,0 -1,0 -2,-1 -2,-2 0,-1 3,-124 3,-170 1,-44 -23,-53 -23,-53 -1,0 -2,-1 -2,-2 1,-1 2,-1 3,-1 1,0 26,9 26,56 0,46 -3,169 -3,170 0,1 -1,2 -2,2z"/>
   <path class="fil0" d="M267 149c1,2 4,4 8,5 0,0 1,0 1,0 7,0 30,-9 35,-18 3,-5 1,-10 0,-13 -1,-4 -4,-6 -5,-7 0,1 -1,3 -2,4 -2,4 -5,10 -12,16 -10,10 -21,13 -25,13zm9 9c-1,0 -1,0 -1,0 -6,-1 -11,-6 -11,-9 -1,-2 0,-3 2,-3 0,0 0,0 0,0 0,0 13,-2 24,-12 6,-6 9,-12 11,-16 1,-3 2,-5 5,-5 0,0 1,0 1,0 3,1 6,5 8,9 1,4 3,10 -1,16 -6,10 -30,20 -38,20z"/>
   <path class="fil0" d="M273 152c-5,0 -8,-2 -8,-2 -1,0 -2,-1 -1,-2 0,-1 1,-2 2,-1 0,0 9,3 18,-2 1,0 2,0 2,1 1,1 0,2 0,3 -5,2 -9,3 -13,3z"/>
   <path class="fil0" d="M302 138c-1,0 -1,0 -2,-1 0,0 0,-1 0,-2 8,-7 5,-20 5,-20 0,-1 0,-2 1,-2 1,0 2,0 2,1 1,1 4,15 -5,24 -1,0 -1,0 -1,0z"/>
   <path class="fil0" d="M309 216c-1,0 -1,0 -1,0 -4,-2 -14,-8 -20,-5 0,0 -1,0 -1,0 0,0 -15,-4 -22,1 -1,0 -1,0 -2,0l-8 -3c0,0 0,0 -1,-1 0,0 -4,-7 -10,-11 0,0 -1,-1 -1,-1 -6,-4 -13,-8 -11,-21 0,-1 1,-2 2,-2 1,0 1,1 1,2 -1,11 4,14 10,18 0,0 1,1 1,1 6,4 10,10 11,12l7 2c8,-4 20,-2 23,-1 8,-3 18,3 22,5 4,-2 8,-8 8,-8 1,-1 1,-1 2,-1 1,0 1,0 1,1l2 3c1,-1 3,-1 5,-1 2,0 10,-4 15,-7l1 -3c0,-1 1,-1 1,-1l25 -7c-5,-4 -13,-12 -17,-20 -5,-10 -2,-35 -1,-36 0,-1 1,-1 2,-1 1,0 1,1 1,2 0,0 -3,24 2,34 4,9 17,21 18,21 0,0 0,1 0,2 0,0 0,1 -1,1l-27 7 0 3c0,0 -1,1 -1,1 -2,1 -14,7 -17,8 -3,0 -7,0 -7,0 -1,0 -1,0 -2,-1l0 -1c-2,2 -6,6 -9,8 -1,0 -1,0 -1,0z"/>
   <path class="fil0" d="M232 253c0,0 -1,0 -1,-1 -1,-1 -6,-21 3,-35 4,-6 12,-11 21,-12 1,0 2,0 2,1 0,1 0,2 -1,2 -9,2 -15,5 -19,11 -8,13 -3,32 -3,32 1,1 0,2 -1,2 0,0 0,0 -1,0z"/>
   <path class="fil0" d="M268 264c0,0 0,0 0,0 -8,0 -14,-8 -17,-11 0,-1 0,-1 0,-1 -1,-1 -1,-2 -2,-3 -2,-4 -6,-11 -9,-10 -4,1 -3,8 -2,12 0,1 0,2 -1,2 -1,0 -2,0 -3,-1 0,-2 -3,-15 5,-17 6,-1 10,7 13,12 1,1 1,2 1,2 1,1 1,1 1,1 3,3 8,10 14,11 1,0 2,0 2,1 0,1 -1,2 -2,2z"/>
   <path class="fil0" d="M302 243c0,0 0,0 0,0 -1,-1 -2,-1 -2,-2 1,-6 -2,-9 -11,-18 -4,-4 -6,-7 -6,-10 0,-3 2,-5 3,-6 1,0 2,0 3,1 0,1 0,2 -1,3 0,0 -1,0 -1,2 0,1 0,4 4,7 10,9 14,14 13,21 -1,1 -1,2 -2,2z"/>
   <path class="fil0" d="M274 257c-1,0 -1,0 -2,-1l-6 -11c0,0 -4,-7 -10,-6 -1,0 -2,1 -3,2 -1,2 -1,6 -1,7 1,1 0,2 -1,2 -1,0 -2,0 -2,-1 0,-1 -1,-6 1,-10 1,-2 3,-3 5,-4 9,-1 14,8 14,8l7 11c0,1 0,2 -1,3 0,0 -1,0 -1,0z"/>
   <path class="fil0" d="M286 251c-1,0 -2,-1 -2,-1 -2,-6 -7,-15 -12,-14 -1,0 -2,0 -3,1 -2,2 -1,4 -1,4 0,1 -1,2 -2,2 -1,0 -2,0 -2,-1 0,-1 0,-4 2,-7 1,-2 3,-3 6,-3 8,-1 15,15 15,16 1,1 0,2 -1,3 0,0 0,0 0,0z"/>
   <path class="fil0" d="M245 241c-1,0 -1,0 -1,0 -1,0 -1,-1 -1,-2 0,-1 3,-17 18,-20 1,-1 2,0 2,1 0,1 0,2 -1,2 -13,3 -16,17 -16,17 0,1 -1,2 -1,2z"/>
   <path class="fil0" d="M252 228c-1,0 -2,-1 -2,-2 -1,-5 2,-16 13,-18 1,0 2,0 2,1 0,1 0,2 -1,3 -11,2 -11,13 -11,14 0,1 0,2 -1,2 0,0 0,0 0,0z"/>
   <path class="fil0" d="M296 240c0,0 0,0 0,0 -3,0 -6,-2 -8,-5 -4,-5 -16,-9 -20,-10 -1,0 -2,-1 -2,-2 0,-1 1,-1 2,-1 1,0 18,3 23,10 2,3 3,4 5,4 1,1 3,0 4,-2 1,0 2,0 3,0 1,1 1,2 0,3 -2,2 -4,3 -7,3z"/>
   <path class="fil0" d="M287 246c-3,0 -5,-1 -5,-1 -1,-1 -1,-2 -1,-3 1,-1 2,-1 3,0 0,0 2,1 5,0 2,-1 3,-2 4,-4l3 1c-1,3 -4,5 -5,6 -2,1 -3,1 -4,1z"/>
   <path class="fil0" d="M314 236c0,0 0,0 -1,0 -1,0 -1,-1 -1,-2 0,0 1,-10 -5,-19 0,0 0,-2 1,-2 0,-1 2,-1 2,0 7,10 6,21 6,22 -1,1 -1,1 -2,1z"/>
   <path class="fil0" d="M318 249c0,0 -1,0 -1,0 -1,0 -1,-2 -1,-2 12,-25 -2,-35 -3,-35 -1,-1 -1,-2 0,-3 0,-1 1,-1 2,0 0,0 17,12 5,39 -1,1 -1,1 -2,1z"/>
   <path class="fil0" d="M359 248c-1,0 -1,-1 -2,-1 -3,-39 -14,-45 -14,-45 -1,-1 -1,-2 -1,-3 1,0 2,-1 3,0 0,0 13,6 16,47 0,1 -1,2 -2,2 0,0 0,0 0,0z"/>
   <path class="fil0" d="M320 218c-1,0 -2,0 -2,-1 0,-1 0,-2 1,-2 0,0 22,-5 29,-11 1,0 2,0 2,1 1,0 1,1 0,2 -8,7 -29,11 -30,11 0,0 0,0 0,0z"/>
   <path class="fil0" d="M323 230c-1,0 -2,-1 -2,-2 0,-1 0,-2 1,-2 1,0 20,-2 32,-11 0,0 1,0 2,1 1,1 0,2 0,2 -13,9 -32,12 -33,12 0,0 0,0 0,0z"/>
   <path class="fil0" d="M330 240c-5,0 -9,-1 -9,-1 -1,0 -1,-1 -1,-2 0,-1 1,-2 2,-2 0,0 16,4 34,-6 1,0 2,0 3,1 0,1 0,2 -1,3 -11,6 -21,7 -28,7z"/>
   <path class="fil0" d="M248 232c0,0 0,0 0,0 -11,-4 -16,-1 -16,-1 -1,1 -2,1 -2,0 -1,-1 -1,-2 0,-3 1,0 7,-4 19,0 1,0 1,1 1,2 0,1 -1,2 -2,2z"/>
   <path class="fil0" d="M253 221c-1,0 -1,0 -1,0 -8,-3 -16,-1 -16,-1 -1,0 -2,-1 -2,-2 0,-1 1,-2 2,-2 0,0 8,-2 17,2 1,0 2,1 1,2 0,1 -1,1 -1,1z"/>
   <path class="fil0" d="M297 198c-14,0 -46,-8 -55,-18 -10,-13 -10,-29 -10,-29 0,-1 1,-2 2,-2 1,0 2,1 2,2 0,0 -1,15 9,26 9,12 53,19 57,16 1,0 1,-2 1,-4 0,-3 -3,-7 -5,-8 -2,-1 -5,-1 -8,-1 -3,-1 -6,-1 -8,-1 -1,-1 -2,-2 -2,-3 1,-1 2,-1 3,-1 1,1 4,1 7,1 3,0 7,0 10,2 3,1 6,6 7,11 0,3 -1,6 -3,7 -1,1 -4,2 -7,2z"/>
   <path class="fil0" d="M307 197c-1,0 -2,0 -2,-1 -3,-4 1,-21 4,-25 3,-5 8,-16 8,-16 1,-1 2,-1 3,-1 1,1 1,2 1,2 -1,1 -6,12 -9,17 -3,4 -5,17 -5,20 5,-4 26,-39 28,-58 3,-19 -12,-28 -13,-28 0,0 -1,-1 0,-2 0,-1 1,-1 2,-1 0,0 18,10 15,31 -3,20 -25,60 -31,62 0,0 -1,0 -1,0z"/>
   <path class="fil0" d="M235 117c-3,0 -7,-2 -7,-2 -1,0 -1,-1 -1,-2 1,-1 2,-2 3,-1 1,1 6,2 9,0 3,-2 4,-3 4,-3 1,-1 2,-1 3,-1 0,1 1,2 0,3 0,0 -1,1 -5,4 -2,2 -4,2 -6,2z"/>
   <path class="fil0" d="M273 99c0,0 -1,0 -1,-1 -1,-1 0,-2 1,-2 0,0 6,-2 7,-7 1,-3 2,-5 4,-5 1,-1 2,-1 2,-1 1,1 1,2 1,3 0,0 -1,1 -2,1 0,0 -1,1 -1,3 -2,7 -10,9 -10,9 0,0 0,0 -1,0z"/>
   <path class="fil1" d="M219 128c0,0 -2,-23 -4,-29 -3,-6 -3,-22 15,-31 18,-10 36,-22 51,-11 15,12 25,21 29,21 3,0 -5,-9 -5,-9 0,0 -22,-30 -43,-28 -22,3 -58,24 -57,41 1,17 5,28 5,28l9 18z"/>
   <path class="fil1" d="M284 85c2,-1 5,0 7,3 2,2 2,6 0,7 -2,1 -5,0 -7,-2 -2,-3 -2,-6 0,-8z"/>
   <path class="fil1" d="M243 109c2,-2 5,-1 7,2 2,2 2,5 0,7 -2,2 -5,1 -7,-2 -2,-2 -2,-5 0,-7z"/>
  </g>
 </g>
</svg>
