<?xml version="1.0" encoding="UTF-8"?>
<!DOCTYPE svg PUBLIC "-//W3C//DTD SVG 1.1//EN" "http://www.w3.org/Graphics/SVG/1.1/DTD/svg11.dtd">
<!-- Creator: CorelDRAW X7 -->
<svg xmlns="http://www.w3.org/2000/svg" xml:space="preserve" width="109.546mm" height="73.5018mm" version="1.1" style="shape-rendering:geometricPrecision; text-rendering:geometricPrecision; image-rendering:optimizeQuality; fill-rule:evenodd; clip-rule:evenodd"
viewBox="0 0 772 518"
 xmlns:xlink="http://www.w3.org/1999/xlink">
 <defs>
  <style type="text/css">
   <![CDATA[
    .fil1 {fill:black}
    .fil0 {fill:black;fill-rule:nonzero}
   ]]>
  </style>
 </defs>
 <g id="Layer_x0020_1">
  <metadata id="CorelCorpID_0Corel-Layer"/>
  <g id="_970309456">
   <path class="fil0" d="M513 446c-15,0 -25,-2 -27,-5 0,0 -1,-1 -1,-2l-2 -19c0,0 0,-1 0,-1 4,-10 31,-23 40,-27l-3 -39c0,-2 2,-3 4,-4 2,0 3,2 3,4l4 41c0,2 -1,3 -3,4 -14,6 -34,17 -38,23l2 16c3,1 17,4 65,-1 51,-6 65,-14 68,-16l0 -13c-4,-3 -17,-14 -37,-15 -2,0 -3,-1 -3,-3l-2 -44c0,-1 1,-3 3,-3 2,0 4,1 4,3l2 41c23,2 39,17 39,17 1,1 1,2 1,3l0 16c0,0 0,1 0,2 -2,2 -12,12 -74,19 -18,2 -34,3 -45,3z"/>
   <path class="fil0" d="M536 430c-32,0 -50,-6 -51,-7 -2,0 -3,-2 -2,-4 1,-2 3,-3 5,-2 0,0 19,7 52,6 34,-1 87,-18 88,-19 1,0 3,1 4,3 1,1 0,3 -2,4 -2,1 -55,18 -89,19 -2,0 -4,0 -5,0z"/>
   <path class="fil0" d="M413 135l13 228 241 -36 -7 -220 -247 28zm10 236c-1,0 -2,-1 -3,-1 0,-1 -1,-2 -1,-3l-13 -235c0,-1 2,-3 3,-3l254 -29c1,0 2,0 3,1 0,0 1,1 1,2l7 226c0,2 -1,4 -3,4l-248 38c0,0 0,0 0,0z"/>
   <path class="fil0" d="M447 162l9 167 177 -27 -5 -161 -181 21zm7 173c-1,0 -2,0 -2,-1 -1,0 -1,-1 -1,-2l-9 -172c0,-2 1,-3 2,-3l186 -21c1,0 2,0 2,0 1,1 1,2 1,2l5 166c0,2 -1,3 -2,3l-182 28c0,0 0,0 0,0z"/>
   <path class="fil0" d="M444 162c0,0 -1,0 -1,0l-35 -28c-1,-1 -1,-2 0,-3 1,-2 2,-2 3,-1l35 28c1,0 1,2 0,3 0,1 -1,1 -2,1z"/>
   <path class="fil0" d="M630 141c0,0 -1,0 -1,-1 -1,-1 -2,-2 -1,-3l33 -35c1,-2 3,-2 4,-1 1,1 1,3 0,4l-33 35c0,1 -1,1 -2,1z"/>
   <path class="fil0" d="M670 332c0,0 -1,0 -1,0l-35 -25c-1,-1 -1,-3 -1,-4 1,-1 3,-1 4,-1l35 25c1,1 1,3 0,4 0,1 -1,1 -2,1z"/>
   <path class="fil0" d="M423 370c-2,0 -3,-1 -3,-3 0,-1 0,-3 32,-37 1,-1 2,-1 3,0 2,1 2,3 1,4 -14,14 -29,31 -31,34 0,1 -1,2 -2,2 0,0 0,0 0,0z"/>
   <path class="fil0" d="M465 176l7 135 143 -22 -4 -130 -146 17zm5 141c-1,0 -1,0 -2,-1 -1,0 -1,-1 -1,-2l-8 -140c0,-2 1,-3 3,-3l151 -17c1,0 2,0 2,0 1,1 1,2 1,2l4 136c0,1 -1,2 -2,2l-148 23c0,0 0,0 0,0z"/>
   <path class="fil0" d="M613 324l0 4 26 -4 0 -3 -26 3zm-3 10c0,0 -1,-1 -2,-1 0,-1 0,-1 0,-2l0 -9c0,-1 1,-2 2,-3l31 -4c1,0 2,0 2,1 1,0 1,1 1,2l0 9c0,1 -1,2 -3,2l-30 5c0,0 -1,0 -1,0z"/>
   <path class="fil0" d="M80 502c-1,0 -3,0 -3,-2 -2,-5 -18,-53 -17,-67 0,-2 1,-3 1,-5 1,-11 1,-18 -6,-36 -9,-21 -15,-57 -14,-75 1,-10 -2,-18 -6,-27 -2,-6 -5,-12 -7,-19 -4,-18 -5,-69 -5,-89l0 -4c0,-5 -1,-9 -2,-14 -2,-7 -4,-15 -1,-21 1,-4 0,-8 -2,-13 -2,-6 -4,-13 -3,-20 1,-10 5,-16 7,-18 -1,-4 -2,-12 -1,-17 1,-5 3,-7 4,-9 -2,-5 -8,-15 -9,-25 -2,-12 11,-23 14,-25 2,-3 11,-16 27,-16 14,0 27,1 32,22 2,3 8,10 5,23 -4,11 -10,20 -13,23 0,3 1,7 1,12 -1,3 0,5 1,8 1,3 2,7 1,11 2,4 9,22 4,52 3,4 11,16 10,29 -1,17 2,29 5,33 6,6 12,24 11,40 0,5 1,8 2,10l3 -4c-1,-9 -5,-54 -2,-68 4,-15 18,-24 43,-29 16,-3 45,-5 56,12 6,9 17,28 17,49 1,12 1,22 1,27l4 0c3,-5 10,-21 10,-38 0,-9 -1,-15 -1,-19 -1,-6 -1,-10 1,-13 -3,-7 -9,-24 -6,-32 1,-3 0,-5 -1,-8 -1,-4 -2,-9 1,-18 3,-9 6,-14 7,-16 -1,-4 -3,-14 0,-22 -3,-4 -12,-17 -12,-33 0,-15 6,-20 10,-22 0,-5 2,-12 10,-15 7,-3 12,0 15,3 4,-2 10,-5 15,-2 4,2 6,6 7,8 3,0 9,2 11,6 2,3 3,5 2,7 3,3 8,9 8,18 1,9 -5,20 -8,24 2,4 5,12 5,19 1,6 0,10 -1,12 3,6 12,25 11,37l-1 3c-1,11 -2,17 0,24 3,9 9,51 5,67 -2,6 -1,16 1,27 1,14 3,29 0,42 -4,13 -2,34 -1,51 1,10 1,20 1,26 -1,7 1,15 3,24 3,9 6,20 7,34 0,2 -1,4 -3,4 -2,1 -4,-1 -4,-3 -1,-14 -4,-24 -6,-33 -3,-10 -5,-18 -4,-27 0,-5 0,-14 -1,-25 -1,-17 -3,-38 1,-53 3,-11 1,-26 0,-39 -2,-12 -3,-22 -1,-30 3,-14 -2,-55 -4,-63 -3,-9 -2,-15 -1,-27l1 -3c1,-10 -8,-28 -12,-34 0,-1 0,-3 1,-4l0 0c0,0 2,-3 1,-10 0,-8 -5,-17 -5,-17 -1,-2 -1,-3 0,-4 2,-4 9,-14 8,-22 0,-9 -7,-14 -7,-14 -1,0 -1,-1 -1,-2 0,-1 0,-2 0,-3 0,0 0,-1 -1,-2 -1,-2 -5,-3 -8,-4 -1,0 -2,-1 -3,-2 0,0 -1,-4 -5,-6 -1,-1 -6,1 -9,3 -1,1 -2,1 -3,1 -1,0 -2,-1 -3,-2 0,-1 -3,-5 -9,-3 -7,3 -5,10 -5,11 0,1 0,2 -1,3 0,0 -1,1 -2,1 0,0 -7,1 -7,16 0,17 12,30 12,30 1,2 1,3 0,4 -4,8 0,20 0,20 1,1 1,2 0,3 0,0 -3,5 -8,17 -2,6 -1,10 0,13 1,4 2,8 1,12 -2,5 3,20 7,30 0,1 0,3 -2,4 -1,1 -1,2 0,8 0,5 1,11 1,20 0,23 -11,42 -12,43 0,1 -2,2 -3,2l-10 0c-1,0 -2,0 -2,-1 -1,-1 -1,-2 -1,-2 0,-1 0,-13 -1,-31 0,-19 -10,-36 -16,-45 -6,-10 -25,-13 -49,-9 -22,4 -34,12 -37,24 -3,12 0,52 2,67 0,1 0,2 -1,3l-7 8c0,1 -2,1 -3,1 -2,0 -8,-3 -8,-20 1,-14 -5,-30 -9,-34 -6,-7 -8,-24 -7,-38 1,-14 -9,-26 -9,-26 -1,0 -1,-1 -1,-2 6,-34 -4,-51 -4,-51 0,-1 -1,-2 0,-3 1,-3 0,-5 -1,-8 -1,-3 -2,-7 -1,-11 0,-6 -1,-10 -1,-10 -1,-2 -1,-3 0,-4 0,0 9,-10 13,-22 3,-11 -4,-16 -4,-16 0,-1 -1,-1 -1,-2 -3,-17 -10,-18 -25,-18 -14,0 -22,13 -22,13 0,0 0,1 -1,1 -3,3 -12,11 -11,19 1,11 10,24 10,24 0,1 1,2 0,3 0,1 0,2 -1,2 0,0 -3,2 -4,7 -1,5 0,13 1,16 0,1 0,2 -1,3 0,0 -5,5 -6,16 -1,6 1,11 3,16 2,6 4,13 1,19 -2,4 0,10 1,16 2,5 3,10 3,16l0 4c0,18 1,70 5,87 2,7 4,12 6,18 4,10 8,19 7,30 0,17 5,53 14,73 8,19 7,28 6,38 0,2 -1,4 -1,6 0,10 12,50 17,64 0,2 -1,4 -3,4 0,0 0,0 -1,0z"/>
   <path class="fil0" d="M108 236c0,0 0,-1 -1,-1 -2,0 -3,-2 -2,-4 0,-2 1,-4 3,-5 5,-3 12,-1 13,-1 2,1 3,3 2,5 0,2 -2,3 -4,2 -2,0 -6,-1 -7,0 0,0 0,0 0,1 -1,1 -2,3 -4,3z"/>
   <path class="fil0" d="M117 257c-3,0 -5,-1 -7,-3 -3,-3 -3,-7 -3,-8 0,-1 2,-3 4,-3 2,0 3,2 3,4 0,0 0,1 1,2 0,0 1,1 5,0 2,0 4,1 4,3 1,2 0,4 -2,4 -2,0 -3,1 -5,1z"/>
   <path class="fil0" d="M232 250c-2,0 -4,-1 -4,-2 0,-2 1,-4 3,-5 5,-1 7,-6 8,-9 2,-5 1,-11 0,-12 -3,0 -6,4 -6,4 -2,1 -4,1 -5,0 -2,-1 -2,-3 -1,-5 0,0 6,-6 13,-6 0,0 0,0 0,0 2,0 6,1 7,9 1,9 -3,24 -15,26 0,0 0,0 0,0z"/>
   <path class="fil0" d="M43 509c-2,0 -4,-2 -4,-3 -1,-8 -3,-20 -5,-34 -14,-76 -38,-217 -9,-251 1,-1 3,-1 5,0 1,1 2,4 0,5 -27,31 -2,175 11,245 2,14 4,26 5,34 0,2 -1,3 -3,4 0,0 0,0 0,0z"/>
   <path class="fil0" d="M94 187c-1,0 -2,0 -2,-1 -2,-2 -2,-4 0,-5 1,-1 66,-60 156,-19 2,1 3,3 2,5 -1,2 -3,2 -4,2 -87,-40 -149,16 -149,17 -1,1 -2,1 -3,1z"/>
   <path class="fil0" d="M4 518c-2,0 -4,-1 -4,-3 0,-2 1,-3 3,-4l487 -99c1,-1 3,0 4,2 0,2 -1,4 -3,5l-487 99c0,0 0,0 0,0z"/>
   <path class="fil0" d="M769 415c-1,0 -1,0 -2,-1l-65 -35 -95 17c-2,0 -4,-1 -4,-3 0,-2 1,-4 3,-4l96 -17c0,0 1,0 2,0l66 36c2,1 3,3 2,5 -1,1 -2,2 -3,2z"/>
   <path class="fil0" d="M185 343c-7,0 -14,-1 -21,-6 -3,-2 -8,-4 -14,-7 -8,-3 -17,-7 -22,-12 -8,-8 -14,-45 -15,-49 0,-1 1,-3 2,-3 2,0 3,1 3,2 2,11 8,40 14,46 4,5 13,8 20,11 6,3 12,5 15,8 9,5 17,5 25,4 7,-1 49,-45 53,-54 4,-8 -4,-24 -7,-28 -1,-1 -1,-3 1,-4 1,-1 2,-1 3,1 4,4 13,22 8,33 -4,9 -46,56 -57,58 -3,0 -5,0 -8,0z"/>
   <path class="fil0" d="M182 312c-2,0 -4,0 -7,-1 -42,-6 -55,-49 -55,-50 -1,-1 0,-3 2,-3 1,0 3,0 3,2 0,0 12,40 51,46 39,6 52,-52 52,-53 0,-1 1,-2 3,-2 1,0 2,2 2,3 0,1 -13,58 -51,58z"/>
   <path class="fil0" d="M188 330c0,0 0,0 0,0 -1,0 -4,-1 -26,-23 -1,-1 -1,-2 0,-3 1,-1 2,-1 4,0 8,8 18,18 22,20 2,-3 7,-13 11,-22 1,-1 2,-2 3,-1 2,0 2,2 2,3 -10,24 -14,26 -16,26z"/>
   <path class="fil0" d="M213 475c-1,0 -1,0 -1,-1 -1,0 -2,-1 -2,-3 0,0 7,-38 3,-52 -2,-5 -5,-10 -7,-15 -4,-6 -8,-13 -8,-21 -1,-14 -8,-42 -8,-42 0,-2 1,-3 2,-4 1,0 3,1 3,2 0,1 7,29 8,43 1,8 4,14 7,20 3,5 6,10 8,16 4,14 -3,53 -3,54 0,2 -1,3 -2,3z"/>
   <path class="fil0" d="M155 218c-1,0 -2,0 -3,-2 0,-3 -2,-5 -5,-6 -3,-1 -7,0 -11,3 -1,0 -3,0 -4,-1 -1,-1 -1,-3 1,-4 5,-4 11,-5 16,-3 4,1 7,5 9,10 0,2 -1,3 -2,3 -1,0 -1,0 -1,0z"/>
   <path class="fil0" d="M188 206c0,0 0,-1 -1,-1 -1,0 -2,-2 -1,-3 0,-1 5,-11 17,-11 1,0 2,1 2,3 0,1 -1,2 -2,2l-1 0c-8,0 -11,8 -11,8 -1,1 -2,2 -3,2z"/>
   <path class="fil0" d="M138 234c-1,0 -2,-1 -2,-2 0,-2 0,-11 6,-12 6,-1 9,4 10,7 0,2 -1,3 -2,3 -2,1 -3,0 -3,-1 -1,-1 -2,-5 -4,-4 -1,0 -2,4 -2,7 0,1 -1,2 -3,2 0,0 0,0 0,0z"/>
   <path class="fil0" d="M195 225c0,0 0,0 0,0 -2,-1 -3,-2 -3,-3 0,-2 2,-11 8,-13 2,0 4,0 5,1 4,2 5,8 5,8 1,2 0,3 -2,3 -1,1 -3,0 -3,-2 0,-1 -1,-4 -2,-5 -1,0 -1,0 -1,0 -3,1 -4,6 -4,8 -1,2 -2,3 -3,3z"/>
   <path class="fil0" d="M175 257c-4,0 -7,-2 -10,-3 -1,-1 -3,-3 -4,-5 -1,-3 1,-6 2,-9 3,-4 2,-10 2,-10 0,-2 1,-3 2,-3 2,0 3,1 3,2 0,0 1,8 -2,14 -2,3 -2,4 -2,4 0,1 1,2 2,2 4,3 7,3 7,2 2,-1 8,-6 9,-7 -1,-2 -1,-3 -2,-4 0,-1 0,-3 2,-3 1,-1 2,0 3,1 0,0 1,3 2,5 1,4 -11,13 -11,13 -1,1 -2,1 -3,1z"/>
   <path class="fil0" d="M169 272c2,8 5,18 10,18 0,0 0,0 1,-1 5,-1 6,-13 6,-20l-17 3zm10 23c-11,0 -15,-21 -16,-25 0,-1 0,-1 1,-2 0,0 1,-1 1,-1l23 -4c1,0 1,0 2,1 1,0 1,1 1,2 0,2 2,25 -10,29 -1,0 -2,0 -2,0z"/>
   <path class="fil0" d="M53 79c-17,0 -25,-11 -25,-11 -1,-1 -1,-3 0,-4 2,-1 3,0 4,1 1,1 15,19 44,1 1,0 3,0 4,1 0,2 0,3 -1,4 -11,6 -19,8 -26,8z"/>
   <path class="fil0" d="M56 106c-22,0 -32,-11 -33,-12 -1,-1 -1,-2 1,-3 1,-1 2,-1 3,0 1,1 17,18 52,5 2,0 3,1 4,2 0,1 -1,3 -2,3 -10,4 -18,5 -25,5z"/>
   <path class="fil0" d="M68 43c-5,0 -9,-1 -11,-3 -2,-2 -3,-5 -1,-8 4,-9 25,-10 29,-11 2,0 3,1 3,3 0,1 -1,3 -2,3 -10,0 -24,3 -26,7 0,1 0,2 0,2 2,2 11,2 15,0 2,0 3,0 4,1 0,2 0,3 -1,4 -3,1 -7,2 -10,2z"/>
   <path class="fil0" d="M44 54c-4,0 -7,-1 -9,-3 -2,-3 0,-6 1,-7 1,-2 2,-4 0,-6 -5,-6 -14,-5 -14,-5 -2,0 -3,-1 -3,-2 0,-1 0,-3 2,-3 0,0 13,-2 19,6 4,6 2,10 0,13 0,0 0,0 0,1 1,1 6,2 11,-1 2,-2 3,-5 3,-6 0,-4 -1,-7 -3,-9 -4,-3 -16,-8 -20,-10 -1,0 -2,-2 -2,-3 1,-2 3,-2 4,-2 1,1 16,7 21,11 4,3 6,8 5,13 0,5 -2,8 -5,11 -4,2 -7,2 -10,2z"/>
   <path class="fil0" d="M64 31c-2,0 -3,0 -3,-2 -5,-14 -17,-15 -22,-16 -1,0 -2,0 -3,-1 -1,-1 0,-3 1,-4 0,-1 2,-1 2,0 1,0 1,0 1,0 13,2 22,8 26,20 1,1 0,3 -2,3 0,0 0,0 0,0z"/>
   <path class="fil0" d="M74 28c-1,0 -2,-1 -2,-2 -5,-16 -16,-20 -16,-20 -2,0 -2,-2 -2,-3 1,-2 2,-2 4,-2 0,0 13,5 19,24 0,1 0,3 -2,3 0,0 0,0 -1,0z"/>
   <path class="fil0" d="M40 104c-1,0 -2,-1 -3,-2 -4,-17 -4,-30 -4,-30 0,-2 1,-3 3,-3l0 0c1,0 3,1 3,3 0,0 -1,13 3,28 1,2 0,3 -1,4 -1,0 -1,0 -1,0z"/>
   <path class="fil0" d="M56 106c-1,0 -2,0 -3,-1 -7,-12 -8,-28 -8,-29 0,-1 1,-2 2,-3 2,0 3,2 3,3 0,0 1,15 8,26 1,1 0,3 -1,4 0,0 -1,0 -1,0z"/>
   <path class="fil0" d="M66 105c-1,0 -2,0 -2,-1 -6,-15 -6,-28 -6,-28 0,-2 1,-3 2,-3 2,0 3,1 3,2 0,1 1,13 6,27 0,1 -1,3 -2,3 0,0 -1,0 -1,0z"/>
   <path class="fil0" d="M271 90c-11,0 -19,-4 -19,-4 -2,-1 -2,-2 -1,-3 0,-2 2,-2 3,-2 1,1 22,11 47,-5 1,-1 3,-1 4,0 1,2 0,3 -1,4 -12,8 -24,10 -33,10z"/>
   <path class="fil0" d="M279 120c-18,0 -28,-12 -28,-12 -1,-1 -1,-3 0,-4 1,-1 3,0 4,1 1,1 17,20 50,2 1,-1 3,0 4,1 1,1 0,3 -1,4 -11,6 -21,8 -29,8z"/>
   <path class="fil0" d="M267 118c-1,0 -2,-1 -2,-2 -1,-2 -8,-21 -5,-30 0,-1 2,-2 3,-2 1,0 2,2 2,3 -2,7 3,22 5,27 0,2 -1,3 -2,4 0,0 0,0 -1,0z"/>
   <path class="fil0" d="M279 120c-1,0 -2,-1 -3,-2 0,-1 -7,-22 -7,-30 0,-2 1,-3 3,-3 1,0 2,1 2,2 0,8 7,29 7,29 1,2 0,3 -1,4 0,0 -1,0 -1,0z"/>
   <path class="fil0" d="M296 117c-1,0 -2,-1 -2,-2 -1,-1 -9,-21 -9,-30 -1,-1 0,-2 2,-3 1,0 3,1 3,3 1,8 9,28 9,28 0,1 0,3 -2,3 0,1 0,1 -1,1z"/>
   <path class="fil0" d="M268 64l0 0c-1,0 -2,-1 -2,-2 0,-3 -1,-7 -2,-9 -2,-1 -2,-3 -2,-3 1,-3 3,-3 5,-4 1,0 3,-1 3,-2 0,0 0,-2 -3,-4 -2,-2 -8,-7 -18,-6 -1,1 -2,0 -3,-2 0,-1 1,-3 3,-3 12,-1 19,5 22,7 3,3 5,7 4,9 0,4 -4,5 -6,6 0,0 0,0 0,0 2,4 2,10 2,11 0,1 -1,2 -3,2z"/>
   <path class="fil0" d="M297 66c-2,0 -4,0 -6,-2 -4,-3 -8,-10 -6,-17 3,-10 13,-17 19,-17 2,0 3,1 3,2 0,2 -1,3 -3,3 -3,0 -12,5 -14,14 -1,4 1,8 3,9 1,2 3,3 3,3 0,0 0,0 0,-1 0,-1 0,-3 0,-7 1,-8 11,-12 12,-12 1,0 3,1 3,2 1,1 0,3 -2,3 -2,1 -7,4 -8,8 0,2 0,4 1,5 0,2 0,5 -3,7 -1,0 -2,0 -2,0z"/>
   <path class="fil0" d="M287 52c0,0 0,0 0,0 -1,-1 -12,-4 -12,-13 0,-9 14,-15 16,-16 1,0 2,0 3,2 0,1 0,3 -2,3 -3,1 -12,6 -12,11 0,5 8,7 8,7 1,1 2,2 2,4 0,1 -1,2 -3,2z"/>
   <path class="fil0" d="M264 37c0,0 0,0 0,0 -2,0 -3,-1 -3,-3 1,-9 10,-15 10,-15 1,-1 3,-1 4,0 1,2 0,3 -1,4 0,0 -7,5 -7,12 0,1 -2,2 -3,2z"/>
   <path class="fil0" d="M275 42c-2,0 -4,0 -6,-1 -2,0 -2,-2 -2,-3 0,-2 2,-3 3,-2 4,1 7,0 7,0 1,0 3,1 3,2 1,2 0,3 -2,3 0,0 -1,1 -3,1z"/>
   <path class="fil0" d="M527 397c-1,0 -3,-1 -3,-3 0,-1 1,-2 3,-2l20 -1 -5 -42c0,-1 1,-3 2,-3 2,0 3,1 3,2l5 45c0,1 0,2 0,2 -1,1 -2,1 -2,1l-23 1c0,0 0,0 0,0z"/>
   <path class="fil0" d="M525 366c-2,0 -3,-1 -3,-2 0,-2 1,-3 2,-3l22 -2c1,0 3,1 3,3 0,1 -1,2 -3,3l-21 1c0,0 0,0 0,0z"/>
   <path class="fil0" d="M525 376c-1,0 -2,-1 -2,-2 0,-1 1,-3 2,-3l22 -2c1,0 3,1 3,2 0,1 -1,3 -3,3l-21 2c0,0 0,0 -1,0z"/>
   <path class="fil0" d="M526 388c-1,0 -2,-1 -2,-2 0,-2 1,-3 2,-3l22 -3c2,0 3,1 3,3 0,1 -1,2 -2,2l-22 3c0,0 -1,0 -1,0z"/>
   <path class="fil0" d="M173 305c-16,0 -22,-13 -24,-19 -1,-6 -1,-12 2,-17 3,-4 8,-9 20,-11 2,-1 4,1 4,3 0,2 -1,3 -3,4 -7,1 -12,4 -15,8 -2,3 -2,7 -1,11 4,12 13,16 26,13 8,-3 13,-6 15,-12 3,-5 3,-12 1,-18 -1,-3 -2,-5 -4,-5 -3,-2 -7,0 -9,0 -1,1 -3,0 -4,-2 -1,-1 0,-4 2,-4 0,-1 7,-4 14,-1 3,2 6,5 8,9 3,8 2,17 -1,24 -4,8 -11,13 -20,15 -4,1 -7,2 -11,2z"/>
   <path class="fil1" d="M120 236c0,0 5,-8 6,-21 1,-14 3,-38 40,-41 37,-4 43,5 48,19 4,13 5,20 10,23 4,3 4,3 5,3 1,0 -7,-42 -23,-49 -16,-8 -40,-6 -61,0 -22,6 -29,25 -25,66z"/>
  </g>
 </g>
</svg>
